<?xml version="1.0" encoding="UTF-8" standalone="no"?>
<!-- Created with Inkscape (http://www.inkscape.org/) -->

<svg
   xmlns:dc="http://purl.org/dc/elements/1.1/"
   xmlns:cc="http://creativecommons.org/ns#"
   xmlns:rdf="http://www.w3.org/1999/02/22-rdf-syntax-ns#"
   xmlns:svg="http://www.w3.org/2000/svg"
   xmlns="http://www.w3.org/2000/svg"
   xmlns:sodipodi="http://sodipodi.sourceforge.net/DTD/sodipodi-0.dtd"
   xmlns:inkscape="http://www.inkscape.org/namespaces/inkscape"
   width="25cm"
   height="24cm"
   viewBox="0 0 250 239.99999"
   version="1.1"
   id="svg3906"
   inkscape:version="0.92.4 (5da689c313, 2019-01-14)"
   sodipodi:docname="flower_9.svg">
  <defs
     id="defs3900" />
  <sodipodi:namedview
     id="base"
     pagecolor="#ffffff"
     bordercolor="#666666"
     borderopacity="1.0"
     inkscape:pageopacity="0.0"
     inkscape:pageshadow="2"
     inkscape:zoom="0.49497475"
     inkscape:cx="31.309514"
     inkscape:cy="239.67924"
     inkscape:document-units="mm"
     inkscape:current-layer="surface6361-3"
     showgrid="false"
     units="cm"
     showguides="false"
     inkscape:window-width="1920"
     inkscape:window-height="986"
     inkscape:window-x="-11"
     inkscape:window-y="-11"
     inkscape:window-maximized="1"
     inkscape:object-paths="true"
     inkscape:snap-intersection-paths="true"
     inkscape:snap-smooth-nodes="true"
     inkscape:snap-midpoints="true" />
  <metadata
     id="metadata3903">
    <rdf:RDF>
      <cc:Work
         rdf:about="">
        <dc:format>image/svg+xml</dc:format>
        <dc:type
           rdf:resource="http://purl.org/dc/dcmitype/StillImage" />
        <dc:title />
      </cc:Work>
    </rdf:RDF>
  </metadata>
  <g
     inkscape:label="Ebene 1"
     inkscape:groupmode="layer"
     id="layer1"
     transform="translate(0,-57.000015)">
    <g
       id="XMLID_604_"
       transform="matrix(0.80014806,0,0,0.79041593,-101.09553,-8.8194339)">
      <path
         id="XMLID_3629_"
         class="st2"
         d="m 251.46519,209.89081 c 5.09896,-9.72672 12.88977,-14.40107 23.19496,-13.8805"
         inkscape:connector-curvature="0"
         style="fill:none;stroke:#0000ff;stroke-miterlimit:10"
         sodipodi:nodetypes="cc" />
      <path
         id="XMLID_3634_"
         class="st2"
         d="m 243.2323,250.39634 c -6.51772,-6.96244 -5.89882,-21.49141 0.66101,-29.76038"
         inkscape:connector-curvature="0"
         style="fill:none;stroke:#0000ff;stroke-miterlimit:10"
         sodipodi:nodetypes="cc" />
      <path
         id="XMLID_3624_"
         class="st2"
         d="m 274.75309,273.93264 c -11.11059,-1.56402 -15.32794,-2.62931 -23.31663,-11.8179"
         inkscape:connector-curvature="0"
         style="fill:none;stroke:#0000ff;stroke-miterlimit:10"
         sodipodi:nodetypes="cc" />
      <path
         id="XMLID_3631_"
         class="st2"
         d="m 311.11941,260.47652 c -7.33338,10.98681 -13.65008,12.55282 -23.11977,13.99154"
         inkscape:connector-curvature="0"
         style="fill:none;stroke:#0000ff;stroke-miterlimit:10"
         sodipodi:nodetypes="cc" />
      <path
         id="XMLID_3630_"
         class="st2"
         d="m 318.33897,219.82406 c 4.48771,15.26181 4.13103,17.97644 0.26145,30.03625"
         inkscape:connector-curvature="0"
         style="fill:none;stroke:#0000ff;stroke-miterlimit:10"
         sodipodi:nodetypes="cc" />
      <path
         id="XMLID_3018_"
         class="st2"
         d="m 287.69854,196.0217 c 12.30766,1.96853 15.48636,2.47927 22.25133,11.81982"
         inkscape:connector-curvature="0"
         style="fill:none;stroke:#0000ff;stroke-miterlimit:10"
         sodipodi:nodetypes="cc" />
    </g>
    <path
       class="st0"
       d="M -144.02353,349.3515"
       id="path988"
       inkscape:connector-curvature="0"
       style="fill:none;stroke:#000000;stroke-width:0.10391925;stroke-miterlimit:10" />
    <path
       class="st0"
       d="M -138.48104,358.25848"
       id="path990"
       inkscape:connector-curvature="0"
       style="fill:none;stroke:#000000;stroke-width:0.10391925;stroke-miterlimit:10" />
    <g
       id="test_6_"
       transform="matrix(0.41730554,3.6012898e-4,-3.5730531e-4,0.41405451,-281.7061,268.11935)">
      <path
         class="st0"
         d="M 267.9,189.9"
         id="path1002"
         inkscape:connector-curvature="0"
         style="fill:none;stroke:#000000;stroke-width:0.25;stroke-miterlimit:10" />
      <path
         class="st0"
         d="M 293.9,189.9"
         id="path1004"
         inkscape:connector-curvature="0"
         style="fill:none;stroke:#000000;stroke-width:0.25;stroke-miterlimit:10" />
      <path
         id="XMLID_24_"
         class="st1"
         d="M 268.6,190.9"
         inkscape:connector-curvature="0"
         style="fill:none;stroke:#336699;stroke-width:0.75;stroke-miterlimit:10" />
      <path
         id="XMLID_23_"
         class="st1"
         d="M 293.7,190.9"
         inkscape:connector-curvature="0"
         style="fill:none;stroke:#336699;stroke-width:0.75;stroke-miterlimit:10" />
    </g>
    <g
       id="test_5_-3"
       transform="matrix(0.41730554,3.6012898e-4,3.5730531e-4,-0.41405451,6.360037,261.61742)">
      <path
         class="st0"
         d="M 294.7,280.2"
         id="path1009-2"
         inkscape:connector-curvature="0"
         style="fill:none;stroke:#000000;stroke-width:0.25;stroke-miterlimit:10" />
      <path
         class="st0"
         d="M 268.7,280.2"
         id="path1011-7"
         inkscape:connector-curvature="0"
         style="fill:none;stroke:#000000;stroke-width:0.25;stroke-miterlimit:10" />
      <path
         id="XMLID_16_-4"
         class="st1"
         d="m 269.1,279.2 h -0.3"
         inkscape:connector-curvature="0"
         style="fill:none;stroke:#336699;stroke-width:0.75;stroke-miterlimit:10" />
      <path
         id="XMLID_15_-2"
         class="st1"
         d="m 293.9,279.2 h -0.4"
         inkscape:connector-curvature="0"
         style="fill:none;stroke:#336699;stroke-width:0.75;stroke-miterlimit:10" />
      <path
         id="XMLID_14_-7"
         class="st1"
         d="m 268.9,279.2 c -2.9,1.6 -8.9,46.1 -11.2,50.4 -1.2,2.3 -9.4,19.5 -9.4,19.5 -6.7,9.3 -7.4,22.7 -7.7,34 l 0.8,11.3 c 2.3,12.4 5,23.5 14.5,31.5 l 21.6,20.7 c 1,1 2.1,2.1 3.9,2.2 1.8,0 3,-1.2 4,-2.2 L 307,425.9 c 9.4,-8 12.2,-19.2 14.5,-31.5 l 0.9,-11.3 c -0.3,-11.4 -1,-24.7 -7.7,-34 0,0 -8.2,-17.2 -9.4,-19.5 -2.3,-4.3 -8.3,-48.9 -11.2,-50.4"
         inkscape:connector-curvature="0"
         style="fill:none;stroke:#336699;stroke-width:0.75;stroke-miterlimit:10" />
    </g>
    <g
       id="XMLID_605_-6"
       transform="matrix(0.98001923,-0.20271875,0.2051647,0.99185343,-198.22942,-0.89891599)">
      <ellipse
         class="st2"
         cx="279.55362"
         cy="236.34492"
         id="circle992-3"
         style="fill:none;stroke:#0000ff;stroke-width:1.31072474;stroke-miterlimit:10"
         rx="20.310575"
         ry="20.06052" />
    </g>
    <path
       class="st0"
       d="M 163.03335,146.02305"
       id="path988-8"
       inkscape:connector-curvature="0"
       style="fill:none;stroke:#000000;stroke-width:0.19881678;stroke-miterlimit:10" />
    <path
       class="st0"
       d="M 173.67532,163.01698"
       id="path990-3"
       inkscape:connector-curvature="0"
       style="fill:none;stroke:#000000;stroke-width:0.19881678;stroke-miterlimit:10" />
    <g
       id="test_6_-3"
       transform="matrix(0.80014806,0,0,0.79041593,-101.09553,-8.8194339)">
      <path
         class="st0"
         d="M 267.9,189.9"
         id="path1002-5"
         inkscape:connector-curvature="0"
         style="fill:none;stroke:#000000;stroke-width:0.25;stroke-miterlimit:10" />
      <path
         class="st0"
         d="M 293.9,189.9"
         id="path1004-2"
         inkscape:connector-curvature="0"
         style="fill:none;stroke:#000000;stroke-width:0.25;stroke-miterlimit:10" />
      <path
         id="XMLID_24_-2"
         class="st1"
         d="M 268.6,190.9"
         inkscape:connector-curvature="0"
         style="fill:none;stroke:#336699;stroke-width:0.75;stroke-miterlimit:10" />
      <path
         id="XMLID_23_-7"
         class="st1"
         d="M 293.7,190.9"
         inkscape:connector-curvature="0"
         style="fill:none;stroke:#336699;stroke-width:0.75;stroke-miterlimit:10" />
    </g>
    <g
       id="test_5_-3-2"
       transform="matrix(0.26903885,0.37960682,0.56144467,-0.39851067,-82.203092,164.63074)">
      <path
         class="st0"
         d="M 294.7,280.2"
         id="path1009-2-2"
         inkscape:connector-curvature="0"
         style="fill:none;stroke:#000000;stroke-width:0.25;stroke-miterlimit:10" />
      <path
         class="st0"
         d="M 268.7,280.2"
         id="path1011-7-3"
         inkscape:connector-curvature="0"
         style="fill:none;stroke:#000000;stroke-width:0.25;stroke-miterlimit:10" />
      <path
         id="XMLID_16_-4-2"
         class="st1"
         d="m 269.1,279.2 h -0.3"
         inkscape:connector-curvature="0"
         style="fill:none;stroke:#336699;stroke-width:0.75;stroke-miterlimit:10" />
      <path
         id="XMLID_15_-2-0"
         class="st1"
         d="m 293.9,279.2 h -0.4"
         inkscape:connector-curvature="0"
         style="fill:none;stroke:#336699;stroke-width:0.75;stroke-miterlimit:10" />
      <path
         id="XMLID_14_-7-0"
         class="st1"
         d="m 268.9,279.2 c -2.9,1.6 -8.9,46.1 -11.2,50.4 -1.2,2.3 -9.4,19.5 -9.4,19.5 -6.7,9.3 -7.4,22.7 -7.7,34 l 0.8,11.3 c 2.3,12.4 5,23.5 14.5,31.5 l 21.6,20.7 c 1,1 2.1,2.1 3.9,2.2 1.8,0 3,-1.2 4,-2.2 L 307,425.9 c 9.4,-8 12.2,-19.2 14.5,-31.5 l 0.9,-11.3 c -0.3,-11.4 -1,-24.7 -7.7,-34 0,0 -8.2,-17.2 -9.4,-19.5 -2.3,-4.3 -8.3,-48.9 -11.2,-50.4"
         inkscape:connector-curvature="0"
         style="fill:none;stroke:#336699;stroke-width:0.75;stroke-miterlimit:10" />
    </g>
    <g
       id="surface6361-3"
       transform="translate(-53.798157,152.02357)">
      <path
         sodipodi:nodetypes="cccccccccccccccccccccccccccccccccccccccccccccccccccccccccccccccccccccccccccccccccccccccccccccccccccccccccccccccccccccccccccccccccccccccccccccccccccccccccccccccccccccccccccccccccccccccccccccccccccccccccccccccccccccccccccccccccccccccccccccccccccccccccccccccccccccccccccccccccccccccccccccccccccccccccccccccccccccccccccccccccccccccccccccccccccccccccccccccccccccccccccccccccccccccccccccccccccccccccccccccccccccccccccccccccccccccccccccccccccccccccccccccccccccccccccc"
         inkscape:connector-curvature="0"
         d="m 180.29601,-74.38265 -2.8862,0.02089 m -2.92082,0.687029 4.98987,-0.01086 m 2.31427,0.728973 -6.65306,0.01806 m -2.19472,0.729086 7.11229,-0.0057 m 1.34441,0 1.18053,0.01049 m 0.73466,0.699768 -8.695,0.01316 m -1.34441,0 -1.07262,-0.01518 m -0.75568,0.717308 8.60811,0.02129 m 1.34441,0 2.66296,-0.02431 m 0.73239,0.69761 -10.17516,0.05012 m -1.34441,0 -2.57951,-0.03163 m -0.81747,0.775964 10.17679,-0.02092 m 1.34441,0 4.17434,-0.03153 m 1.25581,0.754948 h -12.20996 m -1.34441,0 -4.15239,0.01455 m -0.7488,0.710788 11.681,-0.0019 m 1.34441,0 5.73221,0.0055 m -0.30206,0.717878 h -12.20996 m -1.34441,0 -5.64559,-0.01489 m 0.21544,0.738302 h 12.20996 m 1.34441,0 7.29131,0.0209 m 0.73997,0.709722 -1.25673,-0.0072 m -1.3444,0 h -12.20996 m -1.34441,0 -7.17008,-0.04455 m -0.69874,0.764257 1.09426,0.0037 m 1.34441,0 h 12.20996 m 1.34441,0 8.71805,0.04912 m 0.52542,0.672939 -2.46892,0.0014 m -1.3444,0 h -12.20996 m -1.34441,0 -8.43796,-0.0071 m -0.51848,0.753153 2.18188,-0.02265 m 1.34441,0 h 12.20996 m 1.34441,0 9.74215,0.002 m 0.4283,0.709104 -3.3959,0.01233 m -1.3444,0 h -12.20996 m -1.34441,0 -9.37306,-0.01133 m -0.41182,0.774072 3.01032,-0.03933 m 1.34441,0 h 12.20996 m 1.34441,0 10.53455,-0.05676 m 0.36857,0.774969 -4.12857,0.0052 m -1.3444,0 h -12.20996 m -1.34441,0 -10.13604,0.06614 m -0.28246,0.677519 3.64394,-0.02025 m 1.34441,0 h 12.20996 m 1.34441,0 11.21645,0.01502 m 0.2701,0.716913 -4.712,-0.0085 m -1.3444,0 h -12.20996 m -1.34441,0 -10.68766,0.01646 m -0.24171,0.719356 4.15481,-0.0124 m 1.34441,0 h 12.20996 m 1.34441,0 11.73103,0.0061 m 0.20681,0.672203 -5.16329,0.04512 m -1.3444,0 h -12.20996 m -1.34441,0 -11.1435,-0.0064 m -0.19684,0.711258 4.56578,0.0186 m 1.34441,0 h 12.20996 m 1.34441,0 h 12.2047 m 0.13935,0.748674 -5.5695,-0.02526 m -1.3444,0 h -12.20996 m -1.34441,0 -11.52294,-0.02188 m -0.17209,0.735475 4.92047,0.0098 m 1.34441,0 h 12.20996 m 1.34441,0 h 12.2047 m 0.46442,0.731464 -5.89457,-0.0081 m -1.3444,0 h -12.20996 m -1.34441,0 -11.85636,0.0075 m -0.14483,0.705444 5.22663,0.01052 m 1.34441,0 h 12.20996 m 1.34441,0 h 12.2047 m 0.75414,0.722669 -6.18429,7.46e-4 m -1.3444,0 h -12.20996 m -1.34441,0 -12.14553,0.0034 m -0.11235,0.735487 5.48332,-0.0155 m 1.34441,0 h 12.20996 m 1.34441,0 h 12.2047 m 0.9275,0.712158 -6.35765,0.01125 m -1.3444,0 h -12.20996 m -1.34441,0 -12.30917,0.0023 m -0.0529,0.732954 5.58755,-0.01181 m 1.34441,0 h 12.20996 m 1.34441,0 h 12.2047 m 1.04186,0.705643 -6.47201,0.01777 m -1.3444,0 h -12.20996 m -1.34441,0 h -12.2047 m -0.26227,0.740443 5.69241,-0.01703 m 1.34441,0 h 12.20996 m 1.34441,0 h 12.2047 m 1.15915,0.735866 -6.5893,-0.01245 m -1.3444,0 h -12.20996 m -1.34441,0 h -12.2047 m -0.36629,0.733849 5.79643,-0.01044 m 1.34441,0 h 12.20996 m 1.34441,0 h 12.2047 m 1.21071,0.736382 -6.64086,-0.01297 m -1.3444,0 h -12.20996 m -1.34441,0 h -12.2047 m -0.33465,0.715828 5.76479,0.0076 m 1.34441,0 h 12.20996 m 1.34441,0 h 12.2047 m 1.15778,0.711174 -6.58793,0.01224 m -1.3444,0 h -12.20996 m -1.34441,0 h -12.2047 m -0.2699,0.719803 5.70004,0.0036 m 1.34441,0 h 12.20996 m 1.34441,0 h 12.2047 m 1.07539,0.728689 -6.50554,-0.0053 m -1.3444,0 h -12.20996 m -1.34441,0 h -12.2047 m -0.1694,0.739178 5.59954,-0.01577 m 1.34441,0 h 12.20996 m 1.34441,0 h 12.2047 m 0.96644,0.682072 -6.39659,0.04134 m -1.3444,0 h -12.20996 m -1.34441,0 -12.06887,0.0059 m -0.16154,0.707625 5.45585,0.0099 m 1.34441,0 h 12.20996 m 1.34441,0 h 12.2047 m 0.80107,0.735226 -6.23122,-0.01181 m -1.3444,0 h -12.20996 m -1.34441,0 -12.13165,0.01665 m 0.10492,0.675476 5.25217,0.03128 m 1.34441,0 h 12.20996 m 1.34441,0 h 12.2047 m 0.55893,0.693885 -5.98908,0.02953 m -1.3444,0 h -12.20996 m -1.34441,0 -11.8945,-0.02655 m 0.1578,0.741984 4.96214,0.008 m 1.34441,0 h 12.20996 m 1.34441,0 h 12.2047 m 0.14552,0.711605 -5.57567,0.01181 m -1.3444,0 h -12.20996 m -1.34441,0 -11.55627,-0.0036 m 0.19949,0.695744 4.58222,0.03127 m 1.34441,0 h 12.20996 m 1.34441,0 h 12.2047 m -0.23836,0.705692 -5.19179,0.01772 m -1.3444,0 h -12.20996 m -1.34441,0 -11.11235,-0.01722 m 0.28119,0.731775 4.0566,0.0089 m 1.34441,0 h 12.20996 m 1.34441,0 11.69089,-0.01772 m -0.34467,0.741129 h -4.57167 m -1.3444,0 h -12.20996 m -1.34441,0 -10.5078,-0.0063 m 0.3639,0.704886 3.36934,0.02487 m 1.34441,0 h 12.20996 m 1.34441,0 10.96447,-0.01772 m -0.40964,0.741128 h -3.78028 m -1.3444,0 h -12.20996 m -1.34441,0 -9.71188,-0.02905 m 0.46181,0.753386 2.47551,-9.24e-4 m 1.34441,0 h 12.20996 m 1.34441,0 10.11869,0.01265 m -0.36146,0.694065 -2.98268,0.0167 m -1.3444,0 h -12.20996 m -1.34441,0 -8.89207,0.0232 m 0.34377,0.715342 1.77374,-0.01513 m 1.34441,0 h 12.20996 m 1.34441,0 9.36988,0.02362 m -0.29152,0.711598 -2.30381,-0.01181 m -1.3444,0 h -12.20996 m -1.34441,0 -8.20498,0.0054 m 0.34415,0.714698 1.08627,0.0033 m 1.34441,0 h 12.20996 m 1.34441,0 8.69547,-0.005 m -0.34707,0.716749 -1.57385,0.01161 m -1.3444,0 h -12.20996 m -1.34441,0 -7.49515,0.03176 m 0.33351,0.690689 0.38708,9.6e-4 m 1.34441,0 h 12.20996 m 1.34441,0 7.98133,0.02188 m -0.33547,0.690419 -0.87131,0.01112 m -1.3444,0 h -12.20996 m -1.34441,0 -6.85491,-0.09025 m 1.42476,0.813659 h 12.20996 m 1.34441,0 7.27281,0.0312 m -1.84266,0.692207 h -12.20996 m -1.34441,0 -6.15819,-0.102884 m 0.72804,0.826304 h 12.20996 m 1.34441,0 6.5473,0.06095 m -1.11715,0.662456 h -12.20996 m -1.34441,0 -5.38928,0.01416 m 0.22219,0.705224 11.9469,0.004 m 1.34441,0 5.98225,0.0076 m -0.5521,0.715774 h -12.20996 m -1.34441,0 -4.98772,-0.0041 m 0.16117,0.724739 11.60636,0.0028 m 1.34441,0 5.63655,0.02138 m -0.16207,0.774323 -12.25429,-0.07229 m -1.34441,0 -4.68896,-0.06699 m 0.1513,0.757264 11.31747,0.03314 m 1.34441,0 5.33166,0.06204 m -0.12621,0.648682 -11.98526,0.0127 m -1.34441,0 -4.40684,-0.08057 m 0.13899,0.734805 11.04766,0.06917 m 1.34441,0 5.06894,-0.01932 m -0.13674,0.730312 -11.71201,0.01242 m -1.34441,0 -4.12914,-0.04611 m 0.13694,0.746471 10.77201,0.02306 m 1.34441,0 4.79937,-0.01768 m -0.14321,0.78111 -11.43597,-0.04002 m -1.34441,0 -3.86026,-0.02087 m 0.13298,0.735389 10.50709,0.0089 m 1.34441,0 4.53347,-0.01059 m -0.13996,0.769512 -11.17332,-0.03551 m -1.34441,0 -3.60126,-0.03353 m 0.13791,0.764962 10.24316,-0.008 m 1.34441,0 4.26138,0.03865 m -0.12494,0.685651 -10.91625,-8.89e-4 m -1.34441,0 -3.33325,0.0047 m 0.1322,0.728456 9.98086,-0.0097 m 1.34441,0 4.00591,-0.0093 m -0.13945,0.756831 -10.64627,-0.02409 m -1.34441,0 -3.0721,-0.0079 m 0.12575,0.682329 9.72616,0.04896 m 1.34441,0 3.7399,-0.01856 m -0.14564,0.774097 -10.37407,-0.03213 m -1.34441,0 -2.80293,-0.0033 m 0.14087,0.743858 h 12.20996 m -1.42368,-0.01719 3.45574,0.0339 m -0.13649,0.701729 -10.09906,-0.01221 m -1.34441,0 -2.52625,-0.0021 m 0.14059,0.713069 9.16547,0.0124 m 1.34441,0 3.18136,-0.01736 m -0.14702,0.720248 -9.81415,0.02052 m -1.34441,0 -2.24745,-0.05314 m 0.15771,0.753018 8.86955,0.02353 m 1.34441,0 2.87583,0.0062 m -0.15422,0.6989037 -9.50142,0.01835 m -1.34441,0 -1.92256,0.0158"
         style="fill:none;stroke:#000000;stroke-width:0.27893561;stroke-linecap:butt;stroke-linejoin:miter;stroke-miterlimit:10;stroke-opacity:1"
         id="path5144" />
      <path
         sodipodi:nodetypes="cccccccccccccccccccccccccccccccccccccccccccccccccccccccccccccccccccccccccccccccccccccccccccccccccccccccccccccccccccccccccccccccccccccccccccccccccccccccccccccccccccccccccccccccccccccccccccccccccccccccccccccccccccccccccccccccccccccccccccccccccccccccccccccccccccccccccccccccccccccccccccccccccccccccccccccccccccccccccccccccccccccccccccccccccccccccccccccccccccccccccccccccccccccccccccccccccccccccccccccccccccccccccccccccccccccccccccccccccccccccccccccccccccccccccccccccccccccccccccccccccccccccccccccccccccccccccccccccccccccccccccccccccccccccccccccccccccccccccccccccccccccccccccccccccccccccccccccccccccccccccccccccccccccccccccccccccccccccccccccccccccccccccccccccccccccccccccccccccccccccccccccccccccccccccccc"
         inkscape:connector-curvature="0"
         d="m 295.90954,-60.023731 1.46722,2.083802 m 1.04569,2.88545 -2.21114,-3.117128 m -2.35412,-1.846016 3.44423,4.804538 m 0.45165,2.053545 -3.77142,-5.301107 m -2.0412,-1.55175 4.04643,5.73351 m 0.86833,1.221842 0.56905,0.829031 m -0.31807,0.900412 -5.28702,-7.424139 m -1.88351,-1.255219 4.73623,6.662589 m 0.86833,1.221841 1.22532,1.759052 m -0.2998,0.848694 -5.96191,-8.302199 m -0.86832,-1.221839 -0.71939,-0.964922 m -0.9427,0.0027 5.38375,7.591028 m 0.86831,1.221842 1.89976,2.637792 m -0.33357,0.944266 -6.60224,-9.276744 m -0.86832,-1.221841 -1.3459,-1.893865 m -0.96092,0.0028 7.88608,11.096781 m -0.98953,-1.354878 2.55918,3.558941 m -0.32559,0.921625 -7.26991,-10.175063 m -0.86831,-1.221839 -2.00601,-2.822701 m -1.057,0.003 7.8861,11.096781 m -0.23334,-0.426318 3.20502,4.51759 m -0.35566,0.88498 -7.88611,-11.096773 m -0.8683,-1.22184 -2.6661,-3.751552 m -0.9875,0.0028 7.37503,10.37765 m 0.86834,1.221842 3.85098,5.477546 m -1.00125,-0.07523 -7.88611,-11.096774 m -0.86831,-1.221839 -3.32619,-4.680377 m -0.98751,0.0028 8.03514,11.306493 m 0.86831,1.22184 4.54198,6.309328 m -0.33152,1.000836 -0.49245,-0.685989 m -0.8683,-1.221839 -7.88611,-11.096773 m -0.86831,-1.22184 -4.00395,-5.634085 m -0.16076,1.166225 7.88611,11.096782 m 0.8683,1.221838 5.19348,7.341343 m -0.35495,0.892397 -1.12047,-1.60959 m -0.86832,-1.221841 -7.88609,-11.096771 m -0.86832,-1.221841 -4.64821,-6.540642 m -0.93475,0.07704 0.54998,0.773905 m 0.86832,1.22184 7.8861,11.096782 m 0.86831,1.22184 5.77321,8.146912 m -0.40865,0.821619 -1.6465,-2.344383 m -0.86832,-1.22184 -7.8861,-11.096773 m -0.8683,-1.221838 -5.17771,-7.285712 m -0.88747,0.143584 1.03219,1.452436 m 0.86832,1.221841 7.8861,11.096783 m 0.86833,1.221838 6.26733,8.792563 m -0.44073,0.750958 -2.10856,-2.919373 m -0.8683,-1.221839 -7.88611,-11.096774 m -0.86833,-1.221841 -5.61798,-7.905244 m -0.85012,0.196131 1.43514,2.019424 m 0.86832,1.221838 7.8861,11.096782 m 0.86832,1.22184 6.66901,9.359388 m -0.50184,0.747054 -2.44914,-3.482286 m -0.86831,-1.221839 -7.88609,-11.096774 m -0.86832,-1.221841 -5.98755,-8.425257 m -0.82019,0.238247 1.77477,2.497319 m 0.86831,1.221841 7.88611,11.096781 m 0.86831,1.221842 6.99383,9.858568 m -0.49467,0.661962 -2.78107,-3.896405 m -0.86834,-1.221844 -7.88608,-11.096769 m -0.86832,-1.221841 -6.30025,-8.865303 m -0.79599,0.272304 2.06327,2.903306 m 0.86832,1.22184 7.8861,11.096782 m 0.86832,1.22184 7.28055,10.268055 m -0.49508,0.607667 -3.06742,-4.251569 m -0.86832,-1.221841 -7.8861,-11.096774 m -0.86832,-1.22184 -6.56699,-9.240614 m -0.77633,0.299956 2.31033,3.250966 m 0.86834,1.221842 7.88609,11.096781 m 0.86833,1.221842 7.52023,10.626972 m -0.55038,0.627929 -3.25182,-4.630753 m -0.8683,-1.22184 -7.8861,-11.096772 m -0.86831,-1.22184 -6.79636,-9.56335 m -0.76038,0.322395 2.52376,3.551264 m 0.86832,1.221841 7.8861,11.096782 m 0.86831,1.221839 7.75624,10.905577 m -0.56891,0.612872 -3.4693,-4.894277 m -0.86833,-1.221843 -7.88608,-11.09677 m -0.86833,-1.221843 -6.99541,-9.843467 m -0.74752,0.340507 2.70997,3.813272 m 0.8683,1.221839 7.88611,11.096781 m 0.86831,1.221842 7.88272,11.092002 m -0.52253,0.678158 -3.64212,-5.146011 m -0.86834,-1.221841 -7.88609,-11.096772 m -0.86832,-1.221841 -7.1701,-10.08928 m -0.73727,0.354941 2.87439,4.044646 m 0.86834,1.221842 7.88608,11.096781 m 0.86833,1.221843 7.88271,11.092001 m -0.36001,0.893172 -3.80468,-5.360999 m -0.86833,-1.221841 -7.88609,-11.096774 m -0.86833,-1.221841 -7.32542,-10.30786 m -0.72926,0.366214 3.02172,4.251955 m 0.86832,1.22184 7.88611,11.096783 m 0.8683,1.221839 7.88272,11.092002 m -0.21726,1.091247 -3.94739,-5.559119 m -0.86832,-1.221842 -7.88609,-11.096771 m -0.86832,-1.221841 -7.46577,-10.505325 m -0.72322,0.374707 3.15602,4.440926 m 0.86831,1.22184 7.8861,11.096782 m 0.86832,1.221842 7.88271,11.092001 m -0.0744,1.262195 -4.09023,-5.730043 m -0.86833,-1.22184 -7.88609,-11.096773 m -0.86831,-1.22184 -7.59494,-10.687063 m -0.71894,0.380712 3.28086,4.616622 m 0.86834,1.221842 7.8861,11.09678 m 0.86831,1.221842 7.88271,11.092 m 0.0311,1.448568 -4.19572,-5.91643 m -0.8683,-1.221839 -7.88611,-11.096775 m -0.8683,-1.221838 -7.7163,-10.857824 m -0.69407,0.415705 3.37741,4.752474 m 0.86833,1.22184 7.88609,11.09678 m 0.86832,1.221841 7.88271,11.092004 m 0.10046,1.535712 -4.26515,-6.003552 m -0.86832,-1.22184 -7.88609,-11.096773 m -0.86832,-1.221841 -7.77558,-10.941236 m -0.68004,0.435426 3.42266,4.816146 m 0.86832,1.221841 7.88611,11.096782 m 0.8683,1.221839 7.88272,11.092004 m 0.16032,1.597718 -4.32498,-6.065572 m -0.86831,-1.22184 -7.8861,-11.096773 m -0.86831,-1.22184 -7.82082,-11.004909 m -0.68007,0.435424 3.46793,4.879819 m 0.86832,1.221843 7.8861,11.09678 m 0.86833,1.221842 7.88269,11.092 m 0.21086,1.689076 -4.37552,-6.156925 m -0.86832,-1.221842 -7.88609,-11.096772 m -0.86832,-1.221841 -7.86607,-11.06858 m -0.68005,0.435425 3.51317,4.943492 m 0.86831,1.221839 7.88611,11.096784 m 0.86831,1.221841 7.88271,11.092 m 0.25038,1.74522 -4.41504,-6.213072 m -0.86832,-1.221842 -7.88609,-11.096771 m -0.86832,-1.221841 -7.91131,-11.132254 m -0.68006,0.435427 3.55842,5.007172 m 0.86832,1.221842 7.8861,11.09678 m 0.86832,1.221843 7.8827,11.091999 m 0.29078,1.822663 -4.45544,-6.290509 m -0.86832,-1.22184 -7.88609,-11.096773 m -0.86832,-1.22184 -7.95657,-11.195935 m -0.64991,0.477864 3.5735,5.028386 m 0.86833,1.221841 7.88609,11.096782 m 0.86833,1.221841 7.8827,11.092001 m 0.28455,1.793001 -4.4492,-6.26085 m -0.86832,-1.221842 -7.8861,-11.096772 m -0.86831,-1.221841 -7.93954,-11.171968 m -0.64667,0.482412 3.55321,4.999838 m 0.86831,1.22184 7.88612,11.096784 m 0.86831,1.221838 7.88271,11.092004 m 0.26019,1.759536 -4.42485,-6.227388 m -0.86833,-1.221842 -7.88608,-11.096771 m -0.86833,-1.221842 -7.91627,-11.139233 m -0.64305,0.487501 3.52633,4.962015 m 0.86832,1.221841 7.8861,11.096782 m 0.86832,1.221838 7.8827,11.092004 m 0.21087,1.689074 -4.37551,-6.156925 m -0.86833,-1.221842 -7.88611,-11.096773 m -0.8683,-1.22184 -7.88272,-11.092011 m -0.64067,0.490864 3.49041,4.911458 m 0.86832,1.221839 7.88609,11.096783 m 0.86834,1.221841 7.88269,11.091998 m 0.21086,1.689077 -4.37551,-6.156925 m -0.86831,-1.22184 -7.8861,-11.096774 m -0.86834,-1.221841 -7.84378,-11.037252 m -0.63214,0.502859 3.44297,4.84472 m 0.86833,1.221841 7.88609,11.096782 m 0.86833,1.22184 7.8827,11.092001 m 0.13191,1.579579 -4.29657,-6.047429 m -0.86832,-1.221841 -7.88609,-11.096771 m -0.86833,-1.221841 -7.78967,-10.961094 m -0.62476,0.513222 3.38149,4.758217 m 0.86832,1.221839 7.88611,11.096783 m 0.86831,1.221839 7.88271,11.092003 m 0.0666,1.478693 -4.2312,-5.946531 m -0.86831,-1.221841 -7.8861,-11.096772 m -0.86832,-1.22184 -7.72016,-10.863285 m -0.61607,0.525489 3.30325,4.648086 m 0.86832,1.221841 7.8861,11.096782 m 0.8683,1.221838 7.88272,11.092005 m -0.0463,1.368746 -4.11846,-5.836605 m -0.86831,-1.221841 -7.8861,-11.096771 m -0.86831,-1.221841 -7.63238,-10.739757 m -0.60573,0.540029 3.20511,4.509999 m 0.86831,1.221838 7.8861,11.096783 m 0.86832,1.221839 7.88271,11.092003 m -0.13826,1.204502 -4.02636,-5.672345 m -0.86832,-1.221842 -7.88609,-11.096772 m -0.86833,-1.221839 -7.523,-10.585874 m -0.59353,0.557208 3.08357,4.338965 m 0.8683,1.22184 7.88612,11.096783 m 0.8683,1.221839 7.88272,11.092004 m -0.28229,1.018687 -3.88237,-5.486539 m -0.86833,-1.221843 -7.88609,-11.096772 m -0.86832,-1.221841 -7.38822,-10.396209 m -0.57912,0.577475 2.93436,4.129043 m 0.86833,1.221842 7.88609,11.09678 m 0.86832,1.221841 7.88272,11.092004 m -0.45199,0.7877644 -3.71268,-5.2556154 m -0.86831,-1.221839 -7.88611,-11.096773 m -0.86831,-1.221841 -7.22335,-10.164212 m -0.562,0.601568 2.75237,3.872952 m 0.86832,1.221841 7.8861,11.096782 m 0.86833,1.221841 7.8827,11.0920014 m -0.63812,0.4979517 -3.52655,-4.9657681 m -0.86832,-1.221839 -7.8861,-11.096774 m -0.86831,-1.221839 -7.02263,-9.88176 m -0.54139,0.630561 2.53104,3.561507 m 0.86832,1.221841 7.8861,11.096782 m 0.86834,1.22184 7.78025,10.9611411 m -0.78465,0.2863187 -3.27757,-4.6233128 m -0.86831,-1.22184 -7.8861,-11.096773 m -0.86832,-1.22184 -6.77855,-9.538312 m -0.51618,0.666013 2.26175,3.182604 m 0.86833,1.221841 7.88611,11.096782 m 0.86831,1.221841 7.48014,10.5911028 m -0.78607,0.2382742 -2.97606,-4.205211 m -0.8683,-1.221838 -7.8861,-11.096772 m -0.86831,-1.22184 -6.4812,-9.119878 m -0.48464,0.710403 1.93286,2.719784 m 0.86831,1.221839 7.88611,11.096783 m 0.86831,1.22184 7.1643,10.1221838 m -0.82048,0.1904244 -2.62577,-3.6884542 m -0.86833,-1.221843 -7.88609,-11.096771 m -0.86832,-1.22184 -6.11659,-8.606851 m -0.44387,0.767766 1.52749,2.149392 m 0.86831,1.221841 7.88611,11.096782 m 0.86831,1.221841 6.89401,9.5270351 m -0.88691,0.2498738 -2.28903,-3.1527612 m -0.86833,-1.2218427 -7.88609,-11.096771 m -0.86832,-1.221842 -5.74825,-8.088553 m -0.50704,0.678902 1.2223,1.719962 m 0.86834,1.221841 7.88608,11.096781 m 0.86834,1.221841 6.45517,9.1154443 m -0.79252,0.2494189 -1.94459,-2.7407268 m -0.86831,-1.2218394 -7.8861,-11.096774 m -0.86832,-1.221841 -5.44739,-7.665202 m -0.50685,0.679174 0.92127,1.296338 m 0.86831,1.22184 7.88612,11.096782 m 0.8683,1.221839 6.18669,8.6791613 m -0.80971,0.2545032 -1.65894,-2.3095107 m -0.86831,-1.2218404 -7.8861,-11.0967724 m -0.86831,-1.22184 -5.14607,-7.241187 m -0.50664,0.679463 0.61973,0.872032 m 0.86832,1.221841 7.8861,11.096781 m 0.86832,1.221842 5.82731,8.27074 m -0.76343,0.2395859 -1.34579,-1.8862027 m -0.86831,-1.2218394 -7.8861,-11.0967728 m -0.86833,-1.221842 -4.84431,-6.816581 m -0.50639,0.679809 2.00427,2.820273 m -0.81822,-1.151353 7.8861,11.096784 m 0.86832,1.221839 5.55524,7.8340947 m -0.79441,0.2488502 -1.04277,-1.4588128 m -0.86831,-1.2218387 -7.8861,-11.0967734 m -0.86831,-1.22184 -4.54203,-6.391231 m 0.37737,1.923382 7.8861,11.096781 m 0.86832,1.221841 5.28609,7.3955393 m -0.81707,0.2552854 -0.75097,-1.0266741 m -0.86833,-1.2218402 -7.88609,-11.0967724 m -0.86833,-1.221842 -4.23901,-5.964869 m 0.0744,1.49702 7.88611,11.096782 m 0.86832,1.22184 4.93221,6.9819867 m -0.80073,0.2491121 -0.41343,-0.6069454 m -0.86833,-1.2218419 -7.88609,-11.0967715 m -0.86832,-1.221838 -3.93494,-5.536978 m -0.22974,1.069123 7.8861,11.096783 m 0.86832,1.22184 4.62828,6.5503296 m -0.79029,0.2438067 -0.11995,-0.1699838 m -0.86831,-1.2218405 -7.88611,-11.096772 m -0.8683,-1.221839 -3.62878,-5.106157 m -0.5025,0.685291 7.85271,11.049795 m 0.86833,1.2218414 4.30288,6.1192047 m -1.45316,-0.7168957 -7.88609,-11.0967724 m -0.86832,-1.221839 -3.31884,-4.670034 m -0.55207,0.615517 7.59236,10.6834464 m 0.86833,1.2218404 4.10099,5.7257578 m -1.25128,-0.3234521 -7.88608,-11.0967705 m -0.86833,-1.221841 -3.12894,-4.402829 m -0.58179,0.573719 7.43217,10.4580461 m 0.86832,1.2218386 3.86191,5.5354499 m -1.01217,-0.1331402 -7.88609,-11.0967724 m -0.86833,-1.22184 -2.98277,-4.197134 m -0.59039,0.561622 7.2946,10.2644471 m 0.86833,1.221841 3.74492,5.3298962 m -0.89519,0.072412 -7.88611,-11.0967733 m -0.8683,-1.22184 -2.85108,-4.011831 m -0.59468,0.55557 7.16722,10.0852164 m 0.86832,1.2218401 3.67615,5.11803977 m -0.82644,0.28427689 -7.88609,-11.09677116 m -0.86832,-1.221841 -2.72699,-3.837227 m -0.59726,0.551935 7.0457,9.9142197 m 0.86831,1.2218399 3.54214,4.95154773 m -0.69241,0.4507519 -7.88608,-11.09677123 m -0.86833,-1.221841 -2.6075,-3.669093 m -0.59888,0.549667 6.92784,9.7483763 m 0.86832,1.2218417 3.41947,4.7862755 m -0.71321,0.3834785 -7.74261,-10.8642106 m -0.86833,-1.2218394 -2.49097,-3.505107 m -0.59995,0.548121 6.81234,9.5858769 m 0.86833,1.2218426 3.31674,4.6149144 m -0.74608,0.4028612 -7.60705,-10.7122143 m -0.86832,-1.2218401 -2.3763,-3.3437677 m -0.60055,0.5473 6.69834,9.4254419 m 0.86831,1.2218395 3.20916,4.4490519 m -0.71217,0.3854203 -7.53337,-10.5289649 m -0.86831,-1.2218406 -2.26277,-3.1840041 m -0.60095,0.546761 6.58513,9.2661423 m 0.86831,1.22184037 3.05345,4.31084483 m -0.69061,0.3741205 -7.39926,-10.3794466 m -0.86834,-1.221841 -2.1497,-3.0249224 m -0.60102,0.546671 6.47214,9.1071503 m 0.86832,1.22184126 2.93551,4.15269664 m -0.76475,0.4142367 -7.20712,-10.2613982 m -0.86831,-1.2218409 -2.03669,-2.8658871 m -0.60082,0.5469367 6.35894,8.94786984 m 0.86834,1.22184226 2.8003,4.0034698 m -0.71645,0.3874125 -7.12026,-10.085386 m -0.86834,-1.2218426 -1.92318,-2.7061781 m -0.71416,0.3874377 6.35879,8.94766133 m 0.86832,1.22184137 2.71635,3.8251534 m -0.71532,0.3859387 -7.03745,-9.90552 m -0.86833,-1.2218425 -1.80876,-2.5451771 m -0.5998,0.5483888 6.12997,8.6256726 m 0.86833,1.2218413 2.58201,3.6718031 m -0.66112,0.3552056 -6.95727,-9.7214844 m -0.86832,-1.2218398 -1.69291,-2.3821541 m -0.59882,0.5497613 6.01316,8.4613184 m 0.86833,1.2218422 2.46932,3.5033237 m -0.74566,0.3983326 -6.76002,-9.5961213 m -0.86832,-1.2218408 -1.42873,-2.010387 m -0.74381,0.3457127 5.89398,8.2936026 m 0.86832,1.2218415 2.3139,3.3529306 m -0.68885,0.3652036 -6.66138,-9.41257173 m -0.86833,-1.22184227 -1.45697,-2.0439908 m -0.59299,0.5517654 5.77146,8.1211815 m 0.8683,1.2218395 2.243,3.1513718 m -0.7331,0.384748 -6.54616,-9.23057744 m -0.86833,-1.22184096 -1.3299,-1.871345 m -0.5934,0.5573935 5.64473,7.9428699 m 0.86833,1.2218394 2.07663,2.9915183 m -0.69836,0.3611557 -6.41461,-9.0470973 m -0.86831,-1.22183846 -1.20025,-1.68889804 m -0.59001,0.562165 5.51169,7.7556681 m 0.86832,1.2218383 1.97503,2.7860464 m -0.74453,0.376931 -6.26689,-8.8574244 m -0.86831,-1.22183977 -1.06307,-1.49588136 m -0.58492,0.56929497 5.36943,7.55551376 m 0.86834,1.2218422 1.81803,2.5913006 m -0.72228,0.353473 -6.1321,-8.6392593 m -0.86832,-1.2218405 -0.91437,-1.28663074 m -0.57635,0.58136877 5.21217,7.33419787 m 0.8683,1.2218392 1.65463,2.3706727"
         style="fill:none;stroke:#000000;stroke-width:0.31100085;stroke-linecap:butt;stroke-linejoin:miter;stroke-miterlimit:10;stroke-opacity:1"
         id="path5144-2-3" />
      <g
         id="test_5_-3-1"
         transform="matrix(-0.41730554,-3.6012967e-4,-3.5730656e-4,0.4140545,295.3751,-59.820384)">
        <path
           class="st0"
           d="M 294.7,280.2"
           id="path1009-2-17"
           inkscape:connector-curvature="0"
           style="fill:none;stroke:#000000;stroke-width:0.25;stroke-miterlimit:10" />
        <path
           class="st0"
           d="M 268.7,280.2"
           id="path1011-7-1"
           inkscape:connector-curvature="0"
           style="fill:none;stroke:#000000;stroke-width:0.25;stroke-miterlimit:10" />
        <path
           id="XMLID_16_-4-8"
           class="st1"
           d="m 269.1,279.2 h -0.3"
           inkscape:connector-curvature="0"
           style="fill:none;stroke:#336699;stroke-width:0.75;stroke-miterlimit:10" />
        <path
           id="XMLID_15_-2-7"
           class="st1"
           d="m 293.9,279.2 h -0.4"
           inkscape:connector-curvature="0"
           style="fill:none;stroke:#336699;stroke-width:0.75;stroke-miterlimit:10" />
        <path
           id="XMLID_14_-7-06"
           class="st1"
           d="m 268.9,279.2 c -2.9,1.6 -8.9,46.1 -11.2,50.4 -1.2,2.3 -9.4,19.5 -9.4,19.5 -6.7,9.3 -7.4,22.7 -7.7,34 l 0.8,11.3 c 2.3,12.4 5,23.5 14.5,31.5 l 21.6,20.7 c 1,1 2.1,2.1 3.9,2.2 1.8,0 3,-1.2 4,-2.2 L 307,425.9 c 9.4,-8 12.2,-19.2 14.5,-31.5 l 0.9,-11.3 c -0.3,-11.4 -1,-24.7 -7.7,-34 0,0 -8.2,-17.2 -9.4,-19.5 -2.3,-4.3 -8.3,-48.9 -11.2,-50.4"
           inkscape:connector-curvature="0"
           style="fill:none;stroke:#336699;stroke-width:0.75;stroke-miterlimit:10" />
      </g>
      <path
         sodipodi:nodetypes="cccccccccccccccccccccccccccccccccccccccccccccccccccccccccccccccccccccccccccccccccccccccccccccccccccccccccccccccccccccccccccccccccccccccccccccccccccccccccccccccccccccccccccccccccccccccccccccccccccccccccccccccccccccccccccccccccccccccccccccccccccccccccccccccccccccccccccccccccccccccccccccccccccccccccccccccccccccccccccccccccccccccccccccccccccccccccccccccccccccccccccccccccccccccccccccccccccccccccccccccccccccccccccccccccccccccccccccccccccccccccccccccccccccccccccc"
         inkscape:connector-curvature="0"
         d="m 175.23728,124.15608 2.8862,-0.0209 m 2.92082,-0.68703 -4.98987,0.0109 m -2.31427,-0.72897 6.65306,-0.0181 m 2.19472,-0.72909 -7.11229,0.006 m -1.34441,0 -1.18053,-0.0105 m -0.73466,-0.69977 8.695,-0.0132 m 1.34441,0 1.07262,0.0152 m 0.75568,-0.71731 -8.60811,-0.0213 m -1.34441,0 -2.66296,0.0243 m -0.73238,-0.69761 10.17515,-0.0501 m 1.34441,0 2.57951,0.0316 m 0.81747,-0.77596 -10.17679,0.0209 m -1.34441,0 -4.17433,0.0315 m -1.25581,-0.75495 h 12.20995 m 1.34441,0 4.15239,-0.0145 m 0.7488,-0.71079 -11.681,0.002 m -1.34441,0 -5.7322,-0.005 m 0.30206,-0.71787 h 12.20995 m 1.34441,0 5.64559,0.0149 m -0.21544,-0.73831 h -12.20996 m -1.34441,0 -7.2913,-0.0209 m -0.73997,-0.70972 1.25673,0.007 m 1.3444,0 h 12.20995 m 1.34441,0 7.17008,0.0446 m 0.69874,-0.76425 -1.09426,-0.004 m -1.34441,0 h -12.20996 m -1.34441,0 -8.71804,-0.0491 m -0.52542,-0.67294 2.46892,-0.001 m 1.3444,0 h 12.20995 m 1.34441,0 8.43796,0.007 m 0.51848,-0.75316 -2.18188,0.0226 m -1.34441,0 h -12.20996 m -1.34441,0 -9.74214,-0.002 m -0.4283,-0.7091 3.3959,-0.0123 m 1.3444,0 h 12.20995 m 1.34441,0 9.37306,0.0113 m 0.41182,-0.77406 -3.01032,0.0393 m -1.34441,0 h -12.20996 m -1.34441,0 -10.53454,0.0568 m -0.36857,-0.77497 4.12857,-0.005 m 1.3444,0 h 12.20995 m 1.34441,0 10.13604,-0.0661 m 0.28246,-0.67752 -3.64394,0.0203 m -1.34441,0 h -12.20996 m -1.34441,0 -11.21644,-0.015 m -0.2701,-0.71691 4.712,0.008 m 1.3444,0 h 12.20995 m 1.34441,0 10.68766,-0.0165 m 0.24171,-0.71936 -4.15481,0.0124 m -1.34441,0 h -12.20996 m -1.34441,0 -11.73102,-0.006 m -0.20681,-0.6722 5.16329,-0.0451 m 1.3444,0 h 12.20995 m 1.34441,0 11.1435,0.006 m 0.19684,-0.71126 -4.56578,-0.0186 m -1.34441,0 h -12.20996 m -1.34441,0 h -12.20469 m -0.13935,-0.74868 5.5695,0.0253 m 1.3444,0 h 12.20995 m 1.34441,0 11.52294,0.0219 m 0.17209,-0.73547 -4.92047,-0.01 m -1.34441,0 h -12.20996 m -1.34441,0 h -12.20469 m -0.46442,-0.73146 5.89457,0.008 m 1.3444,0 h 12.20995 m 1.34441,0 11.85636,-0.007 m 0.14483,-0.70545 -5.22663,-0.0105 m -1.34441,0 h -12.20996 m -1.34441,0 h -12.20469 m -0.75414,-0.72267 6.18429,-7.4e-4 m 1.3444,0 h 12.20995 m 1.34441,0 12.14553,-0.003 m 0.11235,-0.73548 -5.48332,0.0155 m -1.34441,0 h -12.20996 m -1.34441,0 h -12.20469 m -0.9275,-0.71216 6.35765,-0.0113 m 1.3444,0 h 12.20995 m 1.34441,0 12.30917,-0.002 m 0.0529,-0.73296 -5.58755,0.0118 m -1.34441,0 h -12.20996 m -1.34441,0 h -12.20469 m -1.04186,-0.70564 6.47201,-0.0178 m 1.3444,0 h 12.20995 m 1.34441,0 h 12.2047 m 0.26227,-0.74044 -5.69241,0.017 m -1.34441,0 h -12.20996 m -1.34441,0 h -12.20469 m -1.15915,-0.735867 6.5893,0.0124 m 1.3444,0 h 12.20995 m 1.34441,0 h 12.2047 m 0.36629,-0.733844 -5.79643,0.0105 m -1.34441,0 h -12.20996 m -1.34441,0 h -12.20469 m -1.21071,-0.736377 6.64086,0.013 m 1.3444,0 h 12.20995 m 1.34441,0 h 12.2047 m 0.33465,-0.715827 -5.76479,-0.008 m -1.34441,0 h -12.20996 m -1.34441,0 h -12.20469 m -1.15778,-0.711164 6.58793,-0.0122 m 1.3444,0 h 12.20995 m 1.34441,0 h 12.2047 m 0.2699,-0.719797 -5.70004,-0.004 m -1.34441,0 h -12.20996 m -1.34441,0 h -12.20469 m -1.07539,-0.728694 6.50554,0.005 m 1.3444,0 h 12.20995 m 1.34441,0 h 12.2047 m 0.1694,-0.739177 -5.59954,0.0158 m -1.34441,0 h -12.20996 m -1.34441,0 h -12.20469 m -0.96644,-0.68207 6.39659,-0.04134 m 1.3444,0 h 12.20995 m 1.34441,0 12.06887,-0.0059 m 0.16154,-0.707626 -5.45585,-0.0099 m -1.34441,0 h -12.20996 m -1.34441,0 h -12.20469 m -0.80107,-0.735227 6.23122,0.0118 m 1.3444,0 h 12.20995 m 1.34441,0 12.13165,-0.01664 m -0.10492,-0.675476 -5.25217,-0.03128 m -1.34441,0 h -12.20996 m -1.34441,0 h -12.20469 m -0.55893,-0.693885 5.98908,-0.02953 m 1.3444,0 h 12.20995 m 1.34441,0 11.8945,0.02655 m -0.1578,-0.741984 -4.96214,-0.008 m -1.34441,0 h -12.20996 m -1.34441,0 h -12.20469 m -0.14552,-0.711605 5.57567,-0.0118 m 1.3444,0 h 12.20995 m 1.34441,0 11.55627,0.0036 m -0.19949,-0.695743 -4.58222,-0.03127 m -1.34441,0 h -12.20996 m -1.34441,0 h -12.20469 m 0.23836,-0.705692 5.19179,-0.01773 m 1.3444,0 h 12.20995 m 1.34441,0 11.11235,0.01723 m -0.28119,-0.731774 -4.0566,-0.0089 m -1.34441,0 h -12.20996 m -1.34441,0 -11.69088,0.01773 m 0.34467,-0.74113 h 4.57167 m 1.3444,0 h 12.20995 m 1.34441,0 10.5078,0.0063 m -0.3639,-0.704887 -3.36934,-0.02487 m -1.34441,0 h -12.20996 m -1.34441,0 -10.96446,0.01773 m 0.40964,-0.741129 h 3.78028 m 1.3444,0 h 12.20995 m 1.34441,0 9.71188,0.02905 m -0.46181,-0.753388 -2.47551,0.0011 m -1.34441,0 h -12.20996 m -1.34441,0 -10.11868,-0.01265 m 0.36146,-0.694065 2.98268,-0.0167 m 1.3444,0 h 12.20995 m 1.34441,0 8.89207,-0.0232 m -0.34377,-0.715341 -1.77374,0.01513 m -1.34441,0 h -12.20996 m -1.34441,0 -9.36987,-0.02363 m 0.29152,-0.711597 2.30381,0.0118 m 1.3444,0 h 12.20995 m 1.34441,0 8.20498,-0.0054 m -0.34415,-0.714698 -1.08627,-0.0033 m -1.34441,0 h -12.20996 m -1.34441,0 -8.69546,0.005 m 0.34707,-0.716748 1.57385,-0.01161 m 1.3444,0 h 12.20995 m 1.34441,0 7.49515,-0.03176 m -0.33351,-0.69069 -0.38708,-0.0011 m -1.34441,0 h -12.20996 m -1.34441,0 -7.98132,-0.02188 m 0.33547,-0.690417 0.87131,-0.01111 m 1.3444,0 h 12.20995 m 1.34441,0 6.85491,0.09025 m -1.42476,-0.81366 h -12.20996 m -1.34441,0 -7.2728,-0.0312 m 1.84266,-0.692205 h 12.20995 m 1.34441,0 6.15819,0.102883 m -0.72804,-0.826304 h -12.20996 m -1.34441,0 -6.54729,-0.06095 m 1.11715,-0.662456 h 12.20995 m 1.34441,0 5.38928,-0.01415 m -0.22219,-0.705223 -11.9469,-0.004 m -1.34441,0 -5.98224,-0.0076 m 0.5521,-0.715772 h 12.20995 m 1.34441,0 4.98772,0.0041 m -0.16117,-0.724738 -11.60636,-0.0028 m -1.34441,0 -5.63654,-0.02138 m 0.16207,-0.774322 12.25428,0.07229 m 1.34441,0 4.68896,0.06699 m -0.1513,-0.757264 -11.31747,-0.03314 m -1.34441,0 -5.33165,-0.06204 m 0.12621,-0.648681 11.98525,-0.0127 m 1.34441,0 4.40684,0.08057 m -0.13899,-0.734807 -11.04766,-0.06917 m -1.34441,0 -5.06893,0.01932 m 0.13674,-0.730311 11.712,-0.01241 m 1.34441,0 4.12914,0.04611 m -0.13694,-0.746473 -10.77201,-0.02307 m -1.34441,0 -4.79936,0.01767 m 0.14321,-0.781111 11.43596,0.04002 m 1.34441,0 3.86026,0.02088 m -0.13298,-0.735389 -10.50709,-0.0089 m -1.34441,0 -4.53346,0.01058 m 0.13996,-0.769512 11.17331,0.03551 m 1.34441,0 3.60126,0.03353 m -0.13791,-0.764961 -10.24316,0.008 m -1.34441,0 -4.26137,-0.03865 m 0.12494,-0.685649 10.91624,7.94e-4 m 1.34441,0 3.33325,-0.0047 m -0.1322,-0.728456 -9.98086,0.0097 m -1.34441,0 -4.0059,0.0093 m 0.13945,-0.75683 10.64626,0.02408 m 1.34441,0 3.0721,0.0079 m -0.12575,-0.682328 -9.72616,-0.04896 m -1.34441,0 -3.73989,0.01857 m 0.14564,-0.774096 10.37406,0.03213 m 1.34441,0 2.80293,0.0033 m -0.14087,-0.74386 -9.42239,0.02362 m -1.36389,-0.0064 -3.45573,-0.0339 m 0.13649,-0.701731 10.09905,0.01222 m 1.34441,0 2.52625,0.0021 m -0.14059,-0.713068 -9.16547,-0.01241 m -1.34441,0 -3.18135,0.01736 m 0.14702,-0.720248 9.81414,-0.02053 m 1.34441,0 2.24745,0.05314 m -0.15771,-0.753018 -8.86955,-0.02352 m -1.34441,0 -2.87583,-0.0062 m 0.15422,-0.698905 9.50142,-0.01836 m 1.34441,0 1.92256,-0.0158"
         style="fill:none;stroke:#000000;stroke-width:0.27893561;stroke-linecap:butt;stroke-linejoin:miter;stroke-miterlimit:10;stroke-opacity:1"
         id="path5144-8" />
      <g
         id="test_5_-3-4-8"
         transform="matrix(-0.24234488,0.33972539,0.45739653,0.32569045,145.06733,-145.60039)">
        <path
           class="st0"
           d="M 294.7,280.2"
           id="path1009-2-1-8"
           inkscape:connector-curvature="0"
           style="fill:none;stroke:#000000;stroke-width:0.25;stroke-miterlimit:10" />
        <path
           class="st0"
           d="M 268.7,280.2"
           id="path1011-7-0-1"
           inkscape:connector-curvature="0"
           style="fill:none;stroke:#000000;stroke-width:0.25;stroke-miterlimit:10" />
        <path
           id="XMLID_16_-4-4-6"
           class="st1"
           d="m 269.1,279.2 h -0.3"
           inkscape:connector-curvature="0"
           style="fill:none;stroke:#336699;stroke-width:0.75;stroke-miterlimit:10" />
        <path
           id="XMLID_15_-2-2-2"
           class="st1"
           d="m 293.9,279.2 h -0.4"
           inkscape:connector-curvature="0"
           style="fill:none;stroke:#336699;stroke-width:0.75;stroke-miterlimit:10" />
        <path
           id="XMLID_14_-7-8-6"
           class="st1"
           d="m 268.9,279.2 c -2.9,1.6 -8.9,46.1 -11.2,50.4 -1.2,2.3 -9.4,19.5 -9.4,19.5 -6.7,9.3 -7.4,22.7 -7.7,34 l 0.8,11.3 c 2.3,12.4 5,23.5 14.5,31.5 l 21.6,20.7 c 1,1 2.1,2.1 3.9,2.2 1.8,0 3,-1.2 4,-2.2 L 307,425.9 c 9.4,-8 12.2,-19.2 14.5,-31.5 l 0.9,-11.3 c -0.3,-11.4 -1,-24.7 -7.7,-34 0,0 -8.2,-17.2 -9.4,-19.5 -2.3,-4.3 -8.3,-48.9 -11.2,-50.4"
           inkscape:connector-curvature="0"
           style="fill:none;stroke:#336699;stroke-width:0.75;stroke-miterlimit:10" />
      </g>
      <path
         sodipodi:nodetypes="cccccccccccccccccccccccccccccccccccccccccccccccccccccccccccccccccccccccccccccccccccccccccccccccccccccccccccccccccccccccccccccccccccccccccccccccccccccccccccccccccccccccccccccccccccccccccccccccccccccccccccccccccccccccccccccccccccccccccccccccccccccccccccccccccccccccccccccccccccccccccccccccccccccccccccccccccccccccccccccccccccccccccccccccccccccccccccccccccccccccccccccccccccccccccccccccccccccccccccccccccccccccccccccccccccccccccccccccccccccccccccccccccccccccccccccccccccccccccccccccccccccccccccccccccccccccccccccccccccccccccccccccccccccccccccccccccccccccccccccccccccccc"
         inkscape:connector-curvature="0"
         d="m 280.0887,94.579194 1.50233,-2.111412 m -1.33468,0.485858 -2.82361,3.968156 m -1.01836,0.04131 4.17385,-5.865508 m 0.12163,-1.56069 -3.92965,5.522332 m -0.7794,1.095437 -0.60471,0.849758 m -1.01836,0.04131 4.89719,-6.882027 m 0.77948,-1.095379 0.36177,-0.508338 m -0.29373,-0.97698 -4.6555,6.542382 m -0.7794,1.095437 -1.32804,1.866289 m -1.01835,0.04129 5.62054,-7.898533 m 0.7794,-1.095437 1.0876,-1.528392 m -0.29374,-0.976965 -5.38136,7.562405 m -0.77939,1.095429 -2.05137,2.882818 m -1.01835,0.0413 6.34389,-8.915066 m 0.77948,-1.09537 1.81343,-2.548446 m -0.29377,-0.976987 -6.10718,8.582444 m -0.77948,1.09538 -2.7747,3.899355 m -1.03025,0.05804 7.07913,-9.948327 m 0.77947,-1.095371 2.53934,-3.568441 m -0.0476,-1.322817 -7.07914,9.948322 m -0.77939,1.095429 -3.49808,4.915865 m -0.30691,-0.958484 7.07914,-9.948322 m 0.77947,-1.095371 3.26516,-4.588495 m -0.77349,-0.302784 -7.07915,9.948316 m -0.7794,1.095437 -4.23133,5.946301 m -1.02652,0.05279 0.67342,-0.946318 m 0.77948,-1.095387 7.07913,-9.94832 m 0.77947,-1.095371 4.01363,-5.640377 m -0.32677,-0.930564 -0.41574,0.584276 m -0.7794,1.095445 -7.07914,9.948313 m -0.77939,1.095429 -4.92822,6.92562 m -0.94744,-0.05834 1.29122,-1.81453 m 0.77947,-1.095371 7.07913,-9.948327 m 0.77938,-1.095413 4.63651,-6.515678 m -0.39537,-0.834169 -0.97007,1.363155 m -0.7794,1.095428 -7.07913,9.948314 m -0.77939,1.095429 -5.47873,7.699256 m -0.8896,-0.139619 1.78384,-2.5069 m 0.77948,-1.095379 7.07913,-9.948319 m 0.77947,-1.095371 5.13176,-7.211658 m -0.44652,-0.762301 -1.4141,1.98732 m -0.77939,1.095429 -7.07913,9.948314 m -0.7794,1.095436 -5.92128,8.321193 m -0.84026,-0.208964 2.95659,-4.154846 m 0,0 7.07913,-9.948328 m 0.77946,-1.095362 5.5313,-7.773149 m -0.48552,-0.707483 -1.77467,2.493953 m -0.77949,1.095387 -7.07913,9.948306 m -0.77939,1.095437 -6.2819,8.827963 m -0.81229,-0.248277 2.50977,-3.526904 m 0.77947,-1.095379 7.07914,-9.948327 m 0.77947,-1.095371 5.53129,-7.773149 m -0.18933,-1.123702 -2.07087,2.910162 m -0.7794,1.095437 -7.07914,9.948321 m -0.77939,1.095429 -6.57924,9.245798 m -0.78612,-0.28505 2.78085,-3.908027 m 0.77948,-1.095379 7.07913,-9.948328 m 0.77947,-1.095363 6.12726,-8.610645 m -0.53897,-0.63237 -2.31719,3.256338 m -0.77939,1.095429 -7.07914,9.948313 m -0.77939,1.095437 -6.82731,9.594413 m -0.76575,-0.313667 3.00858,-4.227994 m 0.77948,-1.095388 7.07913,-9.948327 m 0.77947,-1.095363 6.35306,-8.927981 m -0.55697,-0.60709 -2.52499,3.548391 m -0.77939,1.095429 -7.07914,9.948313 m -0.7794,1.095445 -7.07609,9.944037 m -0.71101,-0.390612 3.20266,-4.500681 m 0.77948,-1.095387 7.07914,-9.948313 m 0.77939,-1.095429 6.54518,-9.19796 m -0.57059,-0.587934 -2.70347,3.799232 m -0.7794,1.095436 -7.07913,9.948322 m -0.77941,1.095445 -7.07609,9.944045 m -0.87942,-0.153933 3.37107,-4.737343 m 0.77948,-1.095379 7.07913,-9.948328 m 0.77948,-1.095371 6.71192,-9.43228 m -0.58061,-0.573854 -2.86022,4.019449 m -0.7794,1.095437 -7.07913,9.948313 m -0.7794,1.095437 -7.07609,9.944045 m -1.02896,0.0562 3.52062,-4.947468 m 0.77948,-1.095379 7.07913,-9.948328 m 0.77947,-1.095363 6.86026,-9.640728 m -0.58752,-0.564149 -3.00163,4.218205 m -0.77939,1.095429 -7.07914,9.948313 m -0.77939,1.095429 -7.0761,9.944053 m -1.16542,0.247993 3.65703,-5.13929 m 0.77948,-1.095388 7.07913,-9.948327 m 0.77947,-1.095363 6.99616,-9.831702 m -0.60537,-0.539067 -3.11966,4.384136 m -0.77947,1.095371 -7.07912,9.948311 m -0.7794,1.095437 -7.07609,9.944045 m -1.2468,0.362334 3.7384,-5.253648 m 0.77948,-1.095379 7.07912,-9.94832 m 0.77948,-1.095379 7.07608,-9.944042 m -0.63551,-0.496694 -3.16937,4.454078 m -0.77948,1.095387 -7.07916,9.948346 m -0.77939,1.095429 -7.0761,9.944053 m -1.3015,0.439209 3.79315,-5.330496 m 0.77948,-1.095371 7.07913,-9.948328 m 0.77948,-1.095379 7.12209,-10.0087 m -0.6318,-0.501911 -3.21926,4.523921 m -0.77948,1.095379 -7.07912,9.948311 m -0.77939,1.095429 -7.07609,9.944045 m -1.35621,0.516103 3.84785,-5.40739 m 0.77947,-1.095379 7.07913,-9.94832 m 0.77947,-1.09537 7.17186,-10.07863 m -0.6318,-0.501911 -3.26898,4.593878 m -0.7794,1.095429 -7.07912,9.948306 m -0.7794,1.095428 -7.07608,9.944051 m -1.43615,0.628429 3.92778,-5.51971 m 0.77948,-1.095388 7.07913,-9.948319 m 0.77947,-1.095371 7.07609,-9.944051 m -0.50228,-0.683935 -3.30272,4.641298 m -0.77948,1.095379 -7.07913,9.948314 m -0.7794,1.095437 -7.07608,9.944043 m -1.43615,0.628428 3.92778,-5.519711 m 0.77948,-1.095379 7.07912,-9.948319 m 0.77948,-1.095379 7.07608,-9.944043 m -0.52416,-0.653179 -3.2808,4.610553 m -0.77949,1.095387 -7.07913,9.948314 m -0.77939,1.095428 -7.0761,9.944045 m -1.38557,0.55736 3.8772,-5.448653 m 0.77948,-1.095379 7.07913,-9.948328 m 0.77948,-1.09537 7.07608,-9.944037 m -0.555,-0.60983 -3.25004,4.567163 m -0.77948,1.095379 -7.07913,9.948314 m -0.77939,1.095429 -7.07609,9.94405 m -1.34813,0.504728 3.83976,-5.396021 m 0.77948,-1.095379 7.07913,-9.948328 m 0.77947,-1.095363 7.07609,-9.94405 m -0.59887,-0.548193 -3.2061,4.50555 m -0.7794,1.095437 -7.07914,9.948322 m -0.7794,1.095445 -7.07609,9.944037 m -1.29575,0.43114 3.78742,-5.322395 m 0.77948,-1.095387 7.07913,-9.948328 m 0.77947,-1.095363 7.07609,-9.944045 m -0.65963,-0.462796 -3.14509,4.419849 m -0.7794,1.095428 -7.07942,9.94873 m -0.77941,1.095445 -7.07608,9.944029 m -1.22425,0.330645 3.71589,-5.221916 m 0.77948,-1.095371 7.07913,-9.948327 m 0.77947,-1.095371 7.07609,-9.944037 m -0.74234,-0.346558 -3.06265,4.303915 m -0.77948,1.095387 -7.07913,9.948305 m -0.7794,1.095437 -7.07608,9.944043 m -1.12888,0.196623 3.62048,-5.087937 m 0.77939,-1.095429 7.07913,-9.948328 m 0.77947,-1.095362 6.93959,-9.752215 m -0.71482,-0.38523 -2.95372,4.150792 m -0.77939,1.095429 -7.07913,9.948313 m -0.77939,1.095429 -7.0761,9.944045 m -1.00425,0.02148 3.49588,-4.912764 m 0.77948,-1.095379 7.07913,-9.948328 m 0.77947,-1.095363 6.81526,-9.577498 m -0.73183,-0.361363 -2.81229,3.9522 m -0.77948,1.095379 -7.07913,9.948314 m -0.7794,1.095437 -7.07608,9.944042 m -0.84374,-0.20408 3.33539,-4.687192 m 0.77939,-1.095436 7.07913,-9.94832 m 0.77948,-1.095379 6.65508,-9.352396 m -0.75272,-0.331989 -2.63125,3.697729 m -0.7794,1.095436 -7.07912,9.948306 m -0.7794,1.095437 -7.07609,9.944045 m -0.639,-0.491804 3.13056,-4.39952 m 0.77948,-1.09538 7.07914,-9.948313 m 0.77948,-1.095379 6.45071,-9.065203 m -0.77876,-0.295386 -2.40082,3.373936 m -0.77948,1.095387 -7.07914,9.948314 m -0.77939,1.095428 -6.93611,9.747326 m -0.51886,-0.660628 2.87058,-4.033895 m 0.7794,-1.095437 7.07912,-9.948319 m 0.77948,-1.095371 6.19101,-8.700228 m -0.81194,-0.248756 -2.10789,2.962361 m -0.77948,1.095379 -7.07913,9.948314 m -0.7794,1.095429 -6.64286,9.335223 m -0.48107,-0.713754 2.98791,-4.198839 m 0.33106,-0.465246 7.07913,-9.948327 m 0.77946,-1.095363 5.86024,-8.235384 m -0.85566,-0.187337 -1.73349,2.436035 m -0.77947,1.095379 -7.07914,9.948314 m -0.7794,1.095437 -6.26826,8.808808 m -0.43031,-0.785064 2.56252,-3.601137 m 0.33107,-0.465247 7.07912,-9.948311 m 0.77948,-1.095379 5.43466,-7.637335 m -0.84024,-0.209002 -1.32333,1.859648 m -0.77949,1.095388 -7.07913,9.948313 m -0.77939,1.095429 -5.85449,8.227333 m -0.49054,-0.700447 1.76053,-2.474172 m 0.77939,-1.095429 7.07913,-9.948328 m 0.77947,-1.095371 5.08567,-7.146902 m -0.82222,-0.234314 -0.99234,1.394553 m -0.77948,1.095379 -7.07912,9.948311 m -0.77948,1.095379 -5.52207,7.760173 m -0.49028,-0.700804 1.42791,-2.006613 m 0.77939,-1.095429 7.07913,-9.948327 m 0.77947,-1.095363 4.75446,-6.681433 m -0.8225,-0.233933 -0.66082,0.928715 m -0.77948,1.095379 -7.07913,9.948306 m -0.7794,1.095437 -5.18911,7.292284 m -0.48997,-0.701231 1.09463,-1.538295 m 0.7794,-1.095437 7.07913,-9.948328 m 0.77947,-1.095362 4.42266,-6.215154 m -0.82283,-0.233457 -0.32872,0.461944 m -0.77947,1.095371 -7.07913,9.948313 m -0.7794,1.095437 -4.85553,6.823499 m -0.48959,-0.701772 0.76065,-1.068982 m 0.77947,-1.095371 7.07913,-9.948327 m 0.77947,-1.095371 4.09013,-5.747867 m -1.59849,0.856578 -7.07912,9.94832 m -0.77948,1.095371 -4.52108,6.353482 m -0.48899,-0.702608 0.42558,-0.598143 m 0.77939,-1.095429 7.07914,-9.948322 m 0.77947,-1.095371 3.75654,-5.279036 m -1.26489,0.387752 -7.07914,9.948314 m -0.77947,1.095371 -4.18523,5.881513 m 0.38024,-1.924134 7.07914,-9.948322 m 0.77947,-1.095371 3.42088,-4.807388 m -0.92926,-0.08388 -7.07913,9.948314 m -0.7794,1.095437 -3.84606,5.404891 m 0.0411,-1.447514 7.07913,-9.948328 m 0.77947,-1.095362 3.0792,-4.327254 m -0.77209,-0.304776 -6.89462,9.689028 m -0.77948,1.095379 -3.55525,4.996114 m -0.24978,-1.03878 7.07912,-9.948312 m 0.77948,-1.095379 2.87403,-4.038757 m -0.73681,-0.354327 -6.72466,9.450163 m -0.77947,1.095371 -3.38357,4.754972 m -0.42141,-0.797583 7.07914,-9.948322 m 0.77948,-1.095379 2.71913,-3.82115 m -0.72787,-0.366911 -6.57874,9.24511 m -0.77939,1.095429 -3.23645,4.548173 m -0.56855,-0.590809 7.07913,-9.94832 m 0.77946,-1.095363 2.57923,-3.624531 m -0.72361,-0.372868 -6.44309,9.054479 m -0.77948,1.095387 -3.09966,4.355935 m -0.59057,-0.559868 6.96436,-9.787031 m 0.77948,-1.095371 2.44665,-3.438413 m -0.72119,-0.376305 -6.313,8.87169 m -0.77949,1.095387 -2.96847,4.171602 m -0.59241,-0.557264 6.83504,-9.605289 m 0.77947,-1.095371 2.31848,-3.258165 m -0.71981,-0.378259 -6.18617,8.693458 m -0.77939,1.095429 -2.84062,3.991795 m -0.59346,-0.555791 6.70816,-9.427 m 0.77939,-1.095421 2.19275,-3.081352 m -0.71905,-0.379316 -6.06113,8.517724 m -0.7794,1.095437 -2.71439,3.814641 m -0.59396,-0.555094 6.58254,-9.250469 m 0.77947,-1.095363 2.06809,-2.906402 m -0.71875,-0.379724 -5.93686,8.343075 m -0.77948,1.095387 -2.5891,3.638441 m -0.59403,-0.555005 6.45723,-9.074419 m 0.77923,-1.095544 1.94417,-2.731626 m -0.71892,-0.379469 -5.81247,8.16834 m -0.77923,1.095553 -2.46349,3.462323 m -0.59368,-0.55548 6.33153,-8.897647 m 0.77923,-1.095544 1.81895,-2.55676 m -0.71944,-0.378749 -5.68731,7.992336 m -0.77923,1.095544 -2.3375,3.284644 m -0.59295,-0.556495 6.20449,-8.71917 m 0.77922,-1.095537 1.69332,-2.379561 m -0.72038,-0.37745 -5.56039,7.814031 m -0.77923,1.095545 -2.20904,3.105193 m -0.59179,-0.558148 6.07535,-8.537725 m 0.77923,-1.095545 1.56555,-2.199361 m -0.72181,-0.375399 -5.43087,7.632056 m -0.77924,1.095552 -2.07878,2.921477 m -0.59004,-0.560584 5.94303,-8.351793 m 0.77923,-1.095552 1.43381,-2.015286 m -0.72392,-0.372479 -5.29752,7.444679 m -0.77924,1.095553 -1.9447,2.732377 m -0.58751,-0.564149 5.8061,-8.159367 m 0.77923,-1.095545 1.29826,-1.824121 m -0.72696,-0.368166 -5.1587,7.249398 m -0.77922,1.095544 -1.80505,2.535412 m -0.58377,-0.569412 5.66238,-7.957357 m 0.77923,-1.095544 1.15512,-1.623967 m -0.73164,-0.361603 -5.01129,7.042371 m -0.77924,1.095553 -1.65535,2.327744 m -0.57781,-0.577779 5.50796,-7.740443 m 0.77924,-1.095553 1.00218,-1.408264 m -0.73953,-0.350504 -4.85015,6.81579 m -0.77924,1.095552 -1.4935,2.09948"
         style="fill:none;stroke:#000000;stroke-width:0.29438636;stroke-linecap:butt;stroke-linejoin:miter;stroke-miterlimit:10;stroke-opacity:1"
         id="path5144-2-1" />
      <g
         id="test_5_-3-2-1"
         transform="matrix(-0.26903884,-0.37960681,-0.56144467,0.39851068,383.04273,37.22467)">
        <path
           class="st0"
           d="M 294.7,280.2"
           id="path1009-2-2-3"
           inkscape:connector-curvature="0"
           style="fill:none;stroke:#000000;stroke-width:0.25;stroke-miterlimit:10" />
        <path
           class="st0"
           d="M 268.7,280.2"
           id="path1011-7-3-9"
           inkscape:connector-curvature="0"
           style="fill:none;stroke:#000000;stroke-width:0.25;stroke-miterlimit:10" />
        <path
           id="XMLID_16_-4-2-2"
           class="st1"
           d="m 269.1,279.2 h -0.3"
           inkscape:connector-curvature="0"
           style="fill:none;stroke:#336699;stroke-width:0.75;stroke-miterlimit:10" />
        <path
           id="XMLID_15_-2-0-4"
           class="st1"
           d="m 293.9,279.2 h -0.4"
           inkscape:connector-curvature="0"
           style="fill:none;stroke:#336699;stroke-width:0.75;stroke-miterlimit:10" />
        <path
           id="XMLID_14_-7-0-4"
           class="st1"
           d="m 268.9,279.2 c -2.9,1.6 -8.9,46.1 -11.2,50.4 -1.2,2.3 -9.4,19.5 -9.4,19.5 -6.7,9.3 -7.4,22.7 -7.7,34 l 0.8,11.3 c 2.3,12.4 5,23.5 14.5,31.5 l 21.6,20.7 c 1,1 2.1,2.1 3.9,2.2 1.8,0 3,-1.2 4,-2.2 L 307,425.9 c 9.4,-8 12.2,-19.2 14.5,-31.5 l 0.9,-11.3 c -0.3,-11.4 -1,-24.7 -7.7,-34 0,0 -8.2,-17.2 -9.4,-19.5 -2.3,-4.3 -8.3,-48.9 -11.2,-50.4"
           inkscape:connector-curvature="0"
           style="fill:none;stroke:#336699;stroke-width:0.75;stroke-miterlimit:10" />
      </g>
      <path
         sodipodi:nodetypes="cccccccccccccccccccccccccccccccccccccccccccccccccccccccccccccccccccccccccccccccccccccccccccccccccccccccccccccccccccccccccccccccccccccccccccccccccccccccccccccccccccccccccccccccccccccccccccccccccccccccccccccccccccccccccccccccccccccccccccccccccccccccccccccccccccccccccccccccccccccccccccccccccccccccccccccccccccccccccccccccccccccccccccccccccccccccccccccccccccccccccccccccccccccccccccccccccccccccccccccccccccccccccccccccccccccccccccccccccccccccccccccccccccccccccccccccccccccccccccccccccccccccccccccccccccccccccccccccccccccccccccccccccccccccccccccccccccccccccccccccccccccccccccccccccccccccccccccccccccccccccccccccccccccccccccccccccccccccccccccccccccccccccccccccccccccccccccccccccccccccccccccccccccccccccccc"
         inkscape:connector-curvature="0"
         d="m 58.728217,109.85556 -1.46722,-2.08381 m -1.04569,-2.88545 2.21114,3.11713 m 2.35412,1.84602 -3.44423,-4.80454 m -0.45165,-2.05355 3.77142,5.30111 m 2.0412,1.55175 -4.04643,-5.73351 m -0.86833,-1.22184 -0.56905,-0.82903 m 0.31807,-0.90041 5.28702,7.42414 m 1.88351,1.25521 -4.73623,-6.66258 m -0.86833,-1.22185 -1.22532,-1.75905 m 0.2998,-0.848684 5.96191,8.302194 m 0.86832,1.22184 0.71939,0.96492 m 0.9427,-0.003 -5.38375,-7.59103 m -0.86831,-1.22184 -1.89976,-2.637788 m 0.33357,-0.944266 6.60224,9.276734 m 0.86832,1.22185 1.3459,1.89386 m 0.96092,-0.003 -7.88608,-11.096771 m 0.98953,1.354871 -2.55918,-3.558938 m 0.32559,-0.921625 7.26991,10.175053 m 0.86831,1.22184 2.00601,2.8227 m 1.057,-0.003 -7.8861,-11.096771 m 0.23334,0.426317 -3.20502,-4.517589 m 0.35566,-0.88498 7.88611,11.096763 m 0.8683,1.22184 2.6661,3.75156 m 0.9875,-0.003 -7.37503,-10.377644 m -0.86834,-1.221844 -3.85098,-5.477548 m 1.00125,0.07523 7.88611,11.096766 m 0.86831,1.22184 3.32619,4.68038 m 0.98751,-0.003 -8.03514,-11.306491 m -0.86831,-1.221838 -4.54198,-6.309328 m 0.33152,-1.000836 0.49245,0.685989 m 0.8683,1.221839 7.88611,11.096765 m 0.86831,1.22184 4.00395,5.63409 m 0.16076,-1.16623 -7.88611,-11.096774 m -0.8683,-1.221838 -5.19348,-7.341343 m 0.35495,-0.892397 1.12047,1.60959 m 0.86832,1.221841 7.88609,11.096761 m 0.86832,1.22185 4.64821,6.54064 m 0.93475,-0.077 -0.54998,-0.77391 m -0.86832,-1.22184 -7.8861,-11.096774 m -0.86831,-1.22184 -5.77321,-8.146912 m 0.40865,-0.821619 1.6465,2.344383 m 0.86832,1.22184 7.8861,11.096772 m 0.8683,1.22183 5.17771,7.28572 m 0.88747,-0.14359 -1.03219,-1.45243 m -0.86832,-1.22185 -7.8861,-11.096773 m -0.86833,-1.221838 -6.26733,-8.792563 m 0.44073,-0.750958 2.10856,2.919373 m 0.8683,1.221839 7.88611,11.09677 m 0.86833,1.22184 5.61798,7.90524 m 0.85012,-0.19613 -1.43514,-2.01942 m -0.86832,-1.22184 -7.8861,-11.096776 m -0.86832,-1.22184 -6.66901,-9.359388 m 0.50184,-0.747054 2.44914,3.482286 m 0.86831,1.221839 7.88609,11.096769 m 0.86832,1.221844 5.98755,8.42525 m 0.82019,-0.23824 -1.77477,-2.49732 m -0.86831,-1.22184 -7.88611,-11.096779 m -0.86831,-1.221842 -6.99383,-9.858569 m 0.49467,-0.661961 2.78107,3.896405 m 0.86834,1.221844 7.88608,11.096764 m 0.86832,1.221841 6.30025,8.865307 m 0.79599,-0.27231 -2.06327,-2.9033 m -0.86832,-1.22184 -7.8861,-11.096781 m -0.86832,-1.22184 -7.28055,-10.268056 m 0.49508,-0.607666 3.06742,4.251569 m 0.86832,1.221841 7.8861,11.096774 m 0.86832,1.221838 6.56699,9.240611 m 0.77633,-0.29996 -2.31033,-3.25096 m -0.86834,-1.22184 -7.88609,-11.09678 m -0.86833,-1.221842 -7.52023,-10.626971 m 0.55038,-0.627931 3.25182,4.630754 m 0.8683,1.22184 7.8861,11.096772 m 0.86831,1.22184 6.79636,9.563348 m 0.76038,-0.3224 -2.52376,-3.55126 m -0.86832,-1.22184 -7.8861,-11.09678 m -0.86831,-1.221839 -7.75624,-10.905577 m 0.56891,-0.612873 3.4693,4.894279 m 0.86833,1.221842 7.88608,11.09677 m 0.86833,1.221843 6.99541,9.843465 m 0.74752,-0.34051 -2.70997,-3.81327 m -0.8683,-1.22184 -7.88611,-11.096777 m -0.86831,-1.221842 -7.88272,-11.092002 m 0.52253,-0.678159 3.64212,5.146011 m 0.86834,1.221841 7.88609,11.096773 m 0.86832,1.221841 7.1701,10.089274 m 0.73727,-0.35494 -2.87439,-4.04465 m -0.86834,-1.22184 -7.88608,-11.096774 m -0.86833,-1.221843 -7.88271,-11.092003 m 0.36001,-0.893169 3.80468,5.360998 m 0.86833,1.22184 7.88609,11.096775 m 0.86833,1.221841 7.32542,10.307855 m 0.72926,-0.36621 -3.02172,-4.25196 m -0.86832,-1.221834 -7.88611,-11.096783 m -0.8683,-1.221839 -7.88272,-11.092003 m 0.21726,-1.091245 3.94739,5.559118 m 0.86832,1.22184 7.88609,11.096773 m 0.86832,1.221841 7.46577,10.505322 m 0.72322,-0.37471 -3.15602,-4.440927 m -0.86831,-1.221831 -7.8861,-11.096784 m -0.86832,-1.221842 -7.88271,-11.092 m 0.0744,-1.262198 4.09023,5.730045 m 0.86833,1.22184 7.88609,11.096773 m 0.86831,1.22184 7.59494,10.687054 m 0.71894,-0.38071 -3.28086,-4.616611 m -0.86834,-1.221846 -7.8861,-11.09678 m -0.86831,-1.221842 -7.88271,-11.091999 m -0.0311,-1.44857 4.19572,5.91643 m 0.8683,1.22184 7.88611,11.096775 m 0.8683,1.221838 7.7163,10.857815 m 0.69407,-0.4157 -3.37741,-4.75247 m -0.86833,-1.22184 -7.88609,-11.09678 m -0.86832,-1.221841 -7.88271,-11.092003 m -0.10046,-1.535713 4.26515,6.003552 m 0.86832,1.22184 7.88609,11.096773 m 0.86832,1.221841 7.77558,10.941231 m 0.68004,-0.43543 -3.42266,-4.816137 m -0.86832,-1.221841 -7.88611,-11.096782 m -0.8683,-1.22184 -7.88272,-11.092002 m -0.16032,-1.597719 4.32498,6.065571 m 0.86831,1.22184 7.8861,11.096774 m 0.86831,1.22184 7.82082,11.004906 m 0.68007,-0.43543 -3.46793,-4.87981 m -0.86832,-1.221843 -7.8861,-11.096781 m -0.86833,-1.221841 -7.88269,-11.092 m -0.21086,-1.689076 4.37552,6.156925 m 0.86832,1.221841 7.88609,11.096773 m 0.86832,1.221841 7.866073,11.068571 m 0.68005,-0.435417 -3.513173,-4.943491 m -0.86831,-1.221839 -7.88611,-11.096785 m -0.86831,-1.221841 -7.88271,-11.092 m -0.25038,-1.74522 4.41504,6.213072 m 0.86832,1.221844 7.88609,11.09677 m 0.86832,1.221841 7.911323,11.132252 m 0.68006,-0.43543 -3.558433,-5.007167 m -0.86832,-1.221842 -7.8861,-11.096779 m -0.86832,-1.221844 -7.8827,-11.092 m -0.29078,-1.822661 4.45544,6.290508 m 0.86832,1.221841 7.88609,11.096772 m 0.86832,1.22184 7.956583,11.195935 m 0.64991,-0.477867 -3.57351,-5.028383 m -0.868333,-1.221841 -7.88609,-11.096782 m -0.86833,-1.221841 -7.8827,-11.092003 m -0.28455,-1.792999 4.4492,6.260849 m 0.86832,1.221843 7.8861,11.096772 m 0.86831,1.221841 7.939553,11.171968 m 0.64667,-0.482412 -3.55321,-4.999838 m -0.86832,-1.22184 -7.886123,-11.096785 m -0.86831,-1.221838 -7.88271,-11.092003 m -0.26019,-1.759537 4.42485,6.227389 m 0.86833,1.221841 7.88608,11.096772 m 0.86833,1.221842 7.916283,11.139233 m 0.64305,-0.487501 -3.52633,-4.962015 m -0.86832,-1.221841 -7.886113,-11.096782 m -0.86832,-1.221838 -7.8827,-11.092005 m -0.21087,-1.689074 4.37551,6.156926 m 0.86833,1.221841 7.88611,11.096772 m 0.8683,1.221842 7.882733,11.092011 m 0.64067,-0.490864 -3.49041,-4.911458 m -0.86832,-1.221839 -7.886103,-11.096782 m -0.86834,-1.221844 -7.88269,-11.091997 m -0.21086,-1.689076 4.37551,6.156925 m 0.86831,1.221838 7.8861,11.096776 m 0.868343,1.221841 7.84379,11.037252 m 0.63214,-0.502859 -3.44297,-4.84472 m -0.86833,-1.221841 -7.886103,-11.096783 m -0.86833,-1.22184 -7.8827,-11.092 m -0.13191,-1.579579 4.29657,6.047428 m 0.86832,1.221841 7.886093,11.09677 m 0.86834,1.221844 7.78967,10.961093 m 0.62476,-0.513222 -3.38149,-4.758217 M 105.98448,87.172484 98.098357,76.0757 m -0.86831,-1.221838 -7.88271,-11.092003 m -0.0666,-1.478693 4.2312,5.946529 m 0.86831,1.221844 7.886113,11.09677 m 0.86832,1.221841 7.72016,10.863285 m 0.61607,-0.525489 -3.30325,-4.648086 m -0.86832,-1.220981 -7.886113,-11.096783 m -0.8683,-1.221837 -7.88272,-11.092006 m 0.0463,-1.368745 4.11846,5.836605 m 0.86831,1.221841 7.886113,11.09677 m 0.86831,1.221841 7.63238,10.739758 m 0.60573,-0.540029 -3.20511,-4.509999 m -0.86831,-1.221838 -7.88611,-11.096784 m -0.868323,-1.221838 -7.88271,-11.092003 m 0.13826,-1.204502 4.02636,5.672344 m 0.86832,1.221843 7.886103,11.09677 m 0.86833,1.221841 7.523,10.585874 m 0.59353,-0.557208 -3.08357,-4.338965 m -0.8683,-1.22184 -7.88612,-11.096782 m -0.86831,-1.221841 -7.882723,-11.092003 m 0.28229,-1.018688 3.88237,5.486541 m 0.86833,1.221843 7.886103,11.09677 m 0.86832,1.221841 7.38822,10.39621 m 0.57912,-0.577475 -2.93436,-4.129043 m -0.86833,-1.221843 -7.88609,-11.096778 m -0.86832,-1.221843 -7.882733,-11.092003 m 0.45199,-0.787765 3.71268,5.255614 m 0.86831,1.221841 7.886123,11.096773 m 0.86831,1.221841 7.22335,10.164212 m 0.562,-0.601568 -2.75237,-3.872952 m -0.86832,-1.22184 -7.8861,-11.096784 m -0.86833,-1.221841 -7.882713,-11.092002 m 0.63812,-0.497952 3.526553,4.965769 m 0.86832,1.221841 7.88611,11.096773 m 0.86831,1.221838 7.02263,9.881761 m 0.54139,-0.630561 -2.53104,-3.561508 m -0.86832,-1.22184 -7.8861,-11.096781 m -0.86834,-1.221841 -7.780263,-10.961142 m 0.78465,-0.286319 3.277573,4.623313 m 0.86832,1.221841 7.8861,11.096773 m 0.86832,1.22184 6.77855,9.538312 m 0.51618,-0.666013 -2.26175,-3.182603 M 115.18896,80.632082 107.30285,69.5353 m -0.86831,-1.22184 -7.480153,-10.591104 m 0.78607,-0.238276 2.976073,4.205213 m 0.8683,1.221838 7.8861,11.096773 m 0.86831,1.221838 6.4812,9.11988 m 0.48464,-0.710403 -1.93286,-2.719784 m -0.86831,-1.221841 -7.88611,-11.096781 m -0.86831,-1.22184 -7.16431,-10.122186 m 0.82048,-0.190423 2.62578,3.688455 m 0.86833,1.221844 7.88609,11.09677 m 0.86832,1.221841 6.11659,8.606851 m 0.44387,-0.767768 -1.52749,-2.149391 m -0.86831,-1.22184 -7.88611,-11.096784 m -0.86831,-1.221841 -6.89401,-9.527037 m 0.88691,-0.249872 2.28903,3.152761 m 0.86833,1.221844 7.88609,11.09677 m 0.86832,1.221843 5.74825,8.088554 m 0.50704,-0.678903 -1.2223,-1.719963 m -0.86834,-1.221841 -7.88608,-11.096781 m -0.86834,-1.221841 -6.45517,-9.115446 m 0.79252,-0.249417 1.94459,2.740726 m 0.86831,1.221841 7.8861,11.096773 m 0.86832,1.22184 5.44739,7.665204 m 0.50685,-0.679175 -0.92127,-1.296336 m -0.86831,-1.221841 -7.88612,-11.096783 m -0.8683,-1.221838 -6.18669,-8.679162 m 0.80971,-0.254505 1.65894,2.309511 m 0.86831,1.22184 7.8861,11.096773 m 0.86831,1.221841 5.14607,7.241188 m 0.50664,-0.679463 -0.61973,-0.872032 m -0.86832,-1.221841 -7.8861,-11.096781 m -0.86832,-1.221843 -5.82731,-8.27074 m 0.76343,-0.239586 1.34579,1.886202 m 0.86831,1.22184 7.8861,11.096773 m 0.86833,1.221843 4.84431,6.81658 m 0.50639,-0.679807 -2.00427,-2.820273 m 0.81822,1.151352 -7.8861,-11.096783 m -0.86832,-1.221841 -5.55524,-7.834095 m 0.79441,-0.248852 1.04277,1.458815 m 0.86831,1.221838 7.8861,11.096776 m 0.86831,1.221838 4.54203,6.391232 m -0.37737,-1.923383 -7.8861,-11.096781 m -0.86832,-1.221841 -5.28609,-7.39554 m 0.81707,-0.255286 0.75097,1.026676 m 0.86833,1.221838 7.88609,11.096775 m 0.86833,1.221841 4.23901,5.96487 m -0.0744,-1.497021 -7.88611,-11.096781 m -0.86832,-1.22184 -4.93221,-6.981989 m 0.80073,-0.249111 0.41343,0.606944 m 0.86833,1.221843 7.88609,11.096773 m 0.86832,1.221838 3.93494,5.536978 m 0.22974,-1.069123 -7.8861,-11.096784 m -0.86832,-1.221841 -4.62828,-6.550329 m 0.79029,-0.243808 0.11995,0.169984 m 0.86831,1.221841 7.88611,11.096773 m 0.8683,1.22184 3.62878,5.106157 m 0.5025,-0.685292 -7.85271,-11.049794 m -0.86833,-1.221843 -4.30288,-6.119204 m 1.45316,0.716894 7.88609,11.096773 m 0.86832,1.221841 3.31884,4.670033 m 0.55207,-0.615516 -7.59236,-10.683446 m -0.86833,-1.221843 -4.10099,-5.725758 m 1.25128,0.323453 7.88608,11.09677 m 0.86833,1.221843 3.12894,4.402828 m 0.58179,-0.573719 -7.43217,-10.458046 m -0.86832,-1.22184 -3.86191,-5.535449 m 1.01217,0.133139 7.88609,11.096776 m 0.86833,1.221837 2.98277,4.197136 m 0.59039,-0.561623 -7.2946,-10.264447 m -0.86833,-1.221843 -3.74492,-5.329896 m 0.89519,-0.07241 7.88611,11.096776 m 0.8683,1.221838 2.85108,4.011832 m 0.59468,-0.555569 -7.16722,-10.085218 m -0.86832,-1.221841 -3.67615,-5.118039 m 0.82644,-0.284276 7.88609,11.09677 m 0.86832,1.221843 2.72699,3.837226 m 0.59726,-0.551934 -7.0457,-9.914221 m -0.86831,-1.22184 -3.54214,-4.951548 m 0.69241,-0.450752 7.88608,11.096773 m 0.86833,1.221841 2.6075,3.669094 m 0.59888,-0.54967 -6.92784,-9.748377 m -0.86832,-1.22184 -3.41947,-4.786276 m 0.71321,-0.383479 7.74261,10.864212 m 0.86833,1.221838 2.49097,3.505108 m 0.59995,-0.548122 -6.81234,-9.585878 m -0.86833,-1.22184 -3.31674,-4.614916 m 0.74608,-0.402862 7.60705,10.712214 m 0.86832,1.221843 2.3763,3.343768 m 0.60055,-0.547302 -6.69834,-9.425442 m -0.86831,-1.221838 -3.20916,-4.449053 m 0.71217,-0.385422 7.53337,10.528967 m 0.86831,1.221841 2.26277,3.184003 m 0.60095,-0.546758 -6.58513,-9.266145 m -0.86831,-1.221841 -3.05345,-4.310846 m 0.69061,-0.374118 7.39926,10.379446 m 0.86834,1.22184 2.1497,3.024923 m 0.60102,-0.546669 -6.47214,-9.107151 m -0.86832,-1.221843 -2.93551,-4.152697 m 0.76475,-0.414236 7.20712,10.261398 m 0.86831,1.221841 2.03669,2.865887 m 0.60082,-0.546936 -6.35894,-8.947869 m -0.86834,-1.221844 -2.8003,-4.003468 m 0.71645,-0.387414 7.12026,10.085385 m 0.86834,1.221843 1.92318,2.70618 M 142.59,57.92479 136.23121,48.977127 m -0.86832,-1.22184 -2.71635,-3.825153 m 0.71532,-0.38594 7.03745,9.905521 m 0.86833,1.221841 1.80876,2.545178 m 0.5998,-0.548389 -6.12997,-8.625673 m -0.86833,-1.221841 -2.58201,-3.671803 m 0.66112,-0.355205 6.95727,9.721484 m 0.86832,1.221841 1.69291,2.382152 m 0.59882,-0.549759 -6.01316,-8.461319 m -0.86833,-1.221844 -2.46932,-3.503324 m 0.74566,-0.398333 6.76002,9.596123 m 0.86832,1.221841 1.42873,2.010386 m 0.74381,-0.345713 -5.89398,-8.293602 m -0.86832,-1.221841 -2.3139,-3.35293 m 0.68885,-0.365204 6.66138,9.412571 m 0.86833,1.221843 1.45697,2.043991 m 0.59299,-0.551765 -5.77146,-8.121182 m -0.8683,-1.22184 -2.243,-3.151373 m 0.7331,-0.384746 6.54616,9.230577 m 0.86833,1.22184 1.3299,1.871345 m 0.5934,-0.557392 -5.64473,-7.942871 m -0.86833,-1.221838 -2.07663,-2.99152 m 0.69836,-0.361156 6.41461,9.047099 m 0.86831,1.221838 1.20025,1.688899 m 0.59001,-0.562166 -5.51169,-7.755667 m -0.86832,-1.221841 -1.97503,-2.786047 m 0.74453,-0.37693 6.26689,8.857424 m 0.86831,1.221841 1.06307,1.495883 m 0.58492,-0.569296 -5.36943,-7.555514 m -0.86834,-1.221843 -1.81803,-2.5913 m 0.72228,-0.353473 6.1321,8.63926 m 0.86832,1.221841 0.91437,1.286629 m 0.57635,-0.581369 -5.21217,-7.334197 m -0.8683,-1.221841 -1.65463,-2.370669"
         style="fill:none;stroke:#000000;stroke-width:0.31100085;stroke-linecap:butt;stroke-linejoin:miter;stroke-miterlimit:10;stroke-opacity:1"
         id="path5144-2-3-3" />
      <g
         id="test_5_-3-4-8-1"
         transform="matrix(0.24234488,-0.3397254,-0.45739653,-0.32569044,210.34349,195.90405)">
        <path
           class="st0"
           d="M 294.7,280.2"
           id="path1009-2-1-8-1"
           inkscape:connector-curvature="0"
           style="fill:none;stroke:#000000;stroke-width:0.25;stroke-miterlimit:10" />
        <path
           class="st0"
           d="M 268.7,280.2"
           id="path1011-7-0-1-7"
           inkscape:connector-curvature="0"
           style="fill:none;stroke:#000000;stroke-width:0.25;stroke-miterlimit:10" />
        <path
           id="XMLID_16_-4-4-6-2"
           class="st1"
           d="m 269.1,279.2 h -0.3"
           inkscape:connector-curvature="0"
           style="fill:none;stroke:#336699;stroke-width:0.75;stroke-miterlimit:10" />
        <path
           id="XMLID_15_-2-2-2-3"
           class="st1"
           d="m 293.9,279.2 h -0.4"
           inkscape:connector-curvature="0"
           style="fill:none;stroke:#336699;stroke-width:0.75;stroke-miterlimit:10" />
        <path
           id="XMLID_14_-7-8-6-7"
           class="st1"
           d="m 268.9,279.2 c -2.9,1.6 -8.9,46.1 -11.2,50.4 -1.2,2.3 -9.4,19.5 -9.4,19.5 -6.7,9.3 -7.4,22.7 -7.7,34 l 0.8,11.3 c 2.3,12.4 5,23.5 14.5,31.5 l 21.6,20.7 c 1,1 2.1,2.1 3.9,2.2 1.8,0 3,-1.2 4,-2.2 L 307,425.9 c 9.4,-8 12.2,-19.2 14.5,-31.5 l 0.9,-11.3 c -0.3,-11.4 -1,-24.7 -7.7,-34 0,0 -8.2,-17.2 -9.4,-19.5 -2.3,-4.3 -8.3,-48.9 -11.2,-50.4"
           inkscape:connector-curvature="0"
           style="fill:none;stroke:#336699;stroke-width:0.75;stroke-miterlimit:10" />
      </g>
      <path
         sodipodi:nodetypes="cccccccccccccccccccccccccccccccccccccccccccccccccccccccccccccccccccccccccccccccccccccccccccccccccccccccccccccccccccccccccccccccccccccccccccccccccccccccccccccccccccccccccccccccccccccccccccccccccccccccccccccccccccccccccccccccccccccccccccccccccccccccccccccccccccccccccccccccccccccccccccccccccccccccccccccccccccccccccccccccccccccccccccccccccccccccccccccccccccccccccccccccccccccccccccccccccccccccccccccccccccccccccccccccccccccccccccccccccccccccccccccccccccccccccccccccccccccccccccccccccccccccccccccccccccccccccccccccccccccccccccccccccccccccccccccccccccccccccccccccccccccc"
         inkscape:connector-curvature="0"
         d="m 75.322088,-44.275551 -1.50233,2.111412 m 1.33468,-0.485857 2.82361,-3.968155 m 1.01836,-0.04131 -4.17385,5.865508 m -0.12163,1.56069 3.92965,-5.52233 m 0.7794,-1.095439 0.60471,-0.849757 m 1.01836,-0.04131 -4.89718,6.882027 m -0.77949,1.095377 -0.36177,0.508339 m 0.29373,0.976979 4.6555,-6.542381 m 0.7794,-1.095436 1.32804,-1.866291 m 1.01835,-0.04129 -5.62054,7.898532 m -0.7794,1.095438 -1.08759,1.528392 m 0.29373,0.976964 5.38136,-7.562406 m 0.77939,-1.095428 2.051369,-2.882818 m 1.01835,-0.0413 -6.343889,8.915066 m -0.77948,1.09537 -1.81343,2.548448 m 0.29377,0.976987 6.10719,-8.582445 m 0.77947,-1.09538 2.774699,-3.899356 m 1.03026,-0.05804 -7.079139,9.948328 m -0.77947,1.09537 -2.53934,3.568441 m 0.0476,1.322816 7.079139,-9.94832 m 0.77939,-1.095431 3.49808,-4.915863 m 0.30692,0.958482 -7.079149,9.948323 m -0.77947,1.09537 -3.26516,4.588497 m 0.77349,0.302784 7.079149,-9.948318 m 0.7794,-1.095436 4.23133,-5.946301 m 1.02652,-0.05279 -0.67342,0.946317 m -0.77947,1.095388 -7.079139,9.94832 m -0.77947,1.09537 -4.01362,5.64038 m 0.32676,0.930563 0.41574,-0.584277 m 0.7794,-1.095444 7.079139,-9.948314 m 0.77939,-1.095428 4.92822,-6.92562 m 0.94745,0.05834 -1.29122,1.814531 m -0.77947,1.09537 -7.07914,9.948328 m -0.779379,1.095415 -4.63651,6.515676 m 0.39538,0.834168 0.97006,-1.363154 m 0.77941,-1.095428 7.079119,-9.948313 m 0.77939,-1.09543 5.47873,-7.699256 m 0.8896,0.139618 -1.78383,2.506901 m -0.77949,1.09538 -7.07913,9.948317 m -0.77947,1.095373 -5.131749,7.211658 m 0.44651,0.762301 1.4141,-1.98732 m 0.7794,-1.09543 7.079119,-9.948315 m 0.77941,-1.095436 5.92127,-8.321193 m 0.84026,0.208965 -2.95659,4.154847 m 0,0 -7.07913,9.948328 m -0.77946,1.095362 -5.531299,7.773149 m 0.48552,0.707483 1.77467,-2.493955 m 0.7795,-1.095386 7.079119,-9.948306 m 0.77939,-1.095436 6.2819,-8.827963 m 0.8123,0.248277 -2.50978,3.526903 m -0.77947,1.095378 -7.07914,9.948328 m -0.77947,1.095372 -5.531279,7.773149 m 0.18932,1.123701 2.070869,-2.910162 m 0.7794,-1.095436 7.07914,-9.948323 m 0.77939,-1.095428 6.57924,-9.245798 m 0.78612,0.285051 -2.78085,3.908026 m -0.77947,1.09538 -7.07914,9.948328 m -0.77947,1.095362 -6.127259,8.610645 m 0.53897,0.63237 2.317189,-3.256338 m 0.77939,-1.095428 7.07914,-9.948315 m 0.77939,-1.095436 6.827313,-9.594413 m 0.76575,0.313666 -3.008583,4.227994 m -0.77947,1.095388 -7.07914,9.948328 m -0.77947,1.095362 -6.353049,8.927984 m 0.556959,0.607089 2.52499,-3.548391 m 0.77939,-1.09543 7.07914,-9.948313 m 0.7794,-1.095446 7.076103,-9.944037 m 0.71101,0.390613 -3.202673,4.500681 m -0.77948,1.095386 -7.07914,9.948315 m -0.77939,1.095428 -6.54518,9.197961 m 0.5706,0.587934 2.70347,-3.799232 m 0.77939,-1.095436 7.07914,-9.948322 m 0.7794,-1.095447 7.076113,-9.944044 m 0.87943,0.153934 -3.37109,4.737341 m -0.77949,1.09538 -7.079133,9.948328 m -0.77947,1.09537 -6.71193,9.432282 m 0.58061,0.573852 2.86022,-4.019446 m 0.7794,-1.095439 7.07913,-9.948312 m 0.77941,-1.095439 7.076103,-9.944044 m 1.02897,-0.0562 -3.52063,4.947467 m -0.77949,1.095381 -7.079143,9.948328 m -0.77947,1.095361 -6.86026,9.640729 m 0.58752,0.56415 3.00163,-4.218204 m 0.77939,-1.095431 7.07914,-9.948312 m 0.77939,-1.095431 7.076133,-9.944052 m 1.16541,-0.247994 -3.65703,5.13929 m -0.77949,1.095389 -7.079143,9.948328 m -0.77947,1.095362 -6.99616,9.831702 m 0.60537,0.539067 3.11966,-4.384135 m 0.77948,-1.095372 7.07912,-9.94831 m 0.779393,-1.095438 7.07612,-9.944045 m 1.24679,-0.362333 -3.73839,5.253648 m -0.77949,1.095378 -7.079143,9.94832 m -0.77948,1.09538 -7.07607,9.944042 m 0.6355,0.496694 3.16937,-4.454077 m 0.77948,-1.095389 7.079163,-9.948346 m 0.77941,-1.095428 7.0761,-9.944053 m 1.30151,-0.439211 -3.79316,5.330497 m -0.77947,1.09537 -7.079163,9.948328 m -0.77948,1.09538 -7.12209,10.008701 m 0.6318,0.50191 3.21926,-4.523921 m 0.77948,-1.09538 7.079133,-9.948309 m 0.7794,-1.095431 7.07609,-9.944044 m 1.35622,-0.516102 -3.84786,5.40739 m -0.77947,1.095378 -7.079143,9.94832 m -0.77948,1.09537 -7.17186,10.078631 m 0.6318,0.50191 3.26898,-4.593878 m 0.7794,-1.095428 7.079133,-9.948306 m 0.77942,-1.095428 7.07608,-9.944053 m 1.43615,-0.628428 -3.92779,5.519712 m -0.77947,1.095385 -7.07916,9.94832 m -0.77947,1.095373 -7.076093,9.94405 m 0.50228,0.683934 3.30273,-4.641297 m 0.77947,-1.09538 7.079153,-9.948313 m 0.7794,-1.095438 7.07608,-9.944042 m 1.43615,-0.628428 -3.92777,5.519711 m -0.77949,1.095378 -7.07913,9.94832 m -0.77947,1.095378 -7.076093,9.944044 m 0.52415,0.6531787 3.2808,-4.6105537 m 0.77949,-1.095386 7.079153,-9.948315 m 0.7794,-1.095428 7.07609,-9.944044 m 1.38557,-0.557361 -3.87719,5.448652 m -0.77949,1.095381 -7.07913,9.948328 m -0.77948,1.095369 -7.076103,9.9440374 m 0.55501,0.6098287 3.25003,-4.5671621 m 0.779493,-1.095378 7.07914,-9.948315 m 0.77939,-1.095428 7.0761,-9.94405 m 1.34812,-0.504729 -3.83976,5.396021 m -0.77947,1.09538 -7.07914,9.948328 m -0.77947,1.095362 -7.076113,9.9440498 m 0.59887,0.5481917 3.206103,-4.5055475 m 0.77942,-1.095437 7.07914,-9.948323 m 0.77941,-1.095444 7.07608,-9.944039 m 1.29576,-0.431139 -3.78742,5.322396 m -0.77949,1.095385 -7.07913,9.948328 m -0.77946,1.095365 -7.076123,9.9440427 m 0.65963,0.462796 3.145103,-4.4198477 m 0.77941,-1.095427 7.07942,-9.948731 m 0.77941,-1.095443 7.07608,-9.944032 m 1.22426,-0.330644 -3.71589,5.221917 m -0.77949,1.09537 -7.07912,9.948328 m -0.77947,1.09537 -7.076123,9.9440367 m 0.742343,0.346557 3.06266,-4.3039127 m 0.77949,-1.095388 7.07914,-9.948304 m 0.77939,-1.095438 7.07608,-9.944042 m 1.12888,-0.196623 -3.62048,5.087935 m -0.77939,1.095431 -7.07912,9.948328 m -0.77947,1.095362 -6.93961,9.7522137 m 0.71482,0.385229 2.95374,-4.1507913 m 0.77938,-1.0954284 7.07914,-9.948313 m 0.77938,-1.095428 7.07611,-9.944044 m 1.00424,-0.02148 -3.49587,4.912765 m -0.77948,1.095378 -7.07914,9.948328 m -0.77947,1.095364 -6.81527,9.5774967 m 0.73183,0.361363 2.8123,-3.9521996 m 0.77949,-1.0953784 7.07912,-9.9483127 m 0.77941,-1.095439 7.07608,-9.944042 m 0.84374,0.204082 -3.33539,4.687191 m -0.7794,1.095436 -7.07913,9.94832 m -0.77947,1.095378 -6.65509,9.3523957 m 0.75272,0.331989 2.63126,-3.6977292 m 0.77939,-1.0954354 7.07912,-9.9483051 m 0.7794,-1.095438 7.07609,-9.944045 m 0.63901,0.491805 -3.13057,4.399518 m -0.77947,1.095381 -7.07915,9.948315 m -0.77948,1.095378 -6.4507,9.0652017 m 0.77875,0.295386 2.40083,-3.373936 m 0.77947,-1.0953872 7.07915,-9.9483125 m 0.77939,-1.095428 6.9361,-9.747327 m 0.51887,0.660628 -2.87059,4.033895 m -0.77939,1.095439 -7.07913,9.948317 m -0.77948,1.095372 -6.19101,8.7002267 m 0.81194,0.248756 2.1079,-2.962361 m 0.77948,-1.095379 7.07912,-9.9483137 m 0.77941,-1.095427 6.64286,-9.335225 m 0.48107,0.713755 -2.98791,4.198837 m -0.33106,0.465246 -7.07914,9.948329 m -0.77946,1.095363 -5.86024,8.2353827 m 0.85566,0.187337 1.73349,-2.436035 m 0.77947,-1.095379 7.07915,-9.9483127 m 0.77939,-1.095438 6.26826,-8.808808 m 0.43031,0.785064 -2.56251,3.601138 m -0.33107,0.465246 -7.07912,9.948312 m -0.77949,1.0953787 -5.43465,7.637334 m 0.84024,0.209002 1.32333,-1.859648 m 0.77948,-1.095388 7.07914,-9.9483117 m 0.77939,-1.09543 5.85448,-8.227333 m 0.49055,0.700448 -1.76053,2.474171 m -0.7794,1.095431 -7.07912,9.9483267 m -0.77947,1.0953704 -5.08567,7.1469016 m 0.82221,0.234314 0.99235,-1.394553 m 0.77947,-1.095379 7.07912,-9.9483097 m 0.77949,-1.09538 5.52207,-7.760173 m 0.49027,0.700804 -1.4279,2.006613 m -0.7794,1.095431 -7.07913,9.9483254 m -0.77946,1.0953624 -4.75447,6.6814329 m 0.8225,0.233933 0.66082,-0.928715 m 0.77949,-1.095379 7.07913,-9.9483047 m 0.7794,-1.095438 5.18911,-7.292284 m 0.48996,0.701233 -1.09462,1.538292 m -0.7794,1.095439 -7.07914,9.9483268 m -0.77947,1.0953619 -4.42265,6.21515397 m 0.82283,0.233457 0.32871,-0.46194397 m 0.77947,-1.095371 7.07914,-9.9483117 m 0.77939,-1.095437 4.85554,-6.823499 m 0.48959,0.701771 -0.76065,1.068982 m -0.77947,1.095373 -7.07913,9.9483247 m -0.77948,1.095371 -4.09013,5.74786694 m 1.5985,-0.85657794 7.07912,-9.9483187 m 0.77947,-1.095371 4.52109,-6.353483 m 0.48899,0.702609 -0.42558,0.598143 m -0.77939,1.095428 -7.07914,9.9483217 m -0.77948,1.095371 -3.75654,5.27903591 m 1.26489,-0.38775197 7.07915,-9.94831264 m 0.77947,-1.095371 4.18523,-5.881515 m -0.38024,1.924135 -7.07915,9.9483217 m -0.77946,1.095371 -3.42088,4.80738783 m 0.92926,0.08388 7.07913,-9.94831313 m 0.7794,-1.0954364 3.84606,-5.404892 m -0.0411,1.447514 -7.07914,9.9483267 m -0.77946,1.095363 -3.07921,4.3272539 m 0.77209,0.3047759 6.89463,-9.6890277 m 0.77948,-1.0953794 3.55525,-4.9961134 m 0.24978,1.038781 -7.07912,9.9483107 m -0.77949,1.095378 -2.87402,4.0387579 m 0.7368,0.354327 6.72467,-9.4501631 m 0.77947,-1.0953704 3.38357,-4.7549721 m 0.42141,0.797584 -7.07914,9.9483197 m -0.77949,1.09538 -2.71912,3.8211489 m 0.72786,0.366911 6.57875,-9.2451099 m 0.77939,-1.0954292 3.23645,-4.5481705 m 0.56855,0.590809 -7.07913,9.9483187 m -0.77947,1.09536197 -2.57923,3.62453103 m 0.72361,0.372868 6.4431,-9.054478 m 0.77948,-1.095387 3.09966,-4.3559347 m 0.59057,0.559869 -6.96436,9.78702867 m -0.77948,1.09537194 -2.44665,3.43841209 m 0.72119,0.376305 6.313,-8.871689 m 0.77949,-1.095387 2.96847,-4.171601 m 0.59241,0.5572627 -6.83504,9.60528921 m -0.77947,1.09537089 -2.31848,3.2581642 m 0.71981,0.378259 6.18617,-8.693457 m 0.77939,-1.09543 2.84062,-3.9917946 m 0.59346,0.5557917 -6.70816,9.4269997 m -0.77939,1.0954211 -2.19275,3.0813511 m 0.71905,0.379316 6.06113,-8.517724 m 0.7794,-1.095436 2.71439,-3.8146422 m 0.59396,0.5550942 -6.58254,9.2504699 m -0.77947,1.0953621 -2.06809,2.906402 m 0.71875,0.379724 5.93686,-8.343075 m 0.77948,-1.095386 2.5891,-3.638441 m 0.59403,0.555005 -6.45723,9.0744179 m -0.77923,1.0955441 -1.94417,2.731626 m 0.71892,0.379469 5.81247,-8.16834003 m 0.77923,-1.09555197 2.46349,-3.462324 m 0.59368,0.55548 -6.33153,8.897647 m -0.77923,1.095544 -1.81895,2.55676 m 0.71944,0.378749 5.68731,-7.99233509 m 0.77923,-1.09554491 2.3375,-3.284643 m 0.59295,0.556495 -6.20449,8.719169 m -0.77922,1.095537 -1.69332,2.379561 m 0.72038,0.37745 5.56039,-7.8140301 m 0.77923,-1.09554496 2.20904,-3.10519294 m 0.59179,0.558148 -6.07535,8.537724 m -0.77923,1.095545 -1.56555,2.199361 m 0.72181,0.3753986 5.43087,-7.6320547 m 0.77924,-1.09555207 2.07878,-2.92147683 m 0.59004,0.560584 -5.94303,8.351792 m -0.77923,1.095552 -1.43381,2.0152856 m 0.72392,0.3724797 5.29752,-7.4446794 m 0.77924,-1.095552 1.9447,-2.73237693 m 0.58751,0.56414797 -5.8061,8.15936706 m -0.77923,1.095545 -1.29826,1.8241213 m 0.72696,0.368166 5.1587,-7.2493983 m 0.77922,-1.0955441 1.80505,-2.53541099 m 0.58377,0.56941192 -5.66238,7.95735617 m -0.77923,1.0955436 -1.15512,1.6239677 m 0.73164,0.361604 5.01129,-7.0423723 m 0.77924,-1.095553 1.65535,-2.3277432 m 0.57781,0.5777781 -5.50796,7.7404427 m -0.77924,1.0955537 -1.00218,1.408265 m 0.73953,0.350504 4.85015,-6.8157913 m 0.77924,-1.095552 1.4935,-2.0994801"
         style="fill:none;stroke:#000000;stroke-width:0.29438636;stroke-linecap:butt;stroke-linejoin:miter;stroke-miterlimit:10;stroke-opacity:1"
         id="path5144-2-1-3" />
    </g>
  </g>
</svg>
