<?xml version="1.0" encoding="UTF-8" standalone="no"?>
<!-- Generator: Adobe Illustrator 24.0.1, SVG Export Plug-In . SVG Version: 6.00 Build 0)  -->

<svg
   xmlns:dc="http://purl.org/dc/elements/1.1/"
   xmlns:cc="http://creativecommons.org/ns#"
   xmlns:rdf="http://www.w3.org/1999/02/22-rdf-syntax-ns#"
   xmlns:svg="http://www.w3.org/2000/svg"
   xmlns="http://www.w3.org/2000/svg"
   xmlns:sodipodi="http://sodipodi.sourceforge.net/DTD/sodipodi-0.dtd"
   xmlns:inkscape="http://www.inkscape.org/namespaces/inkscape"
   version="1.1"
   id="Ebene_1"
   x="0px"
   y="0px"
   viewBox="0 0 755.9055 755.9055"
   xml:space="preserve"
   sodipodi:docname="flower_13.svg"
   width="20cm"
   height="20cm"
   inkscape:version="0.92.4 (5da689c313, 2019-01-14)"><metadata
   id="metadata2001"><rdf:RDF><cc:Work
       rdf:about=""><dc:format>image/svg+xml</dc:format><dc:type
         rdf:resource="http://purl.org/dc/dcmitype/StillImage" /><dc:title></dc:title></cc:Work></rdf:RDF></metadata><defs
   id="defs1999" /><sodipodi:namedview
   pagecolor="#ffffff"
   bordercolor="#666666"
   borderopacity="1"
   objecttolerance="10"
   gridtolerance="10"
   guidetolerance="10"
   inkscape:pageopacity="0"
   inkscape:pageshadow="2"
   inkscape:window-width="1920"
   inkscape:window-height="986"
   id="namedview1997"
   showgrid="false"
   units="cm"
   inkscape:zoom="0.83259831"
   inkscape:cx="304.21418"
   inkscape:cy="446.6111"
   inkscape:window-x="-11"
   inkscape:window-y="-11"
   inkscape:window-maximized="1"
   inkscape:current-layer="Ebene_1" />
<style
   type="text/css"
   id="style2">
	.st0{fill:none;stroke:#000000;stroke-width:0.25;stroke-miterlimit:10;}
	.st1{fill:none;stroke:#336699;stroke-width:0.75;stroke-miterlimit:10;}
	.st2{fill:none;stroke:#0000FF;stroke-miterlimit:10;}
</style>
<g
   id="test"
   transform="matrix(1.3902025,0.27635406,-0.27635406,1.3902025,54.468075,-46.009977)">
	<path
   class="st0"
   d="M 267.8,189.9"
   id="path4"
   inkscape:connector-curvature="0"
   style="fill:none;stroke:#000000;stroke-width:0.25;stroke-miterlimit:10" />
	<path
   class="st0"
   d="M 293.8,189.9"
   id="path6"
   inkscape:connector-curvature="0"
   style="fill:none;stroke:#000000;stroke-width:0.25;stroke-miterlimit:10" />
	<path
   id="XMLID_9_"
   class="st1"
   d="m 293.4,190.9 h 0.3"
   inkscape:connector-curvature="0"
   style="fill:none;stroke:#336699;stroke-width:0.75;stroke-miterlimit:10" />
	<path
   id="XMLID_8_"
   class="st1"
   d="M 268.6,190.9 H 269"
   inkscape:connector-curvature="0"
   style="fill:none;stroke:#336699;stroke-width:0.75;stroke-miterlimit:10" />
	<path
   id="XMLID_7_"
   class="st1"
   d="m 293.6,190.9 c 2.9,-1.6 8.9,-46.1 11.2,-50.4 1.2,-2.3 9.4,-19.5 9.4,-19.5 6.7,-9.3 7.4,-22.7 7.7,-34 l -0.8,-11.3 c -2.3,-12.4 -5,-23.5 -14.5,-31.5 L 285,23.5 c -1,-1 -2.1,-2.1 -3.9,-2.2 -1.8,0 -3,1.2 -4,2.2 l -21.6,20.7 c -9.4,8 -12.2,19.2 -14.5,31.5 L 240.1,87 c 0.3,11.4 1,24.7 7.7,34 0,0 8.2,17.2 9.4,19.5 2.3,4.3 8.3,48.9 11.2,50.4"
   inkscape:connector-curvature="0"
   style="fill:none;stroke:#336699;stroke-width:0.75;stroke-miterlimit:10" />
</g>
<g
   id="test_1_"
   transform="matrix(1.3902025,0.27635406,-0.27635406,1.3902025,54.468075,-46.009977)">
	<path
   id="XMLID_13_"
   class="st1"
   d="m 249.3,202.1 0.1,-0.2"
   inkscape:connector-curvature="0"
   style="fill:none;stroke:#336699;stroke-width:0.75;stroke-miterlimit:10" />
	<path
   id="XMLID_12_"
   class="st1"
   d="m 236.9,223.7 0.3,-0.5"
   inkscape:connector-curvature="0"
   style="fill:none;stroke:#336699;stroke-width:0.75;stroke-miterlimit:10" />
	<path
   id="XMLID_11_"
   class="st1"
   d="m 236.9,223.7 c -3.5,1.2 -67.9,-28.9 -75,-30.4 -3.7,-0.8 -31.6,-7.3 -31.6,-7.3 -16.2,-1.6 -34.9,-11.6 -50.7,-20.4 L 64.5,155.9 C 48.6,144.1 34.7,132.8 28.3,118.3 L 10.7,83.1 c -0.9,-1.6 -2,-3.5 -1,-5.1 1.1,-1.5 3.1,-1.6 4.9,-1.7 l 39.3,-2.2 c 15.8,-1.9 32.5,4.6 50.7,12.5 l 15.9,8.3 c 15.5,9.3 33.5,20.5 43,33.7 0,0 19.6,20.8 22.1,23.7 4.8,5.4 63,45.9 63.8,49.7"
   inkscape:connector-curvature="0"
   style="fill:none;stroke:#336699;stroke-width:0.75;stroke-miterlimit:10" />
	<path
   id="XMLID_1_"
   class="st1"
   d="M 237.5,189.1"
   inkscape:connector-curvature="0"
   style="fill:none;stroke:#336699;stroke-width:0.75;stroke-miterlimit:10" />
</g>
<g
   id="test_2_"
   transform="matrix(1.3902025,0.27635406,-0.27635406,1.3902025,54.468075,-46.009977)">
	<path
   id="XMLID_4_"
   class="st1"
   d="m 325.6,224 c 3.3,1.5 56.1,-22.1 62.1,-23 3.1,-0.4 26.6,-4.5 26.6,-4.5 13.8,-0.2 29.1,-8.3 42,-15.4 l 12.3,-8 c 12.7,-10 23.9,-19.5 28.1,-33 L 509.1,108 c 0.6,-1.5 1.2,-3.2 0.4,-4.9 -0.9,-1.6 -2.8,-1.8 -4.4,-2 l -34,-5.3 c -13.7,-3 -27.6,1.8 -42.6,7.8 l -13.1,6.5 c -12.6,7.6 -27.2,16.8 -34.3,28.7 0,0 -15.2,18.3 -17.2,20.8 -3.7,4.8 -50.6,38.9 -50.9,42.3"
   inkscape:connector-curvature="0"
   style="fill:none;stroke:#336699;stroke-width:0.75;stroke-miterlimit:10" />
</g>



<path
   class="st0"
   d="M 459.2362,317.5552"
   id="path988"
   inkscape:connector-curvature="0"
   style="fill:none;stroke:#000000;stroke-width:0.35435104;stroke-miterlimit:10" />
<path
   class="st0"
   d="M 471.78427,351.12006"
   id="path990"
   inkscape:connector-curvature="0"
   style="fill:none;stroke:#000000;stroke-width:0.35435104;stroke-miterlimit:10" />
<g
   id="XMLID_605_"
   transform="matrix(3.6271592,0.72103174,-0.72103174,3.6271592,-469.6688,-697.58469)">
	<circle
   class="st2"
   cx="281.29999"
   cy="235.2"
   r="15.4"
   id="circle992"
   style="fill:none;stroke:#0000ff;stroke-miterlimit:10" />
</g>
<g
   id="XMLID_604_"
   transform="matrix(1.3902025,0.27635406,-0.27635406,1.3902025,54.468075,-46.009977)">
	<path
   id="XMLID_3629_"
   class="st2"
   d="m 249.2,202.4 c 5.6,-5.5 12.6,-9.5 20.4,-11.6"
   inkscape:connector-curvature="0"
   style="fill:none;stroke:#0000ff;stroke-miterlimit:10" />
	<path
   id="XMLID_3634_"
   class="st2"
   d="m 236.8,246.1 c -0.9,-3.5 -1.3,-7.2 -1.3,-10.9 0,-3.9 0.4,-7.7 1.4,-11.3"
   inkscape:connector-curvature="0"
   style="fill:none;stroke:#0000ff;stroke-miterlimit:10" />
	<path
   id="XMLID_3624_"
   class="st2"
   d="m 268.9,279.3 c -7.6,-2.2 -14.3,-6.2 -19.7,-11.5"
   inkscape:connector-curvature="0"
   style="fill:none;stroke:#0000ff;stroke-miterlimit:10" />
	<path
   id="XMLID_3631_"
   class="st2"
   d="m 313.5,267.8 c -5.4,5.3 -12.1,9.3 -19.6,11.5"
   inkscape:connector-curvature="0"
   style="fill:none;stroke:#0000ff;stroke-miterlimit:10" />
	<path
   id="XMLID_3630_"
   class="st2"
   d="m 325.7,223.7 c 1,3.7 1.4,7.5 1.4,11.5 0,3.8 -0.4,7.5 -1.3,10.9"
   inkscape:connector-curvature="0"
   style="fill:none;stroke:#0000ff;stroke-miterlimit:10" />
	<path
   id="XMLID_3018_"
   class="st2"
   d="m 293,190.8 c 7.7,2.1 14.6,6.1 20.3,11.5"
   inkscape:connector-curvature="0"
   style="fill:none;stroke:#0000ff;stroke-miterlimit:10" />
</g>
<g
   id="test_6_"
   transform="matrix(1.3902025,0.27635406,-0.27635406,1.3902025,54.468075,-46.009977)">
	<path
   class="st0"
   d="M 267.9,189.9"
   id="path1002"
   inkscape:connector-curvature="0"
   style="fill:none;stroke:#000000;stroke-width:0.25;stroke-miterlimit:10" />
	<path
   class="st0"
   d="M 293.9,189.9"
   id="path1004"
   inkscape:connector-curvature="0"
   style="fill:none;stroke:#000000;stroke-width:0.25;stroke-miterlimit:10" />
	<path
   id="XMLID_24_"
   class="st1"
   d="M 268.6,190.9"
   inkscape:connector-curvature="0"
   style="fill:none;stroke:#336699;stroke-width:0.75;stroke-miterlimit:10" />
	<path
   id="XMLID_23_"
   class="st1"
   d="M 293.7,190.9"
   inkscape:connector-curvature="0"
   style="fill:none;stroke:#336699;stroke-width:0.75;stroke-miterlimit:10" />
</g>
<g
   id="test_5_"
   transform="matrix(1.3902025,0.27635406,-0.27635406,1.3902025,54.468075,-46.009977)">
	<path
   class="st0"
   d="M 294.7,280.2"
   id="path1009"
   inkscape:connector-curvature="0"
   style="fill:none;stroke:#000000;stroke-width:0.25;stroke-miterlimit:10" />
	<path
   class="st0"
   d="M 268.7,280.2"
   id="path1011"
   inkscape:connector-curvature="0"
   style="fill:none;stroke:#000000;stroke-width:0.25;stroke-miterlimit:10" />
	<path
   id="XMLID_16_"
   class="st1"
   d="m 269.1,279.2 h -0.3"
   inkscape:connector-curvature="0"
   style="fill:none;stroke:#336699;stroke-width:0.75;stroke-miterlimit:10" />
	<path
   id="XMLID_15_"
   class="st1"
   d="m 293.9,279.2 h -0.4"
   inkscape:connector-curvature="0"
   style="fill:none;stroke:#336699;stroke-width:0.75;stroke-miterlimit:10" />
	<path
   id="XMLID_14_"
   class="st1"
   d="m 268.9,279.2 c -2.9,1.6 -8.9,46.1 -11.2,50.4 -1.2,2.3 -9.4,19.5 -9.4,19.5 -6.7,9.3 -7.4,22.7 -7.7,34 l 0.8,11.3 c 2.3,12.4 5,23.5 14.5,31.5 l 21.6,20.7 c 1,1 2.1,2.1 3.9,2.2 1.8,0 3,-1.2 4,-2.2 L 307,425.9 c 9.4,-8 12.2,-19.2 14.5,-31.5 l 0.9,-11.3 c -0.3,-11.4 -1,-24.7 -7.7,-34 0,0 -8.2,-17.2 -9.4,-19.5 -2.3,-4.3 -8.3,-48.9 -11.2,-50.4"
   inkscape:connector-curvature="0"
   style="fill:none;stroke:#336699;stroke-width:0.75;stroke-miterlimit:10" />
</g>
<g
   id="test_4_"
   transform="matrix(1.3902025,0.27635406,-0.27635406,1.3902025,54.468075,-46.009977)">
	<path
   id="XMLID_10_"
   class="st1"
   d="m 313.2,268 -0.1,0.2"
   inkscape:connector-curvature="0"
   style="fill:none;stroke:#336699;stroke-width:0.75;stroke-miterlimit:10" />
	<path
   id="XMLID_5_"
   class="st1"
   d="m 325.7,246.1 c 3.5,-1.2 67.8,29.2 74.9,30.7 3.7,0.8 31.6,7.3 31.6,7.3 16.2,1.6 34.9,11.6 50.7,20.4 l 15.1,9.7 c 15.9,11.8 29.8,23.1 36.2,37.6 l 17.7,35.1 c 0.9,1.6 2,3.5 1,5.1 -1.1,1.5 -3.1,1.6 -4.9,1.7 l -39.3,2.2 c -15.8,1.9 -32.5,-4.6 -50.7,-12.5 l -15.9,-8.3 c -15.5,-9.3 -33.5,-20.5 -43,-33.7 0,0 -19.6,-20.8 -22.1,-23.7 -4.8,-5.4 -63,-45.9 -63.8,-49.7"
   inkscape:connector-curvature="0"
   style="fill:none;stroke:#336699;stroke-width:0.75;stroke-miterlimit:10" />
	<path
   id="XMLID_3_"
   class="st1"
   d="M 325,281"
   inkscape:connector-curvature="0"
   style="fill:none;stroke:#336699;stroke-width:0.75;stroke-miterlimit:10" />
</g>
<g
   id="test_3_"
   transform="matrix(1.3902025,0.27635406,-0.27635406,1.3902025,54.468075,-46.009977)">
	<path
   id="XMLID_2_"
   class="st1"
   d="m 237,246.1 c -3.3,-1.5 -56.1,22.1 -62.1,23 -3.1,0.4 -26.6,4.5 -26.6,4.5 -13.8,0.2 -29.1,8.3 -42,15.4 L 94,297 c -12.7,10 -23.9,19.5 -28.1,33 l -12.4,32 c -0.6,1.5 -1.2,3.2 -0.4,4.9 0.9,1.6 2.8,1.8 4.4,2 l 34,5.3 c 13.7,3 27.6,-1.8 42.6,-7.8 l 13.1,-6.5 c 12.6,-7.6 27.2,-16.8 34.3,-28.7 0,0 15.2,-18.3 17.2,-20.8 3.7,-4.8 50.6,-38.9 50.9,-42.3"
   inkscape:connector-curvature="0"
   style="fill:none;stroke:#336699;stroke-width:0.75;stroke-miterlimit:10" />
</g>



</svg>