<?xml version="1.0" encoding="utf-8"?>
<!-- Generator: Adobe Illustrator 19.0.0, SVG Export Plug-In . SVG Version: 6.00 Build 0)  -->
<svg version="1.1" id="Ebene_1" xmlns="http://www.w3.org/2000/svg" xmlns:xlink="http://www.w3.org/1999/xlink" x="0px" y="0px"
	 viewBox="0 0 566.9 566.9" style="enable-background:new 0 0 566.9 566.9;" xml:space="preserve">
<style type="text/css">
	.st0{fill:none;stroke:#0000FF;stroke-miterlimit:10;}
	.st1{clip-path:url(#XMLID_3636_);}
	.st2{fill:none;stroke:#000000;stroke-width:0.25;stroke-miterlimit:10;}
	.st3{fill:none;stroke:#336699;stroke-width:0.75;stroke-miterlimit:10;}
	.st4{clip-path:url(#XMLID_3637_);}
	.st5{clip-path:url(#XMLID_3638_);}
	.st6{clip-path:url(#XMLID_3639_);}
	.st7{clip-path:url(#XMLID_3640_);}
	.st8{clip-path:url(#XMLID_3641_);}
</style>
<g id="XMLID_605_">
	<circle class="st0" cx="220.5" cy="223.2" r="14.2"/>
</g>
<g id="XMLID_3019_">
	<g id="XMLID_3022_">
		<defs>
			<path id="XMLID_3023_" d="M220.5,25.8c-1.7,0-2.7,1.1-3.6,2L197,46.9c-8.7,7.4-11.3,17.7-13.4,29.1l-0.8,10.4
				c0.3,10.5,0.9,22.8,7.1,31.4c0,0,7.6,15.9,8.7,18c2.1,4,7.7,45.1,10.3,46.5h23.1c2.7-1.5,8.2-42.5,10.3-46.5
				c1.1-2.1,8.7-18,8.7-18c6.2-8.6,6.8-20.9,7.1-31.4L257.5,76c-2.1-11.4-4.6-21.7-13.4-29.1l-19.9-19.1
				C223.2,26.9,222.2,25.8,220.5,25.8"/>
		</defs>
		<clipPath id="XMLID_3636_">
			<use xlink:href="#XMLID_3023_"  style="overflow:visible;"/>
		</clipPath>
		<g id="surface6361" class="st1">
			<path id="XMLID_3024_" class="st2" d="M258.4,353.1v-35.7 M258.4,315.6h-18 M236.8,315.6h-32.5 M200.7,315.6h-32.4 M164.7,313.8
				h18 M186.3,313.8h32.5 M222.3,313.8h32.4 M258.4,312h-18 M236.8,312h-32.5 M200.7,312h-32.4 M164.7,310.2h18 M186.3,310.2h32.5
				 M222.3,310.2h32.4 M258.4,308.4h-18 M236.8,308.4h-32.5 M200.7,308.4h-32.4 M164.7,306.6h18 M186.3,306.6h32.5 M222.3,306.6
				h32.4 M258.4,304.8h-18 M236.8,304.8h-32.5 M200.7,304.8h-32.4 M164.7,303.1h18 M186.3,303.1h32.5 M222.3,303.1h32.4
				 M258.4,301.3h-18 M236.8,301.3h-32.5 M200.7,301.3h-32.4 M164.7,299.5h18 M186.3,299.5h32.5 M222.3,299.5h32.4 M258.4,297.7h-18
				 M236.8,297.7h-32.5 M200.7,297.7h-32.4 M164.7,295.9h18 M186.3,295.9h32.5 M222.3,295.9h32.4 M258.4,294.1h-18 M236.8,294.1
				h-32.5 M200.7,294.1h-32.4 M164.7,292.3h18 M186.3,292.3h32.5 M222.3,292.3h32.4 M258.4,290.5h-18 M236.8,290.5h-32.5
				 M200.7,290.5h-32.4 M164.7,288.8h18 M186.3,288.8h32.5 M222.3,288.8h32.4 M258.4,287h-18 M236.8,287h-32.5 M200.7,287h-32.4
				 M164.7,285.2h18 M186.3,285.2h32.5 M222.3,285.2h32.4 M258.4,283.4h-18 M236.8,283.4h-32.5 M200.7,283.4h-32.4 M164.7,281.6h18
				 M186.3,281.6h32.5 M222.3,281.6h32.4 M258.4,279.8h-18 M236.8,279.8h-32.5 M200.7,279.8h-32.4 M164.7,278h18 M186.3,278h32.5
				 M222.3,278h32.4 M258.4,276.2h-18 M236.8,276.2h-32.5 M200.7,276.2h-32.4 M164.7,274.5h18 M186.3,274.5h32.5 M222.3,274.5h32.4
				 M258.4,272.7h-18 M236.8,272.7h-32.5 M200.7,272.7h-32.4 M164.7,270.9h18 M186.3,270.9h32.5 M222.3,270.9h32.4 M258.4,269.1h-18
				 M236.8,269.1h-32.5 M200.7,269.1h-32.4 M164.7,267.3h18 M186.3,267.3h32.5 M222.3,267.3h32.4 M258.4,265.5h-18 M236.8,265.5
				h-32.5 M200.7,265.5h-32.4 M164.7,263.7h18 M186.3,263.7h32.5 M222.3,263.7h32.4 M258.4,262h-18 M236.8,262h-32.5 M200.7,262
				h-32.4 M164.7,260.2h18 M186.3,260.2h32.5 M222.3,260.2h32.4 M258.4,258.4h-18 M236.8,258.4h-32.5 M200.7,258.4h-32.4
				 M164.7,256.6h18 M186.3,256.6h32.5 M222.3,256.6h32.4 M258.4,254.8h-18 M236.8,254.8h-32.5 M200.7,254.8h-32.4 M164.7,253h18
				 M186.3,253h32.5 M222.3,253h32.4 M258.4,251.2h-18 M236.8,251.2h-32.5 M200.7,251.2h-32.4 M164.7,249.4h18 M186.3,249.4h32.5
				 M222.3,249.4h32.4 M258.4,247.7h-18 M236.8,247.7h-32.5 M200.7,247.7h-32.4 M164.7,245.9h18 M186.3,245.9h32.5 M222.3,245.9
				h32.4 M258.4,244.1h-18 M236.8,244.1h-32.5 M200.7,244.1h-32.4 M164.7,242.3h18 M186.3,242.3h32.5 M222.3,242.3h32.4
				 M258.4,240.5h-18 M236.8,240.5h-32.5 M200.7,240.5h-32.4 M164.7,238.7h18 M186.3,238.7h32.5 M222.3,238.7h32.4 M258.4,236.9h-18
				 M236.8,236.9h-32.5 M200.7,236.9h-32.4 M164.7,235.1h18 M186.3,235.1h32.5 M222.3,235.1h32.4 M258.4,233.4h-18 M236.8,233.4
				h-32.5 M200.7,233.4h-32.4 M164.7,231.6h18 M186.3,231.6h32.5 M222.3,231.6h32.4 M258.4,229.8h-18 M236.8,229.8h-32.5
				 M200.7,229.8h-32.4 M164.7,228h18 M186.3,228h32.5 M222.3,228h32.4 M258.4,226.2h-18 M236.8,226.2h-32.5 M200.7,226.2h-32.4
				 M164.7,224.4h18 M186.3,224.4h32.5 M222.3,224.4h32.4 M258.4,222.6h-18 M236.8,222.6h-32.5 M200.7,222.6h-32.4 M164.7,220.8h18
				 M186.3,220.8h32.5 M222.3,220.8h32.4 M258.4,219.1h-18 M236.8,219.1h-32.5 M200.7,219.1h-32.4 M164.7,217.3h18 M186.3,217.3
				h32.5 M222.3,217.3h32.4 M258.4,215.5h-18 M236.8,215.5h-32.5 M200.7,215.5h-32.4 M164.7,213.7h18 M186.3,213.7h32.5
				 M222.3,213.7h32.4 M258.4,211.9h-18 M236.8,211.9h-32.5 M200.7,211.9h-32.4 M164.7,210.1h18 M186.3,210.1h32.5 M222.3,210.1
				h32.4 M258.4,208.3h-18 M236.8,208.3h-32.5 M200.7,208.3h-32.4 M164.7,206.5h18 M186.3,206.5h32.5 M222.3,206.5h32.4
				 M258.4,204.8h-18 M236.8,204.8h-32.5 M200.7,204.8h-32.4 M164.7,203h18 M186.3,203h32.5 M222.3,203h32.4 M258.4,201.2h-18
				 M236.8,201.2h-32.5 M200.7,201.2h-32.4 M164.7,199.4h18 M186.3,199.4h32.5 M222.3,199.4h32.4 M258.4,197.6h-18 M236.8,197.6
				h-32.5 M200.7,197.6h-32.4 M164.7,195.8h18 M186.3,195.8h32.5 M222.3,195.8h32.4 M258.4,194h-18 M236.8,194h-32.5 M200.7,194
				h-32.4 M164.7,192.2h18 M186.3,192.2h32.5 M222.3,192.2h32.4 M258.4,190.5h-18 M236.8,190.5h-32.5 M200.7,190.5h-32.4
				 M164.7,188.7h18 M186.3,188.7h32.5 M222.3,188.7h32.4 M258.4,186.9h-18 M236.8,186.9h-32.5 M200.7,186.9h-32.4 M164.7,185.1h18
				 M186.3,185.1h32.5 M222.3,185.1h32.4 M258.4,183.3h-18 M236.8,183.3h-32.5 M200.7,183.3h-32.4 M164.7,181.5h18 M258.4,179.7h-18
				 M231.3,179.7h-21.6 M200.7,179.7h-32.4 M164.7,178h18 M186.3,178l32.5,0 M222.3,178h32.4 M258.4,176.2h-18 M231.3,176.2h-21.6
				 M200.7,176.2h-32.4 M164.7,174.4h18 M186.3,174.4h32.5 M222.3,174.4h32.4 M258.4,172.6h-18 M236.8,172.6h-32.5 M200.7,172.6
				h-32.4 M164.7,170.8h18 M186.3,170.8h32.5 M222.3,170.8h32.4 M258.4,169h-18 M232.9,169h-24.7 M200.7,169h-32.4 M164.7,167.2h18
				 M186.3,167.2h32.5 M222.3,167.2h32.4 M258.4,165.4h-18 M233.7,165.4h-26.3 M200.7,165.4h-32.4 M164.7,163.7h18 M186.3,163.7
				h32.5 M222.3,163.7h32.4 M258.4,161.9h-18 M233.7,161.9h-26.3 M200.7,161.9h-32.4 M164.7,160.1h18 M186.3,160.1h32.5
				 M222.3,160.1h32.4 M258.4,158.3h-18 M235.5,158.3h-30 M200.7,158.3h-32.4 M164.7,156.5h18 M186.3,156.5h32.5 M222.3,156.5h32.4
				 M258.4,154.7h-18 M235.5,154.7h-30 M200.7,154.7h-32.4 M164.7,152.9h18 M186.3,152.9h32.5 M222.3,152.9h32.4 M258.4,151.1h-18
				 M236.8,151.1h-32.5 M200.7,151.1h-32.4 M164.7,149.4h18 M186.3,149.4h32.5 M222.3,149.4h32.4 M258.4,147.6h-18 M236.8,147.6
				h-32.5 M200.7,147.6h-32.4 M164.7,145.8h18 M186.3,145.8h32.5 M222.3,145.8h32.4 M258.4,144h-18 M236.8,144h-32.5 M200.7,144
				h-32.4 M164.7,142.2h18 M186.3,142.2h32.5 M222.3,142.2h32.4 M258.4,140.4h-18 M236.8,140.4h-32.5 M200.7,140.4h-32.4
				 M164.7,138.6h18 M186.3,138.6h32.5 M222.3,138.6h32.4 M258.4,136.8h-18 M236.8,136.8h-32.5 M200.7,136.8h-32.4 M164.7,135.1h18
				 M186.3,135.1h32.5 M222.3,135.1h32.4 M258.4,133.3h-18 M236.8,133.3h-32.5 M200.7,133.3h-32.4 M164.7,131.5h18 M186.3,131.5
				h32.5 M222.3,131.5h32.4 M258.4,129.7h-18 M236.8,129.7h-32.5 M200.7,129.7h-32.4 M164.7,127.9h18 M186.3,127.9h32.5
				 M222.3,127.9h32.4 M258.4,126.1h-18 M236.8,126.1h-32.5 M200.7,126.1h-32.4 M164.7,124.3h18 M186.3,124.3h32.5 M222.3,124.3
				h32.4 M258.4,122.5h-18 M236.8,122.5h-32.5 M200.7,122.5h-32.4 M164.7,120.8h18 M186.3,120.8h32.5 M222.3,120.8h32.4 M258.4,119
				h-18 M236.8,119h-32.5 M200.7,119h-32.4 M164.7,117.2h18 M186.3,117.2h32.5 M222.3,117.2h32.4 M258.4,115.4h-18 M236.8,115.4
				h-32.5 M200.7,115.4h-32.4 M164.7,113.6h18 M186.3,113.6h32.5 M222.3,113.6h32.4 M258.4,111.8h-18 M236.8,111.8h-32.5
				 M200.7,111.8h-32.4 M164.7,110h18 M186.3,110h32.5 M222.3,110h32.4 M258.4,108.3h-18 M236.8,108.3h-32.5 M200.7,108.3h-32.4
				 M164.7,106.5h18 M186.3,106.5h32.5 M222.3,106.5h32.4 M258.4,104.7h-18 M236.8,104.7h-32.5 M200.7,104.7h-32.4 M164.7,102.9h18
				 M186.3,102.9h32.5 M222.3,102.9h32.4 M258.4,101.1h-18 M236.8,101.1h-32.5 M200.7,101.1h-32.4 M164.7,99.3h18 M186.3,99.3h32.5
				 M222.3,99.3h32.4 M258.4,97.5h-18 M236.8,97.5h-32.5 M200.7,97.5h-32.4 M164.7,95.7h18 M186.3,95.7h32.5 M222.3,95.7h32.4
				 M258.4,94h-18 M236.8,94h-32.5 M200.7,94h-32.4 M164.7,92.2h18 M186.3,92.2h32.5 M222.3,92.2h32.4 M258.4,90.4h-18 M236.8,90.4
				h-32.5 M200.7,90.4h-32.4 M164.7,88.6h18 M186.3,88.6h32.5 M222.3,88.6h32.4 M258.4,86.8h-18 M236.8,86.8h-32.5 M200.7,86.8
				h-32.4 M164.7,85h18 M186.3,85h32.5 M222.3,85h32.4 M258.4,83.2h-18 M236.8,83.2h-32.5 M200.7,83.2h-32.4 M164.7,81.4h18
				 M186.3,81.4h32.5 M222.3,81.4h32.4 M258.4,79.7h-18 M236.8,79.7h-32.5 M200.7,79.7h-32.4 M164.7,77.9h18 M186.3,77.9h32.5
				 M222.3,77.9h32.4 M258.4,76.1h-18 M236.8,76.1h-32.5 M200.7,76.1h-32.4 M164.7,74.3h18 M186.3,74.3h32.5 M222.3,74.3h32.4
				 M258.4,72.5h-18 M236.8,72.5h-32.5 M200.7,72.5h-32.4 M164.7,70.7h18 M186.3,70.7h32.5 M222.3,70.7h32.4 M258.4,68.9h-18
				 M236.8,68.9h-32.5 M200.7,68.9h-32.4 M164.7,67.1h18 M186.3,67.1h32.5 M222.3,67.1h32.4 M258.4,65.4h-18 M236.8,65.4h-32.5
				 M200.7,65.4h-32.4 M164.7,63.6h18 M186.3,63.6h32.5 M222.3,63.6h32.4 M258.4,61.8h-18 M236.8,61.8h-32.5 M200.7,61.8h-32.4
				 M164.7,60h18 M186.3,60h32.5 M222.3,60h32.4 M258.4,58.2h-18 M236.8,58.2h-32.5 M200.7,58.2h-32.4 M164.7,56.4h18 M186.3,56.4
				h32.5 M222.3,56.4h32.4 M258.4,54.6h-18 M236.8,54.6h-32.5 M200.7,54.6h-32.4 M164.7,52.8h18 M186.3,52.8h32.5 M222.3,52.8h32.4
				 M258.4,51.1h-18 M236.8,51.1h-32.5 M200.7,51.1h-32.4 M164.7,49.3h18 M186.3,49.3h32.5 M222.3,49.3h32.4 M258.4,47.5h-18
				 M236.8,47.5h-32.5 M200.7,47.5h-32.4 M164.7,45.7h18 M186.3,45.7h32.5 M222.3,45.7h32.4 M258.4,43.9h-18 M236.8,43.9h-32.5
				 M200.7,43.9h-32.4 M164.7,42.1h18 M186.3,42.1h32.5 M222.3,42.1h32.4 M258.4,40.3h-18 M233.9,40.3h-26.7 M200.7,40.3h-32.4
				 M164.7,38.5h18 M186.3,38.5h32.5 M222.3,38.5h32.4 M258.4,36.8h-18 M229.8,36.8h-18.4 M200.7,36.8h-32.4 M164.7,35h18 M186.3,35
				h32.5 M222.3,35h32.4 M258.4,33.2h-18 M226.4,33.2h-11.7 M200.7,33.2h-32.4 M164.7,31.4h18 M186.3,31.4h32.5 M222.3,31.4h32.4
				 M258.4,29.6h-18 M223,29.6h-4.9 M200.7,29.6h-32.4 M164.7,27.8h18 M186.3,27.8h32.5 M222.3,27.8h32.4 M258.4,26h-18 M236.8,26
				h-32.5 M200.7,26h-32.4 M164.7,24.3h18 M186.3,24.3h32.5 M222.3,24.3h32.4 M258.4,22.5h-18 M236.8,22.5h-32.5 M200.7,22.5h-32.4
				 M164.7,20.7h18 M186.3,20.7h32.5 M222.3,20.7h32.4 M258.4,18.9h-18 M236.8,18.9h-32.5 M200.7,18.9h-32.4 M164.7,17.1h18
				 M186.3,17.1h32.5 M222.3,17.1h32.4 M258.4,15.3h-18 M236.8,15.3h-32.5 M200.7,15.3h-32.4 M164.7,13.5h18 M186.3,13.5h32.5
				 M222.3,13.5h32.4 M258.4,11.7h-18 M236.8,11.7h-32.5 M200.7,11.7h-32.4 M164.7,10h18 M186.3,10h32.5 M222.3,10h32.4 M258.4,8.2
				h-18 M236.8,8.2h-32.5 M200.7,8.2h-32.4 M164.7,6.4h18 M186.3,6.4h32.5 M222.3,6.4h32.4 M258.4,4.6h-18 M236.8,4.6h-32.5
				 M200.7,4.6h-32.4 M164.7,2.8h18 M186.3,2.8h32.5 M222.3,2.8h32.4 M258.4,1h-18 M236.8,1h-32.5 M200.7,1h-32.4 M164.7-0.8h18
				 M186.3-0.8h32.5 M222.3-0.8l32.4,0 M258.4-2.6h-18 M236.8-2.6h-32.5 M200.7-2.6h-32.4 M164.7-4.3h18 M186.3-4.3h32.5 M222.3-4.3
				h32.4 M258.4-6.1h-18 M236.8-6.1h-32.5 M200.7-6.1h-32.4 M164.7-7.9h18 M186.3-7.9h32.5 M222.3-7.9h32.4 M258.4-9.7h-18
				 M236.8-9.7h-32.5 M200.7-9.7h-32.4 M164.7-11.5h18 M186.3-11.5h32.5 M222.3-11.5h32.4 M258.4-13.3h-18 M236.8-13.3h-32.5
				 M200.7-13.3h-32.4 M164.7-15.1h18 M186.3-15.1h32.5 M222.3-15.1h32.4 M258.4-16.9h-18 M236.8-16.9h-32.5 M200.7-16.9h-32.4
				 M164.7-18.6h18 M186.3-18.6h32.5 M222.3-18.6h32.4 M258.4-20.4h-18 M236.8-20.4h-32.5 M200.7-20.4h-32.4 M164.7-22.2h18
				 M186.3-22.2h32.5 M222.3-22.2h32.4 M258.4-24h-18 M236.8-24h-32.5 M200.7-24h-32.4 M164.7-25.8h18 M186.3-25.8h32.5 M222.3-25.8
				h32.4 M258.4-27.6h-18 M236.8-27.6h-32.5 M200.7-27.6h-32.4 M164.7-29.4h18 M186.3-29.4h32.5 M222.3-29.4h32.4 M258.4-31.2h-18
				 M236.8-31.2h-32.5 M200.7-31.2h-32.4 M164.7-32.9h18 M186.3-32.9h32.5 M222.3-32.9h32.4 M258.4-34.7h-18 M236.8-34.7h-32.5
				 M200.7-34.7h-32.4 M164.7-36.5h18 M186.3-36.5h32.5 M222.3-36.5h32.4 M258.4-38.3h-18 M236.8-38.3h-32.5 M200.7-38.3h-32.4
				 M258.4,317.4V-40.1v-35.7c0-0.2-0.2-0.4-0.4-0.4h-92.9c-0.2,0-0.4,0.2-0.4,0.4v428.9c0,0.2,0.2,0.4,0.4,0.4H258
				c0.2,0,0.4-0.2,0.4-0.4"/>
		</g>
	</g>
	<path id="XMLID_3628_" class="st3" d="M232.1,182.3c2.7-1.5,8.2-42.5,10.3-46.5c1.1-2.1,8.7-18,8.7-18c6.2-8.6,6.8-20.9,7.1-31.4
		L257.5,76c-2.1-11.4-4.6-21.7-13.4-29.1l-19.9-19.1c-0.9-0.9-1.9-1.9-3.6-2"/>
	<path id="XMLID_3020_" class="st3" d="M231.8,182.3h0.3"/>
	<path id="XMLID_3627_" class="st3" d="M209,182.3h0.4"/>
	<path id="XMLID_1_" class="st3" d="M220.5,25.8c-1.7,0-2.7,1.1-3.6,2L197,46.9c-8.7,7.4-11.3,17.7-13.4,29.1l-0.8,10.4
		c0.3,10.5,0.9,22.8,7.1,31.4c0,0,7.6,15.9,8.7,18c2.1,4,7.7,45.1,10.3,46.5"/>
	<path id="XMLID_606_" class="st3" d="M236.8,172.6"/>
</g>
<g id="XMLID_1812_">
	<g id="XMLID_1815_">
		<defs>
			<path id="XMLID_1816_" d="M391.7,124.5c-0.9-1.4-2.3-1.8-3.5-2.1l-26.5-7.7c-10.8-3.9-21-1-31.9,2.9l-9.4,4.5
				c-9,5.5-19.3,12.2-23.7,21.9c0,0-9.9,14.6-11.2,16.6c-2.4,3.8-35.2,29.2-35.1,32.2l11.6,20c2.6,1.6,40.9-14.1,45.4-14.3
				c2.4-0.1,20-1.4,20-1.4c10.6,1.1,21.5-4.5,30.8-9.6l8.6-5.9c8.8-7.5,16.4-14.9,18.5-26.1l6.6-26.8
				C392,127.4,392.5,126,391.7,124.5"/>
		</defs>
		<clipPath id="XMLID_3637_">
			<use xlink:href="#XMLID_1816_"  style="overflow:visible;"/>
		</clipPath>
		<g id="surface6361_4_" class="st4">
			<path id="XMLID_1817_" class="st2" d="M127.1,320.9l31-17.9 M159.6,302.2l-9-15.6 M148.8,283.5l-16.2-28.1 M130.8,252.3
				l-16.2-28.1 M114.4,220.2l9,15.6 M125.1,238.9l16.2,28.1 M143.2,270.1l16.2,28.1 M162.7,300.4l-9-15.6 M151.9,281.7l-16.2-28.1
				 M133.9,250.5l-16.2-28.1 M117.5,218.4l9,15.6 M128.2,237.1l16.2,28.1 M146.3,268.3l16.2,28.1 M165.8,298.6l-9-15.6 M155,279.9
				l-16.2-28.1 M137,248.7l-16.2-28.1 M120.5,216.6l9,15.6 M131.3,235.3l16.2,28.1 M149.4,266.5l16.2,28.1 M168.9,296.8l-9-15.6
				 M158.1,278.1L141.9,250 M140.1,246.9l-16.2-28.1 M123.6,214.8l9,15.6 M134.4,233.5l16.2,28.1 M152.5,264.7l16.2,28.1 M172,295
				l-9-15.6 M161.2,276.3L145,248.2 M143.2,245.1L127,217 M126.7,213l9,15.6 M137.5,231.7l16.2,28.1 M155.5,262.9l16.2,28.1
				 M175.1,293.2l-9-15.6 M164.3,274.5l-16.2-28.1 M146.3,243.3l-16.2-28.1 M129.8,211.2l9,15.6 M140.6,229.9l16.2,28.1
				 M158.6,261.1l16.2,28.1 M178.2,291.5l-9-15.6 M167.4,272.8l-16.2-28.1 M149.4,241.5l-16.2-28.1 M132.9,209.5l9,15.6
				 M143.7,228.2l16.2,28.1 M161.7,259.4l16.2,28.1 M181.3,289.7l-9-15.6 M170.5,271l-16.2-28.1 M152.5,239.8l-16.2-28.1 M136,207.7
				l9,15.6 M146.8,226.4l16.2,28.1 M164.8,257.6l16.2,28.1 M184.4,287.9l-9-15.6 M173.6,269.2l-16.2-28.1 M155.6,238l-16.2-28.1
				 M139.1,205.9l9,15.6 M149.9,224.6l16.2,28.1 M167.9,255.8l16.2,28.1 M187.5,286.1l-9-15.6 M176.7,267.4l-16.2-28.1 M158.7,236.2
				l-16.2-28.1 M142.2,204.1l9,15.6 M153,222.8l16.2,28.1 M171,254l16.2,28.1 M190.6,284.3l-9-15.6 M179.8,265.6l-16.2-28.1
				 M161.8,234.4l-16.2-28.1 M145.3,202.3l9,15.6 M156.1,221l16.2,28.1 M174.1,252.2l16.2,28.1 M193.7,282.5l-9-15.6 M182.9,263.8
				l-16.2-28.1 M164.9,232.6l-16.2-28.1 M148.4,200.5l9,15.6 M159.2,219.2l16.2,28.1 M177.2,250.4l16.2,28.1 M196.8,280.7l-9-15.6
				 M186,262l-16.2-28.1 M168,230.8l-16.2-28.1 M151.5,198.7l9,15.6 M162.3,217.4l16.2,28.1 M180.3,248.6l16.2,28.1 M199.9,278.9
				l-9-15.6 M189.1,260.2l-16.2-28.1 M171.1,229l-16.2-28.1 M154.6,196.9l9,15.6 M165.4,215.6l16.2,28.1 M183.4,246.9l16.2,28.1
				 M203,277.2l-9-15.6 M192.2,258.5l-16.2-28.1 M174.2,227.3l-16.2-28.1 M157.7,195.2l9,15.6 M168.5,213.9l16.2,28.1 M186.5,245.1
				l16.2,28.1 M206.1,275.4l-9-15.6 M195.3,256.7L179,228.6 M177.3,225.5L161,197.4 M160.8,193.4l9,15.6 M171.6,212.1l16.2,28.1
				 M189.6,243.3l16.2,28.1 M209.2,273.6l-9-15.6 M198.4,254.9l-16.2-28.1 M180.3,223.7l-16.2-28.1 M163.9,191.6l9,15.6
				 M174.7,210.3l16.2,28.1 M192.7,241.5l16.2,28.1 M212.3,271.8l-9-15.6 M201.5,253.1L185.2,225 M183.4,221.9l-16.2-28.1
				 M167,189.8l9,15.6 M177.8,208.5l16.2,28.1 M195.8,239.7l16.2,28.1 M215.4,270l-9-15.6 M204.6,251.3l-16.2-28.1 M186.5,220.1
				L170.3,192 M170.1,188l9,15.6 M180.9,206.7l16.2,28.1 M198.9,237.9l16.2,28.1 M218.4,268.2l-9-15.6 M207.7,249.5l-16.2-28.1
				 M189.6,218.3l-16.2-28.1 M173.2,186.2l9,15.6 M184,204.9l16.2,28.1 M202,236.1l16.2,28.1 M221.5,266.4l-9-15.6 M210.7,247.7
				l-16.2-28.1 M192.7,216.5l-16.2-28.1 M176.3,184.4l9,15.6 M187.1,203.1l16.2,28.1 M205.1,234.3l16.2,28.1 M224.6,264.6l-9-15.6
				 M213.8,245.9l-16.2-28.1 M195.8,214.7l-16.2-28.1 M179.4,182.6l9,15.6 M190.2,201.3l16.2,28.1 M208.2,232.6l16.2,28.1
				 M227.7,262.9l-9-15.6 M216.9,244.2L200.7,216 M198.9,213l-16.2-28.1 M182.5,180.9l9,15.6 M193.3,199.6l16.2,28.1 M211.3,230.8
				l16.2,28.1 M230.8,261.1l-9-15.6 M220,242.4l-16.2-28.1 M202,211.2l-16.2-28.1 M185.6,179.1l9,15.6 M196.3,197.8l16.2,28.1
				 M214.4,229l16.2,28.1 M233.9,259.3l-9-15.6 M223.1,240.6l-16.2-28.1 M205.1,209.4l-16.2-28.1 M188.6,177.3l9,15.6 M199.4,196
				l16.2,28.1 M217.5,227.2l16.2,28.1 M237,257.5l-9-15.6 M226.2,238.8L210,210.7 M208.2,207.6L192,179.5 M191.7,175.5l9,15.6
				 M202.5,194.2l16.2,28.1 M220.6,225.4l16.2,28.1 M240.1,255.7l-9-15.6 M229.3,237l-16.2-28.1 M211.3,205.8l-16.2-28.1
				 M194.8,173.7l9,15.6 M205.6,192.4l16.2,28.1 M223.7,223.6l16.2,28.1 M243.2,253.9l-9-15.6 M232.4,235.2l-16.2-28.1 M214.4,204
				l-16.2-28.1 M197.9,171.9l9,15.6 M208.7,190.6l16.2,28.1 M226.7,221.8l16.2,28.1 M246.3,252.1l-9-15.6 M235.5,233.4l-16.2-28.1
				 M217.5,202.2l-16.2-28.1 M201,170.1l9,15.6 M211.8,188.8l16.2,28.1 M229.8,220l16.2,28.1 M249.4,250.3l-9-15.6 M238.6,231.7
				l-16.2-28.1 M220.6,200.4l-16.2-28.1 M204.1,168.4l9,15.6 M214.9,187l16.2,28.1 M232.9,218.3l16.2,28.1 M252.5,248.6l-9-15.6
				 M241.7,229.9l-16.2-28.1 M223.7,198.7l-16.2-28.1 M207.2,166.6l9,15.6 M218,185.3l16.2,28.1 M236,216.5l16.2,28.1 M255.6,246.8
				l-9-15.6 M244.8,228.1L228.6,200 M226.8,196.9l-16.2-28.1 M210.3,164.8l9,15.6 M221.1,183.5l16.2,28.1 M239.1,214.7l16.2,28.1
				 M258.7,245l-9-15.6 M247.9,226.3l-16.2-28.1 M229.9,195.1L213.7,167 M213.4,163l9,15.6 M224.2,181.7l16.2,28.1 M242.2,212.9
				l16.2,28.1 M261.8,243.2l-9-15.6 M251,224.5l-16.2-28.1 M233,193.3l-16.2-28.1 M216.5,161.2l9,15.6 M227.3,179.9l16.2,28.1
				 M245.3,211.1l16.2,28.1 M264.9,241.4l-9-15.6 M254.1,222.7l-16.2-28.1 M236.1,191.5l-16.2-28.1 M219.6,159.4l9,15.6
				 M230.4,178.1l16.2,28.1 M248.4,209.3l16.2,28.1 M268,239.6l-9-15.6 M257.2,220.9L241,192.8 M239.2,189.7l-16.2-28.1
				 M222.7,157.6l9,15.6 M233.5,176.3l16.2,28.1 M251.5,207.5l16.2,28.1 M271.1,237.8l-9-15.6 M260.3,219.1L244,191 M242.3,187.9
				L226,159.8 M225.8,155.8l9,15.6 M236.6,174.5l16.2,28.1 M254.6,205.7l16.2,28.1 M274.2,236l-9-15.6 M263.4,217.4l-16.2-28.1
				 M245.4,186.1L229.1,158 M228.9,154.1l9,15.6 M277.3,234.3l-9-15.6 M263.8,210.9L253,192.2 M248.5,184.4l-16.2-28.1 M232,152.3
				l9,15.6 M242.8,171l16.2,28.1 M260.8,202.2l16.2,28.1 M280.4,232.5l-9-15.6 M266.8,209.1l-10.8-18.7 M251.5,182.6l-16.2-28.1
				 M235.1,150.5l9,15.6 M245.9,169.2l16.2,28.1 M263.9,200.4l16.2,28.1 M283.5,230.7l-9-15.6 M272.7,212l-16.2-28.1 M254.6,180.8
				l-16.2-28.1 M238.2,148.7l9,15.6 M249,167.4l16.2,28.1 M267,198.6l16.2,28.1 M286.5,228.9l-9-15.6 M273.8,206.9l-12.4-21.4
				 M257.7,179l-16.2-28.1 M241.3,146.9l9,15.6 M252.1,165.6l16.2,28.1 M270.1,196.8l16.2,28.1 M289.6,227.1l-9-15.6 M277.3,205.8
				L264.2,183 M260.8,177.2l-16.2-28.1 M244.4,145.1l9,15.6 M255.2,163.8l16.2,28.1 M273.2,195l16.2,28.1 M292.7,225.3l-9-15.6
				 M280.4,204l-13.2-22.8 M263.9,175.4l-16.2-28.1 M247.5,143.3l9,15.6 M258.3,162l16.2,28.1 M276.3,193.2l16.2,28.1 M295.8,223.5
				l-9-15.6 M284.4,203.8l-15-26 M267,173.6l-16.2-28.1 M250.6,141.5l9,15.6 M261.4,160.2l16.2,28.1 M279.4,191.4l16.2,28.1
				 M298.9,221.8l-9-15.6 M287.5,202l-15-26 M270.1,171.8l-16.2-28.1 M253.7,139.8l9,15.6 M264.4,158.5l16.2,28.1 M282.5,189.7
				l16.2,28.1 M302,220l-9-15.6 M291.2,201.3L275,173.2 M273.2,170.1L257,142 M256.8,138l9,15.6 M267.5,156.7l16.2,28.1
				 M285.6,187.9l16.2,28.1 M305.1,218.2l-9-15.6 M294.3,199.5l-16.2-28.1 M276.3,168.3l-16.2-28.1 M259.8,136.2l9,15.6
				 M270.6,154.9l16.2,28.1 M288.7,186.1l16.2,28.1 M308.2,216.4l-9-15.6 M297.4,197.7l-16.2-28.1 M279.4,166.5l-16.2-28.1
				 M262.9,134.4l9,15.6 M273.7,153.1l16.2,28.1 M291.8,184.3l16.2,28.1 M311.3,214.6l-9-15.6 M300.5,195.9l-16.2-28.1 M282.5,164.7
				l-16.2-28.1 M266,132.6l9,15.6 M276.8,151.3l16.2,28.1 M294.8,182.5l16.2,28.1 M314.4,212.8l-9-15.6 M303.6,194.1L287.4,166
				 M285.6,162.9l-16.2-28.1 M269.1,130.8l9,15.6 M279.9,149.5l16.2,28.1 M297.9,180.7l16.2,28.1 M317.5,211l-9-15.6 M306.7,192.3
				l-16.2-28.1 M288.7,161.1L272.5,133 M272.2,129l9,15.6 M283,147.7l16.2,28.1 M301,178.9l16.2,28.1 M320.6,209.2l-9-15.6
				 M309.8,190.5l-16.2-28.1 M291.8,159.3l-16.2-28.1 M275.3,127.2l9,15.6 M286.1,145.9l16.2,28.1 M304.1,177.1l16.2,28.1
				 M323.7,207.5l-9-15.6 M312.9,188.8l-16.2-28.1 M294.9,157.5l-16.2-28.1 M278.4,125.5l9,15.6 M289.2,144.2l16.2,28.1
				 M307.2,175.4l16.2,28.1 M326.8,205.7l-9-15.6 M316,187l-16.2-28.1 M298,155.8l-16.2-28.1 M281.5,123.7l9,15.6 M292.3,142.4
				l16.2,28.1 M310.3,173.6l16.2,28.1 M329.9,203.9l-9-15.6 M319.1,185.2l-16.2-28.1 M301.1,154l-16.2-28.1 M284.6,121.9l9,15.6
				 M295.4,140.6l16.2,28.1 M313.4,171.8l16.2,28.1 M333,202.1l-9-15.6 M322.2,183.4L306,155.3 M304.2,152.2l-16.2-28.1
				 M287.7,120.1l9,15.6 M298.5,138.8l16.2,28.1 M316.5,170l16.2,28.1 M336.1,200.3l-9-15.6 M325.3,181.6l-16.2-28.1 M307.3,150.4
				L291,122.3 M290.8,118.3l9,15.6 M301.6,137l16.2,28.1 M319.6,168.2l16.2,28.1 M339.2,198.5l-9-15.6 M328.4,179.8l-16.2-28.1
				 M310.4,148.6l-16.2-28.1 M293.9,116.5l9,15.6 M304.7,135.2l16.2,28.1 M322.7,166.4l16.2,28.1 M342.3,196.7l-9-15.6 M331.5,178
				l-16.2-28.1 M313.5,146.8l-16.2-28.1 M297,114.7l9,15.6 M307.8,133.4l16.2,28.1 M325.8,164.6l16.2,28.1 M345.4,194.9l-9-15.6
				 M334.6,176.2l-16.2-28.1 M316.6,145l-16.2-28.1 M300.1,112.9l9,15.6 M310.9,131.6l16.2,28.1 M328.9,162.9l16.2,28.1
				 M348.5,193.2l-9-15.6 M337.7,174.5l-16.2-28.1 M319.6,143.3l-16.2-28.1 M303.2,111.2l9,15.6 M314,129.9l16.2,28.1 M332,161.1
				l16.2,28.1 M351.6,191.4l-9-15.6 M340.8,172.7l-16.2-28.1 M322.7,141.5l-16.2-28.1 M306.3,109.4l9,15.6 M317.1,128.1l16.2,28.1
				 M335.1,159.3l16.2,28.1 M354.7,189.6l-9-15.6 M343.9,170.9l-16.2-28.1 M325.8,139.7l-16.2-28.1 M309.4,107.6l9,15.6
				 M320.2,126.3l16.2,28.1 M338.2,157.5l16.2,28.1 M357.7,187.8l-9-15.6 M347,169.1L330.7,141 M328.9,137.9l-16.2-28.1
				 M312.5,105.8l9,15.6 M323.3,124.5l16.2,28.1 M341.3,155.7l16.2,28.1 M360.8,186l-9-15.6 M350,167.3l-16.2-28.1 M332,136.1
				L315.8,108 M315.6,104l9,15.6 M326.4,122.7l16.2,28.1 M344.4,153.9l16.2,28.1 M363.9,184.2l-9-15.6 M353.1,165.5l-16.2-28.1
				 M335.1,134.3l-16.2-28.1 M318.7,102.2l9,15.6 M329.5,120.9l16.2,28.1 M347.5,152.1l16.2,28.1 M367,182.4l-9-15.6 M356.2,163.7
				L340,135.6 M338.2,132.5L322,104.4 M321.8,100.4l9,15.6 M332.5,119.1l16.2,28.1 M350.6,150.3l16.2,28.1 M370.1,180.6l-9-15.6
				 M359.3,162l-16.2-28.1 M341.3,130.7l-16.2-28.1 M324.9,98.7l9,15.6 M335.6,117.3l16.2,28.1 M353.7,148.6l16.2,28.1 M373.2,178.9
				l-9-15.6 M362.4,160.2l-16.2-28.1 M344.4,129l-16.2-28.1 M327.9,96.9l9,15.6 M338.7,115.6l16.2,28.1 M356.8,146.8l16.2,28.1
				 M376.3,177.1l-9-15.6 M365.5,158.4l-16.2-28.1 M347.5,127.2l-16.2-28.1 M331,95.1l9,15.6 M341.8,113.8l16.2,28.1 M359.9,145
				l16.2,28.1 M379.4,175.3l-9-15.6 M368.6,156.6l-16.2-28.1 M350.6,125.4l-16.2-28.1 M334.1,93.3l9,15.6 M344.9,112l16.2,28.1
				 M363,143.2l16.2,28.1 M382.5,173.5l-9-15.6 M371.7,154.8l-16.2-28.1 M353.7,123.6l-16.2-28.1 M337.2,91.5l9,15.6 M348,110.2
				l16.2,28.1 M366,141.4l16.2,28.1 M385.6,171.7l-9-15.6 M374.8,153l-16.2-28.1 M356.8,121.8l-16.2-28.1 M340.3,89.7l9,15.6
				 M351.1,108.4l16.2,28.1 M369.1,139.6l16.2,28.1 M388.7,169.9l-9-15.6 M377.9,151.2l-16.2-28.1 M359.9,120l-16.2-28.1
				 M343.4,87.9l9,15.6 M354.2,106.6l16.2,28.1 M372.2,137.8l16.2,28.1 M391.8,168.1l-9-15.6 M381,149.4l-16.2-28.1 M363,118.2
				l-16.2-28.1 M346.5,86.1l9,15.6 M357.3,104.8l16.2,28.1 M375.3,136l16.2,28.1 M394.9,166.3l-9-15.6 M384.1,147.7l-16.2-28.1
				 M366.1,116.4l-16.2-28.1 M349.6,84.4l9,15.6 M360.4,103l16.2,28.1 M378.4,134.3l16.2,28.1 M398,164.6l-9-15.6 M385.8,143.4
				l-13.4-23.1 M369.2,114.7L353,86.6 M352.7,82.6l9,15.6 M363.5,101.3l16.2,28.1 M381.5,132.5l16.2,28.1 M401.1,162.8l-9-15.6
				 M386.8,138l-9.2-16 M372.3,112.9L356,84.8 M355.8,80.8l9,15.6 M366.6,99.5l16.2,28.1 M384.6,130.7l16.2,28.1 M404.2,161l-9-15.6
				 M388.2,133.3l-5.9-10.2 M375.4,111.1L359.1,83 M358.9,79l9,15.6 M369.7,97.7l16.2,28.1 M387.7,128.9l16.2,28.1 M407.3,159.2
				l-9-15.6 M389.6,128.6l-2.4-4.2 M378.5,109.3l-16.2-28.1 M362,77.2l9,15.6 M372.8,95.9L389,124 M390.8,127.1l16.2,28.1
				 M410.4,157.4l-9-15.6 M399.6,138.7l-16.2-28.1 M381.6,107.5l-16.2-28.1 M365.1,75.4l9,15.6 M375.9,94.1l16.2,28.1 M393.9,125.3
				l16.2,28.1 M413.5,155.6l-9-15.6 M402.7,136.9l-16.2-28.1 M384.7,105.7l-16.2-28.1 M368.2,73.6l9,15.6 M379,92.3l16.2,28.1
				 M397,123.5l16.2,28.1 M416.6,153.8l-9-15.6 M405.8,135.1L389.5,107 M387.7,103.9l-16.2-28.1 M371.3,71.8l9,15.6 M382.1,90.5
				l16.2,28.1 M400.1,121.7l16.2,28.1 M419.7,152l-9-15.6 M408.9,133.4l-16.2-28.1 M390.8,102.1L374.6,74 M374.4,70.1l9,15.6
				 M385.2,88.7l16.2,28.1 M403.2,120l16.2,28.1 M422.8,150.3l-9-15.6 M412,131.6l-16.2-28.1 M393.9,100.4l-16.2-28.1 M377.5,68.3
				l9,15.6 M388.3,87l16.2,28.1 M406.3,118.2l16.2,28.1 M425.8,148.5l-9-15.6 M415.1,129.8l-16.2-28.1 M397,98.6l-16.2-28.1
				 M380.6,66.5l9,15.6 M391.4,85.2l16.2,28.1 M409.4,116.4l16.2,28.1 M428.9,146.7l-9-15.6 M418.2,128l-16.2-28.1 M400.1,96.8
				l-16.2-28.1 M383.7,64.7l9,15.6 M394.5,83.4l16.2,28.1 M412.5,114.6l16.2,28.1 M432,144.9l-9-15.6 M421.2,126.2L405,98.1
				 M403.2,95L387,66.9 M386.8,62.9l9,15.6 M397.6,81.6l16.2,28.1 M415.6,112.8l16.2,28.1 M435.1,143.1l-9-15.6 M424.3,124.4
				l-16.2-28.1 M406.3,93.2l-16.2-28.1 M389.9,61.1l9,15.6 M400.7,79.8l16.2,28.1 M418.7,111l16.2,28.1 M438.2,141.3l-9-15.6
				 M427.4,122.6l-16.2-28.1 M409.4,91.4l-16.2-28.1 M393,59.3l9,15.6 M403.7,78l16.2,28.1 M421.8,109.2l16.2,28.1 M441.3,139.5
				l-9-15.6 M430.5,120.8l-16.2-28.1 M412.5,89.6l-16.2-28.1 M396,57.5l9,15.6 M406.8,76.2l16.2,28.1 M424.9,107.4l16.2,28.1
				 M444.4,137.8l-9-15.6 M433.6,119.1l-16.2-28.1 M415.6,87.8l-16.2-28.1 M399.1,55.8l9,15.6 M409.9,74.5l16.2,28.1 M428,105.7
				l16.2,28.1 M447.5,136l-9-15.6 M436.7,117.3l-16.2-28.1 M418.7,86.1L402.5,58 M402.2,54l9,15.6 M413,72.7l16.2,28.1 M431.1,103.9
				l16.2,28.1 M450.6,134.2l-9-15.6 M439.8,115.5l-16.2-28.1 M421.8,84.3l-16.2-28.1 M405.3,52.2l9,15.6 M416.1,70.9L432.4,99
				 M434.1,102.1l16.2,28.1 M453.7,132.4l-9-15.6 M442.9,113.7l-16.2-28.1 M424.9,82.5l-16.2-28.1 M408.4,50.4l9,15.6 M419.2,69.1
				l16.2,28.1 M437.2,100.3l16.2,28.1 M456.8,130.6l-9-15.6 M446,111.9l-16.2-28.1 M428,80.7l-16.2-28.1 M411.5,48.6l9,15.6
				 M422.3,67.3l16.2,28.1 M440.3,98.5l16.2,28.1 M459.9,128.8l-9-15.6 M449.1,110.1L432.9,82 M431.1,78.9l-16.2-28.1 M414.6,46.8
				l9,15.6 M425.4,65.5l16.2,28.1 M443.4,96.7l16.2,28.1 M463,127l-9-15.6 M452.2,108.3L436,80.2 M434.2,77.1L418,49 M417.7,45
				l9,15.6 M428.5,63.7l16.2,28.1 M446.5,94.9l16.2,28.1 M466.1,125.2l-9-15.6 M455.3,106.5l-16.2-28.1 M437.3,75.3l-16.2-28.1
				 M158.1,303.1l309.6-178.7l31-17.9c0.2-0.1,0.2-0.3,0.1-0.5l-46.5-80.5c-0.1-0.2-0.3-0.2-0.5-0.1L80.3,239.8
				c-0.2,0.1-0.2,0.3-0.1,0.5l46.5,80.5c0.1,0.2,0.3,0.2,0.5,0.1"/>
		</g>
	</g>
	<path id="XMLID_3622_" class="st3" d="M261.6,212.4l0.2,0.4c2.6,1.6,40.9-14.1,45.4-14.3c2.4-0.1,20-1.4,20-1.4
		c10.6,1.1,21.5-4.5,30.8-9.6l8.6-5.9c8.8-7.5,16.4-14.9,18.5-26.1l6.6-26.8c0.3-1.2,0.7-2.6-0.1-4.1"/>
	<path id="XMLID_1814_" class="st3" d="M391.7,124.5c-0.9-1.4-2.3-1.8-3.5-2.1l-26.5-7.7c-10.8-3.9-21-1-31.9,2.9l-9.4,4.5
		c-9,5.5-19.3,12.2-23.7,21.9c0,0-9.9,14.6-11.2,16.6c-2.4,3.8-35.2,29.2-35.1,32.2l0.2,0.4"/>
	<path id="XMLID_1813_" class="st3" d="M272.7,212"/>
</g>
<g id="XMLID_2_">
	<g id="XMLID_4_">
		<defs>
			<path id="XMLID_5_" d="M49.6,124.5c-0.8,1.5-0.4,2.9-0.1,4.1l6.6,26.8c2,11.3,9.7,18.7,18.5,26.1l8.6,5.9
				c9.3,5,20.2,10.6,30.8,9.6c0,0,17.6,1.3,20,1.4c4.5,0.2,42.8,15.9,45.4,14.3l11.6-20c0-3-32.7-28.4-35.1-32.2
				c-1.3-2-11.2-16.6-11.2-16.6c-4.3-9.7-14.7-16.4-23.7-21.9l-9.4-4.5c-10.9-3.9-21.1-6.8-31.9-2.9l-26.5,7.7
				C51.9,122.8,50.5,123.1,49.6,124.5"/>
		</defs>
		<clipPath id="XMLID_3638_">
			<use xlink:href="#XMLID_5_"  style="overflow:visible;"/>
		</clipPath>
		<g id="surface6361_1_" class="st5">
			<path id="XMLID_6_" class="st2" d="M352,255.4l-31-17.9 M319.5,236.7l-9,15.6 M308.7,255.4l-16.2,28.1 M290.6,286.6l-16.2,28.1
				 M271.1,316.9l9-15.6 M281.9,298.2l16.2-28.1 M299.9,267l16.2-28.1 M316.4,234.9l-9,15.6 M305.6,253.6l-16.2,28.1 M287.5,284.8
				l-16.2,28.1 M268,315.1l9-15.6 M278.8,296.4l16.2-28.1 M296.8,265.2l16.2-28.1 M313.3,233.1l-9,15.6 M302.5,251.8l-16.2,28.1
				 M284.5,283l-16.2,28.1 M264.9,313.3l9-15.6 M275.7,294.6l16.2-28.1 M293.7,263.4l16.2-28.1 M310.2,231.3l-9,15.6 M299.4,250
				l-16.2,28.1 M281.4,281.2l-16.2,28.1 M261.8,311.5l9-15.6 M272.6,292.8l16.2-28.1 M290.6,261.6l16.2-28.1 M307.1,229.5l-9,15.6
				 M296.3,248.2L280,276.3 M278.3,279.4L262,307.5 M258.7,309.7l9-15.6 M269.5,291l16.2-28.1 M287.5,259.8l16.2-28.1 M304,227.7
				l-9,15.6 M293.2,246.4L277,274.5 M275.2,277.6l-16.2,28.1 M255.6,307.9l9-15.6 M266.4,289.2l16.2-28.1 M284.4,258l16.2-28.1
				 M300.9,225.9l-9,15.6 M290.1,244.6l-16.2,28.1 M272.1,275.8l-16.2,28.1 M252.5,306.2l9-15.6 M263.3,287.5l16.2-28.1
				 M281.3,256.2l16.2-28.1 M297.8,224.2l-9,15.6 M287,242.9L270.8,271 M269,274.1l-16.2,28.1 M249.4,304.4l9-15.6 M260.2,285.7
				l16.2-28.1 M278.2,254.5l16.2-28.1 M294.7,222.4l-9,15.6 M283.9,241.1l-16.2,28.1 M265.9,272.3l-16.2,28.1 M246.3,302.6l9-15.6
				 M257.1,283.9l16.2-28.1 M275.1,252.7l16.2-28.1 M291.6,220.6l-9,15.6 M280.8,239.3l-16.2,28.1 M262.8,270.5l-16.2,28.1
				 M243.2,300.8l9-15.6 M254,282.1l16.2-28.1 M272,250.9l16.2-28.1 M288.5,218.8l-9,15.6 M277.7,237.5l-16.2,28.1 M259.7,268.7
				l-16.2,28.1 M240.1,299l9-15.6 M250.9,280.3l16.2-28.1 M268.9,249.1l16.2-28.1 M285.4,217l-9,15.6 M274.6,235.7l-16.2,28.1
				 M256.6,266.9L240.4,295 M237,297.2l9-15.6 M247.8,278.5l16.2-28.1 M265.8,247.3l16.2-28.1 M282.3,215.2l-9,15.6 M271.5,233.9
				L255.3,262 M253.5,265.1l-16.2,28.1 M233.9,295.4l9-15.6 M244.7,276.7l16.2-28.1 M262.8,245.5l16.2-28.1 M279.2,213.4l-9,15.6
				 M268.4,232.1l-16.2,28.1 M250.4,263.3l-16.2,28.1 M230.8,293.6l9-15.6 M241.6,274.9l16.2-28.1 M259.7,243.7l16.2-28.1
				 M276.1,211.6l-9,15.6 M265.3,230.3l-16.2,28.1 M247.3,261.5l-16.2,28.1 M227.7,291.9l9-15.6 M238.5,273.2l16.2-28.1
				 M256.6,241.9l16.2-28.1 M273,209.9l-9,15.6 M262.2,228.6L246,256.7 M244.2,259.8L228,287.9 M224.7,290.1l9-15.6 M235.4,271.4
				l16.2-28.1 M253.5,240.2l16.2-28.1 M269.9,208.1l-9,15.6 M259.1,226.8l-16.2,28.1 M241.1,258l-16.2,28.1 M221.6,288.3l9-15.6
				 M232.3,269.6l16.2-28.1 M250.4,238.4l16.2-28.1 M266.8,206.3l-9,15.6 M256,225l-16.2,28.1 M238,256.2l-16.2,28.1 M218.5,286.5
				l9-15.6 M229.3,267.8l16.2-28.1 M247.3,236.6l16.2-28.1 M263.7,204.5l-9,15.6 M252.9,223.2l-16.2,28.1 M234.9,254.4l-16.2,28.1
				 M215.4,284.7l9-15.6 M226.2,266l16.2-28.1 M244.2,234.8l16.2-28.1 M260.6,202.7l-9,15.6 M249.8,221.4l-16.2,28.1 M231.8,252.6
				l-16.2,28.1 M212.3,282.9l9-15.6 M223.1,264.2l16.2-28.1 M241.1,233l16.2-28.1 M257.5,200.9l-9,15.6 M246.8,219.6l-16.2,28.1
				 M228.7,250.8l-16.2,28.1 M209.2,281.1l9-15.6 M220,262.4l16.2-28.1 M238,231.2l16.2-28.1 M254.5,199.1l-9,15.6 M243.7,217.8
				l-16.2,28.1 M225.6,249l-16.2,28.1 M206.1,279.3l9-15.6 M216.9,260.6l16.2-28.1 M234.9,229.4l16.2-28.1 M251.4,197.3l-9,15.6
				 M240.6,216l-16.2,28.1 M222.5,247.3l-16.2,28.1 M203,277.6l9-15.6 M213.8,258.9l16.2-28.1 M231.8,227.7l16.2-28.1 M248.3,195.6
				l-9,15.6 M237.5,214.3l-16.2,28.1 M219.4,245.5l-16.2,28.1 M199.9,275.8l9-15.6 M210.7,257.1l16.2-28.1 M228.7,225.9l16.2-28.1
				 M245.2,193.8l-9,15.6 M234.4,212.5l-16.2,28.1 M216.4,243.7l-16.2,28.1 M196.8,274l9-15.6 M207.6,255.3l16.2-28.1 M225.6,224.1
				l16.2-28.1 M242.1,192l-9,15.6 M231.3,210.7L215,238.8 M213.3,241.9L197,270 M193.7,272.2l9-15.6 M204.5,253.5l16.2-28.1
				 M222.5,222.3l16.2-28.1 M239,190.2l-9,15.6 M228.2,208.9L211.9,237 M210.2,240.1l-16.2,28.1 M190.6,270.4l9-15.6 M201.4,251.7
				l16.2-28.1 M219.4,220.5l16.2-28.1 M235.9,188.4l-9,15.6 M225.1,207.1l-16.2,28.1 M207.1,238.3l-16.2,28.1 M187.5,268.6l9-15.6
				 M198.3,249.9l16.2-28.1 M216.3,218.7l16.2-28.1 M232.8,186.6l-9,15.6 M222,205.3l-16.2,28.1 M204,236.5l-16.2,28.1 M184.4,266.8
				l9-15.6 M195.2,248.1l16.2-28.1 M213.2,216.9l16.2-28.1 M229.7,184.8l-9,15.6 M218.9,203.5l-16.2,28.1 M200.9,234.7l-16.2,28.1
				 M181.3,265l9-15.6 M192.1,246.4l16.2-28.1 M210.1,215.1l16.2-28.1 M226.6,183.1l-9,15.6 M215.8,201.7l-16.2,28.1 M197.8,233
				l-16.2,28.1 M178.2,263.3l9-15.6 M189,244.6l16.2-28.1 M207,213.4l16.2-28.1 M223.5,181.3l-9,15.6 M212.7,200l-16.2,28.1
				 M194.7,231.2l-16.2,28.1 M175.1,261.5l9-15.6 M185.9,242.8l16.2-28.1 M203.9,211.6l16.2-28.1 M220.4,179.5l-9,15.6 M209.6,198.2
				l-16.2,28.1 M191.6,229.4l-16.2,28.1 M172,259.7l9-15.6 M182.8,241l16.2-28.1 M200.8,209.8l16.2-28.1 M217.3,177.7l-9,15.6
				 M206.5,196.4l-16.2,28.1 M188.5,227.6l-16.2,28.1 M168.9,257.9l9-15.6 M179.7,239.2l16.2-28.1 M197.7,208l16.2-28.1
				 M214.2,175.9l-9,15.6 M203.4,194.6l-16.2,28.1 M185.4,225.8l-16.2,28.1 M165.8,256.1l9-15.6 M176.6,237.4l16.2-28.1
				 M194.6,206.2l16.2-28.1 M211.1,174.1l-9,15.6 M200.3,192.8l-16.2,28.1 M182.3,224l-16.2,28.1 M162.7,254.3l9-15.6 M173.5,235.6
				l16.2-28.1 M191.6,204.4l16.2-28.1 M208,172.3l-9,15.6 M197.2,191L181,219.1 M179.2,222.2L163,250.3 M159.6,252.5l9-15.6
				 M170.4,233.8l16.2-28.1 M188.5,202.6l16.2-28.1 M204.9,170.5l-9,15.6 M194.1,189.2l-16.2,28.1 M176.1,220.4l-16.2,28.1
				 M156.6,250.7l9-15.6 M201.8,168.8l-9,15.6 M188.3,192.2l-10.8,18.7 M173,218.7l-16.2,28.1 M153.5,249l9-15.6 M164.2,230.3
				l16.2-28.1 M182.3,199.1l16.2-28.1 M198.7,167l-9,15.6 M185.2,190.4l-10.8,18.7 M169.9,216.9L153.7,245 M150.4,247.2l9-15.6
				 M161.2,228.5l16.2-28.1 M179.2,197.3l16.2-28.1 M195.6,165.2l-9,15.6 M184.8,183.9L168.6,212 M166.8,215.1l-16.2,28.1
				 M147.3,245.4l9-15.6 M158.1,226.7l16.2-28.1 M176.1,195.5l16.2-28.1 M192.5,163.4l-9,15.6 M179.8,185.4l-12.4,21.4 M163.7,213.3
				l-16.2,28.1 M144.2,243.6l9-15.6 M155,224.9l16.2-28.1 M173,193.7l16.2-28.1 M189.4,161.6l-9,15.6 M177.1,183L164,205.8
				 M160.6,211.5l-16.2,28.1 M141.1,241.8l9-15.6 M151.9,223.1l16.2-28.1 M169.9,191.9l16.2-28.1 M186.3,159.8l-9,15.6 M174,181.2
				L160.9,204 M157.5,209.7l-16.2,28.1 M138,240l9-15.6 M148.8,221.3l16.2-28.1 M166.8,190.1L183,162 M183.3,158l-9,15.6
				 M171.8,177.8l-15,26 M154.4,207.9L138.2,236 M134.9,238.2l9-15.6 M145.7,219.5l16.2-28.1 M163.7,188.3l16.2-28.1 M180.2,156.2
				l-9,15.6 M168.8,176l-15,26 M151.3,206.1l-16.2,28.1 M131.8,236.4l9-15.6 M142.6,217.8l16.2-28.1 M160.6,186.5l16.2-28.1
				 M177.1,154.5l-9,15.6 M166.3,173.1L150,201.3 M148.3,204.4L132,232.5 M128.7,234.7l9-15.6 M139.5,216l16.2-28.1 M157.5,184.8
				l16.2-28.1 M174,152.7l-9,15.6 M163.2,171.4l-16.2,28.1 M145.2,202.6l-16.2,28.1 M125.6,232.9l9-15.6 M136.4,214.2l16.2-28.1
				 M154.4,183l16.2-28.1 M170.9,150.9l-9,15.6 M160.1,169.6l-16.2,28.1 M142.1,200.8l-16.2,28.1 M122.5,231.1l9-15.6 M133.3,212.4
				l16.2-28.1 M151.3,181.2l16.2-28.1 M167.8,149.1l-9,15.6 M157,167.8l-16.2,28.1 M139,199l-16.2,28.1 M119.4,229.3l9-15.6
				 M130.2,210.6l16.2-28.1 M148.2,179.4l16.2-28.1 M164.7,147.3l-9,15.6 M153.9,166l-16.2,28.1 M135.9,197.2l-16.2,28.1
				 M116.3,227.5l9-15.6 M127.1,208.8l16.2-28.1 M145.1,177.6l16.2-28.1 M161.6,145.5l-9,15.6 M150.8,164.2l-16.2,28.1 M132.8,195.4
				l-16.2,28.1 M113.2,225.7l9-15.6 M124,207l16.2-28.1 M142,175.8l16.2-28.1 M158.5,143.7l-9,15.6 M147.7,162.4l-16.2,28.1
				 M129.7,193.6l-16.2,28.1 M110.1,223.9l9-15.6 M120.9,205.2l16.2-28.1 M138.9,174l16.2-28.1 M155.4,141.9l-9,15.6 M144.6,160.6
				l-16.2,28.1 M126.6,191.8l-16.2,28.1 M107,222.2l9-15.6 M117.8,203.5l16.2-28.1 M135.8,172.2l16.2-28.1 M152.3,140.2l-9,15.6
				 M141.5,158.9L125.3,187 M123.5,190.1l-16.2,28.1 M103.9,220.4l9-15.6 M114.7,201.7l16.2-28.1 M132.7,170.5l16.2-28.1
				 M149.2,138.4l-9,15.6 M138.4,157.1l-16.2,28.1 M120.4,188.3l-16.2,28.1 M100.8,218.6l9-15.6 M111.6,199.9l16.2-28.1
				 M129.6,168.7l16.2-28.1 M146.1,136.6l-9,15.6 M135.3,155.3l-16.2,28.1 M117.3,186.5l-16.2,28.1 M97.7,216.8l9-15.6 M108.5,198.1
				l16.2-28.1 M126.5,166.9l16.2-28.1 M143,134.8l-9,15.6 M132.2,153.5L116,181.6 M114.2,184.7L98,212.8 M94.6,215l9-15.6
				 M105.4,196.3l16.2-28.1 M123.5,165.1l16.2-28.1 M139.9,133l-9,15.6 M129.1,151.7l-16.2,28.1 M111.1,182.9L94.9,211 M91.5,213.2
				l9-15.6 M102.3,194.5l16.2-28.1 M120.4,163.3l16.2-28.1 M136.8,131.2l-9,15.6 M126,149.9L109.8,178 M108,181.1l-16.2,28.1
				 M88.4,211.4l9-15.6 M99.2,192.7l16.2-28.1 M117.3,161.5l16.2-28.1 M133.7,129.4l-9,15.6 M122.9,148.1l-16.2,28.1 M104.9,179.3
				l-16.2,28.1 M85.4,209.6l9-15.6 M96.1,190.9l16.2-28.1 M114.2,159.7l16.2-28.1 M130.6,127.6l-9,15.6 M119.8,146.3l-16.2,28.1
				 M101.8,177.6l-16.2,28.1 M82.3,207.9l9-15.6 M93.1,189.2l16.2-28.1 M111.1,158l16.2-28.1 M127.5,125.9l-9,15.6 M116.7,144.6
				l-16.2,28.1 M98.7,175.8l-16.2,28.1 M79.2,206.1l9-15.6 M90,187.4l16.2-28.1 M108,156.2l16.2-28.1 M124.4,124.1l-9,15.6
				 M113.6,142.8l-16.2,28.1 M95.6,174l-16.2,28.1 M76.1,204.3l9-15.6 M86.9,185.6l16.2-28.1 M104.9,154.4l16.2-28.1 M121.3,122.3
				l-9,15.6 M110.5,141l-16.2,28.1 M92.5,172.2l-16.2,28.1 M73,202.5l9-15.6 M83.8,183.8l16.2-28.1 M101.8,152.6l16.2-28.1
				 M118.2,120.5l-9,15.6 M107.5,139.2l-16.2,28.1 M89.4,170.4l-16.2,28.1 M69.9,200.7l9-15.6 M80.7,182l16.2-28.1 M98.7,150.8
				l16.2-28.1 M115.2,118.7l-9,15.6 M104.4,137.4l-16.2,28.1 M86.3,168.6l-16.2,28.1 M66.8,198.9l9-15.6 M77.6,180.2l16.2-28.1
				 M95.6,149l16.2-28.1 M112.1,116.9l-9,15.6 M101.3,135.6L85,163.7 M83.2,166.8L67,194.9 M63.7,197.1l9-15.6 M74.5,178.4
				l16.2-28.1 M92.5,147.2l16.2-28.1 M109,115.1l-9,15.6 M98.2,133.8l-16.2,28.1 M80.1,165l-16.2,28.1 M60.6,195.3l9-15.6
				 M71.4,176.6l16.2-28.1 M89.4,145.4l16.2-28.1 M105.9,113.3l-9,15.6 M95.1,132l-16.2,28.1 M77.1,163.3l-16.2,28.1 M57.5,193.6
				l9-15.6 M68.3,174.9l16.2-28.1 M86.3,143.7l16.2-28.1 M102.8,111.6l-9,15.6 M92,130.3l-16.2,28.1 M74,161.5l-16.2,28.1
				 M54.4,191.8l9-15.6 M65.2,173.1L81.4,145 M83.2,141.9l16.2-28.1 M99.7,109.8l-9,15.6 M88.9,128.5l-16.2,28.1 M70.9,159.7
				l-16.2,28.1 M51.3,190l9-15.6 M62.1,171.3l16.2-28.1 M80.1,140.1L96.3,112 M96.6,108l-9,15.6 M85.8,126.7l-16.2,28.1 M67.8,157.9
				L51.5,186 M48.2,188.2l9-15.6 M59,169.5l16.2-28.1 M77,138.3l16.2-28.1 M93.5,106.2l-9,15.6 M82.7,124.9L66.5,153 M64.7,156.1
				l-16.2,28.1 M45.1,186.4l9-15.6 M55.9,167.7l16.2-28.1 M73.9,136.5l16.2-28.1 M90.4,104.4l-9,15.6 M79.6,123.1l-16.2,28.1
				 M61.6,154.3l-16.2,28.1 M42,184.6l9-15.6 M52.8,165.9L69,137.8 M70.8,134.7l16.2-28.1 M87.3,102.6l-9,15.6 M76.5,121.3
				l-16.2,28.1 M58.5,152.5l-16.2,28.1 M38.9,182.8l9-15.6 M49.7,164.1L65.9,136 M67.7,132.9L84,104.8 M84.2,100.8l-9,15.6
				 M73.4,119.5l-16.2,28.1 M55.4,150.7l-16.2,28.1 M35.8,181l9-15.6 M46.6,162.4l16.2-28.1 M64.6,131.1L80.9,103 M81.1,99.1
				l-9,15.6 M68.9,120.2l-13.4,23.1 M52.3,149l-16.2,28.1 M32.7,179.3l9-15.6 M43.5,160.6l16.2-28.1 M61.5,129.4l16.2-28.1 M78,97.3
				l-9,15.6 M63.7,122l-9.2,16 M49.2,147.2L33,175.3 M29.6,177.5l9-15.6 M40.4,158.8l16.2-28.1 M58.4,127.6l16.2-28.1 M74.9,95.5
				l-9,15.6 M58.9,123.1l-5.9,10.2 M46.1,145.4l-16.2,28.1 M26.5,175.7l9-15.6 M37.3,157l16.2-28.1 M55.3,125.8l16.2-28.1
				 M71.8,93.7l-9,15.6 M54.1,124.3l-2.4,4.2 M43,143.6l-16.2,28.1 M23.4,173.9l9-15.6 M34.2,155.2l16.2-28.1 M52.3,124l16.2-28.1
				 M68.7,91.9l-9,15.6 M57.9,110.6l-16.2,28.1 M39.9,141.8l-16.2,28.1 M20.3,172.1l9-15.6 M31.1,153.4l16.2-28.1 M49.2,122.2
				l16.2-28.1 M65.6,90.1l-9,15.6 M54.8,108.8l-16.2,28.1 M36.8,140l-16.2,28.1 M17.3,170.3l9-15.6 M28,151.6l16.2-28.1 M46.1,120.4
				l16.2-28.1 M62.5,88.3l-9,15.6 M51.7,107l-16.2,28.1 M33.7,138.2l-16.2,28.1 M14.2,168.5l9-15.6 M24.9,149.8l16.2-28.1 M43,118.6
				l16.2-28.1 M59.4,86.5l-9,15.6 M48.6,105.2l-16.2,28.1 M30.6,136.4l-16.2,28.1 M11.1,166.7l9-15.6 M21.9,148.1l16.2-28.1
				 M39.9,116.8l16.2-28.1 M56.3,84.8l-9,15.6 M45.5,103.4l-16.2,28.1 M27.5,134.7l-16.2,28.1 M8,165l9-15.6 M18.8,146.3L35,118.2
				 M36.8,115.1L53,87 M53.2,83l-9,15.6 M42.4,101.7l-16.2,28.1 M24.4,132.9L8.2,161 M4.9,163.2l9-15.6 M15.7,144.5l16.2-28.1
				 M33.7,113.3l16.2-28.1 M50.1,81.2l-9,15.6 M39.4,99.9L23.1,128 M21.3,131.1L5.1,159.2 M1.8,161.4l9-15.6 M12.6,142.7l16.2-28.1
				 M30.6,111.5l16.2-28.1 M47,79.4L38,95 M36.3,98.1L20,126.2 M18.2,129.3L2,157.4 M-1.3,159.6l9-15.6 M9.5,140.9l16.2-28.1
				 M27.5,109.7l16.2-28.1 M44,77.6l-9,15.6 M33.2,96.3l-16.2,28.1 M15.1,127.5l-16.2,28.1 M-4.4,157.8l9-15.6 M6.4,139.1L22.6,111
				 M24.4,107.9l16.2-28.1 M40.9,75.8l-9,15.6 M30.1,94.5l-16.2,28.1 M12,125.7l-16.2,28.1 M-7.5,156l9-15.6 M3.3,137.3l16.2-28.1
				 M21.3,106.1L37.5,78 M37.8,74l-9,15.6 M27,92.7l-16.2,28.1 M9,123.9L-7.3,152 M-10.6,154.2l9-15.6 M0.2,135.5l16.2-28.1
				 M18.2,104.3l16.2-28.1 M34.7,72.2l-9,15.6 M23.9,90.9L7.6,119.1 M5.9,122.1l-16.2,28.1 M-13.7,152.5l9-15.6 M-2.9,133.8
				l16.2-28.1 M15.1,102.5l16.2-28.1 M31.6,70.5l-9,15.6 M20.8,89.2L4.5,117.3 M2.8,120.4l-16.2,28.1 M-16.8,150.7l9-15.6 M-6,132
				l16.2-28.1 M12,100.8l16.2-28.1 M28.5,68.7l-9,15.6 M17.7,87.4L1.5,115.5 M-0.3,118.6l-16.2,28.1 M-19.9,148.9l9-15.6
				 M-9.1,130.2l16.2-28.1 M8.9,99l16.2-28.1 M25.4,66.9l-9,15.6 M14.6,85.6l-16.2,28.1 M-3.4,116.8l-16.2,28.1 M-23,147.1l9-15.6
				 M-12.2,128.4L4,100.3 M5.8,97.2L22,69.1 M22.3,65.1l-9,15.6 M11.5,83.8l-16.2,28.1 M-6.5,115l-16.2,28.1 M-26.1,145.3l9-15.6
				 M-15.3,126.6L0.9,98.5 M2.7,95.4l16.2-28.1 M19.2,63.3l-9,15.6 M8.4,82l-16.2,28.1 M-9.6,113.2l-16.2,28.1 M-29.2,143.5l9-15.6
				 M-18.4,124.8l16.2-28.1 M-0.4,93.6l16.2-28.1 M16.1,61.5l-9,15.6 M5.3,80.2l-16.2,28.1 M-12.7,111.4l-16.2,28.1 M-32.3,141.7
				l9-15.6 M-21.5,123l16.2-28.1 M-3.5,91.8l16.2-28.1 M13,59.7L4,75.3 M2.2,78.4L-14,106.5 M-15.8,109.6L-32,137.7 M321,237.6
				L11.5,58.8l-31-17.9c-0.2-0.1-0.4,0-0.5,0.1l-46.5,80.5c-0.1,0.2,0,0.4,0.1,0.5l371.5,214.5c0.2,0.1,0.4,0,0.5-0.1l46.5-80.5
				c0.1-0.2,0-0.4-0.1-0.5"/>
		</g>
	</g>
	<path id="XMLID_3625_" class="st3" d="M179.4,212.8l0.3-0.5"/>
	<path id="XMLID_3626_" class="st3" d="M190.9,192.8c0-3-32.7-28.4-35.1-32.2c-1.3-2-11.2-16.6-11.2-16.6
		c-4.3-9.7-14.7-16.4-23.7-21.9l-9.4-4.5c-10.9-3.9-21.1-6.8-31.9-2.9l-26.5,7.7c-1.2,0.3-2.6,0.7-3.5,2.1c-0.9,1.4-0.4,2.9-0.1,4.1
		l6.6,26.8c2,11.3,9.7,18.7,18.5,26.1l8.6,5.9c9.3,5,20.2,10.6,30.8,9.6c0,0,17.6,1.3,20,1.4c4.5,0.2,42.8,15.9,45.4,14.3"/>
	<path id="XMLID_607_" class="st3" d="M190.4,193.7l0.5-0.9"/>
</g>
<g id="XMLID_604_">
	<path id="XMLID_3629_" class="st0" d="M190.9,193c5.2-5.1,11.6-8.8,18.8-10.7"/>
	<path id="XMLID_3634_" class="st0" d="M179.5,233.3c-0.8-3.2-1.2-6.6-1.2-10.1c0-3.6,0.4-7.1,1.3-10.4"/>
	<path id="XMLID_3633_" class="st0" d="M190.8,253.3c-5.5-5.4-9.5-12.3-11.4-20"/>
	<path id="XMLID_3624_" class="st0" d="M209.1,263.9c-7-2-13.2-5.7-18.2-10.6"/>
	<path id="XMLID_3631_" class="st0" d="M250.2,253.3c-5,4.9-11.2,8.6-18.1,10.6"/>
	<path id="XMLID_3630_" class="st0" d="M261.5,212.6c0.9,3.4,1.3,6.9,1.3,10.6c0,3.5-0.4,6.9-1.2,10.1"/>
	<path id="XMLID_3018_" class="st0" d="M231.3,182.3c7.1,1.9,13.5,5.6,18.7,10.6"/>
</g>
<g id="XMLID_2416_">
	<g id="XMLID_2420_">
		<defs>
			<path id="XMLID_2421_" d="M220.6,420.5c1.7,0,2.7-1.1,3.6-2l19.9-19.1c8.7-7.4,11.3-17.7,13.4-29.1l0.8-10.4
				c-0.3-10.5-0.9-22.8-7.1-31.4c0,0-7.6-15.9-8.7-18c-2.1-4-7.7-45.1-10.3-46.5h-23.1c-2.7,1.5-8.2,42.5-10.3,46.5
				c-1.1,2.1-8.7,18-8.7,18c-6.2,8.6-6.8,20.9-7.1,31.4l0.8,10.4c2.1,11.4,4.6,21.7,13.4,29.1l19.9,19.1
				C217.9,419.3,218.9,420.4,220.6,420.5"/>
		</defs>
		<clipPath id="XMLID_3639_">
			<use xlink:href="#XMLID_2421_"  style="overflow:visible;"/>
		</clipPath>
		<g id="surface6361_5_" class="st6">
			<path id="XMLID_2422_" class="st2" d="M182.8,93.2v35.7 M182.8,130.7h18 M204.4,130.7h32.5 M240.4,130.7h32.4 M276.4,132.5h-18
				 M254.9,132.5h-32.5 M218.8,132.5h-32.4 M182.8,134.3h18 M204.4,134.3h32.5 M240.4,134.3h32.4 M276.4,136.1h-18 M254.9,136.1
				h-32.5 M218.8,136.1h-32.4 M182.8,137.8h18 M204.4,137.8h32.5 M240.4,137.8h32.4 M276.4,139.6h-18 M254.9,139.6h-32.5
				 M218.8,139.6h-32.4 M182.8,141.4h18 M204.4,141.4h32.5 M240.4,141.4h32.4 M276.4,143.2h-18 M254.9,143.2h-32.5 M218.8,143.2
				h-32.4 M182.8,145h18 M204.4,145h32.5 M240.4,145h32.4 M276.4,146.8h-18 M254.9,146.8h-32.5 M218.8,146.8h-32.4 M182.8,148.6h18
				 M204.4,148.6h32.5 M240.4,148.6h32.4 M276.4,150.4h-18 M254.9,150.4h-32.5 M218.8,150.4h-32.4 M182.8,152.1h18 M204.4,152.1
				h32.5 M240.4,152.1h32.4 M276.4,153.9h-18 M254.9,153.9h-32.5 M218.8,153.9h-32.4 M182.8,155.7h18 M204.4,155.7h32.5
				 M240.4,155.7h32.4 M276.4,157.5h-18 M254.9,157.5h-32.5 M218.8,157.5h-32.4 M182.8,159.3h18 M204.4,159.3h32.5 M240.4,159.3
				h32.4 M276.4,161.1h-18 M254.9,161.1h-32.5 M218.8,161.1h-32.4 M182.8,162.9h18 M204.4,162.9h32.5 M240.4,162.9h32.4
				 M276.4,164.7h-18 M254.9,164.7h-32.5 M218.8,164.7h-32.4 M182.8,166.4h18 M204.4,166.4h32.5 M240.4,166.4h32.4 M276.4,168.2h-18
				 M254.9,168.2h-32.5 M218.8,168.2h-32.4 M182.8,170h18 M204.4,170h32.5 M240.4,170h32.4 M276.4,171.8h-18 M254.9,171.8h-32.5
				 M218.8,171.8h-32.4 M182.8,173.6h18 M204.4,173.6h32.5 M240.4,173.6h32.4 M276.4,175.4h-18 M254.9,175.4h-32.5 M218.8,175.4
				h-32.4 M182.8,177.2h18 M204.4,177.2h32.5 M240.4,177.2h32.4 M276.4,179h-18 M254.9,179h-32.5 M218.8,179h-32.4 M182.8,180.7h18
				 M204.4,180.7h32.5 M240.4,180.7h32.4 M276.4,182.5h-18 M254.9,182.5h-32.5 M218.8,182.5h-32.4 M182.8,184.3h18 M204.4,184.3
				h32.5 M240.4,184.3h32.4 M276.4,186.1h-18 M254.9,186.1h-32.5 M218.8,186.1h-32.4 M182.8,187.9h18 M204.4,187.9h32.5
				 M240.4,187.9h32.4 M276.4,189.7h-18 M254.9,189.7h-32.5 M218.8,189.7h-32.4 M182.8,191.5h18 M204.4,191.5h32.5 M240.4,191.5
				h32.4 M276.4,193.2h-18 M254.9,193.2h-32.5 M218.8,193.2h-32.4 M182.8,195h18 M204.4,195h32.5 M240.4,195h32.4 M276.4,196.8h-18
				 M254.9,196.8h-32.5 M218.8,196.8h-32.4 M182.8,198.6h18 M204.4,198.6h32.5 M240.4,198.6h32.4 M276.4,200.4h-18 M254.9,200.4
				h-32.5 M218.8,200.4h-32.4 M182.8,202.2h18 M204.4,202.2h32.5 M240.4,202.2h32.4 M276.4,204h-18 M254.9,204h-32.5 M218.8,204
				h-32.4 M182.8,205.8h18 M204.4,205.8h32.5 M240.4,205.8h32.4 M276.4,207.5h-18 M254.9,207.5h-32.5 M218.8,207.5h-32.4
				 M182.8,209.3h18 M204.4,209.3h32.5 M240.4,209.3h32.4 M276.4,211.1h-18 M254.9,211.1h-32.5 M218.8,211.1h-32.4 M182.8,212.9h18
				 M204.4,212.9h32.5 M240.4,212.9h32.4 M276.4,214.7h-18 M254.9,214.7h-32.5 M218.8,214.7h-32.4 M182.8,216.5h18 M204.4,216.5
				h32.5 M240.4,216.5h32.4 M276.4,218.3h-18 M254.9,218.3h-32.5 M218.8,218.3h-32.4 M182.8,220.1h18 M204.4,220.1h32.5
				 M240.4,220.1h32.4 M276.4,221.8h-18 M254.9,221.8h-32.5 M218.8,221.8h-32.4 M182.8,223.6h18 M204.4,223.6h32.5 M240.4,223.6
				h32.4 M276.4,225.4h-18 M254.9,225.4h-32.5 M218.8,225.4h-32.4 M182.8,227.2h18 M204.4,227.2h32.5 M240.4,227.2h32.4 M276.4,229
				h-18 M254.9,229h-32.5 M218.8,229h-32.4 M182.8,230.8h18 M204.4,230.8h32.5 M240.4,230.8h32.4 M276.4,232.6h-18 M254.9,232.6
				h-32.5 M218.8,232.6h-32.4 M182.8,234.4h18 M204.4,234.4h32.5 M240.4,234.4h32.4 M276.4,236.1h-18 M254.9,236.1h-32.5
				 M218.8,236.1h-32.4 M182.8,237.9h18 M204.4,237.9h32.5 M240.4,237.9h32.4 M276.4,239.7h-18 M254.9,239.7h-32.5 M218.8,239.7
				h-32.4 M182.8,241.5h18 M204.4,241.5h32.5 M240.4,241.5h32.4 M276.4,243.3h-18 M254.9,243.3h-32.5 M218.8,243.3h-32.4
				 M182.8,245.1h18 M204.4,245.1h32.5 M240.4,245.1h32.4 M276.4,246.9h-18 M254.9,246.9h-32.5 M218.8,246.9h-32.4 M182.8,248.7h18
				 M204.4,248.7h32.5 M240.4,248.7h32.4 M276.4,250.4h-18 M254.9,250.4h-32.5 M218.8,250.4h-32.4 M182.8,252.2h18 M204.4,252.2
				h32.5 M240.4,252.2h32.4 M276.4,254h-18 M254.9,254h-32.5 M218.8,254h-32.4 M182.8,255.8h18 M204.4,255.8h32.5 M240.4,255.8h32.4
				 M276.4,257.6h-18 M254.9,257.6h-32.5 M218.8,257.6h-32.4 M182.8,259.4h18 M204.4,259.4h32.5 M240.4,259.4h32.4 M276.4,261.2h-18
				 M254.9,261.2h-32.5 M218.8,261.2h-32.4 M182.8,262.9h18 M204.4,262.9h32.5 M240.4,262.9h32.4 M276.4,264.7h-18 M182.8,266.5h18
				 M209.8,266.5h21.6 M240.4,266.5h32.4 M276.4,268.3h-18 M254.9,268.3h-32.5 M218.8,268.3h-32.4 M182.8,270.1h18 M209.8,270.1
				h21.6 M240.4,270.1h32.4 M276.4,271.9h-18 M254.9,271.9h-32.5 M218.8,271.9h-32.4 M182.8,273.7h18 M204.4,273.7h32.5
				 M240.4,273.7h32.4 M276.4,275.5h-18 M254.9,275.5h-32.5 M218.8,275.5h-32.4 M182.8,277.2h18 M208.2,277.2H233 M240.4,277.2h32.4
				 M276.4,279h-18 M254.9,279h-32.5 M218.8,279h-32.4 M182.8,280.8h18 M207.5,280.8h26.3 M240.4,280.8h32.4 M276.4,282.6h-18
				 M254.9,282.6h-32.5 M218.8,282.6h-32.4 M182.8,284.4h18 M207.5,284.4h26.3 M240.4,284.4h32.4 M276.4,286.2h-18 M254.9,286.2
				h-32.5 M218.8,286.2h-32.4 M182.8,288h18 M205.6,288h30 M240.4,288h32.4 M276.4,289.8h-18 M254.9,289.8h-32.5 M218.8,289.8h-32.4
				 M182.8,291.5h18 M205.6,291.5h30 M240.4,291.5h32.4 M276.4,293.3h-18 M254.9,293.3h-32.5 M218.8,293.3h-32.4 M182.8,295.1h18
				 M204.4,295.1h32.5 M240.4,295.1h32.4 M276.4,296.9h-18 M254.9,296.9h-32.5 M218.8,296.9h-32.4 M182.8,298.7h18 M204.4,298.7
				h32.5 M240.4,298.7h32.4 M276.4,300.5h-18 M254.9,300.5h-32.5 M218.8,300.5h-32.4 M182.8,302.3h18 M204.4,302.3h32.5
				 M240.4,302.3h32.4 M276.4,304.1h-18 M254.9,304.1h-32.5 M218.8,304.1h-32.4 M182.8,305.8h18 M204.4,305.8h32.5 M240.4,305.8
				h32.4 M276.4,307.6h-18 M254.9,307.6h-32.5 M218.8,307.6h-32.4 M182.8,309.4h18 M204.4,309.4h32.5 M240.4,309.4h32.4
				 M276.4,311.2h-18 M254.9,311.2h-32.5 M218.8,311.2h-32.4 M182.8,313h18 M204.4,313h32.5 M240.4,313h32.4 M276.4,314.8h-18
				 M254.9,314.8h-32.5 M218.8,314.8h-32.4 M182.8,316.6h18 M204.4,316.6h32.5 M240.4,316.6h32.4 M276.4,318.4h-18 M254.9,318.4
				h-32.5 M218.8,318.4h-32.4 M182.8,320.1h18 M204.4,320.1h32.5 M240.4,320.1h32.4 M276.4,321.9h-18 M254.9,321.9h-32.5
				 M218.8,321.9h-32.4 M182.8,323.7h18 M204.4,323.7h32.5 M240.4,323.7h32.4 M276.4,325.5h-18 M254.9,325.5h-32.5 M218.8,325.5
				h-32.4 M182.8,327.3h18 M204.4,327.3h32.5 M240.4,327.3h32.4 M276.4,329.1h-18 M254.9,329.1h-32.5 M218.8,329.1h-32.4
				 M182.8,330.9h18 M204.4,330.9h32.5 M240.4,330.9h32.4 M276.4,332.7h-18 M254.9,332.7h-32.5 M218.8,332.7h-32.4 M182.8,334.4h18
				 M204.4,334.4h32.5 M240.4,334.4h32.4 M276.4,336.2h-18 M254.9,336.2h-32.5 M218.8,336.2h-32.4 M182.8,338h18 M204.4,338h32.5
				 M240.4,338h32.4 M276.4,339.8h-18 M254.9,339.8h-32.5 M218.8,339.8h-32.4 M182.8,341.6h18 M204.4,341.6h32.5 M240.4,341.6h32.4
				 M276.4,343.4h-18 M254.9,343.4h-32.5 M218.8,343.4h-32.4 M182.8,345.2h18 M204.4,345.2h32.5 M240.4,345.2h32.4 M276.4,346.9h-18
				 M254.9,346.9h-32.5 M218.8,346.9h-32.4 M182.8,348.7h18 M204.4,348.7h32.5 M240.4,348.7h32.4 M276.4,350.5h-18 M254.9,350.5
				h-32.5 M218.8,350.5h-32.4 M182.8,352.3h18 M204.4,352.3h32.5 M240.4,352.3h32.4 M276.4,354.1h-18 M254.9,354.1h-32.5
				 M218.8,354.1h-32.4 M182.8,355.9h18 M204.4,355.9h32.5 M240.4,355.9h32.4 M276.4,357.7h-18 M254.9,357.7h-32.5 M218.8,357.7
				h-32.4 M182.8,359.5h18 M204.4,359.5h32.5 M240.4,359.5h32.4 M276.4,361.2h-18 M254.9,361.2h-32.5 M218.8,361.2h-32.4 M182.8,363
				h18 M204.4,363h32.5 M240.4,363h32.4 M276.4,364.8h-18 M254.9,364.8h-32.5 M218.8,364.8h-32.4 M182.8,366.6h18 M204.4,366.6h32.5
				 M240.4,366.6h32.4 M276.4,368.4h-18 M254.9,368.4h-32.5 M218.8,368.4h-32.4 M182.8,370.2h18 M204.4,370.2h32.5 M240.4,370.2
				h32.4 M276.4,372h-18 M254.9,372h-32.5 M218.8,372h-32.4 M182.8,373.8h18 M204.4,373.8h32.5 M240.4,373.8h32.4 M276.4,375.5h-18
				 M254.9,375.5h-32.5 M218.8,375.5h-32.4 M182.8,377.3h18 M204.4,377.3h32.5 M240.4,377.3h32.4 M276.4,379.1h-18 M254.9,379.1
				h-32.5 M218.8,379.1h-32.4 M182.8,380.9h18 M204.4,380.9h32.5 M240.4,380.9h32.4 M276.4,382.7h-18 M254.9,382.7h-32.5
				 M218.8,382.7h-32.4 M182.8,384.5h18 M204.4,384.5h32.5 M240.4,384.5h32.4 M276.4,386.3h-18 M254.9,386.3h-32.5 M218.8,386.3
				h-32.4 M182.8,388.1h18 M204.4,388.1h32.5 M240.4,388.1h32.4 M276.4,389.8h-18 M254.9,389.8h-32.5 M218.8,389.8h-32.4
				 M182.8,391.6h18 M204.4,391.6h32.5 M240.4,391.6h32.4 M276.4,393.4h-18 M254.9,393.4h-32.5 M218.8,393.4h-32.4 M182.8,395.2h18
				 M204.4,395.2h32.5 M240.4,395.2h32.4 M276.4,397h-18 M254.9,397h-32.5 M218.8,397h-32.4 M182.8,398.8h18 M204.4,398.8h32.5
				 M240.4,398.8h32.4 M276.4,400.6h-18 M254.9,400.6h-32.5 M218.8,400.6h-32.4 M182.8,402.4h18 M204.4,402.4h32.5 M240.4,402.4
				h32.4 M276.4,404.1h-18 M254.9,404.1h-32.5 M218.8,404.1h-32.4 M182.8,405.9h18 M207.3,405.9H234 M240.4,405.9h32.4 M276.4,407.7
				h-18 M254.9,407.7h-32.5 M218.8,407.7h-32.4 M182.8,409.5h18 M211.4,409.5h18.4 M240.4,409.5h32.4 M276.4,411.3h-18 M254.9,411.3
				h-32.5 M218.8,411.3h-32.4 M182.8,413.1h18 M214.8,413.1h11.7 M240.4,413.1h32.4 M276.4,414.9h-18 M254.9,414.9h-32.5
				 M218.8,414.9h-32.4 M182.8,416.6h18 M218.2,416.6h4.9 M240.4,416.6h32.4 M276.4,418.4h-18 M254.9,418.4h-32.5 M218.8,418.4
				h-32.4 M182.8,420.2h18 M204.4,420.2h32.5 M240.4,420.2h32.4 M276.4,422h-18 M254.9,422h-32.5 M218.8,422h-32.4 M182.8,423.8h18
				 M204.4,423.8h32.5 M240.4,423.8h32.4 M276.4,425.6h-18 M254.9,425.6h-32.5 M218.8,425.6h-32.4 M182.8,427.4h18 M204.4,427.4
				h32.5 M240.4,427.4h32.4 M276.4,429.2h-18 M254.9,429.2h-32.5 M218.8,429.2h-32.4 M182.8,430.9h18 M204.4,430.9h32.5
				 M240.4,430.9h32.4 M276.4,432.7h-18 M254.9,432.7h-32.5 M218.8,432.7h-32.4 M182.8,434.5h18 M204.4,434.5h32.5 M240.4,434.5
				h32.4 M276.4,436.3h-18 M254.9,436.3h-32.5 M218.8,436.3h-32.4 M182.8,438.1h18 M204.4,438.1h32.5 M240.4,438.1h32.4
				 M276.4,439.9h-18 M254.9,439.9h-32.5 M218.8,439.9h-32.4 M182.8,441.7h18 M204.4,441.7h32.5 M240.4,441.7h32.4 M276.4,443.5h-18
				 M254.9,443.5h-32.5 M218.8,443.5h-32.4 M182.8,445.2h18 M204.4,445.2h32.5 M240.4,445.2h32.4 M276.4,447h-18 M254.9,447h-32.5
				 M218.8,447h-32.4 M182.8,448.8h18 M204.4,448.8h32.5 M240.4,448.8h32.4 M276.4,450.6h-18 M254.9,450.6h-32.5 M218.8,450.6h-32.4
				 M182.8,452.4h18 M204.4,452.4h32.5 M240.4,452.4h32.4 M276.4,454.2h-18 M254.9,454.2h-32.5 M218.8,454.2h-32.4 M182.8,456h18
				 M204.4,456h32.5 M240.4,456h32.4 M276.4,457.8h-18 M254.9,457.8h-32.5 M218.8,457.8h-32.4 M182.8,459.5h18 M204.4,459.5h32.5
				 M240.4,459.5h32.4 M276.4,461.3h-18 M254.9,461.3h-32.5 M218.8,461.3h-32.4 M182.8,463.1h18 M204.4,463.1h32.5 M240.4,463.1
				h32.4 M276.4,464.9h-18 M254.9,464.9h-32.5 M218.8,464.9h-32.4 M182.8,466.7h18 M204.4,466.7h32.5 M240.4,466.7h32.4
				 M276.4,468.5h-18 M254.9,468.5h-32.5 M218.8,468.5h-32.4 M182.8,470.3h18 M204.4,470.3h32.5 M240.4,470.3h32.4 M276.4,472.1h-18
				 M254.9,472.1h-32.5 M218.8,472.1h-32.4 M182.8,473.8h18 M204.4,473.8h32.5 M240.4,473.8h32.4 M276.4,475.6h-18 M254.9,475.6
				h-32.5 M218.8,475.6h-32.4 M182.8,477.4h18 M204.4,477.4h32.5 M240.4,477.4h32.4 M276.4,479.2h-18 M254.9,479.2h-32.5
				 M218.8,479.2h-32.4 M182.8,481h18 M204.4,481h32.5 M240.4,481h32.4 M276.4,482.8h-18 M254.9,482.8h-32.5 M218.8,482.8h-32.4
				 M182.8,484.6h18 M204.4,484.6h32.5 M240.4,484.6h32.4 M182.8,128.9v357.4v35.7c0,0.2,0.2,0.4,0.4,0.4h92.9
				c0.2,0,0.4-0.2,0.4-0.4V93.2c0-0.2-0.2-0.4-0.4-0.4h-92.9c-0.2,0-0.4,0.2-0.4,0.4"/>
		</g>
	</g>
	<path id="XMLID_2419_" class="st3" d="M209.4,263.9h-0.3c-2.7,1.5-8.2,42.5-10.3,46.5c-1.1,2.1-8.7,18-8.7,18
		c-6.2,8.6-6.8,20.9-7.1,31.4l0.8,10.4c2.1,11.4,4.6,21.7,13.4,29.1l19.9,19.1c0.9,0.9,1.9,1.9,3.6,2"/>
	<line id="XMLID_3632_" class="st3" x1="232" y1="263.9" x2="231.7" y2="263.9"/>
	<path id="XMLID_2418_" class="st3" d="M220.6,420.5c1.7,0,2.7-1.1,3.6-2l19.9-19.1c8.7-7.4,11.3-17.7,13.4-29.1l0.8-10.4
		c-0.3-10.5-0.9-22.8-7.1-31.4c0,0-7.6-15.9-8.7-18c-2.1-4-7.7-45.1-10.3-46.5H232"/>
	<path id="XMLID_2417_" class="st3" d="M204.4,273.7"/>
</g>
<g id="XMLID_1209_">
	<g id="XMLID_1213_">
		<defs>
			<path id="XMLID_1214_" d="M49.5,321.7c0.9,1.4,2.3,1.8,3.5,2.1l26.5,7.7c10.8,3.9,21,1,31.9-2.9l9.4-4.5
				c9-5.5,19.3-12.2,23.7-21.9c0,0,9.9-14.6,11.2-16.6c2.4-3.8,35.2-29.2,35.1-32.2l-11.6-20c-2.6-1.6-40.9,14.1-45.4,14.3
				c-2.4,0.1-20,1.4-20,1.4c-10.6-1.1-21.5,4.5-30.8,9.6l-8.6,5.9c-8.8,7.5-16.4,14.9-18.5,26.1l-6.6,26.8
				C49.1,318.8,48.7,320.2,49.5,321.7"/>
		</defs>
		<clipPath id="XMLID_3640_">
			<use xlink:href="#XMLID_1214_"  style="overflow:visible;"/>
		</clipPath>
		<g id="surface6361_3_" class="st7">
			<path id="XMLID_1215_" class="st2" d="M314,125.3l-31,17.9 M281.5,144.1l9,15.6 M292.3,162.8l16.2,28.1 M310.3,194l16.2,28.1
				 M326.8,226.1l-9-15.6 M316,207.4l-16.2-28.1 M298,176.2l-16.2-28.1 M278.4,145.9l9,15.6 M289.2,164.6l16.2,28.1 M307.2,195.8
				l16.2,28.1 M323.7,227.9l-9-15.6 M312.9,209.2l-16.2-28.1 M294.9,178l-16.2-28.1 M275.3,147.7l9,15.6 M286.1,166.4l16.2,28.1
				 M304.1,197.6l16.2,28.1 M320.6,229.7l-9-15.6 M309.8,211l-16.2-28.1 M291.8,179.8l-16.2-28.1 M272.2,149.4l9,15.6 M283,168.1
				l16.2,28.1 M301.1,199.4l16.2,28.1 M317.5,231.4l-9-15.6 M306.7,212.7l-16.2-28.1 M288.7,181.5l-16.2-28.1 M269.1,151.2l9,15.6
				 M279.9,169.9l16.2,28.1 M298,201.1l16.2,28.1 M314.4,233.2l-9-15.6 M303.6,214.5l-16.2-28.1 M285.6,183.3l-16.2-28.1 M266,153
				l9,15.6 M276.8,171.7l16.2,28.1 M294.9,202.9l16.2,28.1 M311.3,235l-9-15.6 M300.5,216.3l-16.2-28.1 M282.5,185.1L266.3,157
				 M263,154.8l9,15.6 M273.7,173.5l16.2,28.1 M291.8,204.7l16.2,28.1 M308.2,236.8l-9-15.6 M297.4,218.1L281.2,190 M279.4,186.9
				l-16.2-28.1 M259.9,156.6l9,15.6 M270.7,175.3l16.2,28.1 M288.7,206.5l16.2,28.1 M305.1,238.6l-9-15.6 M294.3,219.9l-16.2-28.1
				 M276.3,188.7l-16.2-28.1 M256.8,158.4l9,15.6 M267.6,177.1l16.2,28.1 M285.6,208.3l16.2,28.1 M302,240.4l-9-15.6 M291.2,221.7
				L275,193.6 M273.2,190.5L257,162.4 M253.7,160.2l9,15.6 M264.5,178.9l16.2,28.1 M282.5,210.1l16.2,28.1 M298.9,242.2l-9-15.6
				 M288.1,223.5l-16.2-28.1 M270.1,192.3l-16.2-28.1 M250.6,162l9,15.6 M261.4,180.7l16.2,28.1 M279.4,211.9l16.2,28.1 M295.8,244
				l-9-15.6 M285.1,225.3l-16.2-28.1 M267,194l-16.2-28.1 M247.5,163.7l9,15.6 M258.3,182.4l16.2,28.1 M276.3,213.6l16.2,28.1
				 M292.8,245.7l-9-15.6 M282,227l-16.2-28.1 M263.9,195.8l-16.2-28.1 M244.4,165.5l9,15.6 M255.2,184.2l16.2,28.1 M273.2,215.4
				l16.2,28.1 M289.7,247.5l-9-15.6 M278.9,228.8l-16.2-28.1 M260.8,197.6l-16.2-28.1 M241.3,167.3l9,15.6 M252.1,186l16.2,28.1
				 M270.1,217.2l16.2,28.1 M286.6,249.3l-9-15.6 M275.8,230.6l-16.2-28.1 M257.7,199.4l-16.2-28.1 M238.2,169.1l9,15.6 M249,187.8
				l16.2,28.1 M267,219l16.2,28.1 M283.5,251.1l-9-15.6 M272.7,232.4l-16.2-28.1 M254.7,201.2l-16.2-28.1 M235.1,170.9l9,15.6
				 M245.9,189.6l16.2,28.1 M263.9,220.8l16.2,28.1 M280.4,252.9l-9-15.6 M269.6,234.2l-16.2-28.1 M251.6,203l-16.2-28.1 M232,172.7
				l9,15.6 M242.8,191.4l16.2,28.1 M260.8,222.6l16.2,28.1 M277.3,254.7l-9-15.6 M266.5,236l-16.2-28.1 M248.5,204.8l-16.2-28.1
				 M228.9,174.5l9,15.6 M239.7,193.2l16.2,28.1 M257.7,224.4l16.2,28.1 M274.2,256.5l-9-15.6 M263.4,237.8l-16.2-28.1 M245.4,206.6
				l-16.2-28.1 M225.8,176.3l9,15.6 M236.6,195l16.2,28.1 M254.6,226.2l16.2,28.1 M271.1,258.3l-9-15.6 M260.3,239.6l-16.2-28.1
				 M242.3,208.3L226,180.2 M222.7,178l9,15.6 M233.5,196.7l16.2,28.1 M251.5,227.9l16.2,28.1 M268,260l-9-15.6 M257.2,241.3
				L241,213.2 M239.2,210.1L223,182 M219.6,179.8l9,15.6 M230.4,198.5l16.2,28.1 M248.4,229.7l16.2,28.1 M264.9,261.8l-9-15.6
				 M254.1,243.1L237.9,215 M236.1,211.9l-16.2-28.1 M216.5,181.6l9,15.6 M227.3,200.3l16.2,28.1 M245.3,231.5l16.2,28.1
				 M261.8,263.6l-9-15.6 M251,244.9l-16.2-28.1 M233,213.7l-16.2-28.1 M213.4,183.4l9,15.6 M224.2,202.1l16.2,28.1 M242.2,233.3
				l16.2,28.1 M258.7,265.4l-9-15.6 M247.9,246.7l-16.2-28.1 M229.9,215.5l-16.2-28.1 M210.3,185.2l9,15.6 M221.1,203.9l16.2,28.1
				 M239.1,235.1l16.2,28.1 M255.6,267.2l-9-15.6 M244.8,248.5l-16.2-28.1 M226.8,217.3l-16.2-28.1 M207.2,187l9,15.6 M218,205.7
				l16.2,28.1 M236,236.9l16.2,28.1 M252.5,269l-9-15.6 M241.7,250.3l-16.2-28.1 M223.7,219.1L207.5,191 M204.1,188.8l9,15.6
				 M214.9,207.5l16.2,28.1 M232.9,238.7l16.2,28.1 M249.4,270.8l-9-15.6 M238.6,252.1L222.4,224 M220.6,220.9l-16.2-28.1
				 M201,190.6l9,15.6 M211.8,209.2l16.2,28.1 M229.9,240.5l16.2,28.1 M246.3,272.5l-9-15.6 M235.5,253.9l-16.2-28.1 M217.5,222.6
				l-16.2-28.1 M197.9,192.3l9,15.6 M208.7,211l16.2,28.1 M226.8,242.2l16.2,28.1 M243.2,274.3l-9-15.6 M232.4,255.6l-16.2-28.1
				 M214.4,224.4l-16.2-28.1 M194.9,194.1l9,15.6 M205.6,212.8l16.2,28.1 M223.7,244l16.2,28.1 M240.1,276.1l-9-15.6 M229.3,257.4
				l-16.2-28.1 M211.3,226.2l-16.2-28.1 M191.8,195.9l9,15.6 M202.5,214.6l16.2,28.1 M220.6,245.8l16.2,28.1 M237,277.9l-9-15.6
				 M226.2,259.2L210,231.1 M208.2,228L192,199.9 M188.7,197.7l9,15.6 M199.5,216.4l16.2,28.1 M217.5,247.6l16.2,28.1 M233.9,279.7
				l-9-15.6 M223.1,261l-16.2-28.1 M205.1,229.8l-16.2-28.1 M185.6,199.5l9,15.6 M196.4,218.2l16.2,28.1 M214.4,249.4l16.2,28.1
				 M230.8,281.5l-9-15.6 M220,262.8l-16.2-28.1 M202,231.6l-16.2-28.1 M182.5,201.3l9,15.6 M193.3,220l16.2,28.1 M211.3,251.2
				l16.2,28.1 M227.7,283.3l-9-15.6 M217,264.6l-16.2-28.1 M198.9,233.4l-16.2-28.1 M179.4,203.1l9,15.6 M190.2,221.8l16.2,28.1
				 M208.2,253l16.2,28.1 M224.6,285.1l-9-15.6 M213.9,266.4l-16.2-28.1 M195.8,235.2l-16.2-28.1 M176.3,204.9l9,15.6 M187.1,223.5
				l16.2,28.1 M205.1,254.8l16.2,28.1 M221.6,286.8l-9-15.6 M210.8,268.2L194.5,240 M192.7,236.9l-16.2-28.1 M173.2,206.6l9,15.6
				 M184,225.3l16.2,28.1 M202,256.5l16.2,28.1 M218.5,288.6l-9-15.6 M207.7,269.9l-16.2-28.1 M189.6,238.7l-16.2-28.1 M170.1,208.4
				l9,15.6 M180.9,227.1l16.2,28.1 M198.9,258.3l16.2,28.1 M215.4,290.4l-9-15.6 M204.6,271.7l-16.2-28.1 M186.6,240.5l-16.2-28.1
				 M167,210.2l9,15.6 M177.8,228.9L194,257 M195.8,260.1l16.2,28.1 M212.3,292.2l-9-15.6 M163.9,212l9,15.6 M177.4,235.4l10.8,18.7
				 M192.7,261.9l16.2,28.1 M209.2,294l-9-15.6 M198.4,275.3l-16.2-28.1 M180.4,244.1L164.1,216 M160.8,213.8l9,15.6 M174.3,237.2
				l10.8,18.7 M189.6,263.7l16.2,28.1 M206.1,295.8l-9-15.6 M195.3,277.1L179.1,249 M177.3,245.9L161,217.8 M157.7,215.6l9,15.6
				 M168.5,234.3l16.2,28.1 M186.5,265.5l16.2,28.1 M203,297.6l-9-15.6 M192.2,278.9L176,250.8 M174.2,247.7l-16.2-28.1
				 M154.6,217.4l9,15.6 M167.3,239.4l12.4,21.4 M183.4,267.3l16.2,28.1 M199.9,299.4l-9-15.6 M189.1,280.7l-16.2-28.1 M171.1,249.5
				l-16.2-28.1 M151.5,219.1l9,15.6 M163.8,240.5l13.2,22.8 M180.3,269.1l16.2,28.1 M196.8,301.1l-9-15.6 M186,282.4l-16.2-28.1
				 M168,251.2l-16.2-28.1 M148.4,220.9l9,15.6 M160.7,242.3l13.2,22.8 M177.2,270.8l16.2,28.1 M193.7,302.9l-9-15.6 M182.9,284.2
				l-16.2-28.1 M164.9,253l-16.2-28.1 M145.3,222.7l9,15.6 M156.7,242.5l15,26 M174.1,272.6l16.2,28.1 M190.6,304.7l-9-15.6
				 M179.8,286l-16.2-28.1 M161.8,254.8l-16.2-28.1 M142.2,224.5l9,15.6 M153.6,244.3l15,26 M171,274.4l16.2,28.1 M187.5,306.5
				l-9-15.6 M176.7,287.8l-16.2-28.1 M158.7,256.6l-16.2-28.1 M139.1,226.3l9,15.6 M149.9,245l16.2,28.1 M167.9,276.2l16.2,28.1
				 M184.4,308.3l-9-15.6 M173.6,289.6l-16.2-28.1 M155.6,258.4l-16.2-28.1 M136,228.1l9,15.6 M146.8,246.8l16.2,28.1 M164.8,278
				l16.2,28.1 M181.3,310.1l-9-15.6 M170.5,291.4l-16.2-28.1 M152.5,260.2l-16.2-28.1 M132.9,229.9l9,15.6 M143.7,248.6l16.2,28.1
				 M161.8,279.8l16.2,28.1 M178.2,311.9l-9-15.6 M167.4,293.2l-16.2-28.1 M149.4,262l-16.2-28.1 M129.8,231.7l9,15.6 M140.6,250.4
				l16.2,28.1 M158.7,281.6l16.2,28.1 M175.1,313.7l-9-15.6 M164.3,295l-16.2-28.1 M146.3,263.8l-16.2-28.1 M126.7,233.4l9,15.6
				 M137.5,252.1l16.2,28.1 M155.6,283.4l16.2,28.1 M172,315.4l-9-15.6 M161.2,296.7L145,268.6 M143.2,265.5L127,237.4 M123.7,235.2
				l9,15.6 M134.4,253.9l16.2,28.1 M152.5,285.1l16.2,28.1 M168.9,317.2l-9-15.6 M158.1,298.5l-16.2-28.1 M140.1,267.3l-16.2-28.1
				 M120.6,237l9,15.6 M131.4,255.7l16.2,28.1 M149.4,286.9l16.2,28.1 M165.8,319l-9-15.6 M155,300.3l-16.2-28.1 M137,269.1
				L120.8,241 M117.5,238.8l9,15.6 M128.3,257.5l16.2,28.1 M146.3,288.7l16.2,28.1 M162.7,320.8l-9-15.6 M151.9,302.1L135.7,274
				 M133.9,270.9l-16.2-28.1 M114.4,240.6l9,15.6 M125.2,259.3l16.2,28.1 M143.2,290.5l16.2,28.1 M159.6,322.6l-9-15.6 M148.9,303.9
				l-16.2-28.1 M130.8,272.7l-16.2-28.1 M111.3,242.4l9,15.6 M122.1,261.1l16.2,28.1 M140.1,292.3l16.2,28.1 M156.5,324.4l-9-15.6
				 M145.8,305.7l-16.2-28.1 M127.7,274.5l-16.2-28.1 M108.2,244.2l9,15.6 M119,262.9l16.2,28.1 M137,294.1l16.2,28.1 M153.5,326.2
				l-9-15.6 M142.7,307.5l-16.2-28.1 M124.6,276.3l-16.2-28.1 M105.1,246l9,15.6 M115.9,264.7l16.2,28.1 M133.9,295.9l16.2,28.1
				 M150.4,328l-9-15.6 M139.6,309.3l-16.2-28.1 M121.5,278l-16.2-28.1 M102,247.7l9,15.6 M112.8,266.4l16.2,28.1 M130.8,297.6
				l16.2,28.1 M147.3,329.7l-9-15.6 M136.5,311l-16.2-28.1 M118.4,279.8l-16.2-28.1 M98.9,249.5l9,15.6 M109.7,268.2l16.2,28.1
				 M127.7,299.4l16.2,28.1 M144.2,331.5l-9-15.6 M133.4,312.8l-16.2-28.1 M115.4,281.6l-16.2-28.1 M95.8,251.3l9,15.6 M106.6,270
				l16.2,28.1 M124.6,301.2l16.2,28.1 M141.1,333.3l-9-15.6 M130.3,314.6L114,286.5 M112.3,283.4L96,255.3 M92.7,253.1l9,15.6
				 M103.5,271.8l16.2,28.1 M121.5,303l16.2,28.1 M138,335.1l-9-15.6 M127.2,316.4L111,288.3 M109.2,285.2l-16.2-28.1 M89.6,254.9
				l9,15.6 M100.4,273.6l16.2,28.1 M118.4,304.8l16.2,28.1 M134.9,336.9l-9-15.6 M124.1,318.2l-16.2-28.1 M106.1,287l-16.2-28.1
				 M86.5,256.7l9,15.6 M97.3,275.4l16.2,28.1 M115.3,306.6l16.2,28.1 M131.8,338.7l-9-15.6 M121,320l-16.2-28.1 M103,288.8
				l-16.2-28.1 M83.4,258.5l9,15.6 M94.2,277.2l16.2,28.1 M112.2,308.4l16.2,28.1 M128.7,340.5l-9-15.6 M117.9,321.8l-16.2-28.1
				 M99.9,290.6l-16.2-28.1 M80.3,260.3l9,15.6 M91.1,278.9l16.2,28.1 M109.1,310.2l16.2,28.1 M125.6,342.2l-9-15.6 M114.8,323.6
				l-16.2-28.1 M96.8,292.3l-16.2-28.1 M77.2,262l9,15.6 M88,280.7l16.2,28.1 M106,311.9l16.2,28.1 M122.5,344l-9-15.6 M111.7,325.3
				l-16.2-28.1 M93.7,294.1L77.5,266 M74.1,263.8l9,15.6 M84.9,282.5l16.2,28.1 M102.9,313.7l16.2,28.1 M119.4,345.8l-9-15.6
				 M108.6,327.1L92.4,299 M90.6,295.9l-16.2-28.1 M71,265.6l9,15.6 M81.8,284.3l16.2,28.1 M99.8,315.5l16.2,28.1 M116.3,347.6
				l-9-15.6 M105.5,328.9l-16.2-28.1 M87.5,297.7l-16.2-28.1 M67.9,267.4l9,15.6 M78.7,286.1L95,314.2 M96.7,317.3l16.2,28.1
				 M113.2,349.4l-9-15.6 M102.4,330.7l-16.2-28.1 M84.4,299.5l-16.2-28.1 M64.8,269.2l9,15.6 M75.6,287.9L91.9,316 M93.7,319.1
				l16.2,28.1 M110.1,351.2l-9-15.6 M99.3,332.5l-16.2-28.1 M81.3,301.3l-16.2-28.1 M61.7,271l9,15.6 M72.5,289.7l16.2,28.1
				 M90.6,320.9l16.2,28.1 M107,353l-9-15.6 M96.2,334.3L80,306.2 M78.2,303.1L62,275 M58.6,272.8l9,15.6 M69.4,291.5l16.2,28.1
				 M87.5,322.7l16.2,28.1 M103.9,354.8l-9-15.6 M93.1,336.1L76.9,308 M75.1,304.9l-16.2-28.1 M55.6,274.6l9,15.6 M66.3,293.2
				l16.2,28.1 M84.4,324.5l16.2,28.1 M100.8,356.5l-9-15.6 M90,337.9l-16.2-28.1 M72,306.6l-16.2-28.1 M52.5,276.3l9,15.6 M63.2,295
				l16.2,28.1 M81.3,326.2l16.2,28.1 M97.7,358.3l-9-15.6 M86.9,339.6l-16.2-28.1 M68.9,308.4l-16.2-28.1 M49.4,278.1l9,15.6
				 M60.2,296.8l16.2,28.1 M78.2,328l16.2,28.1 M94.6,360.1l-9-15.6 M83.8,341.4l-16.2-28.1 M65.8,310.2l-16.2-28.1 M46.3,279.9
				l9,15.6 M57.1,298.6l16.2,28.1 M75.1,329.8l16.2,28.1 M91.5,361.9l-9-15.6 M80.7,343.2l-16.2-28.1 M62.7,312l-16.2-28.1
				 M43.2,281.7l9,15.6 M55.4,302.9L68.8,326 M72,331.6l16.2,28.1 M88.4,363.7l-9-15.6 M77.7,345l-16.2-28.1 M59.6,313.8l-16.2-28.1
				 M40.1,283.5l9,15.6 M54.4,308.3l9.2,16 M68.9,333.4l16.2,28.1 M85.4,365.5l-9-15.6 M74.6,346.8l-16.2-28.1 M56.5,315.6
				l-16.2-28.1 M37,285.3l9,15.6 M53,312.9l5.9,10.2 M65.8,335.2L82,363.3 M82.3,367.3l-9-15.6 M71.5,348.6l-16.2-28.1 M53.4,317.4
				l-16.2-28.1 M33.9,287.1l9,15.6 M51.6,317.7l2.4,4.2 M62.7,337l16.2,28.1 M79.2,369.1l-9-15.6 M68.4,350.4l-16.2-28.1
				 M50.3,319.2l-16.2-28.1 M30.8,288.9l9,15.6 M41.6,307.5l16.2,28.1 M59.6,338.8l16.2,28.1 M76.1,370.8l-9-15.6 M65.3,352.2
				L49,324 M47.3,320.9L31,292.8 M27.7,290.6l9,15.6 M38.5,309.3l16.2,28.1 M56.5,340.5l16.2,28.1 M73,372.6L64,357 M62.2,353.9
				l-16.2-28.1 M44.2,322.7l-16.2-28.1 M24.6,292.4l9,15.6 M35.4,311.1l16.2,28.1 M53.4,342.3l16.2,28.1 M69.9,374.4l-9-15.6
				 M59.1,355.7l-16.2-28.1 M41.1,324.5l-16.2-28.1 M21.5,294.2l9,15.6 M32.3,312.9L48.5,341 M50.3,344.1l16.2,28.1 M66.8,376.2
				l-9-15.6 M56,357.5l-16.2-28.1 M38,326.3l-16.2-28.1 M18.4,296l9,15.6 M29.2,314.7l16.2,28.1 M47.2,345.9L63.4,374 M63.7,378
				l-9-15.6 M52.9,359.3l-16.2-28.1 M34.9,328.1L18.6,300 M15.3,297.8l9,15.6 M26.1,316.5l16.2,28.1 M44.1,347.7l16.2,28.1
				 M60.6,379.8l-9-15.6 M49.8,361.1L33.6,333 M31.8,329.9l-16.2-28.1 M12.2,299.6l9,15.6 M23,318.3l16.2,28.1 M41,349.5l16.2,28.1
				 M57.5,381.6l-9-15.6 M46.7,362.9l-16.2-28.1 M28.7,331.7l-16.2-28.1 M9.1,301.4l9,15.6 M19.9,320.1l16.2,28.1 M37.9,351.3
				l16.2,28.1 M54.4,383.4l-9-15.6 M43.6,364.7l-16.2-28.1 M25.6,333.5L9.4,305.4 M6,303.1l9,15.6 M16.8,321.8L33,350 M34.8,353.1
				l16.2,28.1 M51.3,385.1l-9-15.6 M40.5,366.4l-16.2-28.1 M22.5,335.2L6.3,307.1 M2.9,304.9l9,15.6 M13.7,323.6L30,351.7
				 M31.7,354.8L48,382.9 M48.2,386.9l-9-15.6 M37.4,368.2l-16.2-28.1 M19.4,337L3.2,308.9 M-0.2,306.7l9,15.6 M10.6,325.4
				l16.2,28.1 M28.6,356.6l16.2,28.1 M45.1,388.7l-9-15.6 M34.3,370l-16.2-28.1 M16.3,338.8L0.1,310.7 M-3.3,308.5l9,15.6
				 M7.5,327.2l16.2,28.1 M25.5,358.4l16.2,28.1 M42,390.5l-9-15.6 M31.2,371.8L15,343.7 M13.2,340.6L-3,312.5 M-6.4,310.3l9,15.6
				 M4.4,329l16.2,28.1 M22.5,360.2l16.2,28.1 M38.9,392.3l-9-15.6 M28.1,373.6l-16.2-28.1 M10.1,342.4l-16.2-28.1 M-9.5,312.1
				l9,15.6 M1.3,330.8l16.2,28.1 M19.4,362l16.2,28.1 M35.8,394.1l-9-15.6 M25,375.4L8.8,347.3 M7,344.2l-16.2-28.1 M-12.5,313.9
				l9,15.6 M-1.8,332.6l16.2,28.1 M16.3,363.8l16.2,28.1 M32.7,395.9l-9-15.6 M21.9,377.2L5.7,349.1 M3.9,346l-16.2-28.1
				 M-15.6,315.7l9,15.6 M-4.9,334.4l16.2,28.1 M13.2,365.6l16.2,28.1 M29.6,397.7l-9-15.6 M18.8,379L2.6,350.8 M0.8,347.7
				l-16.2-28.1 M-18.7,317.4l9,15.6 M-7.9,336.1l16.2,28.1 M10.1,367.3l16.2,28.1 M26.5,399.4l-9-15.6 M15.7,380.7l-16.2-28.1
				 M-2.3,349.5l-16.2-28.1 M-21.8,319.2l9,15.6 M-11,337.9L5.2,366 M7,369.1l16.2,28.1 M23.4,401.2l-9-15.6 M12.6,382.5l-16.2-28.1
				 M-5.4,351.3l-16.2-28.1 M-24.9,321l9,15.6 M-14.1,339.7l16.2,28.1 M3.9,370.9L20.1,399 M283.1,143.2L-26.5,321.9l-31,17.9
				c-0.2,0.1-0.2,0.3-0.1,0.5l46.5,80.5c0.1,0.2,0.3,0.2,0.5,0.1l371.5-214.5c0.2-0.1,0.2-0.3,0.1-0.5l-46.5-80.5
				c-0.1-0.2-0.3-0.2-0.5-0.1"/>
		</g>
	</g>
	<path id="XMLID_1212_" class="st3" d="M179.5,233.9l-0.2-0.4c-2.6-1.6-40.9,14.1-45.4,14.3c-2.4,0.1-20,1.4-20,1.4
		c-10.6-1.1-21.5,4.5-30.8,9.6l-8.6,5.9c-8.8,7.5-16.4,14.9-18.5,26.1l-6.6,26.8c-0.3,1.2-0.7,2.6,0.1,4.1"/>
	<path id="XMLID_1211_" class="st3" d="M49.5,321.7c0.9,1.4,2.3,1.8,3.5,2.1l26.5,7.7c10.8,3.9,21,1,31.9-2.9l9.4-4.5
		c9-5.5,19.3-12.2,23.7-21.9c0,0,9.9-14.6,11.2-16.6c2.4-3.8,35.2-29.2,35.1-32.2l-0.2-0.4"/>
	<path id="XMLID_1210_" class="st3" d="M168.5,234.3"/>
</g>
<g id="XMLID_3_">
	<g id="XMLID_609_">
		<defs>
			<path id="XMLID_610_" d="M391.6,321.7c0.8-1.5,0.4-2.9,0.1-4.1l-6.6-26.8c-2-11.3-9.7-18.7-18.5-26.1l-8.6-5.9
				c-9.3-5-20.2-10.6-30.8-9.6c0,0-17.6-1.3-20-1.4c-4.5-0.2-42.8-15.9-45.4-14.3l-11.6,20c0,3,32.7,28.4,35.1,32.2
				c1.3,2,11.2,16.6,11.2,16.6c4.3,9.7,14.7,16.4,23.7,21.9l9.4,4.5c10.9,3.9,21.1,6.8,31.9,2.9l26.5-7.7
				C389.2,323.5,390.7,323.2,391.6,321.7"/>
		</defs>
		<clipPath id="XMLID_3641_">
			<use xlink:href="#XMLID_610_"  style="overflow:visible;"/>
		</clipPath>
		<g id="surface6361_2_" class="st8">
			<path id="XMLID_611_" class="st2" d="M89.2,190.8l31,17.9 M121.7,209.6l9-15.6 M132.5,190.9l16.2-28.1 M150.5,159.7l16.2-28.1
				 M170.1,129.4l-9,15.6 M159.3,148.1L143,176.2 M141.3,179.3L125,207.4 M124.8,211.4l9-15.6 M135.6,192.7l16.2-28.1 M153.6,161.5
				l16.2-28.1 M173.2,131.2l-9,15.6 M162.4,149.9L146.1,178 M144.4,181.1l-16.2,28.1 M127.9,213.2l9-15.6 M138.7,194.5l16.2-28.1
				 M156.7,163.3l16.2-28.1 M176.3,133l-9,15.6 M165.5,151.7l-16.2,28.1 M147.5,182.9L131.2,211 M131,215l9-15.6 M141.8,196.3
				l16.2-28.1 M159.8,165.1L176,137 M179.4,134.8l-9,15.6 M168.6,153.4l-16.2,28.1 M150.5,184.7l-16.2,28.1 M134.1,216.7l9-15.6
				 M144.9,198.1l16.2-28.1 M162.9,166.8l16.2-28.1 M182.5,136.5l-9,15.6 M171.7,155.2l-16.2,28.1 M153.6,186.4l-16.2,28.1
				 M137.2,218.5l9-15.6 M148,199.8l16.2-28.1 M166,168.6l16.2-28.1 M185.6,138.3l-9,15.6 M174.8,157l-16.2,28.1 M156.7,188.2
				l-16.2,28.1 M140.3,220.3l9-15.6 M151.1,201.6l16.2-28.1 M169.1,170.4l16.2-28.1 M188.6,140.1l-9,15.6 M177.9,158.8l-16.2,28.1
				 M159.8,190l-16.2,28.1 M143.4,222.1l9-15.6 M154.2,203.4l16.2-28.1 M172.2,172.2l16.2-28.1 M191.7,141.9l-9,15.6 M180.9,160.6
				l-16.2,28.1 M162.9,191.8l-16.2,28.1 M146.5,223.9l9-15.6 M157.3,205.2l16.2-28.1 M175.3,174l16.2-28.1 M194.8,143.7l-9,15.6
				 M184,162.4l-16.2,28.1 M166,193.6l-16.2,28.1 M149.6,225.7l9-15.6 M160.4,207l16.2-28.1 M178.4,175.8l16.2-28.1 M197.9,145.5
				l-9,15.6 M187.1,164.2l-16.2,28.1 M169.1,195.4l-16.2,28.1 M152.7,227.5l9-15.6 M163.5,208.8l16.2-28.1 M181.5,177.6l16.2-28.1
				 M201,147.3l-9,15.6 M190.2,166L174,194.1 M172.2,197.2L156,225.3 M155.8,229.3l9-15.6 M166.5,210.6l16.2-28.1 M184.6,179.4
				l16.2-28.1 M204.1,149l-9,15.6 M193.3,167.7l-16.2,28.1 M175.3,199l-16.2,28.1 M158.8,231l9-15.6 M169.6,212.3l16.2-28.1
				 M187.7,181.1l16.2-28.1 M207.2,150.8l-9,15.6 M196.4,169.5l-16.2,28.1 M178.4,200.7l-16.2,28.1 M161.9,232.8l9-15.6
				 M172.7,214.1L189,186 M190.8,182.9l16.2-28.1 M210.3,152.6l-9,15.6 M199.5,171.3l-16.2,28.1 M181.5,202.5l-16.2,28.1 M165,234.6
				l9-15.6 M175.8,215.9l16.2-28.1 M193.9,184.7l16.2-28.1 M213.4,154.4l-9,15.6 M202.6,173.1l-16.2,28.1 M184.6,204.3l-16.2,28.1
				 M168.1,236.4l9-15.6 M178.9,217.7l16.2-28.1 M196.9,186.5l16.2-28.1 M216.5,156.2l-9,15.6 M205.7,174.9L189.5,203 M187.7,206.1
				l-16.2,28.1 M171.2,238.2l9-15.6 M182,219.5l16.2-28.1 M200,188.3l16.2-28.1 M219.6,158l-9,15.6 M208.8,176.7l-16.2,28.1
				 M190.8,207.9L174.6,236 M174.3,240l9-15.6 M185.1,221.3l16.2-28.1 M203.1,190.1l16.2-28.1 M222.7,159.8l-9,15.6 M211.9,178.5
				l-16.2,28.1 M193.9,209.7l-16.2,28.1 M177.4,241.8l9-15.6 M188.2,223.1l16.2-28.1 M206.2,191.9l16.2-28.1 M225.8,161.6l-9,15.6
				 M215,180.3l-16.2,28.1 M197,211.5l-16.2,28.1 M180.5,243.6l9-15.6 M191.3,224.9l16.2-28.1 M209.3,193.6l16.2-28.1 M228.9,163.3
				l-9,15.6 M218.1,182l-16.2,28.1 M200.1,213.2l-16.2,28.1 M183.6,245.3l9-15.6 M194.4,226.6l16.2-28.1 M212.4,195.4l16.2-28.1
				 M232,165.1l-9,15.6 M221.2,183.8L205,211.9 M203.2,215l-16.2,28.1 M186.7,247.1l9-15.6 M197.5,228.4l16.2-28.1 M215.5,197.2
				l16.2-28.1 M235.1,166.9l-9,15.6 M224.3,185.6l-16.2,28.1 M206.3,216.8L190,244.9 M189.8,248.9l9-15.6 M200.6,230.2l16.2-28.1
				 M218.6,199l16.2-28.1 M238.2,168.7l-9,15.6 M227.4,187.4l-16.2,28.1 M209.4,218.6l-16.2,28.1 M192.9,250.7l9-15.6 M203.7,232
				l16.2-28.1 M221.7,200.8l16.2-28.1 M241.3,170.5l-9,15.6 M230.5,189.2l-16.2,28.1 M212.5,220.4l-16.2,28.1 M196,252.5l9-15.6
				 M206.8,233.8l16.2-28.1 M224.8,202.6l16.2-28.1 M244.4,172.3l-9,15.6 M233.6,191l-16.2,28.1 M215.6,222.2l-16.2,28.1
				 M199.1,254.3l9-15.6 M209.9,235.6l16.2-28.1 M227.9,204.4l16.2-28.1 M247.5,174.1l-9,15.6 M236.7,192.8l-16.2,28.1 M218.6,224
				l-16.2,28.1 M202.2,256.1l9-15.6 M213,237.4l16.2-28.1 M231,206.2l16.2-28.1 M250.6,175.9l-9,15.6 M239.8,194.6l-16.2,28.1
				 M221.7,225.8l-16.2,28.1 M205.3,257.9l9-15.6 M216.1,239.2l16.2-28.1 M234.1,207.9l16.2-28.1 M253.7,177.6l-9,15.6 M242.9,196.3
				l-16.2,28.1 M224.8,227.5l-16.2,28.1 M208.4,259.6l9-15.6 M219.2,240.9l16.2-28.1 M237.2,209.7l16.2-28.1 M256.7,179.4l-9,15.6
				 M246,198.1l-16.2,28.1 M227.9,229.3l-16.2,28.1 M211.5,261.4l9-15.6 M222.3,242.7l16.2-28.1 M240.3,211.5l16.2-28.1
				 M259.8,181.2l-9,15.6 M249.1,199.9L232.8,228 M231,231.1l-16.2,28.1 M214.6,263.2l9-15.6 M225.4,244.5l16.2-28.1 M243.4,213.3
				l16.2-28.1 M262.9,183l-9,15.6 M252.1,201.7l-16.2,28.1 M234.1,232.9L217.9,261 M217.7,265l9-15.6 M228.5,246.3l16.2-28.1
				 M246.5,215.1l16.2-28.1 M266,184.8l-9,15.6 M255.2,203.5L239,231.6 M237.2,234.7L221,262.8 M220.8,266.8l9-15.6 M231.6,248.1
				l16.2-28.1 M249.6,216.9l16.2-28.1 M269.1,186.6l-9,15.6 M258.3,205.3l-16.2,28.1 M240.3,236.5l-16.2,28.1 M223.9,268.6l9-15.6
				 M234.6,249.9l16.2-28.1 M252.7,218.7l16.2-28.1 M272.2,188.4l-9,15.6 M261.4,207.1l-16.2,28.1 M243.4,238.3l-16.2,28.1
				 M226.9,270.4l9-15.6 M237.7,251.7l16.2-28.1 M255.8,220.5l16.2-28.1 M275.3,190.2l-9,15.6 M264.5,208.8L248.3,237 M246.5,240.1
				l-16.2,28.1 M230,272.1l9-15.6 M240.8,253.5l16.2-28.1 M258.9,222.2l16.2-28.1 M278.4,191.9l-9,15.6 M267.6,210.6l-16.2,28.1
				 M249.6,241.8l-16.2,28.1 M233.1,273.9l9-15.6 M243.9,255.2l16.2-28.1 M262,224l16.2-28.1 M281.5,193.7l-9,15.6 M270.7,212.4
				l-16.2,28.1 M252.7,243.6l-16.2,28.1 M236.2,275.7l9-15.6 M247,257l16.2-28.1 M265,225.8l16.2-28.1 M284.6,195.5l-9,15.6
				 M239.3,277.5l9-15.6 M252.8,254.1l10.8-18.7 M268.1,227.6l16.2-28.1 M287.7,197.3l-9,15.6 M276.9,216l-16.2,28.1 M258.9,247.2
				l-16.2,28.1 M242.4,279.3l9-15.6 M255.9,255.9l10.8-18.7 M271.2,229.4l16.2-28.1 M290.8,199.1l-9,15.6 M280,217.8l-16.2,28.1
				 M262,249l-16.2,28.1 M245.5,281.1l9-15.6 M256.3,262.4l16.2-28.1 M274.3,231.2l16.2-28.1 M293.9,200.9l-9,15.6 M283.1,219.6
				l-16.2,28.1 M265.1,250.8l-16.2,28.1 M248.6,282.9l9-15.6 M261.3,260.8l12.4-21.4 M277.4,233l16.2-28.1 M297,202.7l-9,15.6
				 M286.2,221.4L270,249.5 M268.2,252.6L252,280.7 M251.7,284.7l9-15.6 M264,263.3l13.2-22.8 M280.5,234.8l16.2-28.1 M300.1,204.5
				l-9,15.6 M289.3,223.1l-16.2,28.1 M271.3,254.4L255,282.5 M254.8,286.4l9-15.6 M267.1,265.1l13.2-22.8 M283.6,236.5l16.2-28.1
				 M303.2,206.2l-9,15.6 M292.4,224.9L276.2,253 M274.4,256.1l-16.2,28.1 M257.9,288.2l9-15.6 M269.3,268.5l15-26 M286.7,238.3
				l16.2-28.1 M306.3,208l-9,15.6 M295.5,226.7l-16.2,28.1 M277.5,257.9L261.2,286 M261,290l9-15.6 M272.4,270.3l15-26 M289.8,240.1
				L306,212 M309.4,209.8l-9,15.6 M298.6,228.5l-16.2,28.1 M280.6,259.7l-16.2,28.1 M264.1,291.8l9-15.6 M274.9,273.1l16.2-28.1
				 M292.9,241.9l16.2-28.1 M312.5,211.6l-9,15.6 M301.7,230.3l-16.2,28.1 M283.7,261.5l-16.2,28.1 M267.2,293.6l9-15.6 M278,274.9
				l16.2-28.1 M296,243.7l16.2-28.1 M315.6,213.4l-9,15.6 M304.8,232.1l-16.2,28.1 M286.8,263.3l-16.2,28.1 M270.3,295.4l9-15.6
				 M281.1,276.7l16.2-28.1 M299.1,245.5l16.2-28.1 M318.7,215.2l-9,15.6 M307.9,233.9L291.6,262 M289.8,265.1l-16.2,28.1
				 M273.4,297.2l9-15.6 M284.2,278.5l16.2-28.1 M302.2,247.3l16.2-28.1 M321.8,217l-9,15.6 M311,235.7l-16.2,28.1 M292.9,266.9
				L276.7,295 M276.5,299l9-15.6 M287.3,280.3l16.2-28.1 M305.3,249.1l16.2-28.1 M324.8,218.7l-9,15.6 M314.1,237.4l-16.2,28.1
				 M296,268.7l-16.2,28.1 M279.6,300.7l9-15.6 M290.4,282l16.2-28.1 M308.4,250.8l16.2-28.1 M327.9,220.5l-9,15.6 M317.2,239.2
				l-16.2,28.1 M299.1,270.4l-16.2,28.1 M282.7,302.5l9-15.6 M293.5,283.8l16.2-28.1 M311.5,252.6l16.2-28.1 M331,222.3l-9,15.6
				 M320.2,241L304,269.1 M302.2,272.2L286,300.3 M285.8,304.3l9-15.6 M296.6,285.6l16.2-28.1 M314.6,254.4l16.2-28.1 M334.1,224.1
				l-9,15.6 M323.3,242.8l-16.2,28.1 M305.3,274l-16.2,28.1 M288.9,306.1l9-15.6 M299.7,287.4l16.2-28.1 M317.7,256.2l16.2-28.1
				 M337.2,225.9l-9,15.6 M326.4,244.6l-16.2,28.1 M308.4,275.8l-16.2,28.1 M292,307.9l9-15.6 M302.7,289.2l16.2-28.1 M320.8,258
				l16.2-28.1 M340.3,227.7l-9,15.6 M329.5,246.4l-16.2,28.1 M311.5,277.6l-16.2,28.1 M295.1,309.7l9-15.6 M305.8,291l16.2-28.1
				 M323.9,259.8l16.2-28.1 M343.4,229.5l-9,15.6 M332.6,248.2l-16.2,28.1 M314.6,279.4l-16.2,28.1 M298.1,311.5l9-15.6
				 M308.9,292.8l16.2-28.1 M327,261.6l16.2-28.1 M346.5,231.3l-9,15.6 M335.7,250l-16.2,28.1 M317.7,281.2l-16.2,28.1 M301.2,313.3
				l9-15.6 M312,294.6l16.2-28.1 M330.1,263.4l16.2-28.1 M349.6,233l-9,15.6 M338.8,251.7l-16.2,28.1 M320.8,282.9l-16.2,28.1
				 M304.3,315l9-15.6 M315.1,296.3l16.2-28.1 M333.2,265.1l16.2-28.1 M352.7,234.8l-9,15.6 M341.9,253.5l-16.2,28.1 M323.9,284.7
				l-16.2,28.1 M307.4,316.8l9-15.6 M318.2,298.1l16.2-28.1 M336.2,266.9l16.2-28.1 M355.8,236.6l-9,15.6 M345,255.3l-16.2,28.1
				 M327,286.5l-16.2,28.1 M310.5,318.6l9-15.6 M321.3,299.9l16.2-28.1 M339.3,268.7l16.2-28.1 M358.9,238.4l-9,15.6 M348.1,257.1
				l-16.2,28.1 M330.1,288.3l-16.2,28.1 M313.6,320.4l9-15.6 M324.4,301.7l16.2-28.1 M342.4,270.5l16.2-28.1 M362,240.2l-9,15.6
				 M351.2,258.9L335,287 M333.2,290.1L317,318.2 M316.7,322.2l9-15.6 M327.5,303.5l16.2-28.1 M345.5,272.3l16.2-28.1 M365.1,242
				l-9,15.6 M354.3,260.7l-16.2,28.1 M336.3,291.9L320.1,320 M319.8,324l9-15.6 M330.6,305.3l16.2-28.1 M348.6,274.1l16.2-28.1
				 M368.2,243.8l-9,15.6 M357.4,262.5l-16.2,28.1 M339.4,293.7l-16.2,28.1 M322.9,325.8l9-15.6 M333.7,307.1l16.2-28.1
				 M351.7,275.9l16.2-28.1 M371.3,245.6l-9,15.6 M360.5,264.3l-16.2,28.1 M342.5,295.5l-16.2,28.1 M326,327.6l9-15.6 M336.8,308.9
				l16.2-28.1 M354.8,277.6l16.2-28.1 M374.4,247.3l-9,15.6 M363.6,266l-16.2,28.1 M345.6,297.2l-16.2,28.1 M329.1,329.3l9-15.6
				 M339.9,310.6l16.2-28.1 M357.9,279.4l16.2-28.1 M377.5,249.1l-9,15.6 M366.7,267.8l-16.2,28.1 M348.7,299l-16.2,28.1
				 M332.2,331.1l9-15.6 M343,312.4l16.2-28.1 M361,281.2l16.2-28.1 M380.6,250.9l-9,15.6 M369.8,269.6l-16.2,28.1 M351.8,300.8
				l-16.2,28.1 M335.3,332.9l9-15.6 M346.1,314.2l16.2-28.1 M364.1,283l16.2-28.1 M383.7,252.7l-9,15.6 M372.9,271.4l-16.2,28.1
				 M354.9,302.6l-16.2,28.1 M338.4,334.7l9-15.6 M349.2,316l16.2-28.1 M367.2,284.8l16.2-28.1 M386.8,254.5l-9,15.6 M376,273.2
				l-16.2,28.1 M357.9,304.4l-16.2,28.1 M341.5,336.5l9-15.6 M352.3,317.8l16.2-28.1 M370.3,286.6l16.2-28.1 M389.9,256.3l-9,15.6
				 M379.1,275l-16.2,28.1 M361,306.2l-16.2,28.1 M344.6,338.3l9-15.6 M355.4,319.6l16.2-28.1 M373.4,288.4l16.2-28.1 M393,258.1
				l-9,15.6 M382.2,276.8l-16.2,28.1 M364.1,308l-16.2,28.1 M347.7,340.1l9-15.6 M358.5,321.4l16.2-28.1 M376.5,290.2l16.2-28.1
				 M396,259.9l-9,15.6 M385.3,278.5L369,306.7 M367.2,309.8L351,337.9 M350.8,341.8l9-15.6 M361.6,323.2l16.2-28.1 M379.6,291.9
				l16.2-28.1 M399.1,261.6l-9,15.6 M388.3,280.3l-16.2,28.1 M370.3,311.5l-16.2,28.1 M353.9,343.6l9-15.6 M364.7,324.9l16.2-28.1
				 M382.7,293.7l16.2-28.1 M402.2,263.4l-9,15.6 M391.4,282.1l-16.2,28.1 M373.4,313.3l-16.2,28.1 M357,345.4l9-15.6 M367.8,326.7
				l16.2-28.1 M385.8,295.5l16.2-28.1 M405.3,265.2l-9,15.6 M394.5,283.9L378.3,312 M376.5,315.1l-16.2,28.1 M360.1,347.2l9-15.6
				 M372.3,326l13.4-23.1 M388.9,297.3l16.2-28.1 M408.4,267l-9,15.6 M397.6,285.7l-16.2,28.1 M379.6,316.9L363.4,345 M363.2,349
				l9-15.6 M377.5,324.2l9.2-16 M392,299.1l16.2-28.1 M411.5,268.8l-9,15.6 M400.7,287.5l-16.2,28.1 M382.7,318.7l-16.2,28.1
				 M366.2,350.8l9-15.6 M382.2,323.1l5.9-10.2 M395.1,300.9l16.2-28.1 M414.6,270.6l-9,15.6 M403.8,289.3l-16.2,28.1 M385.8,320.5
				l-16.2,28.1 M369.3,352.6l9-15.6 M387,321.9l2.4-4.2 M398.2,302.7l16.2-28.1 M417.7,272.4l-9,15.6 M406.9,291.1l-16.2,28.1
				 M388.9,322.3l-16.2,28.1 M372.4,354.4l9-15.6 M383.2,335.7l16.2-28.1 M401.3,304.5l16.2-28.1 M420.8,274.2l-9,15.6 M410,292.8
				L393.8,321 M392,324.1l-16.2,28.1 M375.5,356.1l9-15.6 M386.3,337.5l16.2-28.1 M404.3,306.2l16.2-28.1 M423.9,275.9l-9,15.6
				 M413.1,294.6l-16.2,28.1 M395.1,325.8l-16.2,28.1 M378.6,357.9l9-15.6 M389.4,339.2l16.2-28.1 M407.4,308l16.2-28.1 M427,277.7
				l-9,15.6 M416.2,296.4L400,324.5 M398.2,327.6L382,355.7 M381.7,359.7l9-15.6 M392.5,341l16.2-28.1 M410.5,309.8l16.2-28.1
				 M430.1,279.5l-9,15.6 M419.3,298.2l-16.2,28.1 M401.3,329.4l-16.2,28.1 M384.8,361.5l9-15.6 M395.6,342.8l16.2-28.1
				 M413.6,311.6l16.2-28.1 M433.2,281.3l-9,15.6 M422.4,300l-16.2,28.1 M404.4,331.2l-16.2,28.1 M387.9,363.3l9-15.6 M398.7,344.6
				l16.2-28.1 M416.7,313.4l16.2-28.1 M436.3,283.1l-9,15.6 M425.5,301.8l-16.2,28.1 M407.5,333l-16.2,28.1 M391,365.1l9-15.6
				 M401.8,346.4l16.2-28.1 M419.8,315.2l16.2-28.1 M439.4,284.9l-9,15.6 M428.6,303.6l-16.2,28.1 M410.6,334.8l-16.2,28.1
				 M394.1,366.9l9-15.6 M404.9,348.2l16.2-28.1 M422.9,317l16.2-28.1 M442.5,286.7l-9,15.6 M431.7,305.4l-16.2,28.1 M413.7,336.6
				l-16.2,28.1 M397.2,368.7l9-15.6 M408,350l16.2-28.1 M426,318.8l16.2-28.1 M445.6,288.5l-9,15.6 M434.8,307.1l-16.2,28.1
				 M416.8,338.4l-16.2,28.1 M400.3,370.4l9-15.6 M411.1,351.8l16.2-28.1 M429.1,320.5l16.2-28.1 M448.7,290.2l-9,15.6 M437.9,308.9
				L421.6,337 M419.9,340.1l-16.2,28.1 M403.4,372.2l9-15.6 M414.2,353.5l16.2-28.1 M432.2,322.3l16.2-28.1 M451.8,292l-9,15.6
				 M441,310.7l-16.2,28.1 M423,341.9L406.7,370 M406.5,374l9-15.6 M417.3,355.3l16.2-28.1 M435.3,324.1l16.2-28.1 M454.9,293.8
				l-9,15.6 M444.1,312.5l-16.2,28.1 M426.1,343.7l-16.2,28.1 M409.6,375.8l9-15.6 M420.4,357.1l16.2-28.1 M438.4,325.9l16.2-28.1
				 M458,295.6l-9,15.6 M447.2,314.3l-16.2,28.1 M429.1,345.5l-16.2,28.1 M412.7,377.6l9-15.6 M423.5,358.9l16.2-28.1 M441.5,327.7
				l16.2-28.1 M461.1,297.4l-9,15.6 M450.3,316.1L434,344.2 M432.2,347.3L416,375.4 M415.8,379.4l9-15.6 M426.6,360.7l16.2-28.1
				 M444.6,329.5l16.2-28.1 M464.1,299.2l-9,15.6 M453.4,317.9L437.1,346 M435.3,349.1l-16.2,28.1 M418.9,381.2l9-15.6 M429.7,362.5
				l16.2-28.1 M447.7,331.3l16.2-28.1 M467.2,301l-9,15.6 M456.5,319.7l-16.2,28.1 M438.4,350.9L422.2,379 M422,383l9-15.6
				 M432.8,364.3l16.2-28.1 M450.8,333.1l16.2-28.1 M470.3,302.7l-9,15.6 M459.5,321.4l-16.2,28.1 M441.5,352.7l-16.2,28.1
				 M425.1,384.7l9-15.6 M435.9,366l16.2-28.1 M453.9,334.8l16.2-28.1 M473.4,304.5l-9,15.6 M462.6,323.2l-16.2,28.1 M444.6,354.4
				l-16.2,28.1 M428.2,386.5l9-15.6 M439,367.8l16.2-28.1 M457,336.6l16.2-28.1 M120.2,208.7l309.6,178.7l31,17.9
				c0.2,0.1,0.4,0,0.5-0.1l46.5-80.5c0.1-0.2,0-0.4-0.1-0.5L136,109.7c-0.2-0.1-0.4,0-0.5,0.1l-46.5,80.5c-0.1,0.2,0,0.4,0.1,0.5"/>
		</g>
	</g>
	<path id="XMLID_608_" class="st3" d="M250.8,252.6l-0.5,0.9c0,3,32.7,28.4,35.1,32.2c1.3,2,11.2,16.6,11.2,16.6
		c4.3,9.7,14.7,16.4,23.7,21.9l9.4,4.5c10.9,3.9,21.1,6.8,31.9,2.9l26.5-7.7c1.2-0.3,2.6-0.7,3.5-2.1c0.9-1.4,0.4-2.9,0.1-4.1
		l-6.6-26.8c-2-11.3-9.7-18.7-18.5-26.1l-8.6-5.9c-9.3-5-20.2-10.6-30.8-9.6c0,0-17.6-1.3-20-1.4c-4.5-0.2-42.8-15.9-45.4-14.3
		l-0.3,0.5"/>
</g>
</svg>
