<?xml version="1.0" encoding="utf-8"?>
<!-- Generator: Adobe Illustrator 24.0.1, SVG Export Plug-In . SVG Version: 6.00 Build 0)  -->
<svg version="1.1" id="Ebene_1" xmlns="http://www.w3.org/2000/svg" xmlns:xlink="http://www.w3.org/1999/xlink" x="0px" y="0px"
	 viewBox="0 0 566.9 566.9" style="enable-background:new 0 0 566.9 566.9;" xml:space="preserve">
<style type="text/css">
	.st0{fill:none;stroke:#0000FF;stroke-miterlimit:10;}
	.st1{fill:none;stroke:#000000;stroke-width:0.25;stroke-miterlimit:10;}
	.st2{fill:none;stroke:#336699;stroke-width:0.75;stroke-miterlimit:10;}
</style>
<g id="XMLID_605_">
	<circle class="st0" cx="285.6" cy="285.8" r="15.4"/>
</g>
<g id="XMLID_604_">
	<path id="XMLID_3629_" class="st0" d="M253.5,253.1c5.6-5.5,12.6-9.5,20.4-11.6"/>
	<path id="XMLID_3634_" class="st0" d="M241.2,296.8c-0.9-3.5-1.3-7.2-1.3-10.9c0-3.9,0.4-7.7,1.4-11.3"/>
	<path id="XMLID_3624_" class="st0" d="M273.3,329.9c-7.6-2.2-14.3-6.2-19.7-11.5"/>
	<path id="XMLID_3631_" class="st0" d="M317.8,318.4c-5.4,5.3-12.1,9.3-19.6,11.5"/>
	<path id="XMLID_3630_" class="st0" d="M330.1,274.3c1,3.7,1.4,7.5,1.4,11.5c0,3.8-0.4,7.5-1.3,10.9"/>
	<path id="XMLID_3018_" class="st0" d="M297.3,241.5c7.7,2.1,14.6,6.1,20.3,11.5"/>
</g>
<g id="test">
	<path class="st1" d="M272.3,240.6"/>
	<path class="st1" d="M298.3,240.6"/>
	<path id="XMLID_9_" class="st2" d="M297.9,241.5h0.3"/>
	<path id="XMLID_8_" class="st2" d="M273.1,241.5h0.4"/>
	<path id="XMLID_7_" class="st2" d="M298.1,241.5c2.9-1.6,8.9-46.1,11.2-50.4c1.2-2.3,9.4-19.5,9.4-19.5c6.7-9.3,7.4-22.7,7.7-34
		l-0.8-11.3c-2.3-12.4-5-23.5-14.5-31.5L289.5,74c-1-1-2.1-2.1-3.9-2.2c-1.8,0-3,1.2-4,2.2l-21.6,20.7c-9.4,8-12.2,19.2-14.5,31.5
		l-0.9,11.3c0.3,11.4,1,24.7,7.7,34c0,0,8.2,17.2,9.4,19.5c2.3,4.3,8.3,48.9,11.2,50.4"/>
</g>
<g id="test_1_">
	<path id="XMLID_13_" class="st2" d="M253.7,253.4l0.1-0.2"/>
	<path id="XMLID_12_" class="st2" d="M241.2,274.9l0.3-0.5"/>
	<path id="XMLID_11_" class="st2" d="M241.2,274.9c-3.5,1.2-67.9-28.9-75-30.4c-3.7-0.8-31.6-7.3-31.6-7.3
		c-16.2-1.6-34.9-11.6-50.7-20.4l-15.1-9.7C53,195.3,39.1,184,32.7,169.4L15,134.3c-0.9-1.6-2-3.5-1-5.1c1.1-1.5,3.1-1.6,4.9-1.7
		l39.3-2.2c15.8-1.9,32.5,4.6,50.7,12.5l15.9,8.3c15.5,9.3,33.5,20.5,43,33.7c0,0,19.6,20.8,22.1,23.7c4.8,5.4,63,45.9,63.8,49.7"/>
	<path id="XMLID_1_" class="st2" d="M241.9,240.4"/>
</g>
<g id="test_2_">
	<path id="XMLID_4_" class="st2" d="M329.9,274.6c3.3,1.5,56.1-22.1,62.1-23c3.1-0.4,26.6-4.5,26.6-4.5c13.8-0.2,29.1-8.3,42-15.4
		l12.3-8c12.7-10,23.9-19.5,28.1-33l12.4-32.1c0.6-1.5,1.2-3.2,0.4-4.9c-0.9-1.6-2.8-1.8-4.4-2l-34-5.3c-13.7-3-27.6,1.8-42.6,7.8
		l-13.1,6.5c-12.6,7.6-27.2,16.8-34.3,28.7c0,0-15.2,18.3-17.2,20.8c-3.7,4.8-50.6,38.9-50.9,42.3"/>
</g>
<g id="surface6361_1_">
	<line class="st1" x1="512.7" y1="156.9" x2="510.6" y2="153.3"/>
	<line class="st1" x1="507.2" y1="153.1" x2="511.3" y2="160.2"/>
	<path class="st1" d="M510.9,165.2c-3.2-5.5-4.3-7.4-7.4-12.9"/>
	<line class="st1" x1="499" y1="150.3" x2="508.3" y2="166.3"/>
	<path class="st1" d="M508.3,172.1c-3.7-6.5-6-10.4-9.7-16.9"/>
	<path class="st1" d="M496.7,152.1c-1.5-2.6,0,0-1.5-2.6"/>
	<path class="st1" d="M491.7,149.2c4.7,8.2,6.8,11.8,11.6,20"/>
	<path class="st1" d="M505,172.2c0.9,1.6,0.9,1.6,1.9,3.3"/>
	<path class="st1" d="M505.6,178.9c-4.3-7.5-7.7-13.3-12-20.8"/>
	<path class="st1" d="M491.8,155c-2.1-3.7-1.5-2.6-3.7-6.3"/>
	<line class="st1" x1="484.7" y1="148.1" x2="498.5" y2="172"/>
	<path class="st1" d="M500.2,175c1.9,3.2,2.3,3.9,4.1,7.1"/>
	<line class="st1" x1="503" y1="185.6" x2="488.7" y2="160.9"/>
	<path class="st1" d="M486.9,157.7c-3.3-5.6-2.6-4.6-5.9-10.2"/>
	<line class="st1" x1="477.3" y1="146.7" x2="493.5" y2="174.8"/>
	<path class="st1" d="M495.3,177.9c2.9,4.9,3.6,6.2,6.4,11.1"/>
	<line class="st1" x1="500" y1="191.9" x2="483.8" y2="163.7"/>
	<path class="st1" d="M482,160.6c-3.3-5.7-4.9-8.5-8.2-14.3"/>
	<line class="st1" x1="472.3" y1="149.6" x2="488.6" y2="177.7"/>
	<path class="st1" d="M490.3,180.7c3.3,5.7,5.4,9.4,8.7,15.1"/>
	<path class="st1" d="M497.5,198.8c-0.6-1.1,0,0-0.6-1.1"/>
	<line class="st1" x1="495.1" y1="194.7" x2="478.8" y2="166.6"/>
	<path class="st1" d="M477,163.5c-3.6-6.2-6.6-11.5-10.2-17.7"/>
	<path class="st1" d="M463.6,145.9c0.9,1.5,1.1,1.9,2,3.4"/>
	<line class="st1" x1="467.4" y1="152.4" x2="483.6" y2="180.6"/>
	<path class="st1" d="M485.4,183.6c4,7,6.4,11,10.4,18"/>
	<path class="st1" d="M493.9,204.2c-1-1.7-1-1.8-2-3.5"/>
	<line class="st1" x1="490.1" y1="197.6" x2="473.9" y2="169.4"/>
	<path class="st1" d="M472.1,166.3c-4.2-7.2-7.5-13-11.6-20.2"/>
	<path class="st1" d="M457.6,146.6c1.3,2.3,1.8,3.2,3.2,5.5"/>
	<line class="st1" x1="462.5" y1="155.2" x2="478.8" y2="183.3"/>
	<path class="st1" d="M480.5,186.4c4.1,7,7.5,13,11.6,20"/>
	<path class="st1" d="M490.1,208.7c-1.1-2-1.9-3.3-3-5.3"/>
	<line class="st1" x1="485.3" y1="200.4" x2="469.1" y2="172.2"/>
	<path class="st1" d="M467.3,169.1c-4.7-8.1-8-13.8-12.6-21.9"/>
	<path class="st1" d="M451.7,147.9c1.6,2.8,2.4,4.2,4.1,7"/>
	<line class="st1" x1="457.6" y1="158.1" x2="473.8" y2="186.2"/>
	<path class="st1" d="M475.6,189.2c4.4,7.6,8.1,14,12.5,21.6"/>
	<path class="st1" d="M485.9,212.9c-1.6-2.7-2.3-3.9-3.8-6.6"/>
	<line class="st1" x1="480.3" y1="203.2" x2="464.1" y2="175.1"/>
	<path class="st1" d="M462.3,172c-4.7-8.2-8.7-15.1-13.4-23.3"/>
	<path class="st1" d="M446.1,149.6c1.8,3.2,2.9,5,4.8,8.2"/>
	<line class="st1" x1="452.6" y1="160.9" x2="468.9" y2="189.1"/>
	<path class="st1" d="M470.6,192.1c4.7,8.1,8.5,14.7,13.1,22.8"/>
	<path class="st1" d="M481.6,216.8c-2-3.4-2.5-4.3-4.4-7.7"/>
	<line class="st1" x1="475.4" y1="206.1" x2="459.1" y2="177.9"/>
	<path class="st1" d="M457.3,174.8c-5.1-8.8-9-15.6-14-24.3"/>
	<line class="st1" x1="440.6" y1="151.5" x2="445.9" y2="160.7"/>
	<line class="st1" x1="447.7" y1="163.8" x2="463.9" y2="191.9"/>
	<line class="st1" x1="465.7" y1="195" x2="479.4" y2="218.6"/>
	<path class="st1" d="M477.1,220.5c-1.9-3.3-3-5.2-4.9-8.5"/>
	<line class="st1" x1="470.4" y1="209" x2="454.2" y2="180.8"/>
	<line class="st1" x1="452.4" y1="177.7" x2="437.8" y2="152.5"/>
	<path class="st1" d="M435.3,153.5c2.3,3.9,3.5,6,5.7,10"/>
	<line class="st1" x1="442.8" y1="166.6" x2="459.1" y2="194.7"/>
	<path class="st1" d="M460.8,197.8c5,8.6,9.2,15.8,14.1,24.5"/>
	<path class="st1" d="M472.7,224c-2.2-3.8-3.2-5.5-5.3-9.2"/>
	<line class="st1" x1="465.6" y1="211.7" x2="449.4" y2="183.6"/>
	<line class="st1" x1="447.6" y1="180.5" x2="432.6" y2="154.6"/>
	<path class="st1" d="M430,155.9c2.2,3.8,3.9,6.7,6,10.4"/>
	<line class="st1" x1="437.9" y1="169.4" x2="454.1" y2="197.6"/>
	<path class="st1" d="M455.9,200.6c5.2,9,9.2,15.9,14.4,24.9"/>
	<path class="st1" d="M467.9,227.1c-2.1-3.7-3.3-5.8-5.5-9.5"/>
	<line class="st1" x1="460.6" y1="214.6" x2="444.4" y2="186.5"/>
	<path class="st1" d="M442.6,183.3c0,0-15-26.2-15.1-26.2"/>
	<line class="st1" x1="424.9" y1="158.4" x2="431.1" y2="169.2"/>
	<line class="st1" x1="432.9" y1="172.3" x2="449.2" y2="200.4"/>
	<path class="st1" d="M450.9,203.5c5.2,9.1,9.3,16.1,14.5,25.2"/>
	<path class="st1" d="M463.1,230.4c-2.3-4-3.4-5.9-5.7-9.9"/>
	<line class="st1" x1="455.7" y1="217.5" x2="439.4" y2="189.3"/>
	<line class="st1" x1="437.6" y1="186.2" x2="422.3" y2="159.6"/>
	<line class="st1" x1="419.7" y1="161" x2="426.2" y2="172"/>
	<line class="st1" x1="428" y1="175.2" x2="444.2" y2="203.3"/>
	<line class="st1" x1="446" y1="206.3" x2="460.6" y2="231.8"/>
	<path class="st1" d="M458.3,233.1c-2.2-3.8-3.5-6-5.7-9.9"/>
	<line class="st1" x1="450.9" y1="220.2" x2="434.6" y2="192.1"/>
	<line class="st1" x1="432.8" y1="189" x2="417.5" y2="162.4"/>
	<path class="st1" d="M415,163.9c2.5,4.3,3.8,6.6,6.3,10.9"/>
	<line class="st1" x1="423.1" y1="177.9" x2="439.4" y2="206.1"/>
	<path class="st1" d="M441.1,209.1c5.3,9.1,9.5,16.1,14.7,25.3"/>
	<path class="st1" d="M453.2,235.8c-2.4-4.1-3.2-5.5-5.6-9.6"/>
	<line class="st1" x1="445.9" y1="223.1" x2="429.7" y2="195"/>
	<line class="st1" x1="427.9" y1="191.8" x2="412.6" y2="165.4"/>
	<path class="st1" d="M410.2,167c2.3,4,3.9,6.8,6.2,10.7"/>
	<line class="st1" x1="418.2" y1="180.8" x2="434.4" y2="209"/>
	<path class="st1" d="M436.2,212c5.3,9.1,9.2,16,14.5,25.1"/>
	<path class="st1" d="M448.1,238.4c-2.2-3.8-3.2-5.6-5.4-9.4"/>
	<line class="st1" x1="441" y1="226" x2="424.7" y2="197.8"/>
	<line class="st1" x1="422.9" y1="194.7" x2="407.8" y2="168.6"/>
	<line class="st1" x1="405.4" y1="170.2" x2="411.4" y2="180.6"/>
	<line class="st1" x1="413.2" y1="183.7" x2="429.5" y2="211.8"/>
	<path class="st1" d="M431.2,214.8c5.2,8.9,9.2,15.9,14.3,24.8"/>
	<path class="st1" d="M442.9,240.8c-2.2-3.8-2.9-5.1-5.2-8.9"/>
	<line class="st1" x1="436" y1="228.8" x2="419.7" y2="200.7"/>
	<line class="st1" x1="417.9" y1="197.6" x2="403.1" y2="171.9"/>
	<path class="st1" d="M400.8,173.6c2.4,4.2,3.3,5.6,5.7,9.8"/>
	<line class="st1" x1="408.3" y1="186.5" x2="424.5" y2="214.7"/>
	<path class="st1" d="M426.3,217.7c5.1,8.8,8.9,15.4,14,24.2"/>
	<path class="st1" d="M437.7,243c-1.9-3.2-2.9-5.1-4.8-8.3"/>
	<line class="st1" x1="431.2" y1="231.6" x2="414.9" y2="203.5"/>
	<path class="st1" d="M413.1,200.4c-5.2-9-9.3-16.1-14.5-25.1"/>
	<path class="st1" d="M396.4,177.2c2.1,3.6,3.2,5.5,5.2,9"/>
	<line class="st1" x1="403.4" y1="189.3" x2="419.7" y2="217.5"/>
	<path class="st1" d="M421.4,220.5c4.8,8.4,8.8,15.2,13.6,23.5"/>
	<path class="st1" d="M432.2,244.9c-1.8-3.1-2.4-4.2-4.2-7.3"/>
	<line class="st1" x1="426.2" y1="234.5" x2="410" y2="206.3"/>
	<path class="st1" d="M408.2,203.2c-5-8.6-8.9-15.5-13.9-24.1"/>
	<path class="st1" d="M392.1,181.2c2,3.5,2.5,4.4,4.5,7.9"/>
	<line class="st1" x1="398.5" y1="192.2" x2="414.7" y2="220.3"/>
	<path class="st1" d="M416.5,223.4c4.9,8.4,8,13.9,12.9,22.3"/>
	<path class="st1" d="M426.4,246.3c-1.6-2.8-1.8-3.2-3.4-5.9"/>
	<line class="st1" x1="421.3" y1="237.3" x2="405" y2="209.2"/>
	<path class="st1" d="M403.2,206.1c-4.7-8.1-8.4-14.6-13.1-22.7"/>
	<path class="st1" d="M388.2,185.7c1.4,2.4,2.2,3.8,3.6,6.2"/>
	<line class="st1" x1="393.5" y1="195" x2="409.8" y2="223.2"/>
	<path class="st1" d="M411.5,226.2c4.3,7.5,7.5,13.1,11.9,20.6"/>
	<path class="st1" d="M420.3,247.1c-1.3-2.2-1-1.7-2.2-3.9"/>
	<line class="st1" x1="416.3" y1="240.2" x2="400" y2="212.1"/>
	<path class="st1" d="M398.2,208.9c-4.2-7.2-7.8-13.4-11.9-20.6"/>
	<path class="st1" d="M384.5,190.9c1.1,1.9,1.2,2,2.3,3.9"/>
	<line class="st1" x1="388.6" y1="197.9" x2="404.8" y2="226.1"/>
	<path class="st1" d="M406.6,229.1c3.9,6.8,6.7,11.6,10.6,18.4"/>
	<path class="st1" d="M414.3,247.9c-0.7-1.1-0.4-0.7-1.1-1.9"/>
	<line class="st1" x1="411.5" y1="243" x2="395.2" y2="214.8"/>
	<path class="st1" d="M393.4,211.7c-4.1-7-6.7-11.6-10.8-18.7"/>
	<path class="st1" d="M380.7,195.4c0.9,1.6,0.3,0.5,1.2,2.2"/>
	<line class="st1" x1="383.7" y1="200.7" x2="400" y2="228.8"/>
	<path class="st1" d="M401.7,231.9c3.5,6,6.1,10.5,9.6,16.6"/>
	<line class="st1" x1="406.5" y1="245.9" x2="390.3" y2="217.7"/>
	<path class="st1" d="M388.5,214.6c-3.5-6-6.3-10.8-9.7-16.8"/>
	<line class="st1" x1="378.8" y1="203.6" x2="395" y2="231.7"/>
	<path class="st1" d="M396.8,234.7c3.5,6,5.1,8.7,8.5,14.7"/>
	<line class="st1" x1="401.6" y1="248.7" x2="385.3" y2="220.6"/>
	<path class="st1" d="M383.5,217.5c-3.1-5.4-5.6-9.6-8.6-15"/>
	<line class="st1" x1="373.8" y1="206.4" x2="390.1" y2="234.6"/>
	<path class="st1" d="M391.8,237.6c3.1,5.3,4.4,7.5,7.4,12.9"/>
	<line class="st1" x1="396.3" y1="251" x2="380.4" y2="223.4"/>
	<path class="st1" d="M378.6,220.3c-3-5.2-4.6-7.9-7.6-13.1"/>
	<line class="st1" x1="369" y1="209.6" x2="385.1" y2="237.4"/>
	<path class="st1" d="M386.9,240.5c2.6,4.4,3.8,6.6,6.4,11"/>
	<path class="st1" d="M390.4,252c-5.3-9.5-9-15.9-14.9-25.8"/>
	<path class="st1" d="M373.7,223.1c-2.4-4.1-4.2-7.3-6.6-11.4"/>
	<path class="st1" d="M365,213.6c5.5,9.5,9.8,17,15.3,26.6"/>
	<path class="st1" d="M382.1,243.2c2.2,3.8,3.4,5.9,5.6,9.7"/>
	<path class="st1" d="M384.9,254c-5.1-8.9-9.2-16-14.4-24.9"/>
	<path class="st1" d="M368.8,226c-2.2-3.8-3.8-6.6-6-10.5"/>
	<path class="st1" d="M360.5,217.3c5.2,9,9.6,16.7,14.9,25.8"/>
	<path class="st1" d="M377.1,246.1c2.1,3.7,3,5.2,5.1,8.9"/>
	<path class="st1" d="M379.5,256.1c-5.1-8.8-8.9-15.4-13.9-24.1"/>
	<path class="st1" d="M363.8,228.8c-2.2-3.8-3.4-5.9-5.6-9.7"/>
	<path class="st1" d="M355.9,220.9c5.1,8.9,9.3,16.1,14.4,25"/>
	<path class="st1" d="M372.1,249c2.1,3.7,2.6,4.5,4.7,8.2"/>
	<path class="st1" d="M374.2,258.2c-5.2-9.1-8.3-14.3-13.5-23.4"/>
	<path class="st1" d="M358.9,231.7c-2-3.4-3.2-5.6-5.2-9"/>
	<path class="st1" d="M351.3,224.4c4.9,8.4,9.2,16,14.1,24.4"/>
	<path class="st1" d="M367.2,251.8c2.3,4,2,3.5,4.3,7.5"/>
	<line class="st1" x1="369" y1="260.3" x2="355.8" y2="237.6"/>
	<path class="st1" d="M354,234.5c-1.8-3-3-5.3-4.8-8.3"/>
	<path class="st1" d="M347,227.9c4.7,8.1,8.9,15.5,13.6,23.6"/>
	<path class="st1" d="M362.4,254.6c2.6,4.4,1.4,2.4,3.9,6.8"/>
	<line class="st1" x1="363.6" y1="262.5" x2="350.9" y2="240.5"/>
	<path class="st1" d="M349.1,237.3c-1.6-2.8-2.8-4.9-4.4-7.6"/>
	<path class="st1" d="M342.5,231.4c4.7,8.1,8.5,14.9,13.1,23"/>
	<path class="st1" d="M357.4,257.5c2.9,5,0.6,1.1,3.5,6.1"/>
	<line class="st1" x1="358.3" y1="264.7" x2="345.9" y2="243.3"/>
	<path class="st1" d="M344.1,240.2c-1.8-3-2.2-3.9-4-6.9"/>
	<path class="st1" d="M337.8,235.1c4.9,8.4,8,13.8,12.8,22.2"/>
	<path class="st1" d="M352.4,260.3c2,3.5,1,1.8,3.1,5.3"/>
	<path class="st1" d="M352.9,266.8c-4.7-8.1-7.2-12.5-11.9-20.7"/>
	<path class="st1" d="M339.2,243.1c-1.9-3.4-1.7-3-3.7-6.3"/>
	<path class="st1" d="M333.4,238.5c5.1,8.8,7.4,12.7,12.4,21.5"/>
	<path class="st1" d="M347.6,263.1c1.4,2.5,1.2,2.1,2.7,4.6"/>
	<line class="st1" x1="328.9" y1="242.2" x2="338.2" y2="258.2"/>
	<path class="st1" d="M342.7,266c1.1,2,1.1,2,2.3,3.9"/>
	<path class="st1" d="M342.2,271c-4-7-7-12.2-11.1-19.2"/>
	<path class="st1" d="M329.4,248.7c-1.3-2.2-1.5-2.5-2.7-4.7"/>
	<path class="st1" d="M324.5,245.9c3.2,5.6,5.5,9.5,8.7,15.1"/>
	<path class="st1" d="M337.7,268.8c1,1.7,0.8,1.4,1.8,3.2"/>
	<path class="st1" d="M336.8,273c-3.9-6.7-6.7-11.5-10.6-18.3"/>
	<path class="st1" d="M324.4,251.6c-0.9-1.6-1.3-2.2-2.2-3.8"/>
	<path class="st1" d="M320,249.7c3.9,6.7,7.1,12.3,11,19"/>
	<path class="st1" d="M332.7,271.7c1,1.7,0.2,0.3,1.2,2.1"/>
	<path class="st1" d="M331.1,274.6c-4-7-5.8-10-9.8-17.1"/>
	<path class="st1" d="M319.5,254.4c-0.8-1.4-0.7-1.2-1.5-2.6"/>
</g>
<g id="surface6361_2_">
	<path class="st1" d="M287.7,74.3c-4.5,0,0,0-4.5,0"/>
	<path class="st1" d="M279.9,77.2c5.9,0,5.2,0,11.1,0"/>
	<path class="st1" d="M293.7,80c-6.9,0-9,0-15.9,0"/>
	<path class="st1" d="M272.4,82.9c7.2,0,12.6,0,19.9,0"/>
	<path class="st1" d="M295.8,82.9c1.8,0,1.2,0,3,0"/>
	<path class="st1" d="M301.8,85.8c-9.1,0-14.9,0-24,0"/>
	<path class="st1" d="M274.2,85.8c-2.1,0-2.7,0-4.8,0"/>
	<path class="st1" d="M266.4,88.6c8.8,0,17.1,0,25.9,0"/>
	<path class="st1" d="M295.8,88.6c4.6,0,4.3,0,9,0"/>
	<line class="st1" x1="307.7" y1="91.5" x2="277.8" y2="91.5"/>
	<path class="st1" d="M274.2,91.5c-3.6,0-7.1,0-10.7,0"/>
	<line class="st1" x1="260.6" y1="94.2" x2="292.3" y2="94.2"/>
	<path class="st1" d="M295.8,94.2c5.9,0,8.8,0,14.8,0"/>
	<line class="st1" x1="310.3" y1="97" x2="277.8" y2="97"/>
	<path class="st1" d="M274.2,97c-6.2,0-10.4,0-16.6,0"/>
	<path class="st1" d="M255.1,99.9c1.6,0-0.6,0,1,0"/>
	<line class="st1" x1="259.8" y1="99.9" x2="292.3" y2="99.9"/>
	<path class="st1" d="M295.8,99.9c8.1,0,12.2,0,20.3,0"/>
	<path class="st1" d="M318.1,102.8c-2.1,0-2.3,0-4.3,0"/>
	<line class="st1" x1="310.3" y1="102.8" x2="277.8" y2="102.8"/>
	<path class="st1" d="M274.2,102.8c-7.8,0-13.2,0-21,0"/>
	<path class="st1" d="M251.6,105.6c2.2,0,2.4,0,4.6,0"/>
	<line class="st1" x1="259.8" y1="105.6" x2="292.3" y2="105.6"/>
	<path class="st1" d="M295.8,105.6c8.2,0,15.6,0,23.9,0"/>
	<path class="st1" d="M320.9,108.5c-2.9,0-4.3,0-7.2,0"/>
	<line class="st1" x1="310.3" y1="108.5" x2="277.8" y2="108.5"/>
	<path class="st1" d="M274.2,108.5c-8.9,0-15,0-23.9,0"/>
	<path class="st1" d="M249.2,111.4c3.1,0,3.9,0,7,0"/>
	<line class="st1" x1="259.8" y1="111.4" x2="292.3" y2="111.4"/>
	<path class="st1" d="M295.8,111.4c9.9,0,16.4,0,26.2,0"/>
	<path class="st1" d="M322.9,114.2c-3.7,0-5.5,0-9.2,0"/>
	<line class="st1" x1="310.3" y1="114.2" x2="277.8" y2="114.2"/>
	<path class="st1" d="M274.2,114.2c-9.2,0-16.7,0-25.9,0"/>
	<path class="st1" d="M247.5,116.9c3.5,0,5.2,0,8.7,0"/>
	<line class="st1" x1="259.8" y1="116.9" x2="292.3" y2="116.9"/>
	<path class="st1" d="M295.8,116.9c10,0,17.9,0,27.9,0"/>
	<path class="st1" d="M324.3,119.8c-4.6,0-6,0-10.6,0"/>
	<line class="st1" x1="310.3" y1="119.8" x2="277.8" y2="119.8"/>
	<path class="st1" d="M274.2,119.8c-10,0-17.3,0-27.3,0"/>
	<path class="st1" d="M246.2,122.7c4.6,0,5.3,0,10,0"/>
	<line class="st1" x1="259.8" y1="122.7" x2="292.3" y2="122.7"/>
	<line class="st1" x1="295.8" y1="122.7" x2="324.9" y2="122.7"/>
	<path class="st1" d="M325.5,125.5c-4.9,0-6.8,0-11.7,0"/>
	<line class="st1" x1="310.3" y1="125.5" x2="277.8" y2="125.5"/>
	<path class="st1" d="M274.2,125.5c-10.2,0-18.3,0-28.5,0"/>
	<path class="st1" d="M245.4,128.4c4.1,0,6.7,0,10.8,0"/>
	<line class="st1" x1="259.8" y1="128.4" x2="292.3" y2="128.4"/>
	<line class="st1" x1="295.8" y1="128.4" x2="325.8" y2="128.4"/>
	<path class="st1" d="M326,131.2c-4.9,0-7.3,0-12.2,0"/>
	<line class="st1" x1="310.3" y1="131.2" x2="277.8" y2="131.2"/>
	<path class="st1" d="M274.2,131.2c-10,0-19,0-29,0"/>
	<path class="st1" d="M244.9,134.1c4.1,0,7.1,0,11.2,0"/>
	<line class="st1" x1="259.8" y1="134.1" x2="292.3" y2="134.1"/>
	<line class="st1" x1="295.8" y1="134.1" x2="326.2" y2="134.1"/>
	<path class="st1" d="M326.4,137c-4.9,0-7.6,0-12.6,0"/>
	<line class="st1" x1="310.3" y1="137" x2="277.8" y2="137"/>
	<path class="st1" d="M274.2,137c-10.4,0-19.1,0-29.5,0"/>
	<path class="st1" d="M244.7,139.7c4.3,0,7.2,0,11.5,0"/>
	<line class="st1" x1="259.8" y1="139.7" x2="292.3" y2="139.7"/>
	<line class="st1" x1="295.8" y1="139.7" x2="326.4" y2="139.7"/>
	<path class="st1" d="M326.2,142.5c-4.6,0-7.8,0-12.4,0"/>
	<line class="st1" x1="310.3" y1="142.5" x2="277.8" y2="142.5"/>
	<path class="st1" d="M274.2,142.5c-10.3,0-19,0-29.3,0"/>
	<path class="st1" d="M245,145.4c4.3,0,6.8,0,11.2,0"/>
	<line class="st1" x1="259.8" y1="145.4" x2="292.3" y2="145.4"/>
	<path class="st1" d="M295.8,145.4c10.6,0,19.6,0,30.2,0"/>
	<path class="st1" d="M326,148.3c-4.6,0-7.5,0-12.2,0"/>
	<line class="st1" x1="310.3" y1="148.3" x2="277.8" y2="148.3"/>
	<path class="st1" d="M274.2,148.3c-29,0,3.1,0-29,0"/>
	<path class="st1" d="M245.5,151.1c4.7,0,5.9,0,10.7,0"/>
	<line class="st1" x1="259.8" y1="151.1" x2="292.3" y2="151.1"/>
	<line class="st1" x1="295.8" y1="151.1" x2="325.6" y2="151.1"/>
	<path class="st1" d="M325.2,154c-4.8,0-6.6,0-11.4,0"/>
	<line class="st1" x1="310.3" y1="154" x2="277.8" y2="154"/>
	<path class="st1" d="M274.2,154c-10.4,0-17.8,0-28.3,0"/>
	<path class="st1" d="M246.4,156.8c4.3,0,5.4,0,9.8,0"/>
	<line class="st1" x1="259.8" y1="156.8" x2="292.3" y2="156.8"/>
	<path class="st1" d="M295.8,156.8c10.6,0,18.3,0,28.9,0"/>
	<path class="st1" d="M324,159.6c-4.6,0-5.6,0-10.3,0"/>
	<line class="st1" x1="310.3" y1="159.6" x2="277.8" y2="159.6"/>
	<path class="st1" d="M274.2,159.6c-9.7,0-17.5,0-27.2,0"/>
	<path class="st1" d="M247.8,162.4c3.2,0,5.1,0,8.3,0"/>
	<line class="st1" x1="259.8" y1="162.4" x2="292.3" y2="162.4"/>
	<path class="st1" d="M295.8,162.4c10.2,0,17.2,0,27.4,0"/>
	<path class="st1" d="M322.2,165.3c-3.7,0-4.7,0-8.4,0"/>
	<line class="st1" x1="310.3" y1="165.3" x2="277.8" y2="165.3"/>
	<path class="st1" d="M274.2,165.3c-8.9,0-16.4,0-25.3,0"/>
	<path class="st1" d="M250.2,168.1c2.5,0,3.5,0,5.9,0"/>
	<line class="st1" x1="259.8" y1="168.1" x2="292.3" y2="168.1"/>
	<path class="st1" d="M295.8,168.1c9.7,0,15.4,0,25,0"/>
	<path class="st1" d="M319.1,171c-2.9,0-2.4,0-5.3,0"/>
	<line class="st1" x1="310.3" y1="171" x2="277.8" y2="171"/>
	<path class="st1" d="M274.2,171c-8.2,0-14,0-22.2,0"/>
	<path class="st1" d="M253.5,173.9c2.1,0,0.6,0,2.7,0"/>
	<line class="st1" x1="259.8" y1="173.9" x2="292.3" y2="173.9"/>
	<path class="st1" d="M295.8,173.9c7.9,0,13.9,0,21.8,0"/>
	<path class="st1" d="M316,176.7c-1.5,0-0.7,0-2.2,0"/>
	<line class="st1" x1="310.3" y1="176.7" x2="277.8" y2="176.7"/>
	<path class="st1" d="M274.2,176.7c-7.1,0-12.3,0-19.4,0"/>
	<line class="st1" x1="259.8" y1="179.6" x2="292.3" y2="179.6"/>
	<path class="st1" d="M295.8,179.6c7.1,0,12,0,19.1,0"/>
	<line class="st1" x1="310.3" y1="182.3" x2="277.8" y2="182.3"/>
	<path class="st1" d="M274.2,182.3c-6.5,0-10.2,0-16.7,0"/>
	<line class="st1" x1="259.8" y1="185.2" x2="292.3" y2="185.2"/>
	<path class="st1" d="M295.8,185.2c5.9,0,10.5,0,16.4,0"/>
	<line class="st1" x1="310.3" y1="188" x2="277.8" y2="188"/>
	<path class="st1" d="M274.2,188c-5.6,0-8.3,0-13.9,0"/>
	<line class="st1" x1="261.7" y1="190.9" x2="292.3" y2="190.9"/>
	<path class="st1" d="M295.8,190.9c5,0,8.6,0,13.6,0"/>
	<line class="st1" x1="308.4" y1="193.7" x2="277.8" y2="193.7"/>
	<path class="st1" d="M274.2,193.7c-4.5,0-7,0-11.5,0"/>
	<path class="st1" d="M263.3,196.6c10.2,0,18.8,0,29,0"/>
	<path class="st1" d="M295.8,196.6c5,0,7,0,12,0"/>
	<path class="st1" d="M307.2,199.5c-10.6,0-18.8,0-29.4,0"/>
	<path class="st1" d="M274.2,199.5c-3.7,0-6.6,0-10.3,0"/>
	<path class="st1" d="M264.4,202.3c9.6,0,18.2,0,27.8,0"/>
	<path class="st1" d="M295.8,202.3c4.1,0,6.8,0,10.9,0"/>
	<path class="st1" d="M306.1,205c-10.1,0-18.2,0-28.4,0"/>
	<path class="st1" d="M274.2,205c-3.4,0-5.8,0-9.2,0"/>
	<path class="st1" d="M265.5,207.9c9.1,0,17.7,0,26.8,0"/>
	<path class="st1" d="M295.8,207.9c4.1,0,5.7,0,9.8,0"/>
	<path class="st1" d="M305.1,210.8c-9.7,0-17.7,0-27.3,0"/>
	<path class="st1" d="M274.2,210.8c-2.9,0-5.3,0-8.2,0"/>
	<path class="st1" d="M266.5,213.6c8.8,0,17,0,25.8,0"/>
	<path class="st1" d="M295.8,213.6c3.2,0,5.6,0,8.8,0"/>
	<path class="st1" d="M304.1,216.5c-9.1,0-17.3,0-26.3,0"/>
	<path class="st1" d="M274.2,216.5c-2.5,0-5,0-7.5,0"/>
	<path class="st1" d="M267.5,219.4c8.5,0,16.3,0,24.7,0"/>
	<path class="st1" d="M295.8,219.4c3,0,4.8,0,7.8,0"/>
	<path class="st1" d="M303,222.2c-9.4,0-15.9,0-25.3,0"/>
	<path class="st1" d="M274.2,222.2c-2.3,0-3.8,0-6.1,0"/>
	<path class="st1" d="M268.6,225.1c8.3,0,15.4,0,23.7,0"/>
	<path class="st1" d="M295.8,225.1c3.2,0,3.5,0,6.7,0"/>
	<path class="st1" d="M302,227.8c-8.8,0-15.4,0-24.2,0"/>
	<path class="st1" d="M274.2,227.8c-2.3,0-2.7,0-5.1,0"/>
	<path class="st1" d="M269.7,230.6c8.3,0,14.3,0,22.6,0"/>
	<path class="st1" d="M295.8,230.6c2.5,0,3.1,0,5.6,0"/>
	<path class="st1" d="M300.8,233.5c-8.3,0-14.7,0-23,0"/>
	<path class="st1" d="M274.2,233.5c-1.8,0-2.1,0-3.9,0"/>
	<path class="st1" d="M271,236.4c7.5,0,13.8,0,21.3,0"/>
	<path class="st1" d="M295.8,236.4c1.8,0,2.6,0,4.3,0"/>
	<path class="st1" d="M299.3,239.2c-7.5,0-13.9,0-21.5,0"/>
	<path class="st1" d="M274.2,239.2c-1.1,0-1.2,0-2.4,0"/>
</g>
<g>
	<g id="surface6361_5_">
		<path class="st1" d="M17.2,128.6c-3.2,5.5,1.1-1.9-2.1,3.6"/>
		<path class="st1" d="M16.7,135.1c3.1-5.4,0.8-1.4,3.9-6.8"/>
		<path class="st1" d="M23.8,128.6c-3.3,5.7-3,5.1-6.2,10.8"/>
		<path class="st1" d="M19.1,142.4c3.3-5.8,4.6-8,8-13.8"/>
		<path class="st1" d="M31.4,126.8c-3.6,6.2-5.5,9.5-9.1,15.7"/>
		<path class="st1" d="M22.2,148.5c3.6-6.2,6.3-10.9,9.9-17.1"/>
		<path class="st1" d="M33.8,128.4c0.8-1.4,0.2-0.4,1-1.8"/>
		<path class="st1" d="M38.2,126.5c-4,7-6.9,12-11,19"/>
		<path class="st1" d="M25.5,148.6c-0.8,1.3-1,1.7-1.8,3"/>
		<path class="st1" d="M25.2,154.5c4.1-7.1,7.6-13.1,11.7-20.2"/>
		<path class="st1" d="M38.6,131.2c1.2-2.1,1.6-2.8,2.8-4.9"/>
		<path class="st1" d="M44.9,126.1c-4.5,7.9-8.2,14.3-12.8,22.1"/>
		<path class="st1" d="M30.3,151.3c-1.4,2.4-2.3,4-3.7,6.4"/>
		<path class="st1" d="M28.2,160.7c4.7-8.2,8.9-15.4,13.6-23.6"/>
		<path class="st1" d="M43.6,134.1c1.9-3.2,2.9-5,4.7-8.2"/>
		<path class="st1" d="M51.7,125.7c-5.3,9.1-9.4,16.3-14.7,25.4"/>
		<path class="st1" d="M35.3,154.2c-2.3,3.9-3.2,5.5-5.5,9.4"/>
		<line class="st1" x1="31.3" y1="166.5" x2="46.8" y2="140"/>
		<path class="st1" d="M48.5,136.9c2.6-4.5,3.8-6.9,6.4-11.4"/>
		<line class="st1" x1="57.8" y1="126.5" x2="42" y2="153.9"/>
		<path class="st1" d="M40.2,157.1c-3.1,5.4-4.2,7.3-7.3,12.7"/>
		<line class="st1" x1="35.5" y1="171" x2="51.7" y2="142.8"/>
		<path class="st1" d="M53.5,139.8c3.2-5.6,5.3-9.2,8.5-14.8"/>
		<line class="st1" x1="63.2" y1="128.7" x2="47" y2="156.8"/>
		<path class="st1" d="M45.2,159.9c-3.4,5.8-5.8,10-9.1,15.8"/>
		<path class="st1" d="M37.7,178.3c0.6-1,0.2-0.4,0.8-1.4"/>
		<line class="st1" x1="40.3" y1="173.7" x2="56.6" y2="145.6"/>
		<path class="st1" d="M58.3,142.6c3.6-6.3,6.4-11,10-17.4"/>
		<path class="st1" d="M71.5,125.5c-1.3,2.2-0.4,0.7-1.7,2.9"/>
		<line class="st1" x1="68" y1="131.4" x2="51.8" y2="159.6"/>
		<path class="st1" d="M50,162.7c-3.8,6.6-6.6,11.5-10.4,18.1"/>
		<path class="st1" d="M41.5,183.2c1.1-1.9,0.9-1.5,2-3.4"/>
		<line class="st1" x1="45.3" y1="176.6" x2="61.5" y2="148.5"/>
		<path class="st1" d="M63.3,145.4c4.4-7.6,6.9-11.9,11.2-19.4"/>
		<path class="st1" d="M77.4,126.6c-1.6,2.7-1.1,2-2.7,4.7"/>
		<line class="st1" x1="73" y1="134.3" x2="56.8" y2="162.5"/>
		<path class="st1" d="M55,165.6c-4.5,7.8-7,12.1-11.5,19.9"/>
		<path class="st1" d="M45.5,187.6c1.4-2.4,1.5-2.6,2.9-5"/>
		<line class="st1" x1="50.2" y1="179.5" x2="66.5" y2="151.3"/>
		<path class="st1" d="M68.2,148.3c4.7-8.2,7.4-12.8,12.1-21"/>
		<path class="st1" d="M83.2,128.1c-1.8,3.1-1.7,3-3.5,6.1"/>
		<line class="st1" x1="78" y1="137.2" x2="61.7" y2="165.3"/>
		<path class="st1" d="M59.9,168.4c-4.3,7.5-8,13.8-12.3,21.3"/>
		<path class="st1" d="M49.8,191.7c1.4-2.4,2.2-3.9,3.6-6.3"/>
		<line class="st1" x1="55.2" y1="182.3" x2="71.4" y2="154.2"/>
		<path class="st1" d="M73.2,151.2c4.9-8.4,8-13.8,12.8-22.2"/>
		<path class="st1" d="M88.8,129.9c-2,3.5-2.1,3.6-4.1,7.1"/>
		<line class="st1" x1="82.9" y1="140" x2="66.7" y2="168.2"/>
		<path class="st1" d="M64.9,171.3C60.4,179,56.4,186,52,193.7"/>
		<path class="st1" d="M54,195.5c1.5-2.6,2.7-4.6,4.2-7.2"/>
		<line class="st1" x1="60" y1="185.1" x2="76.3" y2="157"/>
		<path class="st1" d="M78,153.9c5.2-9,8.2-14.2,13.4-23.2"/>
		<path class="st1" d="M94.1,131.8c-2.2,3.7-2.5,4.3-4.6,8"/>
		<line class="st1" x1="87.7" y1="142.8" x2="71.5" y2="171"/>
		<path class="st1" d="M69.7,174.1c-4.6,8-8.8,15.2-13.4,23.3"/>
		<path class="st1" d="M58.5,199.2c1.8-3.2,2.8-4.9,4.7-8.1"/>
		<line class="st1" x1="65" y1="188" x2="81.2" y2="159.8"/>
		<path class="st1" d="M83,156.8c5.2-9,8.6-15,13.9-24"/>
		<path class="st1" d="M99.5,133.9c-2.4,4.2-2.6,4.6-5.1,8.8"/>
		<line class="st1" x1="92.7" y1="145.7" x2="76.4" y2="173.8"/>
		<path class="st1" d="M74.6,176.9c-5.1,8.8-8.8,15.2-13.9,24"/>
		<path class="st1" d="M63.1,202.7c2.4-4.1,2.7-4.6,5.1-8.8"/>
		<line class="st1" x1="69.9" y1="190.8" x2="86.2" y2="162.7"/>
		<line class="st1" x1="87.9" y1="159.7" x2="102.2" y2="135"/>
		<path class="st1" d="M104.9,136c-2.4,4.1-3.1,5.4-5.5,9.5"/>
		<line class="st1" x1="97.7" y1="148.5" x2="81.4" y2="176.7"/>
		<line class="st1" x1="79.6" y1="179.8" x2="65.4" y2="204.5"/>
		<path class="st1" d="M67.7,206.2c2.2-3.8,3.2-5.5,5.4-9.4"/>
		<line class="st1" x1="74.9" y1="193.7" x2="91.1" y2="165.6"/>
		<line class="st1" x1="92.9" y1="162.5" x2="107.5" y2="137.2"/>
		<path class="st1" d="M110,138.4c-2.6,4.4-3.2,5.5-5.7,9.9"/>
		<line class="st1" x1="102.5" y1="151.3" x2="86.2" y2="179.5"/>
		<path class="st1" d="M84.4,182.6c-5.2,8.9-9.3,16.2-14.5,25.1"/>
		<path class="st1" d="M72.4,209.1c2-3.5,3.5-6,5.5-9.5"/>
		<line class="st1" x1="79.7" y1="196.5" x2="96" y2="168.3"/>
		<line class="st1" x1="97.7" y1="165.3" x2="112.5" y2="139.7"/>
		<path class="st1" d="M115,141c-2.5,4.3-3.4,5.9-5.8,10.1"/>
		<line class="st1" x1="107.4" y1="154.2" x2="91.2" y2="182.3"/>
		<path class="st1" d="M89.4,185.5c-4.9,8.6-9.9,17.1-14.8,25.7"/>
		<path class="st1" d="M77.1,212.4c2-3.5,3.7-6.5,5.7-9.9"/>
		<line class="st1" x1="84.7" y1="199.4" x2="100.9" y2="171.2"/>
		<line class="st1" x1="102.7" y1="168.2" x2="117.6" y2="142.4"/>
		<path class="st1" d="M120.1,143.7c-2.5,4.3-3.5,6-6,10.3"/>
		<line class="st1" x1="112.4" y1="157" x2="96.1" y2="185.2"/>
		<path class="st1" d="M94.3,188.3c-5,8.7-10.1,17.4-15.1,26.2"/>
		<path class="st1" d="M81.9,215.6c2.1-3.7,3.8-6.6,5.9-10.3"/>
		<line class="st1" x1="89.6" y1="202.2" x2="105.9" y2="174.1"/>
		<line class="st1" x1="107.6" y1="171" x2="122.7" y2="145"/>
		<path class="st1" d="M125.2,146.4c-2.5,4.3-3.6,6.3-6.1,10.5"/>
		<line class="st1" x1="117.4" y1="159.9" x2="101.1" y2="188.1"/>
		<path class="st1" d="M99.3,191.2c-5.2,9.1-9.7,16.8-14.9,25.9"/>
		<path class="st1" d="M86.9,218.4c2.4-4.2,3.5-6,5.9-10.2"/>
		<line class="st1" x1="94.6" y1="205.1" x2="110.8" y2="176.9"/>
		<line class="st1" x1="112.6" y1="173.9" x2="127.6" y2="147.8"/>
		<path class="st1" d="M130,149.1c-2.7,4.7-3.4,5.8-6.1,10.5"/>
		<line class="st1" x1="122.2" y1="162.7" x2="105.9" y2="190.8"/>
		<line class="st1" x1="104.1" y1="194" x2="89.3" y2="219.7"/>
		<path class="st1" d="M91.8,221.1c2.4-4.1,3.4-5.9,5.8-10.1"/>
		<line class="st1" x1="99.4" y1="207.9" x2="115.7" y2="179.7"/>
		<line class="st1" x1="117.4" y1="176.7" x2="132.4" y2="150.8"/>
		<path class="st1" d="M134.9,152.2c-2.4,4.2-3.5,6.1-6,10.3"/>
		<line class="st1" x1="127.1" y1="165.6" x2="110.9" y2="193.7"/>
		<path class="st1" d="M109.1,196.8c-14.8,25.7,0,0-14.8,25.7"/>
		<path class="st1" d="M96.8,223.7c2.2-3.7,3.6-6.2,5.7-9.9"/>
		<line class="st1" x1="104.4" y1="210.7" x2="120.6" y2="182.6"/>
		<line class="st1" x1="122.4" y1="179.5" x2="137.2" y2="153.8"/>
		<path class="st1" d="M139.6,155.4c-2.4,4.1-3.4,5.9-5.8,10"/>
		<line class="st1" x1="132.1" y1="168.4" x2="115.8" y2="196.6"/>
		<path class="st1" d="M114,199.7c-5.2,8.9-9.5,16.4-14.6,25.4"/>
		<path class="st1" d="M101.9,226.4c2-3.4,3.6-6.3,5.6-9.7"/>
		<line class="st1" x1="109.3" y1="213.6" x2="125.6" y2="185.4"/>
		<line class="st1" x1="127.3" y1="182.4" x2="142" y2="157"/>
		<path class="st1" d="M144.4,158.6c-2.3,4-3.3,5.7-5.6,9.7"/>
		<line class="st1" x1="137" y1="171.3" x2="120.8" y2="199.4"/>
		<path class="st1" d="M119,202.5c-5,8.7-9.4,16.4-14.4,25"/>
		<path class="st1" d="M106.9,229.2c1.9-3.2,3.7-6.4,5.6-9.7"/>
		<line class="st1" x1="114.3" y1="216.4" x2="130.5" y2="188.3"/>
		<line class="st1" x1="132.3" y1="185.3" x2="146.7" y2="160.2"/>
		<path class="st1" d="M148.9,161.8c-2.3,4-3,5.2-5.3,9.2"/>
		<line class="st1" x1="141.9" y1="174.1" x2="125.6" y2="202.2"/>
		<path class="st1" d="M123.8,205.3c-5,8.7-9.2,15.9-14.2,24.6"/>
		<path class="st1" d="M112.3,231c1.9-3.4,3.1-5.3,5-8.7"/>
		<line class="st1" x1="119.1" y1="219.2" x2="135.3" y2="191.1"/>
		<path class="st1" d="M137.1,188.1c5.2-9,8.9-15.5,14.2-24.5"/>
		<path class="st1" d="M153.5,165.3c-2.1,3.6-2.8,4.9-4.9,8.6"/>
		<line class="st1" x1="146.8" y1="176.9" x2="130.6" y2="205.1"/>
		<path class="st1" d="M128.8,208.2c-4.9,8.6-8.9,15.3-13.8,23.9"/>
		<path class="st1" d="M117.6,233.2c1.8-3.1,2.8-4.9,4.6-8"/>
		<line class="st1" x1="124.1" y1="222.1" x2="140.3" y2="194"/>
		<path class="st1" d="M142.1,190.9c4.9-8.5,8.8-15.3,13.7-23.7"/>
		<path class="st1" d="M158,169.1c-1.7,3-2.7,4.7-4.4,7.7"/>
		<line class="st1" x1="151.8" y1="179.8" x2="135.5" y2="207.9"/>
		<path class="st1" d="M133.7,211.1c-4.6,8-8.6,15-13.3,23"/>
		<path class="st1" d="M123.3,234.9c1.6-2.7,2.4-4.1,3.9-6.8"/>
		<line class="st1" x1="129" y1="225" x2="145.3" y2="196.8"/>
		<path class="st1" d="M147,193.8c4.8-7.8,8.7-14.6,13.2-22.6"/>
		<path class="st1" d="M162.2,173.2c-1.7,2.9-2,3.5-3.7,6.4"/>
		<line class="st1" x1="156.7" y1="182.7" x2="140.5" y2="210.8"/>
		<path class="st1" d="M138.7,213.9c-4.5,7.8-8.1,14-12.6,21.8"/>
		<path class="st1" d="M129.1,236.3c1.4-2.5,1.7-2.9,3.1-5.4"/>
		<line class="st1" x1="134" y1="227.8" x2="150.2" y2="199.7"/>
		<path class="st1" d="M152,196.6c4.7-8.1,7.6-13.1,12.3-21.2"/>
		<path class="st1" d="M166.1,177.6c-1.3,2.3-1.4,2.5-2.8,4.8"/>
		<line class="st1" x1="161.6" y1="185.4" x2="145.3" y2="213.6"/>
		<path class="st1" d="M143.5,216.7c-4.2,7.2-7.5,12.9-11.6,20.1"/>
		<path class="st1" d="M135,237.3c0.9-1.6,1.1-2,2-3.5"/>
		<line class="st1" x1="138.8" y1="230.6" x2="155" y2="202.5"/>
		<path class="st1" d="M156.8,199.4c4-7,7.2-12.4,11.2-19.4"/>
		<path class="st1" d="M170,182.2c-0.8,1.3-1,1.7-1.8,3"/>
		<line class="st1" x1="166.5" y1="188.3" x2="150.3" y2="216.4"/>
		<path class="st1" d="M148.5,219.6c-3.6,6.2,3.2-5.6-10.6,18.4"/>
		<path class="st1" d="M140.8,238.6c0.6-1,0.6-1.1,1.2-2"/>
		<line class="st1" x1="143.8" y1="233.5" x2="160" y2="205.3"/>
		<path class="st1" d="M161.8,202.3c3.6-6.2,6.7-11.7,10.3-17.9"/>
		<path class="st1" d="M174.1,186.6c-0.5,0.9-0.4,0.6-0.9,1.6"/>
		<line class="st1" x1="171.5" y1="191.2" x2="155.2" y2="219.3"/>
		<path class="st1" d="M153.4,222.4c-3.5,6-6.3,10.9-9.7,16.9"/>
		<line class="st1" x1="148.7" y1="236.3" x2="165" y2="208.2"/>
		<path class="st1" d="M166.7,205.2c3.4-5.9,6-10.5,9.5-16.4"/>
		<line class="st1" x1="176.4" y1="194" x2="160.2" y2="222.2"/>
		<path class="st1" d="M158.4,225.3c-3.2,5.6-5.6,9.8-8.9,15.4"/>
		<line class="st1" x1="153.7" y1="239.2" x2="169.9" y2="211"/>
		<path class="st1" d="M171.7,208c3.2-5.5,5.4-9.4,8.6-14.9"/>
		<line class="st1" x1="181.3" y1="196.8" x2="165" y2="225"/>
		<path class="st1" d="M163.2,228.1c-3.1,5.4-4.9,8.5-8,13.9"/>
		<line class="st1" x1="158.5" y1="242" x2="174.7" y2="213.8"/>
		<path class="st1" d="M176.5,210.8c2.7-4.7,5-8.7,7.8-13.4"/>
		<line class="st1" x1="186.2" y1="199.7" x2="170" y2="227.8"/>
		<path class="st1" d="M168.2,230.9c-2.9,5-4.3,7.4-7.2,12.4"/>
		<line class="st1" x1="163.9" y1="244" x2="179.7" y2="216.7"/>
		<path class="st1" d="M181.5,213.7c2.5-4.3,4.4-7.6,6.9-11.9"/>
		<line class="st1" x1="190.4" y1="204" x2="174.9" y2="230.7"/>
		<path class="st1" d="M173.1,233.8c-2.8,4.8-3.5,6.1-6.3,10.9"/>
		<line class="st1" x1="169.6" y1="245.6" x2="184.7" y2="219.6"/>
		<path class="st1" d="M186.4,216.5c2.3-4,3.8-6.6,6.2-10.7"/>
		<line class="st1" x1="194.8" y1="207.7" x2="179.9" y2="233.5"/>
		<path class="st1" d="M178.1,236.7c-2.9,5-2.9,5-5.8,10.1"/>
		<line class="st1" x1="174.8" y1="247.7" x2="189.5" y2="222.3"/>
		<path class="st1" d="M191.2,219.3c2.4-4.2,3.3-5.7,5.8-10"/>
		<line class="st1" x1="180.9" y1="248.7" x2="191.7" y2="230"/>
		<path class="st1" d="M196.2,222.2c2-3.5,3.3-5.8,5.4-9.3"/>
		<path class="st1" d="M203.9,214.6c-5,8.6-9.2,16-14.2,24.6"/>
		<path class="st1" d="M187.9,242.3c-2.8,4.8-2.3,4-5.1,8.8"/>
		<line class="st1" x1="185.8" y1="251.5" x2="196.6" y2="232.8"/>
		<path class="st1" d="M201.1,225c1.8-3.2,3.2-5.6,5-8.7"/>
		<path class="st1" d="M208.5,218c-4.9,8.5-9,15.6-13.9,24"/>
		<path class="st1" d="M192.8,245.2c-2.3,4-2.4,4.2-4.7,8.2"/>
		<path class="st1" d="M190.7,254.5c5.2-9,8.4-14.6,13.6-23.6"/>
		<path class="st1" d="M206.1,227.9c1.7-3,3-5.2,4.7-8.2"/>
		<path class="st1" d="M213.1,221.4c-4.9,8.5-8.7,15-13.6,23.5"/>
		<path class="st1" d="M197.8,248c-2,3.5-2.4,4.1-4.4,7.6"/>
		<line class="st1" x1="195.9" y1="256.7" x2="207.2" y2="237.1"/>
		<path class="st1" d="M210.9,230.7c1.8-3.2,2.6-4.4,4.4-7.6"/>
		<path class="st1" d="M217.7,224.8c-4.7,8.2-8.5,14.7-13.2,22.9"/>
		<path class="st1" d="M202.6,250.8c-1.8,3.1-2.3,3.9-4.1,7.1"/>
		<line class="st1" x1="201.2" y1="259" x2="212.6" y2="239.3"/>
		<path class="st1" d="M215.9,233.5c1.7-3,2.3-4.1,4.1-7.1"/>
		<path class="st1" d="M222.3,228.1c-4.7,8.2-8.2,14.3-13,22.5"/>
		<path class="st1" d="M207.6,253.7c-1.7,2.9-2.1,3.6-3.8,6.5"/>
		<line class="st1" x1="206.5" y1="261.3" x2="217.5" y2="242.1"/>
		<path class="st1" d="M220.8,236.4c1.7-3,2.1-3.5,3.8-6.5"/>
		<path class="st1" d="M226.9,231.6c-4.5,7.7-8.1,14.1-12.6,21.8"/>
		<path class="st1" d="M212.5,256.5c-1.8,3.1-1.6,2.8-3.4,5.9"/>
		<path class="st1" d="M211.7,263.6c4.8-8.2,6.9-12,11.7-20.2"/>
		<path class="st1" d="M225.8,239.3c1.4-2.4,2.1-3.6,3.4-5.9"/>
		<path class="st1" d="M231.5,235.1c-4.3,7.4-8,13.9-12.3,21.2"/>
		<path class="st1" d="M217.5,259.4c-2,3.5-1.1,1.8-3.1,5.4"/>
		<path class="st1" d="M216.9,265.8c5-8.6,6.4-11,11.3-19.6"/>
		<path class="st1" d="M230.6,242.1c1.3-2.2,1.8-3.2,3.1-5.4"/>
		<path class="st1" d="M236,238.4c-4.1,7.2-7.8,13.5-11.9,20.7"/>
		<path class="st1" d="M222.3,262.2c-1.7,3-1,1.8-2.8,4.8"/>
		<path class="st1" d="M222.2,268.1c4.5-7.8,7.1-12.3,11.6-20.1"/>
		<path class="st1" d="M235.6,244.9c1.3-2.2,1.5-2.6,2.7-4.8"/>
		<path class="st1" d="M240.6,241.9c-4.3,7.4-7.3,12.6-11.6,20"/>
		<path class="st1" d="M227.3,265.1c-1.2,2-1.2,2-2.3,4"/>
		<path class="st1" d="M227.5,270.3c4-6.9,7.3-12.6,11.3-19.5"/>
		<path class="st1" d="M240.5,247.8c1.2-2,1.2-2,2.3-4"/>
		<path class="st1" d="M245.4,245.6c-11.4,19.2,0,0-11.4,19.2"/>
		<path class="st1" d="M232.2,267.9c-0.8,1.4-1.2,2-2,3.4"/>
		<path class="st1" d="M232.9,272.4c3.8-6.6,7.1-12.2,10.8-18.8"/>
		<path class="st1" d="M245.5,250.6c0.8-1.4,1.1-2,1.9-3.4"/>
		<path class="st1" d="M249.7,249.1c-3.8,6.7-6.9,11.9-10.7,18.5"/>
		<path class="st1" d="M237.2,270.8c-0.6,1.1-0.9,1.6-1.5,2.7"/>
		<path class="st1" d="M238.2,274.4c3.5-6,6.9-12,10.4-17.9"/>
		<path class="st1" d="M250.3,253.4c0.8-1.3,0.7-1.2,1.4-2.5"/>
	</g>
	<line class="st1" x1="198.8" y1="210.8" x2="183.7" y2="237"/>
	<path class="st1" d="M181.9,240.1c-2.9,5-2,3.5-4.9,8.5"/>
</g>
<path class="st1" d="M347.4,269c-4.7-8.1-8.3-14.3-13-22.5"/>
<path class="st1" d="M332.7,243.4c-1.9-3.4,0.3,0.4-1.7-2.9"/>
<g id="test_3_">
	<path class="st1" d="M298.8,330.9"/>
	<path class="st1" d="M272.8,330.9"/>
	<path id="XMLID_5_" class="st2" d="M273.2,329.9H273"/>
	<path id="XMLID_3_" class="st2" d="M298,329.9h-0.4"/>
	<path id="XMLID_2_" class="st2" d="M273,329.9c-2.9,1.6-8.9,46.1-11.2,50.4c-1.2,2.3-9.4,19.5-9.4,19.5c-6.7,9.3-7.4,22.7-7.7,34
		l0.8,11.3c2.3,12.4,5,23.5,14.5,31.5l21.6,20.7c1,1,2.1,2.1,3.9,2.2c1.8,0,3-1.2,4-2.2l21.6-20.7c9.4-8,12.2-19.2,14.5-31.5
		l0.9-11.3c-0.3-11.4-1-24.7-7.7-34c0,0-8.2-17.2-9.4-19.5c-2.3-4.3-8.3-48.9-11.2-50.4"/>
</g>
<g id="surface6361_3_">
	<path class="st1" d="M283.4,497.1c4.5,0,0,0,4.5,0"/>
	<path class="st1" d="M291.2,494.3c-5.9,0-5.2,0-11.1,0"/>
	<path class="st1" d="M277.4,491.4c6.9,0,9,0,15.9,0"/>
	<path class="st1" d="M298.7,488.5c-7.2,0-12.6,0-19.9,0"/>
	<path class="st1" d="M275.3,488.5c-1.8,0-1.2,0-3,0"/>
	<path class="st1" d="M269.3,485.7c9.1,0,14.9,0,24,0"/>
	<path class="st1" d="M296.9,485.7c2.1,0,2.7,0,4.8,0"/>
	<path class="st1" d="M304.6,482.8c-8.8,0-17.1,0-25.9,0"/>
	<path class="st1" d="M275.3,482.8c-4.6,0-4.3,0-9,0"/>
	<line class="st1" x1="263.3" y1="480" x2="293.3" y2="480"/>
	<path class="st1" d="M296.9,480c3.6,0,7.1,0,10.7,0"/>
	<line class="st1" x1="310.4" y1="477.2" x2="278.8" y2="477.2"/>
	<path class="st1" d="M275.3,477.2c-5.9,0-8.8,0-14.8,0"/>
	<line class="st1" x1="260.8" y1="474.4" x2="293.3" y2="474.4"/>
	<path class="st1" d="M296.9,474.4c6.2,0,10.4,0,16.6,0"/>
	<path class="st1" d="M315.9,471.5c-1.6,0,0.6,0-1,0"/>
	<line class="st1" x1="311.3" y1="471.5" x2="278.8" y2="471.5"/>
	<path class="st1" d="M275.3,471.5c-8.1,0-12.2,0-20.3,0"/>
	<path class="st1" d="M252.9,468.7c2.1,0,2.3,0,4.3,0"/>
	<line class="st1" x1="260.8" y1="468.7" x2="293.3" y2="468.7"/>
	<path class="st1" d="M296.9,468.7c7.8,0,13.2,0,21,0"/>
	<path class="st1" d="M319.5,465.8c-2.2,0-2.4,0-4.6,0"/>
	<line class="st1" x1="311.3" y1="465.8" x2="278.8" y2="465.8"/>
	<path class="st1" d="M275.3,465.8c-8.2,0-15.6,0-23.9,0"/>
	<path class="st1" d="M250.1,462.9c2.9,0,4.3,0,7.2,0"/>
	<line class="st1" x1="260.8" y1="462.9" x2="293.3" y2="462.9"/>
	<path class="st1" d="M296.9,462.9c8.9,0,15,0,23.9,0"/>
	<path class="st1" d="M321.9,460.1c-3.1,0-3.9,0-7,0"/>
	<line class="st1" x1="311.3" y1="460.1" x2="278.8" y2="460.1"/>
	<path class="st1" d="M275.3,460.1c-9.9,0-16.4,0-26.2,0"/>
	<path class="st1" d="M248.1,457.2c3.7,0,5.5,0,9.2,0"/>
	<line class="st1" x1="260.8" y1="457.2" x2="293.3" y2="457.2"/>
	<path class="st1" d="M296.9,457.2c9.2,0,16.7,0,25.9,0"/>
	<path class="st1" d="M323.5,454.5c-3.5,0-5.2,0-8.7,0"/>
	<line class="st1" x1="311.3" y1="454.5" x2="278.8" y2="454.5"/>
	<path class="st1" d="M275.3,454.5c-10,0-17.9,0-27.9,0"/>
	<path class="st1" d="M246.7,451.6c4.6,0,6,0,10.6,0"/>
	<line class="st1" x1="260.8" y1="451.6" x2="293.3" y2="451.6"/>
	<path class="st1" d="M296.9,451.6c10,0,17.3,0,27.3,0"/>
	<path class="st1" d="M324.8,448.8c-4.6,0-5.3,0-10,0"/>
	<line class="st1" x1="311.3" y1="448.8" x2="278.8" y2="448.8"/>
	<line class="st1" x1="275.3" y1="448.8" x2="246.1" y2="448.8"/>
	<path class="st1" d="M245.6,445.9c4.9,0,6.8,0,11.7,0"/>
	<line class="st1" x1="260.8" y1="445.9" x2="293.3" y2="445.9"/>
	<path class="st1" d="M296.9,445.9c10.2,0,18.3,0,28.5,0"/>
	<path class="st1" d="M325.7,443.1c-4.1,0-6.7,0-10.8,0"/>
	<line class="st1" x1="311.3" y1="443.1" x2="278.8" y2="443.1"/>
	<line class="st1" x1="275.3" y1="443.1" x2="245.3" y2="443.1"/>
	<path class="st1" d="M245.1,440.2c4.9,0,7.3,0,12.2,0"/>
	<line class="st1" x1="260.8" y1="440.2" x2="293.3" y2="440.2"/>
	<path class="st1" d="M296.9,440.2c10,0,19,0,29,0"/>
	<path class="st1" d="M326.1,437.3c-4.1,0-7.1,0-11.2,0"/>
	<line class="st1" x1="311.3" y1="437.3" x2="278.8" y2="437.3"/>
	<line class="st1" x1="275.3" y1="437.3" x2="244.9" y2="437.3"/>
	<path class="st1" d="M244.7,434.5c4.9,0,7.6,0,12.6,0"/>
	<line class="st1" x1="260.8" y1="434.5" x2="293.3" y2="434.5"/>
	<path class="st1" d="M296.9,434.5c10.4,0,19.1,0,29.5,0"/>
	<path class="st1" d="M326.4,431.8c-4.3,0-7.2,0-11.5,0"/>
	<line class="st1" x1="311.3" y1="431.8" x2="278.8" y2="431.8"/>
	<line class="st1" x1="275.3" y1="431.8" x2="244.7" y2="431.8"/>
	<path class="st1" d="M244.8,428.9c4.6,0,7.8,0,12.4,0"/>
	<line class="st1" x1="260.8" y1="428.9" x2="293.3" y2="428.9"/>
	<path class="st1" d="M296.9,428.9c10.3,0,19,0,29.3,0"/>
	<path class="st1" d="M326.1,426c-4.3,0-6.8,0-11.2,0"/>
	<line class="st1" x1="311.3" y1="426" x2="278.8" y2="426"/>
	<path class="st1" d="M275.3,426c-10.6,0-19.6,0-30.2,0"/>
	<path class="st1" d="M245.1,423.2c4.6,0,7.5,0,12.2,0"/>
	<line class="st1" x1="260.8" y1="423.2" x2="293.3" y2="423.2"/>
	<path class="st1" d="M296.9,423.2c29,0-3.1,0,29,0"/>
	<path class="st1" d="M325.6,420.3c-4.7,0-5.9,0-10.7,0"/>
	<line class="st1" x1="311.3" y1="420.3" x2="278.8" y2="420.3"/>
	<line class="st1" x1="275.3" y1="420.3" x2="245.5" y2="420.3"/>
	<path class="st1" d="M245.9,417.4c4.8,0,6.6,0,11.4,0"/>
	<line class="st1" x1="260.8" y1="417.4" x2="293.3" y2="417.4"/>
	<path class="st1" d="M296.9,417.4c10.4,0,17.8,0,28.3,0"/>
	<path class="st1" d="M324.7,414.6c-4.3,0-5.4,0-9.8,0"/>
	<line class="st1" x1="311.3" y1="414.6" x2="278.8" y2="414.6"/>
	<path class="st1" d="M275.3,414.6c-10.6,0-18.3,0-28.9,0"/>
	<path class="st1" d="M247,411.9c4.6,0,5.6,0,10.3,0"/>
	<line class="st1" x1="260.8" y1="411.9" x2="293.3" y2="411.9"/>
	<path class="st1" d="M296.9,411.9c9.7,0,17.5,0,27.2,0"/>
	<path class="st1" d="M323.2,409c-3.2,0-5.1,0-8.3,0"/>
	<line class="st1" x1="311.3" y1="409" x2="278.8" y2="409"/>
	<path class="st1" d="M275.3,409c-10.2,0-17.2,0-27.4,0"/>
	<path class="st1" d="M248.9,406.2c3.7,0,4.7,0,8.4,0"/>
	<line class="st1" x1="260.8" y1="406.2" x2="293.3" y2="406.2"/>
	<path class="st1" d="M296.9,406.2c8.9,0,16.4,0,25.3,0"/>
	<path class="st1" d="M320.8,403.3c-2.5,0-3.5,0-5.9,0"/>
	<line class="st1" x1="311.3" y1="403.3" x2="278.8" y2="403.3"/>
	<path class="st1" d="M275.3,403.3c-9.7,0-15.4,0-25,0"/>
	<path class="st1" d="M252,400.4c2.9,0,2.4,0,5.3,0"/>
	<line class="st1" x1="260.8" y1="400.4" x2="293.3" y2="400.4"/>
	<path class="st1" d="M296.9,400.4c8.2,0,14,0,22.2,0"/>
	<path class="st1" d="M317.6,397.6c-2.1,0-0.6,0-2.7,0"/>
	<line class="st1" x1="311.3" y1="397.6" x2="278.8" y2="397.6"/>
	<path class="st1" d="M275.3,397.6c-7.9,0-13.9,0-21.8,0"/>
	<path class="st1" d="M255.1,394.7c1.5,0,0.7,0,2.2,0"/>
	<line class="st1" x1="260.8" y1="394.7" x2="293.3" y2="394.7"/>
	<path class="st1" d="M296.9,394.7c7.1,0,12.3,0,19.4,0"/>
	<line class="st1" x1="311.3" y1="391.8" x2="278.8" y2="391.8"/>
	<path class="st1" d="M275.3,391.8c-7.1,0-12,0-19.1,0"/>
	<line class="st1" x1="260.8" y1="389.1" x2="293.3" y2="389.1"/>
	<path class="st1" d="M296.9,389.1c6.5,0,10.2,0,16.7,0"/>
	<line class="st1" x1="311.3" y1="386.3" x2="278.8" y2="386.3"/>
	<path class="st1" d="M275.3,386.3c-5.9,0-10.5,0-16.4,0"/>
	<line class="st1" x1="260.8" y1="383.4" x2="293.3" y2="383.4"/>
	<path class="st1" d="M296.9,383.4c5.6,0,8.3,0,13.9,0"/>
	<line class="st1" x1="309.4" y1="380.5" x2="278.8" y2="380.5"/>
	<path class="st1" d="M275.3,380.5c-5,0-8.6,0-13.6,0"/>
	<line class="st1" x1="262.6" y1="377.7" x2="293.3" y2="377.7"/>
	<path class="st1" d="M296.9,377.7c4.5,0,7,0,11.5,0"/>
	<path class="st1" d="M307.8,374.8c-10.2,0-18.7,0-29,0"/>
	<path class="st1" d="M275.3,374.8c-5,0-7,0-12,0"/>
	<path class="st1" d="M263.9,372c10.6,0,18.8,0,29.4,0"/>
	<path class="st1" d="M296.9,372c3.7,0,6.6,0,10.3,0"/>
	<path class="st1" d="M306.6,369.1c-9.6,0-18.2,0-27.8,0"/>
	<path class="st1" d="M275.3,369.1c-4.1,0-6.8,0-10.9,0"/>
	<path class="st1" d="M264.9,366.4c10.1,0,18.2,0,28.4,0"/>
	<path class="st1" d="M296.9,366.4c3.4,0,5.8,0,9.2,0"/>
	<path class="st1" d="M305.6,363.5c-9.1,0-17.7,0-26.8,0"/>
	<path class="st1" d="M275.3,363.5c-4.1,0-5.7,0-9.8,0"/>
	<path class="st1" d="M266,360.7c9.7,0,17.7,0,27.3,0"/>
	<path class="st1" d="M296.9,360.7c2.9,0,5.3,0,8.2,0"/>
	<path class="st1" d="M304.6,357.8c-8.8,0-17,0-25.8,0"/>
	<path class="st1" d="M275.3,357.8c-3.2,0-5.6,0-8.8,0"/>
	<path class="st1" d="M267,354.9c9.1,0,17.3,0,26.3,0"/>
	<path class="st1" d="M296.9,354.9c2.5,0,5,0,7.5,0"/>
	<path class="st1" d="M303.5,352.1c-8.5,0-16.3,0-24.7,0"/>
	<path class="st1" d="M275.3,352.1c-3,0-4.8,0-7.8,0"/>
	<path class="st1" d="M268,349.2c9.4,0,15.9,0,25.3,0"/>
	<path class="st1" d="M296.9,349.2c2.3,0,3.8,0,6.1,0"/>
	<path class="st1" d="M302.5,346.4c-8.3,0-15.4,0-23.7,0"/>
	<path class="st1" d="M275.3,346.4c-3.2,0-3.5,0-6.7,0"/>
	<path class="st1" d="M269.1,343.7c8.8,0,15.4,0,24.2,0"/>
	<path class="st1" d="M296.9,343.7c2.3,0,2.7,0,5.1,0"/>
	<path class="st1" d="M301.4,340.8c-8.3,0-14.3,0-22.6,0"/>
	<path class="st1" d="M275.3,340.8c-2.5,0-3.1,0-5.6,0"/>
	<path class="st1" d="M270.3,337.9c8.3,0,14.7,0,23,0"/>
	<path class="st1" d="M296.9,337.9c1.8,0,2.1,0,3.9,0"/>
	<path class="st1" d="M300.1,335.1c-7.5,0-13.8,0-21.3,0"/>
	<path class="st1" d="M275.3,335.1c-1.8,0-2.6,0-4.3,0"/>
	<path class="st1" d="M271.8,332.2c7.5,0,13.9,0,21.5,0"/>
	<path class="st1" d="M296.9,332.2c1.1,0,1.2,0,2.4,0"/>
</g>
<g id="test_4_">
	<path id="XMLID_6_" class="st2" d="M241.2,296.8c-3.3-1.5-56.1,22.1-62.1,23c-3.1,0.4-26.6,4.5-26.6,4.5
		c-13.8,0.2-29.1,8.3-42,15.4l-12.3,8c-12.7,10-23.9,19.5-28.1,33l-12.4,32.1c-0.6,1.5-1.2,3.2-0.4,4.9c0.9,1.6,2.8,1.8,4.4,2
		l34,5.3c13.7,3,27.6-1.8,42.6-7.8l13.1-6.5c12.6-7.6,27.2-16.8,34.3-28.7c0,0,15.2-18.3,17.2-20.8c3.7-4.8,50.6-38.9,50.9-42.3"/>
</g>
<g id="surface6361_4_">
	<line class="st1" x1="58.4" y1="414.5" x2="60.5" y2="418.2"/>
	<line class="st1" x1="63.9" y1="418.3" x2="59.8" y2="411.3"/>
	<path class="st1" d="M60.2,406.2c3.2,5.5,4.3,7.4,7.4,12.9"/>
	<line class="st1" x1="72.1" y1="421.1" x2="62.9" y2="405.1"/>
	<path class="st1" d="M62.9,399.4c3.7,6.5,6,10.4,9.7,16.9"/>
	<path class="st1" d="M74.4,419.4c1.5,2.6,0,0,1.5,2.6"/>
	<path class="st1" d="M79.4,422.3c-4.7-8.2-6.8-11.8-11.6-20"/>
	<path class="st1" d="M66.1,399.2c-0.9-1.6-0.9-1.6-1.9-3.3"/>
	<path class="st1" d="M65.5,392.5c4.3,7.5,7.7,13.3,12,20.8"/>
	<path class="st1" d="M79.4,416.5c2.1,3.7,1.5,2.6,3.7,6.3"/>
	<line class="st1" x1="86.5" y1="423.4" x2="72.7" y2="399.5"/>
	<path class="st1" d="M70.9,396.4c-1.9-3.2-2.3-3.9-4.1-7.1"/>
	<line class="st1" x1="68.1" y1="385.9" x2="82.4" y2="410.6"/>
	<path class="st1" d="M84.2,413.7c3.3,5.6,2.6,4.6,5.9,10.2"/>
	<line class="st1" x1="93.9" y1="424.8" x2="77.6" y2="396.6"/>
	<path class="st1" d="M75.9,393.6c-2.9-4.9-3.6-6.2-6.4-11.1"/>
	<line class="st1" x1="71.1" y1="379.6" x2="87.4" y2="407.7"/>
	<path class="st1" d="M89.2,410.9c3.3,5.7,4.9,8.5,8.2,14.3"/>
	<line class="st1" x1="98.8" y1="421.9" x2="82.6" y2="393.7"/>
	<path class="st1" d="M80.8,390.7c-3.3-5.7-5.4-9.4-8.7-15.1"/>
	<path class="st1" d="M73.7,372.6c0.6,1.1,0,0,0.6,1.1"/>
	<line class="st1" x1="76.1" y1="376.7" x2="92.3" y2="404.9"/>
	<path class="st1" d="M94.1,408c3.6,6.2,6.6,11.5,10.2,17.7"/>
	<path class="st1" d="M107.6,425.6c-0.9-1.5-1.1-1.9-2-3.4"/>
	<line class="st1" x1="103.8" y1="419" x2="87.5" y2="390.9"/>
	<path class="st1" d="M85.8,387.9c-4-7-6.4-11-10.4-18"/>
	<path class="st1" d="M77.2,367.3c1,1.7,1,1.8,2,3.5"/>
	<line class="st1" x1="81" y1="373.9" x2="97.3" y2="402"/>
	<path class="st1" d="M99.1,405.1c4.2,7.2,7.5,13,11.6,20.2"/>
	<path class="st1" d="M113.6,424.8c-1.3-2.3-1.8-3.2-3.2-5.5"/>
	<line class="st1" x1="108.6" y1="416.2" x2="92.4" y2="388.1"/>
	<path class="st1" d="M90.6,385.1c-4.1-7-7.5-13-11.6-20"/>
	<path class="st1" d="M81,362.8c1.1,2,1.9,3.3,3,5.3"/>
	<line class="st1" x1="85.8" y1="371.1" x2="102.1" y2="399.2"/>
	<path class="st1" d="M103.9,402.3c4.7,8.1,8,13.8,12.6,21.9"/>
	<path class="st1" d="M119.4,423.5c-1.6-2.8-2.4-4.2-4.1-7"/>
	<line class="st1" x1="113.6" y1="413.4" x2="97.3" y2="385.2"/>
	<path class="st1" d="M95.6,382.2c-4.4-7.6-8.1-14-12.5-21.6"/>
	<path class="st1" d="M85.2,358.6c1.6,2.7,2.3,3.9,3.8,6.6"/>
	<line class="st1" x1="90.8" y1="368.2" x2="107.1" y2="396.4"/>
	<path class="st1" d="M108.9,399.5c4.7,8.2,8.7,15.1,13.4,23.3"/>
	<path class="st1" d="M125.1,421.9c-1.8-3.2-2.9-5-4.8-8.2"/>
	<line class="st1" x1="118.5" y1="410.5" x2="102.3" y2="382.4"/>
	<path class="st1" d="M100.5,379.3c-4.7-8.1-8.5-14.7-13.1-22.8"/>
	<path class="st1" d="M89.6,354.7c2,3.4,2.5,4.3,4.4,7.7"/>
	<line class="st1" x1="95.8" y1="365.4" x2="112" y2="393.5"/>
	<path class="st1" d="M113.8,396.6c5.1,8.8,9,15.6,14,24.3"/>
	<line class="st1" x1="130.6" y1="420" x2="125.3" y2="410.8"/>
	<line class="st1" x1="123.5" y1="407.7" x2="107.2" y2="379.5"/>
	<line class="st1" x1="105.5" y1="376.5" x2="91.7" y2="352.9"/>
	<path class="st1" d="M94.1,350.9c1.9,3.3,3,5.2,4.9,8.5"/>
	<line class="st1" x1="100.7" y1="362.5" x2="117" y2="390.6"/>
	<line class="st1" x1="118.8" y1="393.8" x2="133.3" y2="418.9"/>
	<path class="st1" d="M135.9,417.9c-2.3-3.9-3.5-6-5.7-10"/>
	<line class="st1" x1="128.3" y1="404.9" x2="112.1" y2="376.7"/>
	<path class="st1" d="M110.3,373.7c-5-8.6-9.2-15.8-14.1-24.5"/>
	<path class="st1" d="M98.5,347.5c2.2,3.8,3.2,5.5,5.3,9.2"/>
	<line class="st1" x1="105.5" y1="359.7" x2="121.8" y2="387.9"/>
	<line class="st1" x1="123.6" y1="391" x2="138.5" y2="416.9"/>
	<path class="st1" d="M141.1,415.6c-2.2-3.8-3.9-6.7-6-10.4"/>
	<line class="st1" x1="133.3" y1="402" x2="117" y2="373.9"/>
	<path class="st1" d="M115.3,370.8c-5.2-9-9.2-15.9-14.4-24.9"/>
	<path class="st1" d="M103.3,344.3c2.1,3.7,3.3,5.8,5.5,9.5"/>
	<line class="st1" x1="110.5" y1="356.8" x2="126.7" y2="385"/>
	<path class="st1" d="M128.5,388.1c0,0,15,26.2,15.1,26.2"/>
	<line class="st1" x1="146.2" y1="413" x2="140" y2="402.3"/>
	<line class="st1" x1="138.2" y1="399.1" x2="122" y2="371"/>
	<path class="st1" d="M120.2,368c-5.2-9.1-9.3-16.1-14.5-25.2"/>
	<path class="st1" d="M108,341.1c2.3,4,3.4,5.9,5.7,9.9"/>
	<line class="st1" x1="115.5" y1="354" x2="131.7" y2="382.1"/>
	<line class="st1" x1="133.5" y1="385.2" x2="148.9" y2="411.9"/>
	<line class="st1" x1="151.4" y1="410.4" x2="145" y2="399.4"/>
	<line class="st1" x1="143.2" y1="396.3" x2="126.9" y2="368.1"/>
	<line class="st1" x1="125.2" y1="365.1" x2="110.5" y2="339.6"/>
	<path class="st1" d="M112.8,338.3c2.2,3.8,3.5,6,5.7,9.9"/>
	<line class="st1" x1="120.3" y1="351.2" x2="136.5" y2="379.3"/>
	<line class="st1" x1="138.3" y1="382.5" x2="153.7" y2="409"/>
	<path class="st1" d="M156.1,407.5c-2.5-4.3-3.8-6.6-6.3-10.9"/>
	<line class="st1" x1="148" y1="393.5" x2="131.8" y2="365.4"/>
	<path class="st1" d="M130,362.3c-5.3-9.1-9.5-16.1-14.7-25.3"/>
	<path class="st1" d="M117.9,335.7c2.4,4.1,3.2,5.5,5.6,9.6"/>
	<line class="st1" x1="125.2" y1="348.3" x2="141.5" y2="376.5"/>
	<line class="st1" x1="143.3" y1="379.6" x2="158.5" y2="406"/>
	<path class="st1" d="M161,404.5c-2.3-4-3.9-6.8-6.2-10.7"/>
	<line class="st1" x1="153" y1="390.6" x2="136.7" y2="362.5"/>
	<path class="st1" d="M135,359.5c-5.3-9.1-9.2-16-14.5-25.1"/>
	<path class="st1" d="M123,333.1c2.2,3.8,3.2,5.6,5.4,9.4"/>
	<line class="st1" x1="130.2" y1="345.5" x2="146.4" y2="373.6"/>
	<line class="st1" x1="148.2" y1="376.7" x2="163.3" y2="402.9"/>
	<line class="st1" x1="165.7" y1="401.3" x2="159.7" y2="390.9"/>
	<line class="st1" x1="157.9" y1="387.8" x2="141.7" y2="359.6"/>
	<path class="st1" d="M139.9,356.6c-5.2-8.9-9.2-15.9-14.3-24.8"/>
	<path class="st1" d="M128.2,330.6c2.2,3.8,2.9,5.1,5.2,8.9"/>
	<line class="st1" x1="135.2" y1="342.6" x2="151.4" y2="370.8"/>
	<line class="st1" x1="153.2" y1="373.9" x2="168" y2="399.6"/>
	<path class="st1" d="M170.4,397.9c-2.4-4.2-3.3-5.6-5.7-9.8"/>
	<line class="st1" x1="162.9" y1="384.9" x2="146.6" y2="356.8"/>
	<path class="st1" d="M144.9,353.7c-5.1-8.8-8.9-15.4-14-24.2"/>
	<path class="st1" d="M133.4,328.5c1.9,3.2,2.9,5.1,4.8,8.3"/>
	<line class="st1" x1="140" y1="339.8" x2="156.2" y2="368"/>
	<path class="st1" d="M158,371.1c5.2,9,9.3,16.1,14.5,25.1"/>
	<path class="st1" d="M174.7,394.3c-2.1-3.6-3.2-5.5-5.2-9"/>
	<line class="st1" x1="167.7" y1="382.1" x2="151.5" y2="354"/>
	<path class="st1" d="M149.7,351c-4.8-8.4-8.8-15.2-13.6-23.5"/>
	<path class="st1" d="M138.9,326.6c1.8,3.1,2.4,4.2,4.2,7.3"/>
	<line class="st1" x1="144.9" y1="337" x2="161.2" y2="365.1"/>
	<path class="st1" d="M163,368.2c5,8.6,8.9,15.5,13.9,24.1"/>
	<path class="st1" d="M179,390.3c-2-3.5-2.5-4.4-4.5-7.9"/>
	<line class="st1" x1="172.7" y1="379.3" x2="156.4" y2="351.1"/>
	<path class="st1" d="M154.7,348.1c-4.9-8.4-8-13.9-12.9-22.3"/>
	<path class="st1" d="M144.7,325.1c1.6,2.8,1.8,3.2,3.4,5.9"/>
	<line class="st1" x1="149.9" y1="334.1" x2="166.1" y2="362.2"/>
	<path class="st1" d="M167.9,365.4c4.7,8.1,8.4,14.6,13.1,22.7"/>
	<path class="st1" d="M183,385.7c-1.4-2.4-2.2-3.8-3.6-6.2"/>
	<line class="st1" x1="177.6" y1="376.4" x2="161.4" y2="348.3"/>
	<path class="st1" d="M159.6,345.2c-4.3-7.5-7.5-13.1-11.9-20.6"/>
	<path class="st1" d="M150.9,324.3c1.3,2.2,1,1.7,2.2,3.9"/>
	<line class="st1" x1="154.9" y1="331.2" x2="171.1" y2="359.4"/>
	<path class="st1" d="M172.9,362.5c4.2,7.2,7.8,13.4,11.9,20.6"/>
	<path class="st1" d="M186.7,380.6c-1.1-1.9-1.2-2-2.3-3.9"/>
	<line class="st1" x1="182.6" y1="373.5" x2="166.3" y2="345.4"/>
	<path class="st1" d="M164.6,342.4c-3.9-6.8-6.7-11.6-10.6-18.4"/>
	<path class="st1" d="M156.8,323.5c0.7,1.1,0.4,0.7,1.1,1.9"/>
	<line class="st1" x1="159.7" y1="328.5" x2="175.9" y2="356.6"/>
	<path class="st1" d="M177.7,359.7c4.1,7,6.7,11.6,10.8,18.7"/>
	<path class="st1" d="M190.4,376c-0.9-1.6-0.3-0.5-1.2-2.2"/>
	<line class="st1" x1="187.4" y1="370.8" x2="171.2" y2="342.6"/>
	<path class="st1" d="M169.4,339.6c-3.5-6-6.1-10.5-9.6-16.6"/>
	<line class="st1" x1="164.6" y1="325.6" x2="180.9" y2="353.7"/>
	<path class="st1" d="M182.7,356.9c3.5,6,6.3,10.8,9.7,16.8"/>
	<line class="st1" x1="192.4" y1="367.9" x2="176.1" y2="339.7"/>
	<path class="st1" d="M174.4,336.7c-3.5-6-5.1-8.7-8.5-14.7"/>
	<line class="st1" x1="169.6" y1="322.7" x2="185.8" y2="350.9"/>
	<path class="st1" d="M187.6,354c3.1,5.4,5.6,9.6,8.6,15"/>
	<line class="st1" x1="197.3" y1="365" x2="181.1" y2="336.9"/>
	<path class="st1" d="M179.3,333.9c-3.1-5.3-4.4-7.5-7.4-12.9"/>
	<line class="st1" x1="174.9" y1="320.5" x2="190.8" y2="348"/>
	<path class="st1" d="M192.6,351.1c3,5.2,4.6,7.9,7.6,13.1"/>
	<line class="st1" x1="202.1" y1="361.9" x2="186" y2="334"/>
	<path class="st1" d="M184.3,331c-2.6-4.4-3.8-6.6-6.4-11"/>
	<path class="st1" d="M180.7,319.4c5.3,9.5,9,15.9,14.9,25.8"/>
	<path class="st1" d="M197.4,348.3c2.4,4.1,4.2,7.3,6.6,11.4"/>
	<path class="st1" d="M206.2,357.8c-5.5-9.5-9.8-17-15.3-26.6"/>
	<path class="st1" d="M189.1,328.2c-2.2-3.8-3.4-5.9-5.6-9.7"/>
	<path class="st1" d="M186.2,317.5c5.1,8.9,9.2,16,14.4,24.9"/>
	<path class="st1" d="M202.4,345.5c2.2,3.8,3.8,6.6,6,10.5"/>
	<path class="st1" d="M210.7,354.1c-5.2-9-9.6-16.7-14.9-25.8"/>
	<path class="st1" d="M194.1,325.3c-2.1-3.7-3-5.2-5.1-8.9"/>
	<path class="st1" d="M191.6,315.4c5.1,8.8,8.9,15.4,13.9,24.1"/>
	<path class="st1" d="M207.3,342.6c2.2,3.8,3.4,5.9,5.6,9.7"/>
	<path class="st1" d="M215.2,350.5c-5.1-8.9-9.3-16.1-14.4-25"/>
	<path class="st1" d="M199,322.5c-2.1-3.7-2.6-4.5-4.7-8.2"/>
	<path class="st1" d="M197,313.2c5.2,9.1,8.3,14.3,13.5,23.4"/>
	<path class="st1" d="M212.3,339.8c2,3.4,3.2,5.6,5.2,9"/>
	<path class="st1" d="M219.8,347.1c-4.9-8.4-9.2-16-14.1-24.4"/>
	<path class="st1" d="M204,319.6c-2.3-4-2-3.5-4.3-7.5"/>
	<line class="st1" x1="202.2" y1="311.1" x2="215.3" y2="333.9"/>
	<path class="st1" d="M217.1,337c1.8,3,3,5.3,4.8,8.3"/>
	<path class="st1" d="M224.2,343.5c-4.7-8.1-8.9-15.5-13.6-23.6"/>
	<path class="st1" d="M208.8,316.8c-2.6-4.4-1.4-2.4-3.9-6.8"/>
	<line class="st1" x1="207.5" y1="308.9" x2="220.3" y2="331"/>
	<path class="st1" d="M222.1,334.1c1.6,2.8,2.8,4.9,4.4,7.6"/>
	<path class="st1" d="M228.7,340c-4.7-8.1-8.5-14.9-13.1-23"/>
	<path class="st1" d="M213.8,314c-2.9-5-0.6-1.1-3.5-6.1"/>
	<line class="st1" x1="212.9" y1="306.8" x2="225.2" y2="328.1"/>
	<path class="st1" d="M227,331.2c1.8,3,2.2,3.9,4,6.9"/>
	<path class="st1" d="M233.3,336.4c-4.9-8.4-8-13.8-12.8-22.2"/>
	<path class="st1" d="M218.7,311.1c-2-3.5-1-1.8-3.1-5.3"/>
	<path class="st1" d="M218.3,304.6c4.7,8.1,7.2,12.5,11.9,20.7"/>
	<path class="st1" d="M232,328.4c1.9,3.4,1.7,3,3.7,6.3"/>
	<path class="st1" d="M237.7,332.9c-5.1-8.8-7.4-12.7-12.4-21.5"/>
	<path class="st1" d="M223.5,308.3c-1.4-2.5-1.2-2.1-2.7-4.6"/>
	<line class="st1" x1="242.2" y1="329.3" x2="233" y2="313.3"/>
	<path class="st1" d="M228.5,305.5c-1.1-2-1.1-2-2.3-3.9"/>
	<path class="st1" d="M228.9,300.5c4,7,7,12.2,11.1,19.2"/>
	<path class="st1" d="M241.8,322.7c1.3,2.2,1.5,2.5,2.7,4.7"/>
	<path class="st1" d="M246.7,325.5c-3.2-5.6-5.5-9.5-8.7-15.1"/>
	<path class="st1" d="M233.4,302.6c-1-1.7-0.8-1.4-1.8-3.2"/>
	<path class="st1" d="M234.4,298.5c3.9,6.7,6.7,11.5,10.6,18.3"/>
	<path class="st1" d="M246.7,319.9c0.9,1.6,1.3,2.2,2.2,3.8"/>
	<path class="st1" d="M251.1,321.8c-3.9-6.7-7.1-12.3-11-19"/>
	<path class="st1" d="M238.4,299.7c-1-1.7-0.2-0.3-1.2-2.1"/>
	<path class="st1" d="M240,296.8c4,7,5.8,10,9.8,17.1"/>
	<path class="st1" d="M251.7,317c0.8,1.4,0.7,1.2,1.5,2.6"/>
</g>
<path class="st1" d="M223.7,302.5c4.7,8.1,8.3,14.3,13,22.5"/>
<path class="st1" d="M238.5,328c1.9,3.4-0.3-0.4,1.7,2.9"/>
<g id="test_5_">
	<path id="XMLID_16_" class="st2" d="M317.8,318.2l-0.1,0.2"/>
	<path id="XMLID_15_" class="st2" d="M330.3,296.6l-0.3,0.5"/>
	<path id="XMLID_14_" class="st2" d="M330.3,296.6c3.5-1.2,67.9,28.9,75,30.4c3.7,0.8,31.6,7.3,31.6,7.3
		c16.2,1.6,34.9,11.6,50.7,20.4l15.1,9.7c15.9,11.8,29.8,23.1,36.2,37.6l17.7,35.1c0.9,1.6,2,3.5,1,5.1c-1.1,1.5-3.1,1.6-4.9,1.7
		l-39.3,2.2c-15.8,1.9-32.5-4.6-50.7-12.5l-15.9-8.3c-15.5-9.3-33.5-20.5-43-33.7c0,0-19.6-20.8-22.1-23.7
		c-4.8-5.4-63-45.9-63.8-49.7"/>
	<path id="XMLID_10_" class="st2" d="M329.6,331.2"/>
</g>
<g>
	<g id="surface6361_6_">
		<path class="st1" d="M554.4,443c3.2-5.5-1.1,1.9,2.1-3.6"/>
		<path class="st1" d="M554.8,436.4c-3.1,5.4-0.8,1.4-3.9,6.8"/>
		<path class="st1" d="M547.7,443c3.3-5.7,3-5.1,6.2-10.8"/>
		<path class="st1" d="M552.4,429.1c-3.3,5.8-4.6,8-8,13.8"/>
		<path class="st1" d="M540.1,444.7c3.6-6.2,5.5-9.5,9.1-15.7"/>
		<path class="st1" d="M549.3,423c-3.6,6.2-6.3,10.9-9.9,17.1"/>
		<path class="st1" d="M537.7,443.1c-0.8,1.4-0.2,0.4-1,1.8"/>
		<path class="st1" d="M533.3,445.1c4-7,6.9-12,11-19"/>
		<path class="st1" d="M546,423c0.8-1.3,1-1.7,1.8-3"/>
		<path class="st1" d="M546.3,417.1c-4.1,7.1-7.6,13.1-11.7,20.2"/>
		<path class="st1" d="M532.9,440.4c-1.2,2.1-1.6,2.8-2.8,4.9"/>
		<path class="st1" d="M526.6,445.5c4.5-7.9,8.2-14.3,12.8-22.1"/>
		<path class="st1" d="M541.2,420.2c1.4-2.4,2.3-4,3.7-6.4"/>
		<path class="st1" d="M543.3,410.9c-4.7,8.2-8.9,15.4-13.6,23.6"/>
		<path class="st1" d="M527.9,437.5c-1.9,3.2-2.9,5-4.7,8.2"/>
		<path class="st1" d="M519.8,445.9c5.3-9.1,9.4-16.3,14.7-25.4"/>
		<path class="st1" d="M536.3,417.4c2.3-3.9,3.2-5.5,5.5-9.4"/>
		<line class="st1" x1="540.2" y1="405" x2="524.7" y2="431.6"/>
		<path class="st1" d="M523,434.6c-2.6,4.5-3.8,6.9-6.4,11.4"/>
		<line class="st1" x1="513.7" y1="445" x2="529.5" y2="417.6"/>
		<path class="st1" d="M531.3,414.5c3.1-5.4,4.2-7.3,7.3-12.7"/>
		<line class="st1" x1="536" y1="400.6" x2="519.8" y2="428.7"/>
		<path class="st1" d="M518,431.8c-3.2,5.6-5.3,9.2-8.5,14.8"/>
		<line class="st1" x1="508.3" y1="442.9" x2="524.5" y2="414.8"/>
		<path class="st1" d="M526.3,411.6c3.4-5.8,5.8-10,9.1-15.8"/>
		<path class="st1" d="M533.8,393.3c-0.6,1-0.2,0.4-0.8,1.4"/>
		<line class="st1" x1="531.2" y1="397.8" x2="514.9" y2="426"/>
		<path class="st1" d="M513.2,429c-3.6,6.3-6.4,11-10,17.4"/>
		<path class="st1" d="M500.1,446c1.3-2.2,0.4-0.7,1.7-2.9"/>
		<line class="st1" x1="503.5" y1="440.1" x2="519.7" y2="412"/>
		<path class="st1" d="M521.5,408.9c3.8-6.6,6.6-11.5,10.4-18.1"/>
		<path class="st1" d="M530,388.4c-1.1,1.9-0.9,1.5-2,3.4"/>
		<line class="st1" x1="526.2" y1="395" x2="510" y2="423.1"/>
		<path class="st1" d="M508.2,426.1c-4.4,7.6-6.9,11.9-11.2,19.4"/>
		<path class="st1" d="M494.1,445c1.6-2.7,1.1-2,2.7-4.7"/>
		<line class="st1" x1="498.5" y1="437.3" x2="514.8" y2="409.1"/>
		<path class="st1" d="M516.6,406c4.5-7.8,7-12.1,11.5-19.9"/>
		<path class="st1" d="M526,384c-1.4,2.4-1.5,2.6-2.9,5"/>
		<line class="st1" x1="521.3" y1="392.1" x2="505" y2="420.2"/>
		<path class="st1" d="M503.3,423.3c-4.7,8.2-7.4,12.8-12.1,21"/>
		<path class="st1" d="M488.3,443.5c1.8-3.1,1.7-3,3.5-6.1"/>
		<line class="st1" x1="493.5" y1="434.4" x2="509.8" y2="406.2"/>
		<path class="st1" d="M511.6,403.1c4.3-7.5,8-13.8,12.3-21.3"/>
		<path class="st1" d="M521.7,379.8c-1.4,2.4-2.2,3.9-3.6,6.3"/>
		<line class="st1" x1="516.3" y1="389.2" x2="500.1" y2="417.4"/>
		<path class="st1" d="M498.3,420.4c-4.9,8.4-8,13.8-12.8,22.2"/>
		<path class="st1" d="M482.8,441.6c2-3.5,2.1-3.6,4.1-7.1"/>
		<line class="st1" x1="488.6" y1="431.5" x2="504.8" y2="403.4"/>
		<path class="st1" d="M506.6,400.3c4.5-7.7,8.5-14.7,12.9-22.4"/>
		<path class="st1" d="M517.5,376.1c-1.5,2.6-2.7,4.6-4.2,7.2"/>
		<line class="st1" x1="511.5" y1="386.4" x2="495.2" y2="414.6"/>
		<path class="st1" d="M493.5,417.6c-5.2,9-8.2,14.2-13.4,23.2"/>
		<path class="st1" d="M477.4,439.8c2.2-3.7,2.5-4.3,4.6-8"/>
		<line class="st1" x1="483.8" y1="428.7" x2="500" y2="400.6"/>
		<path class="st1" d="M501.8,397.5c4.6-8,8.8-15.2,13.4-23.3"/>
		<path class="st1" d="M513,372.4c-1.8,3.2-2.8,4.9-4.7,8.1"/>
		<line class="st1" x1="506.5" y1="383.6" x2="490.3" y2="411.7"/>
		<path class="st1" d="M488.5,414.8c-5.2,9-8.6,15-13.9,24"/>
		<path class="st1" d="M472,437.7c2.4-4.2,2.6-4.6,5.1-8.8"/>
		<line class="st1" x1="478.8" y1="425.9" x2="495.1" y2="397.7"/>
		<path class="st1" d="M496.9,394.6c5.1-8.8,8.8-15.2,13.9-24"/>
		<path class="st1" d="M508.4,368.8c-2.4,4.1-2.7,4.6-5.1,8.8"/>
		<line class="st1" x1="501.6" y1="380.7" x2="485.3" y2="408.9"/>
		<line class="st1" x1="483.6" y1="411.9" x2="469.3" y2="436.6"/>
		<path class="st1" d="M466.6,435.5c2.4-4.1,3.1-5.4,5.5-9.5"/>
		<line class="st1" x1="473.9" y1="423" x2="490.1" y2="394.9"/>
		<line class="st1" x1="491.9" y1="391.8" x2="506.1" y2="367.1"/>
		<path class="st1" d="M503.8,365.4c-2.2,3.8-3.2,5.5-5.4,9.4"/>
		<line class="st1" x1="496.6" y1="377.9" x2="480.4" y2="406"/>
		<line class="st1" x1="478.6" y1="409" x2="464" y2="434.3"/>
		<path class="st1" d="M461.6,433.2c2.6-4.4,3.2-5.5,5.7-9.9"/>
		<line class="st1" x1="469" y1="420.2" x2="485.3" y2="392.1"/>
		<path class="st1" d="M487.1,389c5.2-8.9,9.3-16.2,14.5-25.1"/>
		<path class="st1" d="M499.1,362.4c-2,3.5-3.5,6-5.5,9.5"/>
		<line class="st1" x1="491.8" y1="375.1" x2="475.6" y2="403.2"/>
		<line class="st1" x1="473.8" y1="406.2" x2="459" y2="431.9"/>
		<path class="st1" d="M456.5,430.5c2.5-4.3,3.4-5.9,5.8-10.1"/>
		<line class="st1" x1="464.1" y1="417.4" x2="480.3" y2="389.2"/>
		<path class="st1" d="M482.1,386.1c4.9-8.6,9.9-17.1,14.8-25.7"/>
		<path class="st1" d="M494.4,359.2c-2,3.5-3.7,6.5-5.7,9.9"/>
		<line class="st1" x1="486.8" y1="372.2" x2="470.6" y2="400.4"/>
		<line class="st1" x1="468.8" y1="403.4" x2="453.9" y2="429.2"/>
		<path class="st1" d="M451.4,427.9c2.5-4.3,3.5-6,6-10.3"/>
		<line class="st1" x1="459.1" y1="414.5" x2="475.4" y2="386.4"/>
		<path class="st1" d="M477.2,383.2c5-8.7,10.1-17.4,15.1-26.2"/>
		<path class="st1" d="M489.6,356c-2.1,3.7-3.8,6.6-5.9,10.3"/>
		<line class="st1" x1="481.9" y1="369.3" x2="465.6" y2="397.5"/>
		<line class="st1" x1="463.9" y1="400.5" x2="448.9" y2="426.6"/>
		<path class="st1" d="M446.3,425.2c2.5-4.3,3.6-6.3,6.1-10.5"/>
		<line class="st1" x1="454.2" y1="411.6" x2="470.4" y2="383.5"/>
		<path class="st1" d="M472.2,380.4c5.2-9.1,9.7-16.8,14.9-25.9"/>
		<path class="st1" d="M484.6,353.1c-2.4,4.2-3.5,6-5.9,10.2"/>
		<line class="st1" x1="476.9" y1="366.5" x2="460.7" y2="394.6"/>
		<line class="st1" x1="458.9" y1="397.7" x2="443.9" y2="423.7"/>
		<path class="st1" d="M441.5,422.4c2.7-4.7,3.4-5.8,6.1-10.5"/>
		<line class="st1" x1="449.3" y1="408.9" x2="465.6" y2="380.7"/>
		<line class="st1" x1="467.4" y1="377.6" x2="482.3" y2="351.8"/>
		<path class="st1" d="M479.7,350.5c-2.4,4.1-3.4,5.9-5.8,10.1"/>
		<line class="st1" x1="472.1" y1="363.7" x2="455.9" y2="391.8"/>
		<line class="st1" x1="454.1" y1="394.9" x2="439.1" y2="420.8"/>
		<path class="st1" d="M436.7,419.4c2.4-4.2,3.5-6.1,6-10.3"/>
		<line class="st1" x1="444.4" y1="406" x2="460.6" y2="377.9"/>
		<path class="st1" d="M462.4,374.7c14.8-25.7,0,0,14.8-25.7"/>
		<path class="st1" d="M474.7,347.8c-2.2,3.7-3.6,6.2-5.7,9.9"/>
		<line class="st1" x1="467.1" y1="360.8" x2="450.9" y2="389"/>
		<line class="st1" x1="449.1" y1="392" x2="434.3" y2="417.8"/>
		<path class="st1" d="M431.9,416.2c2.4-4.1,3.4-5.9,5.8-10"/>
		<line class="st1" x1="439.4" y1="403.1" x2="455.7" y2="375"/>
		<path class="st1" d="M457.5,371.9c5.2-8.9,9.5-16.4,14.6-25.4"/>
		<path class="st1" d="M469.6,345.2c-2,3.4-3.6,6.3-5.6,9.7"/>
		<line class="st1" x1="462.2" y1="358" x2="445.9" y2="386.1"/>
		<line class="st1" x1="444.2" y1="389.1" x2="429.5" y2="414.6"/>
		<path class="st1" d="M427.1,413c2.3-4,3.3-5.7,5.6-9.7"/>
		<line class="st1" x1="434.5" y1="400.3" x2="450.7" y2="372.1"/>
		<path class="st1" d="M452.5,369c5-8.7,9.4-16.4,14.4-25"/>
		<path class="st1" d="M464.6,342.3c-1.9,3.2-3.7,6.4-5.6,9.7"/>
		<line class="st1" x1="457.2" y1="355.1" x2="441" y2="383.3"/>
		<line class="st1" x1="439.2" y1="386.3" x2="424.8" y2="411.3"/>
		<path class="st1" d="M422.6,409.8c2.3-4,3-5.2,5.3-9.2"/>
		<line class="st1" x1="429.6" y1="397.5" x2="445.9" y2="369.3"/>
		<path class="st1" d="M447.7,366.2c5-8.7,9.2-15.9,14.2-24.6"/>
		<path class="st1" d="M459.2,340.5c-1.9,3.4-3.1,5.3-5,8.7"/>
		<line class="st1" x1="452.4" y1="352.3" x2="436.2" y2="380.5"/>
		<path class="st1" d="M434.4,383.5c-5.2,9-8.9,15.5-14.2,24.5"/>
		<path class="st1" d="M418,406.2c2.1-3.6,2.8-4.9,4.9-8.6"/>
		<line class="st1" x1="424.7" y1="394.6" x2="440.9" y2="366.5"/>
		<path class="st1" d="M442.7,363.4c4.9-8.6,8.9-15.3,13.8-23.9"/>
		<path class="st1" d="M453.9,338.4c-1.8,3.1-2.8,4.9-4.6,8"/>
		<line class="st1" x1="447.4" y1="349.5" x2="431.2" y2="377.6"/>
		<path class="st1" d="M429.4,380.6c-4.9,8.5-8.8,15.3-13.7,23.7"/>
		<path class="st1" d="M413.6,402.5c1.7-3,2.7-4.7,4.4-7.7"/>
		<line class="st1" x1="419.7" y1="391.8" x2="436" y2="363.6"/>
		<path class="st1" d="M437.8,360.5c4.6-8,8.6-15,13.3-23"/>
		<path class="st1" d="M448.2,336.7c-1.6,2.7-2.4,4.1-3.9,6.8"/>
		<line class="st1" x1="442.5" y1="346.6" x2="426.2" y2="374.7"/>
		<path class="st1" d="M424.5,377.8c-4.8,7.8-8.7,14.6-13.2,22.6"/>
		<path class="st1" d="M409.3,398.4c1.7-2.9,2-3.5,3.7-6.4"/>
		<line class="st1" x1="414.8" y1="388.9" x2="431" y2="360.8"/>
		<path class="st1" d="M432.8,357.6c4.5-7.8,8.1-14,12.6-21.8"/>
		<path class="st1" d="M442.4,335.2c-1.4,2.5-1.7,2.9-3.1,5.4"/>
		<line class="st1" x1="437.5" y1="343.7" x2="421.3" y2="371.9"/>
		<path class="st1" d="M419.5,374.9c-4.7,8.1-7.6,13.1-12.3,21.2"/>
		<path class="st1" d="M405.4,394c1.3-2.3,1.4-2.5,2.8-4.8"/>
		<line class="st1" x1="409.9" y1="386.1" x2="426.2" y2="358"/>
		<path class="st1" d="M428,354.9c4.2-7.2,7.5-12.9,11.6-20.1"/>
		<path class="st1" d="M436.6,334.3c-0.9,1.6-1.1,2-2,3.5"/>
		<line class="st1" x1="432.7" y1="341" x2="416.5" y2="369.1"/>
		<path class="st1" d="M414.7,372.1c-4,7-7.2,12.4-11.2,19.4"/>
		<path class="st1" d="M401.5,389.3c0.8-1.3,1-1.7,1.8-3"/>
		<line class="st1" x1="405" y1="383.3" x2="421.2" y2="355.1"/>
		<path class="st1" d="M423,352c3.6-6.2-3.2,5.6,10.6-18.4"/>
		<path class="st1" d="M430.7,332.9c-0.6,1-0.6,1.1-1.2,2"/>
		<line class="st1" x1="427.8" y1="338.1" x2="411.5" y2="366.2"/>
		<path class="st1" d="M409.8,369.3c-3.6,6.2-6.7,11.7-10.3,17.9"/>
		<path class="st1" d="M397.4,385c0.5-0.9,0.4-0.6,0.9-1.6"/>
		<line class="st1" x1="400" y1="380.4" x2="416.3" y2="352.2"/>
		<path class="st1" d="M418.1,349.1c3.5-6,6.3-10.9,9.7-16.9"/>
		<line class="st1" x1="422.8" y1="335.2" x2="406.5" y2="363.4"/>
		<path class="st1" d="M404.8,366.4c-3.4,5.9-6,10.5-9.5,16.4"/>
		<line class="st1" x1="395.1" y1="377.5" x2="411.3" y2="349.4"/>
		<path class="st1" d="M413.1,346.3c3.2-5.6,5.6-9.8,8.9-15.4"/>
		<line class="st1" x1="417.8" y1="332.4" x2="401.6" y2="360.5"/>
		<path class="st1" d="M399.8,363.5c-3.2,5.5-5.4,9.4-8.6,14.9"/>
		<line class="st1" x1="390.2" y1="374.7" x2="406.5" y2="346.6"/>
		<path class="st1" d="M408.3,343.5c3.1-5.4,4.9-8.5,8-13.9"/>
		<line class="st1" x1="413" y1="329.6" x2="396.8" y2="357.7"/>
		<path class="st1" d="M395,360.8c-2.7,4.7-5,8.7-7.8,13.4"/>
		<line class="st1" x1="385.3" y1="371.9" x2="401.5" y2="343.7"/>
		<path class="st1" d="M403.3,340.6c2.9-5,4.3-7.4,7.2-12.4"/>
		<line class="st1" x1="407.6" y1="327.5" x2="391.8" y2="354.9"/>
		<path class="st1" d="M390.1,357.9c-2.5,4.3-4.4,7.6-6.9,11.9"/>
		<line class="st1" x1="381.1" y1="367.6" x2="396.6" y2="340.9"/>
		<path class="st1" d="M398.4,337.8c2.8-4.8,3.5-6.1,6.3-10.9"/>
		<line class="st1" x1="401.9" y1="325.9" x2="386.8" y2="352"/>
		<path class="st1" d="M385.1,355c-2.3,4-3.8,6.6-6.2,10.7"/>
		<line class="st1" x1="376.7" y1="363.9" x2="391.6" y2="338"/>
		<path class="st1" d="M393.4,334.9c2.9-5,2.9-5,5.8-10.1"/>
		<line class="st1" x1="396.7" y1="323.8" x2="382" y2="349.2"/>
		<path class="st1" d="M380.3,352.3c-2.4,4.2-3.3,5.7-5.8,10"/>
		<line class="st1" x1="390.6" y1="322.9" x2="379.8" y2="341.6"/>
		<path class="st1" d="M375.3,349.4c-2,3.5-3.3,5.8-5.4,9.3"/>
		<path class="st1" d="M367.6,357c5-8.6,9.2-16,14.2-24.6"/>
		<path class="st1" d="M383.6,329.3c2.8-4.8,2.3-4,5.1-8.8"/>
		<line class="st1" x1="385.7" y1="320" x2="374.9" y2="338.7"/>
		<path class="st1" d="M370.4,346.5c-1.8,3.2-3.2,5.6-5,8.7"/>
		<path class="st1" d="M363,353.6c4.9-8.5,9-15.6,13.9-24"/>
		<path class="st1" d="M378.7,326.4c2.3-4,2.4-4.2,4.7-8.2"/>
		<path class="st1" d="M380.8,317.1c-5.2,9-8.4,14.6-13.6,23.6"/>
		<path class="st1" d="M365.4,343.7c-1.7,3-3,5.2-4.7,8.2"/>
		<path class="st1" d="M358.4,350.1c4.9-8.5,8.7-15,13.6-23.5"/>
		<path class="st1" d="M373.7,323.5c2-3.5,2.4-4.1,4.4-7.6"/>
		<line class="st1" x1="375.6" y1="314.8" x2="364.3" y2="334.5"/>
		<path class="st1" d="M360.6,340.9c-1.8,3.2-2.6,4.4-4.4,7.6"/>
		<path class="st1" d="M353.9,346.8c4.7-8.2,8.5-14.7,13.2-22.9"/>
		<path class="st1" d="M368.9,320.7c1.8-3.1,2.3-3.9,4.1-7.1"/>
		<line class="st1" x1="370.3" y1="312.5" x2="358.9" y2="332.3"/>
		<path class="st1" d="M355.6,338c-1.7,3-2.3,4.1-4.1,7.1"/>
		<path class="st1" d="M349.2,343.5c4.7-8.2,8.2-14.3,13-22.5"/>
		<path class="st1" d="M363.9,317.9c1.7-2.9,2.1-3.6,3.8-6.5"/>
		<line class="st1" x1="365" y1="310.3" x2="354" y2="329.4"/>
		<path class="st1" d="M350.7,335.2c-1.7,3-2.1,3.5-3.8,6.5"/>
		<path class="st1" d="M344.6,340c4.5-7.7,8.1-14.1,12.6-21.8"/>
		<path class="st1" d="M359,315c1.8-3.1,1.6-2.8,3.4-5.9"/>
		<path class="st1" d="M359.8,307.9c-4.8,8.2-6.9,12-11.7,20.2"/>
		<path class="st1" d="M345.7,332.3c-1.4,2.4-2.1,3.6-3.4,5.9"/>
		<path class="st1" d="M340,336.5c4.3-7.4,8-13.9,12.3-21.2"/>
		<path class="st1" d="M354,312.2c2-3.5,1.1-1.8,3.1-5.4"/>
		<path class="st1" d="M354.6,305.7c-5,8.6-6.4,11-11.3,19.6"/>
		<path class="st1" d="M340.9,329.5c-1.3,2.2-1.8,3.2-3.1,5.4"/>
		<path class="st1" d="M335.5,333.1c4.1-7.2,7.8-13.5,11.9-20.7"/>
		<path class="st1" d="M349.2,309.4c1.7-3,1-1.8,2.8-4.8"/>
		<path class="st1" d="M349.3,303.5c-4.5,7.8-7.1,12.3-11.6,20.1"/>
		<path class="st1" d="M335.9,326.6c-1.3,2.2-1.5,2.6-2.7,4.8"/>
		<path class="st1" d="M330.9,329.7c4.3-7.4,7.3-12.6,11.6-20"/>
		<path class="st1" d="M344.2,306.5c1.2-2,1.2-2,2.3-4"/>
		<path class="st1" d="M344,301.3c-4,6.9-7.3,12.6-11.3,19.5"/>
		<path class="st1" d="M331,323.8c-1.2,2-1.2,2-2.3,4"/>
		<path class="st1" d="M326.1,326c11.4-19.2,0,0,11.4-19.2"/>
		<path class="st1" d="M339.3,303.6c0.8-1.4,1.2-2,2-3.4"/>
		<path class="st1" d="M338.6,299.1c-3.8,6.6-7.1,12.2-10.8,18.8"/>
		<path class="st1" d="M326,320.9c-0.8,1.4-1.1,2-1.9,3.4"/>
		<path class="st1" d="M321.8,322.4c3.8-6.7,6.9-11.9,10.7-18.5"/>
		<path class="st1" d="M334.3,300.8c0.6-1.1,0.9-1.6,1.5-2.7"/>
		<path class="st1" d="M333.3,297.2c-3.5,6-6.9,12-10.4,17.9"/>
		<path class="st1" d="M321.2,318.1c-0.8,1.3-0.7,1.2-1.4,2.5"/>
	</g>
	<line class="st1" x1="372.7" y1="360.8" x2="387.8" y2="334.6"/>
	<path class="st1" d="M389.6,331.4c2.9-5,2-3.5,4.9-8.5"/>
</g>
</svg>
