<?xml version="1.0" encoding="UTF-8" standalone="no"?>
<!-- Generator: Adobe Illustrator 24.0.1, SVG Export Plug-In . SVG Version: 6.00 Build 0)  -->

<svg
   xmlns:dc="http://purl.org/dc/elements/1.1/"
   xmlns:cc="http://creativecommons.org/ns#"
   xmlns:rdf="http://www.w3.org/1999/02/22-rdf-syntax-ns#"
   xmlns:svg="http://www.w3.org/2000/svg"
   xmlns="http://www.w3.org/2000/svg"
   xmlns:sodipodi="http://sodipodi.sourceforge.net/DTD/sodipodi-0.dtd"
   xmlns:inkscape="http://www.inkscape.org/namespaces/inkscape"
   version="1.1"
   id="Ebene_1"
   x="0px"
   y="0px"
   viewBox="0 0 566.9 566.9"
   style="enable-background:new 0 0 566.9 566.9;"
   xml:space="preserve"
   sodipodi:docname="flower_8.svg"
   inkscape:version="0.92.4 (5da689c313, 2019-01-14)"><metadata
   id="metadata2001"><rdf:RDF><cc:Work
       rdf:about=""><dc:format>image/svg+xml</dc:format><dc:type
         rdf:resource="http://purl.org/dc/dcmitype/StillImage" /><dc:title /></cc:Work></rdf:RDF></metadata><defs
   id="defs1999" /><sodipodi:namedview
   pagecolor="#ffffff"
   bordercolor="#666666"
   borderopacity="1"
   objecttolerance="10"
   gridtolerance="10"
   guidetolerance="10"
   inkscape:pageopacity="0"
   inkscape:pageshadow="2"
   inkscape:window-width="1920"
   inkscape:window-height="986"
   id="namedview1997"
   showgrid="false"
   inkscape:zoom="0.70710678"
   inkscape:cx="199.65442"
   inkscape:cy="338.25852"
   inkscape:window-x="-11"
   inkscape:window-y="-11"
   inkscape:window-maximized="1"
   inkscape:current-layer="Ebene_1"
   inkscape:object-paths="true"
   inkscape:snap-intersection-paths="true"
   inkscape:snap-smooth-nodes="true"
   inkscape:snap-midpoints="true" />
<style
   type="text/css"
   id="style2">
	.st0{fill:none;stroke:#000000;stroke-width:0.25;stroke-miterlimit:10;}
	.st1{fill:none;stroke:#336699;stroke-width:0.75;stroke-miterlimit:10;}
	.st2{fill:none;stroke:#0000FF;stroke-miterlimit:10;}
</style>


<g
   id="test_2_"
   transform="matrix(-0.67070436,-1.3513512,1.3290321,-0.66547925,154.14477,828.38153)">
	<path
   id="XMLID_4_"
   class="st1"
   d="m 325.6,224 c 3.3,1.5 56.1,-22.1 62.1,-23 3.1,-0.4 26.6,-4.5 26.6,-4.5 13.8,-0.2 29.1,-8.3 42,-15.4 l 12.3,-8 c 12.7,-10 23.9,-19.5 28.1,-33 L 509.1,108 c 0.6,-1.5 1.2,-3.2 0.4,-4.9 -0.9,-1.6 -2.8,-1.8 -4.4,-2 l -34,-5.3 c -13.7,-3 -27.6,1.8 -42.6,7.8 l -13.1,6.5 c -12.6,7.6 -27.2,16.8 -34.3,28.7 0,0 -15.2,18.3 -17.2,20.8 -3.7,4.8 -50.6,38.9 -50.9,42.3"
   inkscape:connector-curvature="0"
   style="fill:none;stroke:#336699;stroke-width:0.75;stroke-miterlimit:10" />
</g>



<path
   class="st0"
   d="M 354.47924,229.13272"
   id="path988"
   inkscape:connector-curvature="0"
   style="fill:none;stroke:#000000;stroke-width:0.37436017;stroke-miterlimit:10" />
<path
   class="st0"
   d="M 374.47324,261.20204"
   id="path990"
   inkscape:connector-curvature="0"
   style="fill:none;stroke:#000000;stroke-width:0.37436017;stroke-miterlimit:10" />

<g
   id="XMLID_604_"
   transform="matrix(1.5033079,0,0,1.4915964,-141.76273,-63.071022)">
	<path
   id="XMLID_3629_"
   class="st2"
   d="m 249.2,202.4 c 5.6,-5.5 11.3,-9.5 19.1,-11.6"
   inkscape:connector-curvature="0"
   style="fill:none;stroke:#0000ff;stroke-miterlimit:10"
   sodipodi:nodetypes="cc" />
	<path
   id="XMLID_3634_"
   class="st2"
   d="m 236.8,246.1 c -0.9,-3.5 -1.3,-7.2 -1.3,-10.9 0,-3.9 -0.81402,-7.59883 0.18598,-11.19883"
   inkscape:connector-curvature="0"
   style="fill:none;stroke:#0000ff;stroke-miterlimit:10"
   sodipodi:nodetypes="csc" />
	<path
   id="XMLID_3624_"
   class="st2"
   d="m 268.9,279.3 c -7.6,-2.2 -14.3,-6.2 -19.7,-11.5"
   inkscape:connector-curvature="0"
   style="fill:none;stroke:#0000ff;stroke-miterlimit:10" />
	<path
   id="XMLID_3631_"
   class="st2"
   d="m 313.5,267.8 c -5.4,5.3 -12.1,9.3 -19.6,11.5"
   inkscape:connector-curvature="0"
   style="fill:none;stroke:#0000ff;stroke-miterlimit:10" />
	<path
   id="XMLID_3630_"
   class="st2"
   d="m 325.96868,224.29505 c 1,3.7 2.74779,7.32968 2.74779,11.32968 0,3.8 -0.4,7.5 -1.3,10.9"
   inkscape:connector-curvature="0"
   style="fill:none;stroke:#0000ff;stroke-miterlimit:10"
   sodipodi:nodetypes="csc" />
	<path
   id="XMLID_3018_"
   class="st2"
   d="m 293,190.8 c 7.7,2.1 14.6,6.1 20.3,11.5"
   inkscape:connector-curvature="0"
   style="fill:none;stroke:#0000ff;stroke-miterlimit:10" />
</g>
<g
   id="test_6_"
   transform="matrix(1.5033079,0,0,1.4915964,-141.76273,-63.071022)">
	<path
   class="st0"
   d="M 267.9,189.9"
   id="path1002"
   inkscape:connector-curvature="0"
   style="fill:none;stroke:#000000;stroke-width:0.25;stroke-miterlimit:10" />
	<path
   class="st0"
   d="M 293.9,189.9"
   id="path1004"
   inkscape:connector-curvature="0"
   style="fill:none;stroke:#000000;stroke-width:0.25;stroke-miterlimit:10" />
	<path
   id="XMLID_24_"
   class="st1"
   d="M 268.6,190.9"
   inkscape:connector-curvature="0"
   style="fill:none;stroke:#336699;stroke-width:0.75;stroke-miterlimit:10" />
	<path
   id="XMLID_23_"
   class="st1"
   d="M 293.7,190.9"
   inkscape:connector-curvature="0"
   style="fill:none;stroke:#336699;stroke-width:0.75;stroke-miterlimit:10" />
</g>
<g
   id="test_5_"
   transform="matrix(1.5033079,0,0,1.4915964,-141.76273,-63.071022)">
	<path
   class="st0"
   d="M 294.7,280.2"
   id="path1009"
   inkscape:connector-curvature="0"
   style="fill:none;stroke:#000000;stroke-width:0.25;stroke-miterlimit:10" />
	<path
   class="st0"
   d="M 268.7,280.2"
   id="path1011"
   inkscape:connector-curvature="0"
   style="fill:none;stroke:#000000;stroke-width:0.25;stroke-miterlimit:10" />
	<path
   id="XMLID_16_"
   class="st1"
   d="m 269.1,279.2 h -0.3"
   inkscape:connector-curvature="0"
   style="fill:none;stroke:#336699;stroke-width:0.75;stroke-miterlimit:10" />
	<path
   id="XMLID_15_"
   class="st1"
   d="m 293.9,279.2 h -0.4"
   inkscape:connector-curvature="0"
   style="fill:none;stroke:#336699;stroke-width:0.75;stroke-miterlimit:10" />
	<path
   id="XMLID_14_"
   class="st1"
   d="m 268.9,279.2 c -2.9,1.6 -8.9,46.1 -11.2,50.4 -1.2,2.3 -9.4,19.5 -9.4,19.5 -6.7,9.3 -7.4,22.7 -7.7,34 l 0.8,11.3 c 2.3,12.4 5,23.5 14.5,31.5 l 21.6,20.7 c 1,1 2.1,2.1 3.9,2.2 1.8,0 3,-1.2 4,-2.2 L 307,425.9 c 9.4,-8 12.2,-19.2 14.5,-31.5 l 0.9,-11.3 c -0.3,-11.4 -1,-24.7 -7.7,-34 0,0 -8.2,-17.2 -9.4,-19.5 -2.3,-4.3 -8.3,-48.9 -11.2,-50.4"
   inkscape:connector-curvature="0"
   style="fill:none;stroke:#336699;stroke-width:0.75;stroke-miterlimit:10" />
</g>
<g
   id="test_4_"
   transform="matrix(-0.73433376,1.3175564,-1.2957955,-0.72861295,791.7851,85.92494)">
	<path
   id="XMLID_10_"
   class="st1"
   d="m 313.2,268 -0.1,0.2"
   inkscape:connector-curvature="0"
   style="fill:none;stroke:#336699;stroke-width:0.75;stroke-miterlimit:10" />
	<path
   id="XMLID_5_"
   class="st1"
   d="m 325.7,246.1 c 3.5,-1.2 67.8,29.2 74.9,30.7 3.7,0.8 31.6,7.3 31.6,7.3 16.2,1.6 34.9,11.6 50.7,20.4 l 15.1,9.7 c 15.9,11.8 29.8,23.1 36.2,37.6 l 17.7,35.1 c 0.9,1.6 2,3.5 1,5.1 -1.1,1.5 -3.1,1.6 -4.9,1.7 l -39.3,2.2 c -15.8,1.9 -32.5,-4.6 -50.7,-12.5 l -15.9,-8.3 c -15.5,-9.3 -33.5,-20.5 -43,-33.7 0,0 -19.6,-20.8 -22.1,-23.7 -4.8,-5.4 -63,-45.9 -63.8,-49.7"
   inkscape:connector-curvature="0"
   style="fill:none;stroke:#336699;stroke-width:0.75;stroke-miterlimit:10" />
	<path
   id="XMLID_3_"
   class="st1"
   d="M 325,281"
   inkscape:connector-curvature="0"
   style="fill:none;stroke:#336699;stroke-width:0.75;stroke-miterlimit:10" />
</g>




<g
   id="surface6361"
   transform="matrix(2.567028,-3.9023869,1.9136044,1.2699559,124.23796,308.00995)"><path
     id="path5346"
     style="fill:none;stroke:#000000;stroke-width:0.2624425;stroke-linecap:butt;stroke-linejoin:miter;stroke-miterlimit:10;stroke-opacity:1"
     d="m 23.109084,-117.70605 -1.43319,-0.0288 m -1.999186,0.8593 2.171927,0.002 m 1.89355,0.77838 -2.999292,0.0124 m -1.768738,0.98142 4.510112,-0.0503 m 0.965,0.85528 -5.007969,0.006 m -1.139137,0.88606 5.182106,-0.0251 m 1,0 0.360147,0.0113 m 0.277832,0.83416 -5.680948,0.0155 m -1,0 -0.475018,0.0122 m -0.348581,0.88013 5.866568,-0.0314 m 1,0 0.972831,-0.0246 m 0.34208,0.87024 -6.35788,0.0154 m -1,0 -1.158281,0.0154 m -0.331706,0.83752 6.532956,0.008 m 1,0 1.657341,-0.005 m 0.342424,0.87111 -7.042734,-0.005 m -1,0 -1.82921,-0.0127 m -0.374275,0.945 7.246454,-0.0714 m 1,0 2.343382,0.0182 m 0.324169,0.82467 -7.71052,0.0181 m -1,0 -2.529537,0.0336 m -0.337599,0.8524 7.910105,-0.0251 m 1,0 3.008801,-0.0109 m 0.339252,0.86305 -8.391022,0.009 m -1,0 -3.189254,-0.0228 m -0.344854,0.87071 8.577077,0.013 m 1,0 3.675822,-0.0359 m 0.36324,0.89685 h -9.082031 m -1,0 -3.861713,-0.0468 m -0.177351,0.90773 h 9.082033 m 1,0 4.353917,-0.0327 m -0.314855,0.89369 h -9.082031 m -1,0 -4.556489,-0.0145 m 0.517425,0.87544 h 9.082033 m 1,0 5.036824,-0.0174 m 0.520275,0.88999 -0.518037,-0.0117 m -1,0 h -9.082031 m -1,0 -5.231462,-0.0601 m -0.370477,0.889306 0.562875,0.03177 m 1,0 h 9.082033 m 1,0 5.760636,0.01235 m 0.314929,0.84314 -1.036503,0.0055 m -1,0 h -9.082031 m -1,0 -5.945869,0.01128 m -0.300281,0.860464 1.207086,-0.01079 m 1,0 h 9.082033 m 1,0 6.371493,-0.0021 m 0.267651,0.851157 -1.600082,0.01186 m -1,0 h -9.082031 m -1,0 -6.528194,0.02748 m -0.25182,0.848464 1.74095,-0.01499 m 1,0 h 9.082033 m 1,0 6.89157,-3.82e-4 m 0.228118,0.855364 -2.080626,0.006 m -1,0 h -9.082031 m -1,0 -7.004434,-0.03114 m -0.228081,0.892542 2.193451,-4.52e-4 m 1,0 h 9.082033 m 1,0 7.339423,0.02618 m 0.187192,0.822163 -2.487553,0.0126 m -1,0 h -9.082031 m -1,0 -7.442297,0.02552 m -0.189796,0.862606 2.593029,-0.02717 m 1,0 h 9.082033 m 1,0 7.718019,0.03395 m 0.157049,0.802037 -2.836006,0.02496 m -1,0 h -9.082031 m -1,0 -7.805129,0.0097 m -0.16646,0.869251 2.932525,-0.01801 m 1,0 h 9.082033 m 1,0 8.036412,-5.98e-4 m 0.148164,0.874994 -3.145514,-0.01345 m -1,0 h -9.082031 m -1,0 -8.136384,0.08045 m -0.133004,0.796262 3.230324,-0.01576 m 1,0 h 9.082033 m 1,0 8.327007,0.05708 m 0.1129,0.766657 -3.400845,0.03722 m -1,0 h -9.082031 m -1,0 -8.404951,0.01863 m -0.1225873,0.831339 3.4884743,0.01099 m 1,0 h 9.082033 m 1,0 8.565592,0.01309 m 0.111459,0.864705 -3.637989,-0.01684 m -1,0 h -9.082031 m -1,0 -8.6422474,-0.04648 m -0.1186035,0.906532 3.7217869,8.96e-4 m 1,0 h 9.082033 m 1,0 8.785764,0.0562 m 0.09353,0.823961 -3.84023,-0.01921 m -1,0 H 19.4413 m -1,0 -8.866553,-0.0043 m -0.1031054,0.885358 3.9305924,-0.02007 m 1,0 h 9.082033 m 1,0 h 9.078125 m -0.01789,0.897151 -4.021169,-0.0362 m -1,0 h -9.082031 m -1,0 H 9.3631725 m -0.072922,0.84523 4.1119835,0.01572 m 1,0 h 9.082034 m 0.999999,0 h 9.078125 m 0.139807,0.863812 -4.178869,-0.0029 m -1.000001,0 h -9.082031 m -0.999999,0 H 9.3631725 m -0.2393184,0.827893 4.2783799,0.03306 m 1,0 h 9.082033 m 1,0 h 9.078125 m 0.285549,0.861052 -4.324612,-1.01e-4 m -1,0 h -9.082031 m -1,0 H 9.3631725 m -0.4016819,0.925281 4.4407434,-0.06433 m 1,0 h 9.082033 m 1,0 h 9.078125 m 0.421325,0.881533 -4.460388,-0.02058 m -1,0 h -9.082031 m -1,0 H 9.3631725 m -0.5460808,0.951933 4.5851423,-0.09098 m 1,0 h 9.082033 m 1,0 h 9.078125 m 0.550232,0.929997 -4.589295,-0.06905 m -1,0 h -9.082031 m -1,0 H 9.3631725 m -0.6734745,0.867613 4.712536,-0.0067 m 1,0 h 9.082033 m 1,0 h 9.078125 m 0.665913,0.876994 -4.704976,-0.01604 m -1,0 h -9.082031 m -1,0 H 9.3631725 m -0.7890268,0.846579 4.8280883,0.01437 m 1,0 h 9.082033 m 1,0 h 9.078125 m 0.720893,0.895773 -4.759956,-0.03482 m -1,0 h -9.082031 m -1,0 H 9.3631725 m -0.8479557,0.862849 4.8870172,-0.0019 m 1,0 h 9.082033 m 1,0 h 9.078125 m 0.758859,0.826032 -4.797922,0.03492 m -1,0 h -9.082031 m -1,0 H 9.3631725 m -0.9062498,0.860393 4.9453113,5.57e-4 m 1,0 h 9.082033 m 1,0 h 9.078125 m 0.798539,0.830864 -4.837602,0.03009 m -1,0 h -9.082031 m -1,0 H 9.3631725 m -1,0.860951 h 5.0390615 m 1,0 h 9.082033 m 1,0 h 9.078125 m 0.838902,0.865409 -4.877965,-0.0045 m -1,0 h -9.082031 m -1,0 H 9.3631725 m -1,0.860951 h 5.0390615 m 1,0 h 9.082033 m 1,0 h 9.078125 m 0.879002,0.888512 -4.918065,-0.02756 m -1,0 h -9.082031 m -1,0 H 9.3631725 m -1.0820726,0.880813 5.1211341,-0.01986 m 1,0 h 9.082033 m 1,0 h 9.078125 m 0.903083,0.863685 -4.942146,-0.0027 m -1,0 h -9.082031 m -1,0 H 9.3631725 m -1.0955052,0.860882 5.1345667,6.9e-5 m 1,0 h 9.082033 m 1,0 h 9.078125 m 0.878079,0.891447 -4.917142,-0.0305 m -1,0 h -9.082031 m -1,0 H 9.3631725 m -1.0806712,0.843017 5.1197327,0.01793 m 1,0 h 9.082033 m 1,0 h 9.078125 m 0.849426,0.859394 -4.888489,0.0016 m -1,0 h -9.082031 m -1,0 H 9.3631725 m -1.0595467,0.875739 5.0986082,-0.01479 m 1,0 h 9.082033 m 1,0 h 9.078125 m 0.813811,0.854099 -4.852874,0.0069 m -1,0 h -9.082031 m -1,0 H 9.3631725 m -1.031432,0.856375 5.0704935,0.0046 m 1,0 h 9.082033 m 1,0 h 9.078125 m 0.769262,0.864473 -4.808325,-0.0035 m -1,0 h -9.082031 m -1,0 H 9.3631725 m -1,0.86095 h 5.0390615 m 1,0 h 9.082033 m 1,0 h 9.078125 m 0.718465,0.749386 -4.757528,0.111565 m -1,0 h -9.082031 m -1,0 H 9.3631725 m -1,0.86095 h 5.0390615 m 1,0 h 9.082033 m 1,0 h 9.078125 m 0.647768,0.847566 -4.686831,0.01338 m -1,0 h -9.082031 m -1,0 H 9.3631725 m -0.8811928,0.840847 4.9202543,0.0201 m 1,0 h 9.082033 m 1,0 h 9.078125 m 0.56575,0.848093 -4.604813,0.01286 m -1,0 h -9.082031 m -1,0 H 9.3631725 m -0.8003743,0.874891 4.8394358,-0.01394 m 1,0 h 9.082033 m 1,0 h 9.078125 m 0.46834,0.820964 -4.507403,0.03999 m -1,0 h -9.082031 m -1,0 H 9.3631725 m -0.7063336,0.813117 4.7453951,0.04783 m 1,0 h 9.082033 m 1,0 h 9.078125 m 0.343763,0.900195 -4.382826,-0.03924 m -1,0 h -9.082031 m -1,0 H 9.3631725 m -0.5829789,0.878183 4.6220404,-0.01723 m 1,0 h 9.082033 m 1,0 h 9.078125 m 0.203321,0.876467 -4.242384,-0.01552 m -1,0 h -9.082031 m -1,0 H 9.3631725 m -0.4353209,0.918795 4.4743824,-0.05785 m 1,0 h 9.082033 m 1,0 h 9.078125 m 0.03581,0.864073 -4.074874,-0.0031 m -1,0 h -9.082031 m -1,0 H 9.3631725 m -0.2696847,0.849298 4.3087462,0.01165 m 1,0 h 9.082033 m 1,0 9.020151,-0.01259 m -0.101906,0.845922 -3.879183,0.02762 m -1,0 h -9.082031 m -1,0 H 9.3631725 m -0.065707,0.839531 4.1047685,0.02142 m 1,0 h 9.082033 m 1,0 8.804261,-0.018 m -0.126085,0.884397 -3.639114,-0.0055 m -1,0 h -9.082031 m -1,0 H 9.3631725 m 0.1847533,0.880297 3.8543082,-0.01935 m 1,0 h 9.082033 m 1,0 8.542162,0.01961 m -0.137607,0.815512 -3.365493,0.02583 m -1,0 h -9.082031 m -1,0 -8.7582666,-0.0072 m 0.1494635,0.847134 3.5697391,0.02102 m 1,0 h 9.082033 m 1,0 8.24484,-0.01611 m -0.176692,0.882039 -3.029086,-0.005 m -1,0 h -9.082031 m -1,0 -8.4514145,-0.06331 m 0.1948815,0.925168 3.217469,-9.11e-4 m 1,0 h 9.082033 m 1,0 7.884714,-0.01744 m -0.206359,0.862848 -2.639293,0.01554 m -1,0 h -9.082031 m -1,0 -8.04949,0.03197 m 0.21257,0.833198 2.797856,-0.0042 m 1,0 h 9.082033 m 1,0 7.448139,-1.16e-4 m -0.160208,0.879855 -2.248869,-0.01879 m -1,0 h -9.082031 m -1,0 -7.67689,-0.02244 m 0.163348,0.915797 2.474478,-0.03241 m 1,0 h 9.082033 m 1,0 7.135055,-0.0034 m -0.156974,0.860578 -1.939019,0.0038 m -1,0 h -9.082031 m -1,0 -7.36166,0.02263 m 0.148561,0.832321 2.174035,0.006 m 1,0 h 9.082033 m 1,0 6.822025,-0.0098 m -0.156424,0.856238 -1.626539,0.01454 m -1,0 h -9.082031 m -1,0 -7.059692,-0.0078 m 0.155277,0.86934 1.865351,-5.87e-4 m 1,0 h 9.082033 m 1,0 6.506866,-0.0073 m -0.153592,0.83933 -1.314212,0.02894 m -1,0 h -9.082031 m -1,0 -6.747606,0.01719 m 0.152567,0.853485 1.555975,-0.0097 m 1,0 h 9.082033 m 1,0 6.18751,0.01509 m -0.158538,0.864596 -0.98991,-0.01874 m -1,0 h -9.082031 m -1,0 -6.452359,-0.0534 m 0.168594,0.942248 1.244701,-0.0279 m 1,0 h 9.082033 m 1,0 5.860428,0.07583 m -0.145215,0.789918 -0.676151,-0.0048 m -1,0 h -9.082031 m -1,0 -6.131654,0.01656 m 0.150264,0.838734 0.942326,0.0057 m 1,0 h 9.082033 m 1,0 5.549518,0.04378 m -0.153227,0.830662 -0.357229,-0.01349 m -1,0 h -9.082031 m -1,0 -5.82747,-0.0081 m 0.155211,0.864815 0.633195,0.0043 m 1,0 h 9.082033 m 1,0 5.237117,0.01351 m -1.198055,0.847442 h -9.082031 m -1,0 -5.512669,0.02285 m 0.147888,0.821594 0.325717,0.01651 m 1,0 h 9.082033 m 1,0 4.931724,-0.06427 m -0.892662,0.925225 h -9.082031 m -1,0 -5.214077,-0.04217 m 1.175013,0.90312 h 9.082033 m 1,0 4.592402,0.01791 m -0.55334,0.843039 h -9.082031 m -1,0 -4.886886,0.03332 m 0.847822,0.82763 h 9.082033 m 1,0 4.290784,-0.01406 m -0.251722,0.875012 h -9.082031 m -1,0 -4.653416,-0.01056 m 0.614352,0.871508 h 9.082033 m 1,0 4.10664,-0.01712 m -0.06758,0.878069 h -9.082031 m -1,0 -4.494146,-0.02324 m 0.455084,0.884195 h 9.082033 m 1,0 3.955603,-0.04164 m -0.07423,0.896058 -8.92434,0.0065 m -1,0 -4.354984,-0.03218 m 0.315918,0.893134 h 9.082033 m 1,0 3.810747,0.0139 m -0.06815,0.872789 -8.78557,-0.02574 m -1,0 -4.220464,0.03384 m 0.181404,0.827113 h 9.082033 m 1,0 3.677306,0.01843 m -0.06014,0.799165 -8.660132,0.04336 m -1,0 -4.09865,0.01236 m 0.05958,0.848591 h 9.082033 m 1,0 3.549268,0.01051 m -0.06789,0.9260778 -8.524352,-0.075642 m -1,0 -3.979795,0.00449 m 0.05649,0.8296997 8.966274,0.026763 m 1,0 3.426907,-0.035159 m -0.05899,0.8182186 -8.410888,0.07789 m -1,0 -3.861138,0.034277 m 0.05502,0.8228001 8.849084,0.00387 m 1,0 3.29943,0.01767 m -0.06228,0.8746967 -8.28012,-0.031417 m -1,0 -3.749409,-0.01139 m 0.0568,0.8595739 8.735575,0.012766 m 1,0 3.178145,0.00263 m -0.06275,0.8877696 -8.158364,-0.029454 m -1,0 -3.636134,-0.01545 m 0.05608,0.8550994 8.623024,0.021301 m 1,0 3.055312,0.020442 m -0.06115,0.868193 -8.037135,-0.027684 m -1,0 -3.519988,0.035792 m 0.05506,0.8428271 8.507901,-0.017668 m 1,0 2.934195,0.018724 m -0.06366,0.90419841 -7.913502,-0.0619725 m -1,0 -3.409587,0.004404 m 0.05774,0.88408433 8.394817,-0.0275376 m 1,0 2.814181,6.2244e-4 m -0.058,0.82166342 -7.799151,0.038065 m -1,0 -3.29727,0.00203 m 0.0571,0.8718529 8.283141,-0.012934 m 1,0 2.694047,-0.020842 m -0.06254,0.8811192 -7.674473,6.731e-4 m -1,0 -3.183721,0.011731 m 0.05613,0.851942 8.170555,-0.00272 m 1,0 2.565196,0.068699 m -0.06262,0.8742287 -7.545547,-0.081977 m -1,0 -3.069798,0.015128 m 0.0552,0.8301797 8.057564,0.015643 m 1,0 2.445256,0.017067 m -0.06097,0.8415994 -7.427255,0.00228 m -1,0 -2.955645,0.00468 m 0.06141,0.9114308 7.937207,-0.055156 m 1,0 2.321703,-0.00546 m -0.06526,0.887123 -7.299412,-0.020716 m -1,0 -2.83852,0.01464 m 0.05814,0.8486811 7.823346,-0.00237 m 1,0 2.193194,0.011599 m -0.06775,0.9028141 -7.168417,-0.053462 m -1,0 -2.723899,-0.04232 m 0.06076,0.8683436 7.706117,0.03493 m 1,0 2.063592,0.0073 m -0.06297,0.819319 -7.04359,0.0343 m -1,0 -2.602083,-0.03433 m 0.06052,0.841595 7.584531,0.05368 m 1,0 1.929803,0.01272 m -0.067,0.844675 -6.905774,0.0036 m -1,0 -2.474314,0.0047 m 0.06256,0.838993 7.454728,0.01722 m 1,0 1.794644,-0.02078 m -0.07716,0.934254 -6.760451,-0.05252 m -1,0 -2.345285,-0.0056 m 0.07074,0.905049 7.317507,-0.03852 m 1,0 1.64995,-0.01072 m -0.07207,0.828704 -6.620849,0.04297 m -1,0 -2.207859,0.006 m 0.07496,0.899752 7.175866,-0.04481 m 1,0 1.495113,0.01599 m -0.08539,0.909314 -6.452687,-0.06435 m -1,0 -2.05989,0.02441 m 0.07696,0.843197 7.02589,-0.0067 m 1,0 1.330874,0.0026"
     inkscape:connector-curvature="0"
     sodipodi:nodetypes="cccccccccccccccccccccccccccccccccccccccccccccccccccccccccccccccccccccccccccccccccccccccccccccccccccccccccccccccccccccccccccccccccccccccccccccccccccccccccccccccccccccccccccccccccccccccccccccccccccccccccccccccccccccccccccccccccccccccccccccccccccccccccccccccccccccccccccccccccccccccccccccccccccccccccccccccccccccccccccccccccccccccccccccccccccccccccccccccccccccccccccccccccccccccccccccccccccccccccccccccccccccccccccccccccccccccccccccccccccccccccccccccccccccccccccccccccccccccccccccccccccccccccccccccccccccccccccccccccccccccccccccccccccccccccccccccccccccccccccccccccccccccccccccccccccccccccccccccccccccccccccccccccccccccccccccccccccccccccccccccccccccccccccccccccccccccccccccccccccccccccccccccccccccccccccccccccccccccccccccccccccccccccccccccccccccccccccccccccccccccccccccccccccccccccccccccccccccccccccccccccccccccccccc" /></g><g
   id="surface6361-5"
   transform="matrix(4.7230487,0,0,2.303727,178.25425,604.88339)"><path
     id="path5346-8"
     style="fill:none;stroke:#000000;stroke-width:0.2624425;stroke-linecap:butt;stroke-linejoin:miter;stroke-miterlimit:10;stroke-opacity:1"
     d="m 26.27523,-107.38772 -6.833932,-0.0157 m -1,0 -1.025025,-0.004 m -0.121059,0.84458 6.189053,0.0208 m 1,0 1.912092,0.002 m 0.103981,0.8058 -7.059042,0.0534 m -1,0 -1.259488,-0.002 m -0.108531,0.9093 6.410988,-0.0465 m 1,0 2.123156,-0.0209 m 0.09964,0.88097 -7.265768,8.4e-4 m -1,0 -1.460479,0.005 m -0.08953,0.82678 6.592973,0.0296 m 1,0 2.317561,0.014 m 0.09442,0.90569 -7.454946,-0.0588 m -1,0 -1.642436,-0.006 m -0.08938,0.88136 6.774784,-0.0142 m 1,0 2.497009,0.0378 m 0.08257,0.83561 -7.622544,-0.0125 m -1,0 -1.811668,-0.04 m -0.08597,0.88661 6.940606,0.01435 m 1,0 2.658688,-0.03157 m 0.08918,0.937762 -7.790834,-0.04524 m -1,0 -1.980534,-0.0046 m -0.07344,0.782851 7.096948,0.08271 m 1,0 2.824171,-6.58e-4 m 0.08526,0.922696 -7.952403,-0.06109 m -1,0 -2.141784,0.0047 m -0.08077,0.882759 7.265526,-0.02648 m 1,0 2.98164,-0.0098 m 0.08422,0.930129 -8.108827,-0.0594 m -1,0 -2.301602,0.03764 m -0.07542,0.838485 7.419987,-0.01518 m 1,0 3.140023,0.02404 m 0.08033,0.899884 -8.263322,-0.06297 m -1,0 -2.452378,-0.0028 m -0.08072,0.907468 7.576065,-0.04376 m 1,0 3.292304,0.012 m 0.07455,0.842099 -8.409824,0.0069 m -1,0 -2.608239,0.03065 m -0.07627,0.862416 7.727474,-0.03211 m 1,0 3.448305,0.05432 m 0.07534,0.853785 -8.566613,-0.04716 m -1,0 -2.757884,0.0017 m -0.0743,0.840619 7.875155,0.01867 m 1,0 3.593491,-0.02258 m 0.07962,0.900333 -8.716083,-0.0168 m -1,0 -2.908944,-0.01281 m -0.07803,0.878206 8.029943,-0.0045 m 1,0 3.74266,-0.06024 m 0.08179,0.917304 -8.867417,0.0039 m -1,0 -3.06218,-0.0143 m -0.07369,0.819781 8.178839,0.05547 m 1,0 3.904769,0.02952 m 0.134293,0.831429 h -9.082031 m -1,0 -3.219902,0.0099 m -0.07638,0.832115 8.33925,0.01892 m 1,0 4.062907,0.04186 m -0.02385,0.819094 H 19.44129 m -1,0 -3.376045,-0.02326 m -0.08756,0.922526 8.506575,-0.03832 m 1,0 4.224014,0.03441 m -0.184952,0.826545 h -9.082031 m -1,0 -3.548996,0.05502 m -0.07992,0.797408 h 9.082033 m 0.589855,0.0085 4.397741,0.07254 m -0.358679,0.788407 h -9.082031 m -1,0 -3.719841,0.0029 m -0.09621,0.872701 8.859016,-0.01467 m 1,0 4.569678,-0.04409 m -0.530616,0.905043 H 19.44129 m -1,0 -3.915787,-0.01222 m -0.123277,0.873171 h 9.082033 m 1,0 4.783674,-0.08125 m -0.744612,0.942201 H 19.44129 m -1,0 -4.211117,0.01769 m 0.172053,0.843266 h 9.082033 m 1,0 5.159225,-0.07419 m 0.23337,0.971861 -0.353533,-0.03672 m -1,0 H 19.44129 m -1,0 -4.627973,0.01765 m 0.588909,0.843296 h 9.082033 m 1,0 5.58831,-0.0034 m 0.206237,0.868173 -0.755485,-0.0038 m -1,0 H 19.44129 m -1,0 -5.031433,-0.0091 m -0.20873,0.880951 0.201099,-0.01095 m 1,0 h 9.082033 m 1,0 6.000021,0.01014 m 0.203856,0.862051 -1.164815,-0.01124 m -1,0 H 19.44129 m -1,0 -5.43957,-0.0068 m -0.201738,0.854348 0.602244,0.01338 m 1,0 h 9.082033 m 1,0 6.407485,0.01261 m 0.201788,0.855635 -1.570211,-0.0073 m -1,0 H 19.44129 m -1,0 -5.841572,-0.02519 m -0.201526,0.855378 1.004034,0.03077 m 1,0 h 9.082033 m 1,0 6.815485,0.02165 m 0.194024,0.824309 -1.970447,0.01499 m -1,0 H 19.44129 m -1,0 -6.235319,-0.07511 m -0.211093,0.897507 1.407348,0.03855 m 1,0 h 9.082033 m 1,0 7.201315,-0.06042 m 0.215233,0.915822 -2.377486,0.0055 m -1,0 H 19.44129 m -1,0 -6.645718,-0.05146 m -0.202825,0.863637 1.809479,0.04877 m 1,0 h 9.082033 m 1,0 7.620699,0.0028 m 0.202374,0.862409 -2.784011,-0.0043 m -1,0 H 19.44129 m -1,0 -7.055722,-0.02688 m -0.259694,0.905632 2.276352,-0.0178 m 1,0 h 9.082033 m 1,0 8.086446,0.05061 m 0.255757,0.818551 -3.303141,-0.0082 m -1,0 H 19.44129 m -1,0 -7.601442,0.07498 m -0.21865,0.790282 2.781028,-0.0043 m 1,0 h 9.082033 m 1,0 8.581837,0.0085 m 0.217331,0.877792 -3.760106,-0.02533 m -1,0 H 19.44129 m -1,0 -8.046235,0.05999 m -0.17361,0.787362 3.180781,0.0136 m 1,0 h 9.082033 m 1,0 8.989915,0.02831 m 0.168616,0.853743 -4.119469,-0.0211 m -1,0 H 19.44129 m -1,0 -8.392083,-0.0048 m -0.1533048,0.865605 3.5063238,1.79e-4 m 1,0 h 9.082033 m 1,0 h 9.078125 m 0.370804,0.894542 -4.409867,-0.03359 m -1,0 H 19.44129 m -1,0 -8.6781371,-0.02498 m -0.1259073,0.8861 3.7649804,-1.7e-4 m 1,0 h 9.082033 m 1,0 h 9.078125 m 0.599155,0.876654 -4.638218,-0.0157 m -1,0 H 19.44129 m -1,0 -8.9064328,-0.05645 m -0.1085091,0.957093 3.9758779,-0.03969 m 1,0 h 9.082033 m 1,0 h 9.078125 m 0.784059,0.887225 -4.823122,-0.02627 m -1,0 H 19.44129 m -1,0 H 9.3631725 m -0.094268,0.833037 4.1333295,0.02791 m 1,0 h 9.082033 m 1,0 h 9.078125 m 0.926909,0.861209 -4.965972,-2.58e-4 m -1,0 h -9.082031 m -1,0 H 9.3631725 m -0.229238,0.920402 4.2682995,-0.05945 m 1,0 h 9.082033 m 1,0 h 9.078125 m 1,0.86095 h -5.039063 m -1,0 h -9.082031 m -1,0 H 9.3631725 m -0.327176,0.908945 4.3662375,-0.04799 m 1,0 h 9.082033 m 1,0 h 9.078125 m 1,0.860951 h -5.039063 m -1,0 h -9.082031 m -1,0 H 9.3631725 m -0.4020745,0.914948 4.441136,-0.054 m 1,0 h 9.082033 m 1,0 h 9.078125 m 1.191685,0.887651 -5.230748,-0.0267 m -1,0 h -9.082031 m -1,0 H 9.3631725 m -0.4573826,0.919433 4.4964441,-0.05848 m 1,0 h 9.082033 m 1,0 h 9.078125 m 1.237981,0.858075 -5.277044,0.0029 m -1,0 h -9.082031 m -1,0 H 9.3631725 m -0.4969685,0.897146 4.53603,-0.03619 m 1,0 h 9.082033 m 1,0 h 9.078125 m 1.272721,0.892905 -5.311784,-0.03195 m -1,0 h -9.082031 m -1,0 H 9.3631725 m -0.5262087,0.896021 4.5652702,-0.03507 m 1,0 h 9.082033 m 1,0 h 9.078125 m 1.29846,0.93233 -5.337523,-0.07138 m -1,0 h -9.082031 m -1,0 H 9.3631725 m -0.5089288,0.924546 4.5479903,-0.06359 m 1,0 h 9.082033 m 1,0 h 9.078125 m 1.233519,0.869057 -5.272582,-0.0081 m -1,0 h -9.082031 m -1,0 H 9.3631725 m -0.4490205,0.924 4.488082,-0.06305 m 1,0 h 9.082033 m 1,0 h 9.078125 m 1.166173,0.867208 -5.205236,-0.0063 m -1,0 h -9.082031 m -1,0 H 9.3631725 m -0.3899719,0.89875 4.4290334,-0.0378 m 1,0 h 9.082033 m 1,0 h 9.078125 m 1.09888,0.864033 -5.137943,-0.0031 m -1,0 h -9.082031 m -1,0 H 9.3631725 m -0.3308534,0.874729 4.3699149,-0.01378 m 1,0 h 9.082033 m 1,0 h 9.078125 m 1.03115,0.871993 -5.070213,-0.01104 m -1,0 h -9.082031 m -1,0 H 9.3631725 m -0.2491754,0.879921 4.2882369,-0.01897 m 1,0 h 9.082033 m 1,0 h 9.078125 m 0.89995,0.836705 -4.939013,0.02425 m -1,0 h -9.082031 m -1,0 H 9.3631725 m -0.09071,0.833666 4.1297715,0.02728 m 1,0 h 9.082033 m 1,0 h 9.078125 m 0.724003,0.889201 -4.763066,-0.02825 m -1,0 h -9.082031 m -1,0 H 9.3631725 m 0.090097,0.884012 3.9489645,-0.02306 m 1,0 h 9.082033 m 1,0 h 9.078125 m 0.54045,0.857126 -4.579513,0.0038 m -1,0 h -9.082031 m -1,0 -8.8908208,0.0461 m 0.094499,0.812565 3.7572568,0.0023 m 1,0 h 9.082033 m 1,0 h 9.078125 m 0.333614,0.837952 -4.372677,0.023 m -1,0 h -9.082031 m -1,0 -8.6919251,-0.01773 m 0.120595,0.911298 3.5322661,-0.03261 m 1,0 h 9.082033 m 1,0 h 9.078125 m 0.08994,0.872044 -4.129006,-0.01109 m -1,0 h -9.082031 m -1,0 -8.4532583,0.0024 m 0.1340343,0.875146 3.280161,-0.01662 m 1,0 h 9.082033 m 1,0 h 9.078125 m -0.182282,0.841871 -3.856781,0.01908 m -1,0 h -9.082031 m -1,0 -8.177442,0.01081 m 0.152144,0.846091 2.986234,0.004 m 1,0 h 9.082033 m 1,0 8.733142,0.01786 m -0.169274,0.858175 -3.524806,-0.01509 m -1,0 h -9.082031 m -1,0 -7.867251,-0.05506 m 0.194315,0.912107 2.633872,0.0039 m 1,0 h 9.082033 m 1,0 8.376589,0.02513 m -0.201995,0.859574 -3.135532,-0.02375 m -1,0 h -9.082031 m -1,0 -7.462849,0.03204 m 0.224802,0.872365 2.198983,-0.04345 m 1,0 h 9.082033 m 1,0 7.958493,0.0035 m -0.24003,0.851892 -2.679401,0.0056 m -1,0 h -9.082031 m -1,0 -7.00145,0.01778 m 0.266758,0.8554 1.695628,-0.01223 m 1,0 h 9.082033 m 1,0 7.444331,0.01668 m -0.288456,0.841786 -2.116813,0.0025 m -1,0 h -9.082031 m -1,0 -6.4247,0.04847 m 0.302846,0.791888 1.08279,0.02059 m 1,0 h 9.082033 m 1,0 6.824356,0.01051 m -0.35253,0.836892 -1.432764,0.01355 m -1,0 h -9.082031 m -1,0 -5.736792,0.02442 m 0.405418,0.851895 0.29231,-0.01536 m 1,0 h 9.082033 m 1,0 6.043809,0.03456 m -0.453025,0.855561 -0.551722,-0.02917 m -1,0 h -9.082031 m -1,0 -4.889856,-0.0166 m 0.850792,0.877551 h 9.082033 m 1,0 5.132103,0.04 m -1.093041,0.820951 h -9.082031 m -1,0 -3.998189,-0.02971 m 0.458527,0.893873 8.582631,-0.0032 m 1,0 4.27285,-0.0068 m -0.447121,0.87164 -8.868698,-0.0039 m -1,0 -3.126005,-0.05134 m 0.481001,0.937685 7.687973,-0.0254 m 1,0 3.389317,-0.0063 m -0.418381,0.8156099 -8.013905,0.051674 m -1,0 -2.201928,0.028198 m 0.431536,0.8412568 6.813361,-0.0085 m 1,0 2.49065,0.023668 m -0.453311,0.8837061 -7.080308,-0.046425 m -1,0 -1.309302,0.046425 m 0.41019,0.799644 5.942081,0.014882 m 1,0 1.615586,0.00766 m -0.453615,0.8842982 -6.20494,-0.031006 m -1,0 -0.456036,-0.012079 m 0.448024,0.8733995 5.050981,-3.697e-4 m 1,0 0.723583,0.02467 m -0.448477,0.8742814 -4.563225,-0.00493 m -0.879103,0.8291882 3.476614,-0.00131"
     inkscape:connector-curvature="0"
     sodipodi:nodetypes="cccccccccccccccccccccccccccccccccccccccccccccccccccccccccccccccccccccccccccccccccccccccccccccccccccccccccccccccccccccccccccccccccccccccccccccccccccccccccccccccccccccccccccccccccccccccccccccccccccccccccccccccccccccccccccccccccccccccccccccccccccccccccccccccccccccccccccccccccccccccccccccccccccccccccccccccccccccccccccccccccccccccccccccccccccccccccccccccccccccccccccccccccccccccccccccccccccccccccccccccccccccccccccccccccccccccccccccccccccccccccccccccccccccccccccccccccccccccccccccccccccccccccccccccccccccccccccccccccccccccccccccccccccccccccccccccccccccccccccccccccccccccccccccccccccccccccccccccccccccccccccccccccccccccccccccccc" /></g><g
   id="surface6361-5-2"
   transform="matrix(-2.3798077,-3.9766335,1.9657724,-1.1868497,164.48871,471.31242)"><path
     id="path5346-8-5"
     style="fill:none;stroke:#000000;stroke-width:0.2624425;stroke-linecap:butt;stroke-linejoin:miter;stroke-miterlimit:10;stroke-opacity:1"
     d="m 21.253096,-116.89723 1.640996,0.0125 m -0.61782,0.87182 h -2.834974 m 0.801586,0.90773 3.241383,-0.0468 m 0.250295,0.88231 -4.293264,-0.0214 m -0.755209,0.85093 4.798178,0.01 m 0.787418,0.83164 -4.830387,0.0293 m -1.328274,0.89229 5.371243,-0.0313 m 1.345727,0.8469 -5.388696,0.0141 m -1,0 -0.592045,-0.018 m -0.270976,0.83377 5.90599,0.0451 m 1,0 0.62602,-0.003 m 0.267114,0.83111 -5.936103,0.0327 m -1,0 -1.159757,0.007 m -0.267109,0.82187 6.469835,0.032 m 1,0 1.170616,-0.0303 m 0.264936,0.82434 -6.478521,0.0669 m -1,0 -1.702735,-0.0441 m -0.270978,0.83378 7.016682,0.0713 m 1,0 1.725188,-0.0267 m 0.280826,0.87378 -7.048983,0.0138 m -1,0 -2.249182,-0.0846 m -0.2563,0.78862 7.548451,0.15693 m 1,0 2.285363,-0.006 m 0.271487,0.84472 -7.599819,0.0218 m -1,0 -2.829189,-0.0214 m -0.270176,0.83131 8.142334,0.0511 m 1,0 2.839319,-0.004 m 0.263377,0.81949 -8.145665,0.0453 m -1,0 -3.398233,0.008 m -0.297677,0.91592 8.738879,-0.0627 m 1,0 3.390154,-0.0119 m 0.281444,0.8757 -8.714567,-0.003 m -1,0 -3.967554,0.0377 m -0.07151,0.823213 h 9.082033 m 1,0 3.936309,-0.03442 m 0.102753,0.89537 h -9.082031 m -1,0 -4.514061,-0.0026 m 0.474997,0.863554 h 9.082033 m 1,0 4.490881,-0.03079 m -0.451819,0.891739 h -9.082031 m -1,0 -5.064107,-0.03205 m -0.332886,0.883628 0.357929,0.0094 m 1,0 h 9.082033 m 1,0 5.045329,-0.02755 m 0.309913,0.886266 -0.31618,0.0022 m -1,0 h -9.082031 m -1,0 -5.664056,0.01993 m -0.263293,0.823741 0.888285,0.01728 m 1,0 h 9.082033 m 1,0 5.661642,0.05855 m 0.255418,0.825982 -0.877998,-0.02358 m -1,0 h -9.082031 m -1,0 -6.185326,-0.01344 m -0.239247,0.859045 1.385509,0.01535 m 1,0 h 9.082033 m 1,0 6.16523,0.02155 m 0.227957,0.843699 -1.354125,-0.0043 m -1,0 h -9.082031 m -1,0 -6.639997,-0.05035 m -0.210867,0.862147 1.8118,0.04916 m 1,0 h 9.082033 m 1,0 6.622851,0.05276 m 0.197249,0.834272 -1.781038,-0.02608 m -1,0 h -9.082031 m -1,0 -7.033834,-0.114235 m -0.210833,0.97853 2.205603,-0.0033 m 1,0 h 9.082033 m 1,0 7.01752,0.05521 m 0.168192,0.806664 -2.14665,-9.18e-4 m -1,0 h -9.082031 m -1,0 -7.416801,-0.0043 m -0.159357,0.838532 2.537094,0.02674 m 1,0 h 9.082033 m 1,0 7.355279,0.0033 m 0.155939,0.843217 -2.472156,0.01439 m -1,0 h -9.082031 m -1,0 -7.732365,-0.01544 m -0.141069,0.834942 2.83437,0.04145 m 1,0 h 9.082033 m 1,0 7.660549,-0.01874 m 0.145001,0.882598 -2.766488,-0.0029 m -1,0 h -9.082031 m -1,0 -8.019434,0.01404 m -0.130704,0.870319 3.111074,-0.0234 m 1,0 h 9.082033 m 1,0 7.940255,0.01165 m 0.123753,0.84566 -3.024946,0.0036 m -1,0 h -9.082031 m -1,0 -8.267906,-0.0088 m -0.11015,0.816976 3.338992,0.05277 m 1,0 h 9.082033 m 1,0 8.179573,-0.03048 m 0.119327,0.910776 -3.259838,-0.01935 m -1,0 h -9.082031 m -1,0 -8.4870089,-0.06208 m -0.1171001,0.968224 3.565045,-0.04519 m 1,0 h 9.082033 m 1,0 8.403611,0.003 m 0.09994,0.84948 -3.464489,0.0084 m -1,0 h -9.082031 m -1,0 -8.6991168,0.01389 m -0.092202,0.846158 3.7522548,8.99e-4 m 1,0 h 9.082033 m 1,0 8.601238,0.0055 m 0.0916,0.863765 -3.653773,-0.0083 m -1,0 h -9.082031 m -1,0 -8.8798026,-0.0087 m -0.083202,0.841884 3.9239376,0.02777 m 1,0 h 9.082033 m 1,0 8.778983,0.0012 m 0.08506,0.88558 -3.82498,-0.02585 m -1,0 h -9.082031 m -1,0 H 9.3631725 m -0.044362,0.842947 4.0834235,0.018 m 1,0 h 9.082033 m 1,0 8.941136,0.0066 m 0.07206,0.822546 -3.974135,0.03178 m -1,0 h -9.082031 m -1,0 H 9.3631725 m -0.189045,0.840751 4.2281065,0.0202 m 1,0 h 9.082033 m 1,0 h 9.078125 m 0.07783,0.846517 -4.116894,0.01443 m -1,0 h -9.082031 m -1,0 H 9.3631725 m -0.3274236,0.910942 4.3664851,-0.04999 m 1,0 h 9.082033 m 1,0 h 9.078125 m 0.210216,0.877829 -4.249279,-0.01688 m -1,0 h -9.082031 m -1,0 H 9.3631725 m -0.4524019,0.941338 4.4914634,-0.08039 m 1,0 h 9.082033 m 1,0 h 9.078125 m 0.330814,0.87784 -4.369877,-0.01689 m -1,0 h -9.082031 m -1,0 H 9.3631725 m -0.5618902,0.863173 4.6009517,-0.0022 m 1,0 h 9.082033 m 1,0 h 9.078125 m 0.44421,0.88543 -4.483273,-0.02448 m -1,0 h -9.082031 m -1,0 H 9.3631725 m -0.6700531,0.864303 4.7091146,-0.0034 m 1,0 h 9.082033 m 1,0 h 9.078125 m 0.554625,0.946657 -4.593688,-0.08571 m -1,0 h -9.082031 m -1,0 H 9.3631725 m -0.773769,0.881875 4.8128305,-0.02093 m 1,0 h 9.082033 m 1,0 h 9.078125 m 0.652047,0.871183 -4.69111,-0.01023 m -1,0 h -9.082031 m -1,0 H 9.3631725 m -0.8624155,0.83686 4.901477,0.02409 m 1,0 h 9.082033 m 1,0 h 9.078125 m 0.729178,0.836849 -4.768241,0.0241 m -1,0 h -9.082031 m -1,0 H 9.3631725 m -0.903613,0.908589 4.9426745,-0.04764 m 1,0 h 9.082033 m 1,0 h 9.078125 m 0.766564,0.859831 -4.805627,0.0011 m -1,0 h -9.082031 m -1,0 H 9.3631725 m -0.9418248,0.850351 4.9808863,0.0106 m 1,0 h 9.082033 m 1,0 h 9.078125 m 0.803719,0.872005 -4.842782,-0.01105 m -1,0 h -9.082031 m -1,0 H 9.3631725 m -0.9815833,0.859421 5.0206448,0.0015 m 1,0 h 9.082033 m 1,0 h 9.078125 m 0.840659,0.874209 -4.879722,-0.01326 m -1,0 h -9.082031 m -1,0 H 9.3631725 m -1.0212223,0.8633 5.0602838,-0.0024 m 1,0 h 9.082033 m 1,0 h 9.078125 m 0.877303,0.862695 -4.916366,-0.0017 m -1,0 h -9.082031 m -1,0 H 9.3631725 m -1.0610684,0.876149 5.1001299,-0.0152 m 1,0 h 9.082033 m 1,0 h 9.078125 m 0.914181,0.861987 -4.953244,-10e-4 m -1,0 h -9.082031 m -1,0 H 9.3631725 m -1.1006215,0.87625 5.139683,-0.0153 m 1,0 h 9.082033 m 1,0 h 9.078125 m 0.951068,0.861672 -4.990131,-7.21e-4 m -1,0 h -9.082031 m -1,0 H 9.3631725 m -1.1214609,0.861174 5.1605224,-2.23e-4 m 1,0 h 9.082033 m 1,0 h 9.078125 m 0.960938,0.861203 -5.000001,-2.53e-4 m -1,0 h -9.082031 m -1,0 H 9.3631725 m -1.1057265,0.86091 5.144788,4.1e-5 m 1,0 h 9.082033 m 1,0 h 9.078125 m 0.945138,0.861081 -4.984201,-1.3e-4 m -1,0 h -9.082031 m -1,0 H 9.3631725 m -1.0868041,0.861988 5.1258656,-0.001 m 1,0 h 9.082033 m 1,0 h 9.078125 m 0.926058,0.859584 -4.965121,0.0014 m -1,0 h -9.082031 m -1,0 H 9.3631725 m -1.0636777,0.860333 5.1027392,6.17e-4 m 1,0 h 9.082033 m 1,0 h 9.078125 m 0.902765,0.848992 -4.941828,0.01196 m -1,0 h -9.082031 m -1,0 H 9.3631725 m -1.0355988,0.841588 5.0746603,0.01936 m 1,0 h 9.082033 m 1,0 h 9.078125 m 0.873803,0.857023 -4.912866,0.0039 m -1,0 h -9.082031 m -1,0 H 9.3631725 m -1,0.860951 h 5.0390615 m 1,0 h 9.082033 m 1,0 h 9.078125 m 0.838453,0.860443 -4.877516,5.07e-4 m -1,0 h -9.082031 m -1,0 H 9.3631725 m -0.9585318,0.857339 4.9975933,0.0036 m 1,0 h 9.082033 m 1,0 h 9.078125 m 0.795281,0.874823 -4.834344,-0.01387 m -1,0 h -9.082031 m -1,0 H 9.3631725 m -0.9079177,0.860721 4.9469792,2.29e-4 m 1,0 h 9.082033 m 1,0 h 9.078125 m 0.743818,0.875097 -4.782881,-0.01415 m -1,0 h -9.082031 m -1,0 H 9.3631725 m -0.8479173,0.857765 4.8869788,0.0032 m 1,0 h 9.082033 m 1,0 h 9.078125 m 0.681153,0.912065 -4.720216,-0.05112 m -1,0 h -9.082031 m -1,0 H 9.3631725 m -0.7771356,0.854801 4.8161971,0.0062 m 1,0 h 9.082033 m 1,0 h 9.078125 m 0.611113,0.85738 -4.650176,0.0036 m -1,0 h -9.082031 m -1,0 H 9.3631725 m -0.6955763,0.826016 4.7346378,0.03493 m 1,0 h 9.082033 m 1,0 h 9.078125 m 0.526144,0.864992 -4.565207,-0.004 m -1,0 h -9.082031 m -1,0 H 9.3631725 m -0.5959088,0.87907 4.6349703,-0.01812 m 1,0 h 9.082033 m 1,0 h 9.078125 m 0.429531,0.833038 -4.468594,0.02791 m -1,0 h -9.082031 m -1,0 H 9.3631725 m -0.4837539,0.877778 4.5228154,-0.01683 m 1,0 h 9.082033 m 1,0 h 9.078125 m 0.311202,0.894284 -4.350265,-0.03333 m -1,0 h -9.082031 m -1,0 H 9.3631725 m -0.3555218,0.862311 4.3945833,-0.0014 m 1,0 h 9.082033 m 1,0 h 9.078125 m 0.18292,0.84574 -4.221983,0.01521 m -1,0 h -9.082031 m -1,0 H 9.3631725 m -0.2061443,0.869208 4.2452058,-0.0083 m 1,0 h 9.082033 m 1,0 h 9.078125 m 0.03047,0.853595 -4.06953,0.0074 m -1,0 h -9.082031 m -1,0 H 9.3631725 m -0.03942,0.830341 4.0784815,0.03061 m 1,0 h 9.082033 m 1,0 9.02317,0.0044 m -0.08653,0.825482 -3.897583,0.03106 m -1,0 h -9.082031 m -1,0 H 9.3631725 m 0.1590583,0.85623 3.8800032,0.0047 m 1,0 h 9.082033 m 1,0 8.840277,-0.03295 m -0.10139,0.843859 -3.699825,0.05004 m -1,0 h -9.082031 m -1,0 -8.8139865,-0.03026 m 0.1213023,0.899668 3.6536202,-0.0085 m 1,0 h 9.082033 m 1,0 8.622437,-0.008 m -0.116366,0.840614 -3.467009,0.0283 m -1,0 h -9.082031 m -1,0 -8.5729565,-0.02413 m 0.1365065,0.881012 3.397386,0.0041 m 1,0 h 9.082033 m 1,0 8.385004,-0.07215 m -0.151702,0.951371 -3.19424,-0.01827 m -1,0 h -9.082031 m -1,0 -8.295494,-0.01769 m 0.150147,0.841175 3.106283,0.03747 m 1,0 h 9.082033 m 1,0 8.090781,-0.01335 m -0.157022,0.850305 -2.894697,0.02399 m -1,0 h -9.082031 m -1,0 -7.976821,-0.02079 m 0.185525,0.894547 2.752232,-0.01281 m 1,0 h 9.082033 m 1,0 7.747758,0.04673 m -0.163436,0.758976 -2.54526,0.05525 m -1,0 h -9.082031 m -1,0 -7.641039,-0.01511 m 0.130755,0.872339 2.47122,0.0037 m 1,0 h 9.082033 m 1,0 7.450675,-0.01436 m -0.137176,0.924642 -2.274437,-0.04933 m -1,0 h -9.082031 m -1,0 -7.384365,-0.02486 m 0.135157,0.901185 2.210144,-0.01538 m 1,0 h 9.082033 m 1,0 7.18393,0.06099 m -0.126334,0.850168 -2.018534,-0.05021 m -1,0 h -9.082031 m -1,0 -7.125241,-0.01922 m 0.127717,0.851125 1.95846,0.02905 m 1,0 h 9.082033 m 1,0 6.938456,-0.0096 m -0.132604,0.891013 -1.76679,-0.02048 m -1,0 h -9.082031 m -1,0 -6.862125,0.01207 m 0.126833,0.844744 1.696228,0.0041 m 1,0 h 9.082033 m 1,0 6.684505,-0.02576 m -0.128277,0.860526 -1.517166,0.026182 m -1,0 h -9.082031 m -1,0 -6.611886,-0.043403 m 0.133522,0.8887357 1.4393,0.015618 m 1,0 h 9.082033 m 1,0 6.425628,-0.011839 m -0.13259,0.8877371 -1.253976,-0.014949 m -1,0 h -9.082031 m -1,0 -6.347299,-0.0045 m 0.13044,0.8675694 1.177795,-0.00212 m 1,0 h 9.082033 m 1,0 6.167863,-0.00881 m -0.13377,0.8936092 -0.995031,-0.023849 m -1,0 h -9.082031 m -1,0 -6.094248,-0.043668 m 0.137177,0.9115554 0.918007,-0.00694 m 1,0 h 9.082033 m 1,0 5.910006,-0.00926 m -0.127972,0.852511 -0.742972,0.017703 m -1,0 h -9.082031 m -1,0 -5.831509,-0.020104 m 0.13497,0.8958269 0.657475,-0.014772 m 1,0 h 9.082033 m 1,0 5.649796,7.781e-4 m -0.127925,0.8490658 -0.482809,0.011107 m -1,0 h -9.082031 m -1,0 -5.571712,-0.018284 m 0.133774,0.8864516 0.398874,-0.00722 m 1,0 h 9.082033 m 1,0 5.388196,0.01306 m -0.131532,0.86837008 -0.217602,-0.0204807 m -1,0 h -9.082031 m -1,0 -5.311784,-0.0186958 m 1.27272,0.87964655 h 9.082033 m 1,0 5.127657,0.008129 M 28.523329,1.0765239 h -9.082031 m -1,0 -5.055999,-0.052612 m 1.016935,0.9135628 h 9.082033 m 1,0 4.861101,0.023726 m -0.822039,0.8372241 h -9.082031 m -1,0 -4.785113,0.00314 m 0.746049,0.857807 h 9.082033 m 1,0 4.588965,0.028636 M 28.523329,4.520323 h -9.082031 m -1,0 -4.544446,-0.00125 m 0.505382,0.8622052 h 9.082033 m 1,0 4.379922,-6.34e-4 m -0.34086,0.861585 h -9.082031 m -1,0 -4.395896,-0.036367 m 0.356832,0.8973181 h 9.082033 m 1,0 4.235252,0.045971 m -0.19619,0.8149783 h -9.082031 m -1,0 -4.269252,-0.029656 m 0.230188,0.8906067 h 9.082033 m 1,0 4.113855,0.033949 m -0.07479,0.8270023 h -9.082031 m -1,0 -4.151133,0.022806 m 0.112066,0.8381434 h 9.082033 m 1,0 4.002837,0.0018 m 0.03623,0.859109 h -9.082031 m -1,0 -4.042453,0.03469 m 0.05008,0.824879 9.035334,0.0014 m 1,0 3.892137,0.05446 m -0.04855,0.800865 -8.886555,0.0056 m -1,0 -3.940962,-0.0013 m 0.04981,0.846669 8.934116,0.0156 m 1,0 3.793398,-0.02644 m -0.05216,0.884903 -8.784202,0.0025 m -1,0 -3.840115,0.002 m 0.05118,0.891125 8.831895,-0.03219 m 1,0 3.688824,0.0362 m -0.04889,0.847765 -8.682898,-0.02302 m -1,0 -3.739313,0.04352 m 0.0454,0.804572 8.736877,0.01286 m 1,0 3.594093,-0.03671 m -0.04806,0.846077 -8.589002,0.05158 m -1,0 -3.645016,-0.0013 m 0.04965,0.89158 8.638336,-0.0293 m 1,0 3.495143,-0.01085 m -0.0481,0.85694 -8.490015,0.01486 m -1,0 -3.546624,0.04833 m 0.04687,0.849982 8.542725,-0.03736 m 1,0 3.398093,3.95e-4 m -0.04528,0.813572 -8.395777,0.04698 m -1,0 -3.452707,0.03282 m 0.04646,0.848174 8.449208,-0.02005 m 1,0 3.302972,-0.0098 m -0.04564,0.824481 -8.300301,0.04631 m -1,0 -3.357934,0.04292 m 0.04548,0.833665 8.355421,-0.01564 m 1,0 3.207304,-0.0019 m -0.0442,0.80094 -8.206069,0.06189 m -1,0 -3.266279,0.0021 m 0.04847,0.890066 8.260772,-0.03122 m 1,0 3.111761,0.008 m -0.04517,0.819092 -8.109558,0.03388 m -1,0 -3.16899,0.06671 m 0.04295,0.788435 8.169006,0.0058 m 1,0 3.017436,-0.0039 m -0.04714,0.853577 -8.013265,0.01132 m -1,0 -3.077156,0.02966 m 0.04315,0.79019 8.076979,0.0411 m 1,0 2.922528,-0.0086 m -0.04549,0.820839 -7.920009,0.04873 m -1,0 -2.986259,-0.02921 m 0.0477,0.8699 7.981527,0.02026 m 1,0 2.825641,0.01545 m -0.04504,0.808203 -7.823571,0.03729 m -1,0 -2.889455,0.01152 m 0.04671,0.846296 7.885713,0.0031 m 1,0 2.730984,-0.011 m -0.0509,0.906279 -7.723052,-0.03432 m -1,0 -2.79408,0.01404 m 0.04711,0.846229 7.789935,6.85e-4 m 1,0 2.634455,-0.01803 m -0.04923,0.868 -7.62819,0.01098 m -1,0 -2.698852,-0.0018 m 0.04773,0.847992 7.694091,0.01473 m 1,0 2.536062,-0.01039 m -0.04992,0.869163 -7.529108,0.0022 m -1,0 -2.601314,0.0036 m 0.04815,0.844046 7.596125,0.0133 m 1,0 2.437531,-0.02297 m -0.05067,0.868892 -7.429825,0.01503 m -1,0 -2.503699,-0.01407 m 0.04767,0.821917 7.498998,0.05311 m 1,0 2.333909,0.02363 m -0.05004,0.841755 -7.326841,-0.0044 m -1,0 -2.40488,-0.04043 m 0.05088,0.859926 7.396971,0.04145 m 1,0 2.232503,-0.0015 m -0.05538,0.910494 -7.220095,-0.04804 m -1,0 -2.30065,-0.01141 m 0.05466,0.900587 7.288967,-0.02822 m 1,0 2.123945,0.04967 m -0.04926,0.787929 -7.11765,0.02335 m -1,0 -2.195403,-0.01088 m 0.05219,0.834766 7.18618,0.03706 m 1,0 2.017042,0.02296 m -0.0541,0.836123 -7.005913,0.0019 m -1,0 -2.085491,0.0087 m 0.05435,0.836683 7.074113,0.01555 m 1,0 1.909317,-0.04985 m -0.05736,0.850628 -6.89493,0.06018 m -1,0 -1.971723,0.01764 m 0.05627,0.825303 6.958426,0.01801 m 1,0 1.78637,0.02571 m -0.06545,0.914687 -6.763892,-0.07945 m -1,0 -1.852895,0.01182 m 0.06174,0.848877 6.834129,2.49e-4"
     inkscape:connector-curvature="0"
     sodipodi:nodetypes="cccccccccccccccccccccccccccccccccccccccccccccccccccccccccccccccccccccccccccccccccccccccccccccccccccccccccccccccccccccccccccccccccccccccccccccccccccccccccccccccccccccccccccccccccccccccccccccccccccccccccccccccccccccccccccccccccccccccccccccccccccccccccccccccccccccccccccccccccccccccccccccccccccccccccccccccccccccccccccccccccccccccccccccccccccccccccccccccccccccccccccccccccccccccccccccccccccccccccccccccccccccccccccccccccccccccccccccccccccccccccccccccccccccccccccccccccccccccccccccccccccccccccccccccccccccccccccccccccccccccccccccccccccccccccccccccccccccccccccccccccccccccccccccccccccccccccccccccccccccccccccccccccccccccccccccccccccccccccccccccccccccccccccccccccccccccccccccccccccccccccccccccccccccccccccccccccccccccccccccccccccccccccccccccccccccccccccccccccccccccccccccccccccccccccccccccccccccccccccccccccccccccccccccccccccccccccccccccccccccccccccccccccccccccccccccccccccccccccccccccccccccccccccccccccccccccccccccccccccccccccccccccccccccccccccccccccccccccccccccccccccccccccccccccccccccccccccc" /></g><g
   id="surface6361-5-2-8"
   transform="matrix(-2.3798077,-3.9766335,1.9657724,-1.1868497,499.59045,268.99227)"><path
     id="path5346-8-5-3"
     style="fill:none;stroke:#000000;stroke-width:0.2624425;stroke-linecap:butt;stroke-linejoin:miter;stroke-miterlimit:10;stroke-opacity:1"
     d="m 24.484267,-120.31765 1.662217,0.011 m -0.06896,0.89386 -6.636224,-0.0439 m -1,0 -1.725161,0.01 m 0.06537,0.82142 6.702758,0.0296 m 1,0 1.526724,0.003 m -0.07767,0.89978 -6.492026,-0.0423 m -1,0 -1.586086,-0.0189"
     inkscape:connector-curvature="0"
     sodipodi:nodetypes="cccccccccccccc" /></g><g
   id="test_2_-4"
   transform="matrix(0.67070436,1.3513512,-1.3290321,0.66547925,408.84616,-252.68879)"><path
     id="XMLID_4_-4"
     class="st1"
     d="m 325.6,224 c 3.3,1.5 56.1,-22.1 62.1,-23 3.1,-0.4 26.6,-4.5 26.6,-4.5 13.8,-0.2 29.1,-8.3 42,-15.4 l 12.3,-8 c 12.7,-10 23.9,-19.5 28.1,-33 L 509.1,108 c 0.6,-1.5 1.2,-3.2 0.4,-4.9 -0.9,-1.6 -2.8,-1.8 -4.4,-2 l -34,-5.3 c -13.7,-3 -27.6,1.8 -42.6,7.8 l -13.1,6.5 c -12.6,7.6 -27.2,16.8 -34.3,28.7 0,0 -15.2,18.3 -17.2,20.8 -3.7,4.8 -50.6,38.9 -50.9,42.3"
     inkscape:connector-curvature="0"
     style="fill:none;stroke:#336699;stroke-width:0.75;stroke-miterlimit:10" /></g><g
   id="surface6361-55"
   transform="matrix(-2.567028,3.9023869,-1.9136044,-1.2699559,438.75297,267.68273)"><path
     id="path5346-7"
     style="fill:none;stroke:#000000;stroke-width:0.2624425;stroke-linecap:butt;stroke-linejoin:miter;stroke-miterlimit:10;stroke-opacity:1"
     d="m 23.109084,-117.70605 -1.43319,-0.0288 m -1.999186,0.8593 2.171927,0.002 m 1.89355,0.77838 -2.999292,0.0124 m -1.768738,0.98142 4.510112,-0.0503 m 0.965,0.85528 -5.007969,0.006 m -1.139137,0.88606 5.182106,-0.0251 m 1,0 0.360147,0.0113 m 0.277832,0.83416 -5.680948,0.0155 m -1,0 -0.475018,0.0122 m -0.348581,0.88013 5.866568,-0.0314 m 1,0 0.972831,-0.0246 m 0.34208,0.87024 -6.35788,0.0154 m -1,0 -1.158281,0.0154 m -0.331706,0.83752 6.532956,0.008 m 1,0 1.657341,-0.005 m 0.342424,0.87111 -7.042734,-0.005 m -1,0 -1.82921,-0.0127 m -0.374275,0.945 7.246454,-0.0714 m 1,0 2.343382,0.0182 m 0.324169,0.82467 -7.71052,0.0181 m -1,0 -2.529537,0.0336 m -0.337599,0.8524 7.910105,-0.0251 m 1,0 3.008801,-0.0109 m 0.339252,0.86305 -8.391022,0.009 m -1,0 -3.189254,-0.0228 m -0.344854,0.87071 8.577077,0.013 m 1,0 3.675822,-0.0359 m 0.36324,0.89685 h -9.082031 m -1,0 -3.861713,-0.0468 m -0.177351,0.90773 h 9.082033 m 1,0 4.353917,-0.0327 m -0.314855,0.89369 h -9.082031 m -1,0 -4.556489,-0.0145 m 0.517425,0.87544 h 9.082033 m 1,0 5.036824,-0.0174 m 0.520275,0.88999 -0.518037,-0.0117 m -1,0 h -9.082031 m -1,0 -5.231462,-0.0601 m -0.370477,0.889306 0.562875,0.03177 m 1,0 h 9.082033 m 1,0 5.760636,0.01235 m 0.314929,0.84314 -1.036503,0.0055 m -1,0 h -9.082031 m -1,0 -5.945869,0.01128 m -0.300281,0.860464 1.207086,-0.01079 m 1,0 h 9.082033 m 1,0 6.371493,-0.0021 m 0.267651,0.851157 -1.600082,0.01186 m -1,0 h -9.082031 m -1,0 -6.528194,0.02748 m -0.25182,0.848464 1.74095,-0.01499 m 1,0 h 9.082033 m 1,0 6.89157,-3.82e-4 m 0.228118,0.855364 -2.080626,0.006 m -1,0 h -9.082031 m -1,0 -7.004434,-0.03114 m -0.228081,0.892542 2.193451,-4.52e-4 m 1,0 h 9.082033 m 1,0 7.339423,0.02618 m 0.187192,0.822163 -2.487553,0.0126 m -1,0 h -9.082031 m -1,0 -7.442297,0.02552 m -0.189796,0.862606 2.593029,-0.02717 m 1,0 h 9.082033 m 1,0 7.718019,0.03395 m 0.157049,0.802037 -2.836006,0.02496 m -1,0 h -9.082031 m -1,0 -7.805129,0.0097 m -0.16646,0.869251 2.932525,-0.01801 m 1,0 h 9.082033 m 1,0 8.036412,-5.98e-4 m 0.148164,0.874994 -3.145514,-0.01345 m -1,0 h -9.082031 m -1,0 -8.136384,0.08045 m -0.133004,0.796262 3.230324,-0.01576 m 1,0 h 9.082033 m 1,0 8.327007,0.05708 m 0.1129,0.766657 -3.400845,0.03722 m -1,0 h -9.082031 m -1,0 -8.404951,0.01863 m -0.1225873,0.831339 3.4884743,0.01099 m 1,0 h 9.082033 m 1,0 8.565592,0.01309 m 0.111459,0.864705 -3.637989,-0.01684 m -1,0 h -9.082031 m -1,0 -8.6422474,-0.04648 m -0.1186035,0.906532 3.7217869,8.96e-4 m 1,0 h 9.082033 m 1,0 8.785764,0.0562 m 0.09353,0.823961 -3.84023,-0.01921 m -1,0 H 19.4413 m -1,0 -8.866553,-0.0043 m -0.1031054,0.885358 3.9305924,-0.02007 m 1,0 h 9.082033 m 1,0 h 9.078125 m -0.01789,0.897151 -4.021169,-0.0362 m -1,0 h -9.082031 m -1,0 H 9.3631725 m -0.072922,0.84523 4.1119835,0.01572 m 1,0 h 9.082034 m 0.999999,0 h 9.078125 m 0.139807,0.863812 -4.178869,-0.0029 m -1.000001,0 h -9.082031 m -0.999999,0 H 9.3631725 m -0.2393184,0.827893 4.2783799,0.03306 m 1,0 h 9.082033 m 1,0 h 9.078125 m 0.285549,0.861052 -4.324612,-1.01e-4 m -1,0 h -9.082031 m -1,0 H 9.3631725 m -0.4016819,0.925281 4.4407434,-0.06433 m 1,0 h 9.082033 m 1,0 h 9.078125 m 0.421325,0.881533 -4.460388,-0.02058 m -1,0 h -9.082031 m -1,0 H 9.3631725 m -0.5460808,0.951933 4.5851423,-0.09098 m 1,0 h 9.082033 m 1,0 h 9.078125 m 0.550232,0.929997 -4.589295,-0.06905 m -1,0 h -9.082031 m -1,0 H 9.3631725 m -0.6734745,0.867613 4.712536,-0.0067 m 1,0 h 9.082033 m 1,0 h 9.078125 m 0.665913,0.876994 -4.704976,-0.01604 m -1,0 h -9.082031 m -1,0 H 9.3631725 m -0.7890268,0.846579 4.8280883,0.01437 m 1,0 h 9.082033 m 1,0 h 9.078125 m 0.720893,0.895773 -4.759956,-0.03482 m -1,0 h -9.082031 m -1,0 H 9.3631725 m -0.8479557,0.862849 4.8870172,-0.0019 m 1,0 h 9.082033 m 1,0 h 9.078125 m 0.758859,0.826032 -4.797922,0.03492 m -1,0 h -9.082031 m -1,0 H 9.3631725 m -0.9062498,0.860393 4.9453113,5.57e-4 m 1,0 h 9.082033 m 1,0 h 9.078125 m 0.798539,0.830864 -4.837602,0.03009 m -1,0 h -9.082031 m -1,0 H 9.3631725 m -1,0.860951 h 5.0390615 m 1,0 h 9.082033 m 1,0 h 9.078125 m 0.838902,0.865409 -4.877965,-0.0045 m -1,0 h -9.082031 m -1,0 H 9.3631725 m -1,0.860951 h 5.0390615 m 1,0 h 9.082033 m 1,0 h 9.078125 m 0.879002,0.888512 -4.918065,-0.02756 m -1,0 h -9.082031 m -1,0 H 9.3631725 m -1.0820726,0.880813 5.1211341,-0.01986 m 1,0 h 9.082033 m 1,0 h 9.078125 m 0.903083,0.863685 -4.942146,-0.0027 m -1,0 h -9.082031 m -1,0 H 9.3631725 m -1.0955052,0.860882 5.1345667,6.9e-5 m 1,0 h 9.082033 m 1,0 h 9.078125 m 0.878079,0.891447 -4.917142,-0.0305 m -1,0 h -9.082031 m -1,0 H 9.3631725 m -1.0806712,0.843017 5.1197327,0.01793 m 1,0 h 9.082033 m 1,0 h 9.078125 m 0.849426,0.859394 -4.888489,0.0016 m -1,0 h -9.082031 m -1,0 H 9.3631725 m -1.0595467,0.875739 5.0986082,-0.01479 m 1,0 h 9.082033 m 1,0 h 9.078125 m 0.813811,0.854099 -4.852874,0.0069 m -1,0 h -9.082031 m -1,0 H 9.3631725 m -1.031432,0.856375 5.0704935,0.0046 m 1,0 h 9.082033 m 1,0 h 9.078125 m 0.769262,0.864473 -4.808325,-0.0035 m -1,0 h -9.082031 m -1,0 H 9.3631725 m -1,0.86095 h 5.0390615 m 1,0 h 9.082033 m 1,0 h 9.078125 m 0.718465,0.749386 -4.757528,0.111565 m -1,0 h -9.082031 m -1,0 H 9.3631725 m -1,0.86095 h 5.0390615 m 1,0 h 9.082033 m 1,0 h 9.078125 m 0.647768,0.847566 -4.686831,0.01338 m -1,0 h -9.082031 m -1,0 H 9.3631725 m -0.8811928,0.840847 4.9202543,0.0201 m 1,0 h 9.082033 m 1,0 h 9.078125 m 0.56575,0.848093 -4.604813,0.01286 m -1,0 h -9.082031 m -1,0 H 9.3631725 m -0.8003743,0.874891 4.8394358,-0.01394 m 1,0 h 9.082033 m 1,0 h 9.078125 m 0.46834,0.820964 -4.507403,0.03999 m -1,0 h -9.082031 m -1,0 H 9.3631725 m -0.7063336,0.813117 4.7453951,0.04783 m 1,0 h 9.082033 m 1,0 h 9.078125 m 0.343763,0.900195 -4.382826,-0.03924 m -1,0 h -9.082031 m -1,0 H 9.3631725 m -0.5829789,0.878183 4.6220404,-0.01723 m 1,0 h 9.082033 m 1,0 h 9.078125 m 0.203321,0.876467 -4.242384,-0.01552 m -1,0 h -9.082031 m -1,0 H 9.3631725 m -0.4353209,0.918795 4.4743824,-0.05785 m 1,0 h 9.082033 m 1,0 h 9.078125 m 0.03581,0.864073 -4.074874,-0.0031 m -1,0 h -9.082031 m -1,0 H 9.3631725 m -0.2696847,0.849298 4.3087462,0.01165 m 1,0 h 9.082033 m 1,0 9.020151,-0.01259 m -0.101906,0.845922 -3.879183,0.02762 m -1,0 h -9.082031 m -1,0 H 9.3631725 m -0.065707,0.839531 4.1047685,0.02142 m 1,0 h 9.082033 m 1,0 8.804261,-0.018 m -0.126085,0.884397 -3.639114,-0.0055 m -1,0 h -9.082031 m -1,0 H 9.3631725 m 0.1847533,0.880297 3.8543082,-0.01935 m 1,0 h 9.082033 m 1,0 8.542162,0.01961 m -0.137607,0.815512 -3.365493,0.02583 m -1,0 h -9.082031 m -1,0 -8.7582666,-0.0072 m 0.1494635,0.847134 3.5697391,0.02102 m 1,0 h 9.082033 m 1,0 8.24484,-0.01611 m -0.176692,0.882039 -3.029086,-0.005 m -1,0 h -9.082031 m -1,0 -8.4514145,-0.06331 m 0.1948815,0.925168 3.217469,-9.11e-4 m 1,0 h 9.082033 m 1,0 7.884714,-0.01744 m -0.206359,0.862848 -2.639293,0.01554 m -1,0 h -9.082031 m -1,0 -8.04949,0.03197 m 0.21257,0.833198 2.797856,-0.0042 m 1,0 h 9.082033 m 1,0 7.448139,-1.16e-4 m -0.160208,0.879855 -2.248869,-0.01879 m -1,0 h -9.082031 m -1,0 -7.67689,-0.02244 m 0.163348,0.915797 2.474478,-0.03241 m 1,0 h 9.082033 m 1,0 7.135055,-0.0034 m -0.156974,0.860578 -1.939019,0.0038 m -1,0 h -9.082031 m -1,0 -7.36166,0.02263 m 0.148561,0.832321 2.174035,0.006 m 1,0 h 9.082033 m 1,0 6.822025,-0.0098 m -0.156424,0.856238 -1.626539,0.01454 m -1,0 h -9.082031 m -1,0 -7.059692,-0.0078 m 0.155277,0.86934 1.865351,-5.87e-4 m 1,0 h 9.082033 m 1,0 6.506866,-0.0073 m -0.153592,0.83933 -1.314212,0.02894 m -1,0 h -9.082031 m -1,0 -6.747606,0.01719 m 0.152567,0.853485 1.555975,-0.0097 m 1,0 h 9.082033 m 1,0 6.18751,0.01509 m -0.158538,0.864596 -0.98991,-0.01874 m -1,0 h -9.082031 m -1,0 -6.452359,-0.0534 m 0.168594,0.942248 1.244701,-0.0279 m 1,0 h 9.082033 m 1,0 5.860428,0.07583 m -0.145215,0.789918 -0.676151,-0.0048 m -1,0 h -9.082031 m -1,0 -6.131654,0.01656 m 0.150264,0.838734 0.942326,0.0057 m 1,0 h 9.082033 m 1,0 5.549518,0.04378 m -0.153227,0.830662 -0.357229,-0.01349 m -1,0 h -9.082031 m -1,0 -5.82747,-0.0081 m 0.155211,0.864815 0.633195,0.0043 m 1,0 h 9.082033 m 1,0 5.237117,0.01351 m -1.198055,0.847442 h -9.082031 m -1,0 -5.512669,0.02285 m 0.147888,0.821594 0.325717,0.01651 m 1,0 h 9.082033 m 1,0 4.931724,-0.06427 m -0.892662,0.925225 h -9.082031 m -1,0 -5.214077,-0.04217 m 1.175013,0.90312 h 9.082033 m 1,0 4.592402,0.01791 m -0.55334,0.843039 h -9.082031 m -1,0 -4.886886,0.03332 m 0.847822,0.82763 h 9.082033 m 1,0 4.290784,-0.01406 m -0.251722,0.875012 h -9.082031 m -1,0 -4.653416,-0.01056 m 0.614352,0.871508 h 9.082033 m 1,0 4.10664,-0.01712 m -0.06758,0.878069 h -9.082031 m -1,0 -4.494146,-0.02324 m 0.455084,0.884195 h 9.082033 m 1,0 3.955603,-0.04164 m -0.07423,0.896058 -8.92434,0.0065 m -1,0 -4.354984,-0.03218 m 0.315918,0.893134 h 9.082033 m 1,0 3.810747,0.0139 m -0.06815,0.872789 -8.78557,-0.02574 m -1,0 -4.220464,0.03384 m 0.181404,0.827113 h 9.082033 m 1,0 3.677306,0.01843 m -0.06014,0.799165 -8.660132,0.04336 m -1,0 -4.09865,0.01236 m 0.05958,0.848591 h 9.082033 m 1,0 3.549268,0.01051 m -0.06789,0.9260778 -8.524352,-0.075642 m -1,0 -3.979795,0.00449 m 0.05649,0.8296997 8.966274,0.026763 m 1,0 3.426907,-0.035159 m -0.05899,0.8182186 -8.410888,0.07789 m -1,0 -3.861138,0.034277 m 0.05502,0.8228001 8.849084,0.00387 m 1,0 3.29943,0.01767 m -0.06228,0.8746967 -8.28012,-0.031417 m -1,0 -3.749409,-0.01139 m 0.0568,0.8595739 8.735575,0.012766 m 1,0 3.178145,0.00263 m -0.06275,0.8877696 -8.158364,-0.029454 m -1,0 -3.636134,-0.01545 m 0.05608,0.8550994 8.623024,0.021301 m 1,0 3.055312,0.020442 m -0.06115,0.868193 -8.037135,-0.027684 m -1,0 -3.519988,0.035792 m 0.05506,0.8428271 8.507901,-0.017668 m 1,0 2.934195,0.018724 m -0.06366,0.90419841 -7.913502,-0.0619725 m -1,0 -3.409587,0.004404 m 0.05774,0.88408433 8.394817,-0.0275376 m 1,0 2.814181,6.2244e-4 m -0.058,0.82166342 -7.799151,0.038065 m -1,0 -3.29727,0.00203 m 0.0571,0.8718529 8.283141,-0.012934 m 1,0 2.694047,-0.020842 m -0.06254,0.8811192 -7.674473,6.731e-4 m -1,0 -3.183721,0.011731 m 0.05613,0.851942 8.170555,-0.00272 m 1,0 2.565196,0.068699 m -0.06262,0.8742287 -7.545547,-0.081977 m -1,0 -3.069798,0.015128 m 0.0552,0.8301797 8.057564,0.015643 m 1,0 2.445256,0.017067 m -0.06097,0.8415994 -7.427255,0.00228 m -1,0 -2.955645,0.00468 m 0.06141,0.9114308 7.937207,-0.055156 m 1,0 2.321703,-0.00546 m -0.06526,0.887123 -7.299412,-0.020716 m -1,0 -2.83852,0.01464 m 0.05814,0.8486811 7.823346,-0.00237 m 1,0 2.193194,0.011599 m -0.06775,0.9028141 -7.168417,-0.053462 m -1,0 -2.723899,-0.04232 m 0.06076,0.8683436 7.706117,0.03493 m 1,0 2.063592,0.0073 m -0.06297,0.819319 -7.04359,0.0343 m -1,0 -2.602083,-0.03433 m 0.06052,0.841595 7.584531,0.05368 m 1,0 1.929803,0.01272 m -0.067,0.844675 -6.905774,0.0036 m -1,0 -2.474314,0.0047 m 0.06256,0.838993 7.454728,0.01722 m 1,0 1.794644,-0.02078 m -0.07716,0.934254 -6.760451,-0.05252 m -1,0 -2.345285,-0.0056 m 0.07074,0.905049 7.317507,-0.03852 m 1,0 1.64995,-0.01072 m -0.07207,0.828704 -6.620849,0.04297 m -1,0 -2.207859,0.006 m 0.07496,0.899752 7.175866,-0.04481 m 1,0 1.495113,0.01599 m -0.08539,0.909314 -6.452687,-0.06435 m -1,0 -2.05989,0.02441 m 0.07696,0.843197 7.02589,-0.0067 m 1,0 1.330874,0.0026"
     inkscape:connector-curvature="0"
     sodipodi:nodetypes="cccccccccccccccccccccccccccccccccccccccccccccccccccccccccccccccccccccccccccccccccccccccccccccccccccccccccccccccccccccccccccccccccccccccccccccccccccccccccccccccccccccccccccccccccccccccccccccccccccccccccccccccccccccccccccccccccccccccccccccccccccccccccccccccccccccccccccccccccccccccccccccccccccccccccccccccccccccccccccccccccccccccccccccccccccccccccccccccccccccccccccccccccccccccccccccccccccccccccccccccccccccccccccccccccccccccccccccccccccccccccccccccccccccccccccccccccccccccccccccccccccccccccccccccccccccccccccccccccccccccccccccccccccccccccccccccccccccccccccccccccccccccccccccccccccccccccccccccccccccccccccccccccccccccccccccccccccccccccccccccccccccccccccccccccccccccccccccccccccccccccccccccccccccccccccccccccccccccccccccccccccccccccccccccccccccccccccccccccccccccccccccccccccccccccccccccccccccccccccccccccccccccccccc" /></g><g
   id="test_4_-3"
   transform="matrix(0.73433376,-1.3175564,1.2957955,0.72861295,-228.99795,488.87705)"><path
     id="XMLID_10_-8"
     class="st1"
     d="m 313.2,268 -0.1,0.2"
     inkscape:connector-curvature="0"
     style="fill:none;stroke:#336699;stroke-width:0.75;stroke-miterlimit:10" /><path
     id="XMLID_5_-4"
     class="st1"
     d="m 325.7,246.1 c 3.5,-1.2 67.8,29.2 74.9,30.7 3.7,0.8 31.6,7.3 31.6,7.3 16.2,1.6 34.9,11.6 50.7,20.4 l 15.1,9.7 c 15.9,11.8 29.8,23.1 36.2,37.6 l 17.7,35.1 c 0.9,1.6 2,3.5 1,5.1 -1.1,1.5 -3.1,1.6 -4.9,1.7 l -39.3,2.2 c -15.8,1.9 -32.5,-4.6 -50.7,-12.5 l -15.9,-8.3 c -15.5,-9.3 -33.5,-20.5 -43,-33.7 0,0 -19.6,-20.8 -22.1,-23.7 -4.8,-5.4 -63,-45.9 -63.8,-49.7"
     inkscape:connector-curvature="0"
     style="fill:none;stroke:#336699;stroke-width:0.75;stroke-miterlimit:10" /><path
     id="XMLID_3_-0"
     class="st1"
     d="M 325,281"
     inkscape:connector-curvature="0"
     style="fill:none;stroke:#336699;stroke-width:0.75;stroke-miterlimit:10" /></g><g
   id="surface6361-5-2-0"
   transform="matrix(2.3798077,3.9766335,-1.9657724,1.1868497,398.2985,103.48957)"><path
     id="path5346-8-5-7"
     style="fill:none;stroke:#000000;stroke-width:0.2624425;stroke-linecap:butt;stroke-linejoin:miter;stroke-miterlimit:10;stroke-opacity:1"
     d="m 21.253096,-116.89723 1.640996,0.0125 m -0.61782,0.87182 h -2.834974 m 0.801586,0.90773 3.241383,-0.0468 m 0.250295,0.88231 -4.293264,-0.0214 m -0.755209,0.85093 4.798178,0.01 m 0.787418,0.83164 -4.830387,0.0293 m -1.328274,0.89229 5.371243,-0.0313 m 1.345727,0.8469 -5.388696,0.0141 m -1,0 -0.592045,-0.018 m -0.270976,0.83377 5.90599,0.0451 m 1,0 0.62602,-0.003 m 0.267114,0.83111 -5.936103,0.0327 m -1,0 -1.159757,0.007 m -0.267109,0.82187 6.469835,0.032 m 1,0 1.170616,-0.0303 m 0.264936,0.82434 -6.478521,0.0669 m -1,0 -1.702735,-0.0441 m -0.270978,0.83378 7.016682,0.0713 m 1,0 1.725188,-0.0267 m 0.280826,0.87378 -7.048983,0.0138 m -1,0 -2.249182,-0.0846 m -0.2563,0.78862 7.548451,0.15693 m 1,0 2.285363,-0.006 m 0.271487,0.84472 -7.599819,0.0218 m -1,0 -2.829189,-0.0214 m -0.270176,0.83131 8.142334,0.0511 m 1,0 2.839319,-0.004 m 0.263377,0.81949 -8.145665,0.0453 m -1,0 -3.398233,0.008 m -0.297677,0.91592 8.738879,-0.0627 m 1,0 3.390154,-0.0119 m 0.281444,0.8757 -8.714567,-0.003 m -1,0 -3.967554,0.0377 m -0.07151,0.823213 h 9.082033 m 1,0 3.936309,-0.03442 m 0.102753,0.89537 h -9.082031 m -1,0 -4.514061,-0.0026 m 0.474997,0.863554 h 9.082033 m 1,0 4.490881,-0.03079 m -0.451819,0.891739 h -9.082031 m -1,0 -5.064107,-0.03205 m -0.332886,0.883628 0.357929,0.0094 m 1,0 h 9.082033 m 1,0 5.045329,-0.02755 m 0.309913,0.886266 -0.31618,0.0022 m -1,0 h -9.082031 m -1,0 -5.664056,0.01993 m -0.263293,0.823741 0.888285,0.01728 m 1,0 h 9.082033 m 1,0 5.661642,0.05855 m 0.255418,0.825982 -0.877998,-0.02358 m -1,0 h -9.082031 m -1,0 -6.185326,-0.01344 m -0.239247,0.859045 1.385509,0.01535 m 1,0 h 9.082033 m 1,0 6.16523,0.02155 m 0.227957,0.843699 -1.354125,-0.0043 m -1,0 h -9.082031 m -1,0 -6.639997,-0.05035 m -0.210867,0.862147 1.8118,0.04916 m 1,0 h 9.082033 m 1,0 6.622851,0.05276 m 0.197249,0.834272 -1.781038,-0.02608 m -1,0 h -9.082031 m -1,0 -7.033834,-0.114235 m -0.210833,0.97853 2.205603,-0.0033 m 1,0 h 9.082033 m 1,0 7.01752,0.05521 m 0.168192,0.806664 -2.14665,-9.18e-4 m -1,0 h -9.082031 m -1,0 -7.416801,-0.0043 m -0.159357,0.838532 2.537094,0.02674 m 1,0 h 9.082033 m 1,0 7.355279,0.0033 m 0.155939,0.843217 -2.472156,0.01439 m -1,0 h -9.082031 m -1,0 -7.732365,-0.01544 m -0.141069,0.834942 2.83437,0.04145 m 1,0 h 9.082033 m 1,0 7.660549,-0.01874 m 0.145001,0.882598 -2.766488,-0.0029 m -1,0 h -9.082031 m -1,0 -8.019434,0.01404 m -0.130704,0.870319 3.111074,-0.0234 m 1,0 h 9.082033 m 1,0 7.940255,0.01165 m 0.123753,0.84566 -3.024946,0.0036 m -1,0 h -9.082031 m -1,0 -8.267906,-0.0088 m -0.11015,0.816976 3.338992,0.05277 m 1,0 h 9.082033 m 1,0 8.179573,-0.03048 m 0.119327,0.910776 -3.259838,-0.01935 m -1,0 h -9.082031 m -1,0 -8.4870089,-0.06208 m -0.1171001,0.968224 3.565045,-0.04519 m 1,0 h 9.082033 m 1,0 8.403611,0.003 m 0.09994,0.84948 -3.464489,0.0084 m -1,0 h -9.082031 m -1,0 -8.6991168,0.01389 m -0.092202,0.846158 3.7522548,8.99e-4 m 1,0 h 9.082033 m 1,0 8.601238,0.0055 m 0.0916,0.863765 -3.653773,-0.0083 m -1,0 h -9.082031 m -1,0 -8.8798026,-0.0087 m -0.083202,0.841884 3.9239376,0.02777 m 1,0 h 9.082033 m 1,0 8.778983,0.0012 m 0.08506,0.88558 -3.82498,-0.02585 m -1,0 h -9.082031 m -1,0 H 9.3631725 m -0.044362,0.842947 4.0834235,0.018 m 1,0 h 9.082033 m 1,0 8.941136,0.0066 m 0.07206,0.822546 -3.974135,0.03178 m -1,0 h -9.082031 m -1,0 H 9.3631725 m -0.189045,0.840751 4.2281065,0.0202 m 1,0 h 9.082033 m 1,0 h 9.078125 m 0.07783,0.846517 -4.116894,0.01443 m -1,0 h -9.082031 m -1,0 H 9.3631725 m -0.3274236,0.910942 4.3664851,-0.04999 m 1,0 h 9.082033 m 1,0 h 9.078125 m 0.210216,0.877829 -4.249279,-0.01688 m -1,0 h -9.082031 m -1,0 H 9.3631725 m -0.4524019,0.941338 4.4914634,-0.08039 m 1,0 h 9.082033 m 1,0 h 9.078125 m 0.330814,0.87784 -4.369877,-0.01689 m -1,0 h -9.082031 m -1,0 H 9.3631725 m -0.5618902,0.863173 4.6009517,-0.0022 m 1,0 h 9.082033 m 1,0 h 9.078125 m 0.44421,0.88543 -4.483273,-0.02448 m -1,0 h -9.082031 m -1,0 H 9.3631725 m -0.6700531,0.864303 4.7091146,-0.0034 m 1,0 h 9.082033 m 1,0 h 9.078125 m 0.554625,0.946657 -4.593688,-0.08571 m -1,0 h -9.082031 m -1,0 H 9.3631725 m -0.773769,0.881875 4.8128305,-0.02093 m 1,0 h 9.082033 m 1,0 h 9.078125 m 0.652047,0.871183 -4.69111,-0.01023 m -1,0 h -9.082031 m -1,0 H 9.3631725 m -0.8624155,0.83686 4.901477,0.02409 m 1,0 h 9.082033 m 1,0 h 9.078125 m 0.729178,0.836849 -4.768241,0.0241 m -1,0 h -9.082031 m -1,0 H 9.3631725 m -0.903613,0.908589 4.9426745,-0.04764 m 1,0 h 9.082033 m 1,0 h 9.078125 m 0.766564,0.859831 -4.805627,0.0011 m -1,0 h -9.082031 m -1,0 H 9.3631725 m -0.9418248,0.850351 4.9808863,0.0106 m 1,0 h 9.082033 m 1,0 h 9.078125 m 0.803719,0.872005 -4.842782,-0.01105 m -1,0 h -9.082031 m -1,0 H 9.3631725 m -0.9815833,0.859421 5.0206448,0.0015 m 1,0 h 9.082033 m 1,0 h 9.078125 m 0.840659,0.874209 -4.879722,-0.01326 m -1,0 h -9.082031 m -1,0 H 9.3631725 m -1.0212223,0.8633 5.0602838,-0.0024 m 1,0 h 9.082033 m 1,0 h 9.078125 m 0.877303,0.862695 -4.916366,-0.0017 m -1,0 h -9.082031 m -1,0 H 9.3631725 m -1.0610684,0.876149 5.1001299,-0.0152 m 1,0 h 9.082033 m 1,0 h 9.078125 m 0.914181,0.861987 -4.953244,-10e-4 m -1,0 h -9.082031 m -1,0 H 9.3631725 m -1.1006215,0.87625 5.139683,-0.0153 m 1,0 h 9.082033 m 1,0 h 9.078125 m 0.951068,0.861672 -4.990131,-7.21e-4 m -1,0 h -9.082031 m -1,0 H 9.3631725 m -1.1214609,0.861174 5.1605224,-2.23e-4 m 1,0 h 9.082033 m 1,0 h 9.078125 m 0.960938,0.861203 -5.000001,-2.53e-4 m -1,0 h -9.082031 m -1,0 H 9.3631725 m -1.1057265,0.86091 5.144788,4.1e-5 m 1,0 h 9.082033 m 1,0 h 9.078125 m 0.945138,0.861081 -4.984201,-1.3e-4 m -1,0 h -9.082031 m -1,0 H 9.3631725 m -1.0868041,0.861988 5.1258656,-0.001 m 1,0 h 9.082033 m 1,0 h 9.078125 m 0.926058,0.859584 -4.965121,0.0014 m -1,0 h -9.082031 m -1,0 H 9.3631725 m -1.0636777,0.860333 5.1027392,6.17e-4 m 1,0 h 9.082033 m 1,0 h 9.078125 m 0.902765,0.848992 -4.941828,0.01196 m -1,0 h -9.082031 m -1,0 H 9.3631725 m -1.0355988,0.841588 5.0746603,0.01936 m 1,0 h 9.082033 m 1,0 h 9.078125 m 0.873803,0.857023 -4.912866,0.0039 m -1,0 h -9.082031 m -1,0 H 9.3631725 m -1,0.860951 h 5.0390615 m 1,0 h 9.082033 m 1,0 h 9.078125 m 0.838453,0.860443 -4.877516,5.07e-4 m -1,0 h -9.082031 m -1,0 H 9.3631725 m -0.9585318,0.857339 4.9975933,0.0036 m 1,0 h 9.082033 m 1,0 h 9.078125 m 0.795281,0.874823 -4.834344,-0.01387 m -1,0 h -9.082031 m -1,0 H 9.3631725 m -0.9079177,0.860721 4.9469792,2.29e-4 m 1,0 h 9.082033 m 1,0 h 9.078125 m 0.743818,0.875097 -4.782881,-0.01415 m -1,0 h -9.082031 m -1,0 H 9.3631725 m -0.8479173,0.857765 4.8869788,0.0032 m 1,0 h 9.082033 m 1,0 h 9.078125 m 0.681153,0.912065 -4.720216,-0.05112 m -1,0 h -9.082031 m -1,0 H 9.3631725 m -0.7771356,0.854801 4.8161971,0.0062 m 1,0 h 9.082033 m 1,0 h 9.078125 m 0.611113,0.85738 -4.650176,0.0036 m -1,0 h -9.082031 m -1,0 H 9.3631725 m -0.6955763,0.826016 4.7346378,0.03493 m 1,0 h 9.082033 m 1,0 h 9.078125 m 0.526144,0.864992 -4.565207,-0.004 m -1,0 h -9.082031 m -1,0 H 9.3631725 m -0.5959088,0.87907 4.6349703,-0.01812 m 1,0 h 9.082033 m 1,0 h 9.078125 m 0.429531,0.833038 -4.468594,0.02791 m -1,0 h -9.082031 m -1,0 H 9.3631725 m -0.4837539,0.877778 4.5228154,-0.01683 m 1,0 h 9.082033 m 1,0 h 9.078125 m 0.311202,0.894284 -4.350265,-0.03333 m -1,0 h -9.082031 m -1,0 H 9.3631725 m -0.3555218,0.862311 4.3945833,-0.0014 m 1,0 h 9.082033 m 1,0 h 9.078125 m 0.18292,0.84574 -4.221983,0.01521 m -1,0 h -9.082031 m -1,0 H 9.3631725 m -0.2061443,0.869208 4.2452058,-0.0083 m 1,0 h 9.082033 m 1,0 h 9.078125 m 0.03047,0.853595 -4.06953,0.0074 m -1,0 h -9.082031 m -1,0 H 9.3631725 m -0.03942,0.830341 4.0784815,0.03061 m 1,0 h 9.082033 m 1,0 9.02317,0.0044 m -0.08653,0.825482 -3.897583,0.03106 m -1,0 h -9.082031 m -1,0 H 9.3631725 m 0.1590583,0.85623 3.8800032,0.0047 m 1,0 h 9.082033 m 1,0 8.840277,-0.03295 m -0.10139,0.843859 -3.699825,0.05004 m -1,0 h -9.082031 m -1,0 -8.8139865,-0.03026 m 0.1213023,0.899668 3.6536202,-0.0085 m 1,0 h 9.082033 m 1,0 8.622437,-0.008 m -0.116366,0.840614 -3.467009,0.0283 m -1,0 h -9.082031 m -1,0 -8.5729565,-0.02413 m 0.1365065,0.881012 3.397386,0.0041 m 1,0 h 9.082033 m 1,0 8.385004,-0.07215 m -0.151702,0.951371 -3.19424,-0.01827 m -1,0 h -9.082031 m -1,0 -8.295494,-0.01769 m 0.150147,0.841175 3.106283,0.03747 m 1,0 h 9.082033 m 1,0 8.090781,-0.01335 m -0.157022,0.850305 -2.894697,0.02399 m -1,0 h -9.082031 m -1,0 -7.976821,-0.02079 m 0.185525,0.894547 2.752232,-0.01281 m 1,0 h 9.082033 m 1,0 7.747758,0.04673 m -0.163436,0.758976 -2.54526,0.05525 m -1,0 h -9.082031 m -1,0 -7.641039,-0.01511 m 0.130755,0.872339 2.47122,0.0037 m 1,0 h 9.082033 m 1,0 7.450675,-0.01436 m -0.137176,0.924642 -2.274437,-0.04933 m -1,0 h -9.082031 m -1,0 -7.384365,-0.02486 m 0.135157,0.901185 2.210144,-0.01538 m 1,0 h 9.082033 m 1,0 7.18393,0.06099 m -0.126334,0.850168 -2.018534,-0.05021 m -1,0 h -9.082031 m -1,0 -7.125241,-0.01922 m 0.127717,0.851125 1.95846,0.02905 m 1,0 h 9.082033 m 1,0 6.938456,-0.0096 m -0.132604,0.891013 -1.76679,-0.02048 m -1,0 h -9.082031 m -1,0 -6.862125,0.01207 m 0.126833,0.844744 1.696228,0.0041 m 1,0 h 9.082033 m 1,0 6.684505,-0.02576 m -0.128277,0.860526 -1.517166,0.026182 m -1,0 h -9.082031 m -1,0 -6.611886,-0.043403 m 0.133522,0.8887357 1.4393,0.015618 m 1,0 h 9.082033 m 1,0 6.425628,-0.011839 m -0.13259,0.8877371 -1.253976,-0.014949 m -1,0 h -9.082031 m -1,0 -6.347299,-0.0045 m 0.13044,0.8675694 1.177795,-0.00212 m 1,0 h 9.082033 m 1,0 6.167863,-0.00881 m -0.13377,0.8936092 -0.995031,-0.023849 m -1,0 h -9.082031 m -1,0 -6.094248,-0.043668 m 0.137177,0.9115554 0.918007,-0.00694 m 1,0 h 9.082033 m 1,0 5.910006,-0.00926 m -0.127972,0.852511 -0.742972,0.017703 m -1,0 h -9.082031 m -1,0 -5.831509,-0.020104 m 0.13497,0.8958269 0.657475,-0.014772 m 1,0 h 9.082033 m 1,0 5.649796,7.781e-4 m -0.127925,0.8490658 -0.482809,0.011107 m -1,0 h -9.082031 m -1,0 -5.571712,-0.018284 m 0.133774,0.8864516 0.398874,-0.00722 m 1,0 h 9.082033 m 1,0 5.388196,0.01306 m -0.131532,0.86837008 -0.217602,-0.0204807 m -1,0 h -9.082031 m -1,0 -5.311784,-0.0186958 m 1.27272,0.87964655 h 9.082033 m 1,0 5.127657,0.008129 M 28.523329,1.0765239 h -9.082031 m -1,0 -5.055999,-0.052612 m 1.016935,0.9135628 h 9.082033 m 1,0 4.861101,0.023726 m -0.822039,0.8372241 h -9.082031 m -1,0 -4.785113,0.00314 m 0.746049,0.857807 h 9.082033 m 1,0 4.588965,0.028636 M 28.523329,4.520323 h -9.082031 m -1,0 -4.544446,-0.00125 m 0.505382,0.8622052 h 9.082033 m 1,0 4.379922,-6.34e-4 m -0.34086,0.861585 h -9.082031 m -1,0 -4.395896,-0.036367 m 0.356832,0.8973181 h 9.082033 m 1,0 4.235252,0.045971 m -0.19619,0.8149783 h -9.082031 m -1,0 -4.269252,-0.029656 m 0.230188,0.8906067 h 9.082033 m 1,0 4.113855,0.033949 m -0.07479,0.8270023 h -9.082031 m -1,0 -4.151133,0.022806 m 0.112066,0.8381434 h 9.082033 m 1,0 4.002837,0.0018 m 0.03623,0.859109 h -9.082031 m -1,0 -4.042453,0.03469 m 0.05008,0.824879 9.035334,0.0014 m 1,0 3.892137,0.05446 m -0.04855,0.800865 -8.886555,0.0056 m -1,0 -3.940962,-0.0013 m 0.04981,0.846669 8.934116,0.0156 m 1,0 3.793398,-0.02644 m -0.05216,0.884903 -8.784202,0.0025 m -1,0 -3.840115,0.002 m 0.05118,0.891125 8.831895,-0.03219 m 1,0 3.688824,0.0362 m -0.04889,0.847765 -8.682898,-0.02302 m -1,0 -3.739313,0.04352 m 0.0454,0.804572 8.736877,0.01286 m 1,0 3.594093,-0.03671 m -0.04806,0.846077 -8.589002,0.05158 m -1,0 -3.645016,-0.0013 m 0.04965,0.89158 8.638336,-0.0293 m 1,0 3.495143,-0.01085 m -0.0481,0.85694 -8.490015,0.01486 m -1,0 -3.546624,0.04833 m 0.04687,0.849982 8.542725,-0.03736 m 1,0 3.398093,3.95e-4 m -0.04528,0.813572 -8.395777,0.04698 m -1,0 -3.452707,0.03282 m 0.04646,0.848174 8.449208,-0.02005 m 1,0 3.302972,-0.0098 m -0.04564,0.824481 -8.300301,0.04631 m -1,0 -3.357934,0.04292 m 0.04548,0.833665 8.355421,-0.01564 m 1,0 3.207304,-0.0019 m -0.0442,0.80094 -8.206069,0.06189 m -1,0 -3.266279,0.0021 m 0.04847,0.890066 8.260772,-0.03122 m 1,0 3.111761,0.008 m -0.04517,0.819092 -8.109558,0.03388 m -1,0 -3.16899,0.06671 m 0.04295,0.788435 8.169006,0.0058 m 1,0 3.017436,-0.0039 m -0.04714,0.853577 -8.013265,0.01132 m -1,0 -3.077156,0.02966 m 0.04315,0.79019 8.076979,0.0411 m 1,0 2.922528,-0.0086 m -0.04549,0.820839 -7.920009,0.04873 m -1,0 -2.986259,-0.02921 m 0.0477,0.8699 7.981527,0.02026 m 1,0 2.825641,0.01545 m -0.04504,0.808203 -7.823571,0.03729 m -1,0 -2.889455,0.01152 m 0.04671,0.846296 7.885713,0.0031 m 1,0 2.730984,-0.011 m -0.0509,0.906279 -7.723052,-0.03432 m -1,0 -2.79408,0.01404 m 0.04711,0.846229 7.789935,6.85e-4 m 1,0 2.634455,-0.01803 m -0.04923,0.868 -7.62819,0.01098 m -1,0 -2.698852,-0.0018 m 0.04773,0.847992 7.694091,0.01473 m 1,0 2.536062,-0.01039 m -0.04992,0.869163 -7.529108,0.0022 m -1,0 -2.601314,0.0036 m 0.04815,0.844046 7.596125,0.0133 m 1,0 2.437531,-0.02297 m -0.05067,0.868892 -7.429825,0.01503 m -1,0 -2.503699,-0.01407 m 0.04767,0.821917 7.498998,0.05311 m 1,0 2.333909,0.02363 m -0.05004,0.841755 -7.326841,-0.0044 m -1,0 -2.40488,-0.04043 m 0.05088,0.859926 7.396971,0.04145 m 1,0 2.232503,-0.0015 m -0.05538,0.910494 -7.220095,-0.04804 m -1,0 -2.30065,-0.01141 m 0.05466,0.900587 7.288967,-0.02822 m 1,0 2.123945,0.04967 m -0.04926,0.787929 -7.11765,0.02335 m -1,0 -2.195403,-0.01088 m 0.05219,0.834766 7.18618,0.03706 m 1,0 2.017042,0.02296 m -0.0541,0.836123 -7.005913,0.0019 m -1,0 -2.085491,0.0087 m 0.05435,0.836683 7.074113,0.01555 m 1,0 1.909317,-0.04985 m -0.05736,0.850628 -6.89493,0.06018 m -1,0 -1.971723,0.01764 m 0.05627,0.825303 6.958426,0.01801 m 1,0 1.78637,0.02571 m -0.06545,0.914687 -6.763892,-0.07945 m -1,0 -1.852895,0.01182 m 0.06174,0.848877 6.834129,2.49e-4"
     inkscape:connector-curvature="0"
     sodipodi:nodetypes="cccccccccccccccccccccccccccccccccccccccccccccccccccccccccccccccccccccccccccccccccccccccccccccccccccccccccccccccccccccccccccccccccccccccccccccccccccccccccccccccccccccccccccccccccccccccccccccccccccccccccccccccccccccccccccccccccccccccccccccccccccccccccccccccccccccccccccccccccccccccccccccccccccccccccccccccccccccccccccccccccccccccccccccccccccccccccccccccccccccccccccccccccccccccccccccccccccccccccccccccccccccccccccccccccccccccccccccccccccccccccccccccccccccccccccccccccccccccccccccccccccccccccccccccccccccccccccccccccccccccccccccccccccccccccccccccccccccccccccccccccccccccccccccccccccccccccccccccccccccccccccccccccccccccccccccccccccccccccccccccccccccccccccccccccccccccccccccccccccccccccccccccccccccccccccccccccccccccccccccccccccccccccccccccccccccccccccccccccccccccccccccccccccccccccccccccccccccccccccccccccccccccccccccccccccccccccccccccccccccccccccccccccccccccccccccccccccccccccccccccccccccccccccccccccccccccccccccccccccccccccccccccccccccccccccccccccccccccccccccccccccccccccccccccccccccccccccc" /></g><g
   id="test_5_-3"
   transform="matrix(1.5033079,0,0,-1.4915964,-142.96537,638.12847)"><path
     class="st0"
     d="M 294.7,280.2"
     id="path1009-2"
     inkscape:connector-curvature="0"
     style="fill:none;stroke:#000000;stroke-width:0.25;stroke-miterlimit:10" /><path
     class="st0"
     d="M 268.7,280.2"
     id="path1011-7"
     inkscape:connector-curvature="0"
     style="fill:none;stroke:#000000;stroke-width:0.25;stroke-miterlimit:10" /><path
     id="XMLID_16_-4"
     class="st1"
     d="m 269.1,279.2 h -0.3"
     inkscape:connector-curvature="0"
     style="fill:none;stroke:#336699;stroke-width:0.75;stroke-miterlimit:10" /><path
     id="XMLID_15_-2"
     class="st1"
     d="m 293.9,279.2 h -0.4"
     inkscape:connector-curvature="0"
     style="fill:none;stroke:#336699;stroke-width:0.75;stroke-miterlimit:10" /><path
     id="XMLID_14_-7"
     class="st1"
     d="m 268.9,279.2 c -2.9,1.6 -8.9,46.1 -11.2,50.4 -1.2,2.3 -9.4,19.5 -9.4,19.5 -6.7,9.3 -7.4,22.7 -7.7,34 l 0.8,11.3 c 2.3,12.4 5,23.5 14.5,31.5 l 21.6,20.7 c 1,1 2.1,2.1 3.9,2.2 1.8,0 3,-1.2 4,-2.2 L 307,425.9 c 9.4,-8 12.2,-19.2 14.5,-31.5 l 0.9,-11.3 c -0.3,-11.4 -1,-24.7 -7.7,-34 0,0 -8.2,-17.2 -9.4,-19.5 -2.3,-4.3 -8.3,-48.9 -11.2,-50.4"
     inkscape:connector-curvature="0"
     style="fill:none;stroke:#336699;stroke-width:0.75;stroke-miterlimit:10" /></g><path
   id="path5346-8-0"
   style="fill:none;stroke:#000000;stroke-width:0.86568689;stroke-linecap:butt;stroke-linejoin:miter;stroke-miterlimit:10;stroke-opacity:1"
   d="m 301.15081,217.56604 -32.277,0.0361 m -4.72305,0 -4.84124,0.009 m -0.57177,-1.94568 29.23121,-0.0479 m 4.72305,0 9.0309,-0.006 m 0.4911,-1.85635 -33.3402,-0.12301 m -4.72305,0 -5.94862,0.006 m -0.5126,-2.09477 30.27942,0.10714 m 4.72305,0 10.02776,0.0481 m 0.47059,-2.02951 -34.31656,-0.001 m -4.72305,0 -6.89791,-0.0116 m -0.42286,-1.90466 31.13893,-0.0683 m 4.72305,0 10.94595,-0.0322 m 0.44595,-2.08647 -35.21006,0.13547 m -4.72306,0 -7.7573,0.0138 m -0.42215,-2.03042 31.99764,0.0328 m 4.72304,0 11.7935,-0.0871 m 0.38999,-1.92502 -36.00166,0.0288 m -4.72305,0 -8.55659,0.0921 m -0.40604,-2.04251 32.78083,-0.0331 m 4.72304,0 12.55712,0.0728 m 0.42118,-2.16035 -36.79648,0.10427 m -4.72305,0 -9.35416,0.0103 m -0.34684,-1.80347 33.51922,-0.19055 m 4.72305,0 13.3387,0.001 m 0.40268,-2.12565 -37.55959,0.14074 m -4.72305,0 -10.11575,-0.0115 m -0.38148,-2.03364 34.31544,0.0611 m 4.72305,0 14.08243,0.0226 m 0.39778,-2.14276 -38.29839,0.13685 m -4.72305,0 -10.87058,-0.0867 m -0.35622,-1.93164 35.04497,0.0351 m 4.72305,0 14.83048,-0.0553 m 0.3794,-2.07309 -39.02807,0.14507 m -4.72306,0 -11.58269,0.007 m -0.38125,-2.09055 35.78214,0.10083 m 4.72304,0 15.54971,-0.0276 m 0.35209,-1.93998 -39.72,-0.0159 m -4.72305,0 -12.31884,-0.0706 m -0.36021,-1.98677 36.49722,0.074 m 4.72305,0 16.28651,-0.12514 m 0.35585,-1.96689 -40.46054,0.10862 m -4.72305,0 -13.02562,-0.003 m -0.35091,-1.93657 37.19474,-0.0431 m 4.72305,0 16.97223,0.052 m 0.37604,-2.07412 -41.16648,0.0387 m -4.72305,0 -13.73907,0.0294 m -0.36855,-2.02315 37.9258,0.0103 m 4.72305,0 17.67677,0.13876 m 0.3863,-2.11321 -41.88125,-0.009 m -4.72305,0 -14.46282,0.033 m -0.34804,-1.88855 38.62907,-0.12779 m 4.72303,0 18.44242,-0.0679 m 0.63427,-1.91539 H 268.8738 m -4.72305,0 -15.20774,-0.0228 m -0.36076,-1.91697 39.3867,-0.0435 m 4.72304,0 19.18932,-0.0964 m -0.11264,-1.88694 h -42.89489 m -4.72305,0 -15.94524,0.0536 m -0.41354,-2.12524 40.17697,0.0882 m 4.72304,0 19.95024,-0.0793 m -0.87354,-1.90413 h -42.89488 m -4.72305,0 -16.76208,-0.12676 m -0.37747,-1.83701 h 42.89489 m 2.78591,-0.0196 20.77074,-0.1671 m -1.69404,-1.81628 H 268.8738 m -4.72306,0 -17.56899,-0.007 m -0.4544,-2.01047 41.84156,0.0338 m 4.72305,0 21.58281,0.10163 m -2.50611,-2.08497 h -42.89488 m -4.72305,0 -18.49445,0.0282 m -0.58226,-2.01154 h 42.89489 m 4.72305,0 22.59352,0.18717 m -3.51682,-2.17057 h -42.89488 m -4.72305,0 -19.88933,-0.0408 m 0.81262,-1.94265 h 42.89489 m 4.72305,0 24.36728,0.17091 m 1.10222,-2.23889 -1.66975,0.0846 m -4.72305,0 h -42.89488 m -4.72305,0 -21.85814,-0.0407 m 2.78143,-1.94272 h 42.89489 m 4.72305,0 26.39386,0.008 m 0.97407,-2.00003 -3.56818,0.009 m -4.72305,0 h -42.89488 m -4.72305,0 -23.7637,0.021 m -0.98586,-2.02947 0.94981,0.0252 m 4.72304,0 h 42.89489 m 4.72305,0 28.33839,-0.0234 m 0.96281,-1.98594 -5.50145,0.0259 m -4.72305,0 h -42.89488 m -4.72305,0 -25.69136,0.0157 m -0.95282,-1.96818 2.84443,-0.0308 m 4.72304,0 h 42.89489 m 4.72305,0 30.26287,-0.0291 m 0.95305,-1.97115 -7.41617,0.0169 m -4.72305,0 h -42.89488 m -4.72305,0 -27.59005,0.058 m -0.9518,-1.97056 4.7421,-0.0709 m 4.72304,0 h 42.89489 m 4.72305,0 32.18987,-0.0498 m 0.91638,-1.89897 -9.3065,-0.0346 m -4.72305,0 h -42.89488 m -4.72305,0 -29.44972,0.17303 m -0.99701,-2.0676 6.64698,-0.0888 m 4.72304,0 h 42.89489 m 4.72305,0 34.01215,0.13919 m 1.01656,-2.10981 -11.22896,-0.0127 m -4.72305,0 h -42.89488 m -4.72305,0 -31.38806,0.11854 m -0.95794,-1.98958 8.54625,-0.11241 m 4.72304,0 h 42.89489 m 4.72305,0 35.99294,-0.007 m 0.95582,-1.98675 -13.14901,0.0103 m -4.72305,0 h -42.89488 m -4.72305,0 -33.32453,0.0619 m -1.22655,-2.08634 10.75133,0.041 m 4.72304,0 h 42.89489 m 4.72305,0 38.19269,-0.11659 m 1.20794,-1.88571 -15.60088,0.0189 m -4.72305,0 h -42.89488 m -4.72305,0 -35.90199,-0.17274 m -1.0327,-1.82059 13.13494,0.0103 m 4.72304,0 h 42.89489 m 4.72305,0 40.53243,-0.0196 m 1.02647,-2.02219 -17.75915,0.0583 m -4.72305,0 h -42.89488 m -4.72305,0 -38.00277,-0.1382 m -0.81996,-1.81386 15.02298,-0.0313 m 4.72304,0 h 42.89489 m 4.72305,0 42.45981,-0.0652 m 0.7964,-1.9668 -19.45646,0.0487 m -4.72305,0 h -42.89488 m -4.72305,0 -39.63622,0.0115 m -0.72407,-1.99412 16.56054,-4e-4 m 4.72304,0 h 42.89489 m 4.72305,0 h 42.87642 m 1.75133,-2.06078 -20.828,0.0773 m -4.72305,0 h -42.89488 m -4.72305,0 -40.98728,0.0576 m -0.59466,-2.04134 17.78219,3.9e-4 m 4.72304,0 h 42.89489 m 4.72305,0 h 42.87642 m 2.82985,-2.01957 -21.90652,0.0361 m -4.72305,0 h -42.89488 m -4.72305,0 -42.06553,0.13005 m -0.51247,-2.20489 18.77825,0.0914 m 4.72304,0 h 42.89489 m 4.72305,0 h 42.87642 m 3.70316,-2.04392 -22.77983,0.0605 m -4.72305,0 h -42.89488 m -4.72305,0 h -42.8764 m -0.44523,-1.91908 19.52192,-0.0643 m 4.72304,0 h 42.8949 m 4.72305,0 h 42.8764 m 4.37786,-1.984 -23.45453,5.9e-4 m -4.72305,0 h -42.89488 m -4.72305,0 h -42.87643 m -1.08271,-2.12035 20.1594,0.13696 m 4.72304,0 h 42.8949 m 4.72305,0 h 42.8764 m 4.72308,-1.98339 h -23.79975 m -4.72305,0 h -42.89488 m -4.72305,0 h -42.87643 m -1.54527,-2.09396 20.62196,0.11057 m 4.72304,0 h 42.8949 m 4.72305,0 h 42.8764 m 4.72308,-1.9834 h -23.79975 m -4.72305,0 h -42.89488 m -4.72305,0 h -42.87643 m -1.89902,-2.10779 20.97571,0.1244 m 4.72304,0 h 42.8949 m 4.72305,0 h 42.8764 m 5.6284,-2.0449 -24.70507,0.0615 m -4.72305,0 h -42.89488 m -4.72305,0 h -42.87643 m -2.16023,-2.11812 21.23692,0.13472 m 4.72304,0 h 42.8949 m 4.72305,0 h 42.8764 m 5.84706,-1.97676 -24.92373,-0.007 m -4.72305,0 h -42.89488 m -4.72305,0 h -42.87643 m -2.34721,-2.06678 21.4239,0.0834 m 4.72304,0 h 42.8949 m 4.72305,0 h 42.8764 m 6.01113,-2.057 -25.0878,0.0736 m -4.72305,0 h -42.89488 m -4.72305,0 h -42.87643 m -2.48531,-2.0642 21.562,0.0808 m 4.72304,0 h 42.8949 m 4.72305,0 h 42.8764 m 6.13271,-2.14783 -25.20938,0.16443 m -4.72305,0 h -42.89488 m -4.72305,0 h -42.87643 m -2.4037,-2.129891 21.48039,0.146493 m 4.72304,0 h 42.8949 m 4.72305,0 h 42.8764 m 5.82598,-2.002071 -24.90265,0.01868 m -4.72305,0 h -42.89488 m -4.72305,0 h -42.87643 m -2.12074,-2.12865 21.19743,0.145248 m 4.72304,0 h 42.8949 m 4.72305,0 h 42.8764 m 5.50791,-1.997804 -24.58458,0.01447 m -4.72305,0 h -42.89488 m -4.72305,0 h -42.87643 m -1.84186,-2.07047 20.91855,0.08707 m 4.72304,0 h 42.8949 m 4.72305,0 h 42.8764 m 5.19007,-1.990502 -24.26674,0.0076 m -4.72305,0 h -42.89488 m -4.72305,0 h -42.87643 m -1.56263,-2.015136 20.63932,0.03166 m 4.72304,0 h 42.8949 m 4.72305,0 h 42.8764 m 4.87019,-2.008835 -23.94686,0.02544 m -4.72305,0 h -42.89488 m -4.72305,0 h -42.87643 m -1.17686,-2.027097 20.25355,0.04377 m 4.72304,0 h 42.8949 m 4.72305,0 h 42.8764 m 4.25052,-1.927544 -23.32719,-0.05592 m -4.72305,0 h -42.89488 m -4.72305,0 h -42.87643 m -0.42843,-1.920542 19.50512,-0.06291 m 4.72304,0 h 42.8949 m 4.72305,0 h 42.8764 m 3.4195,-2.048467 -22.49617,0.06509 m -4.72305,0 h -42.89488 m -4.72305,0 h -42.87643 m 0.42553,-2.036528 18.65116,0.05317 m 4.72304,0 h 42.8949 m 4.72305,0 h 42.8764 m 2.55258,-1.974593 -21.62925,-0.0092 m -4.72305,0 h -42.89488 m -4.72305,0 -41.99179,-0.106222 m 0.44633,-1.871935 17.74571,-0.0057 m 4.72305,0 h 42.8949 m 4.72303,0 h 42.87642 m 1.57569,-1.93042 -20.65236,-0.05294 m -4.72306,0 H 268.8738 m -4.72305,0 -41.05238,0.04079 m 0.56957,-2.099378 16.68307,0.07517 m 4.72305,0 h 42.8949 m 4.72303,0 h 42.87642 m 0.4248,-2.008946 -19.50149,0.02555 m -4.72304,0 H 268.8738 m -4.72306,0 -39.92515,-0.0057 m 0.63305,-2.016108 15.49237,0.03827 m 4.72303,0 h 42.89489 m 4.72305,0 h 42.87642 m -0.86091,-1.939438 -18.21576,-0.044 m -4.72305,0 H 268.8738 m -4.72305,0 -38.62246,-0.02498 m 0.71858,-1.949166 14.10414,-0.0092 m 4.72303,0 h 42.89489 m 4.72305,0 41.24706,-0.04114 m -0.7995,-1.976988 -16.64781,0.03484 m -4.72305,0 H 268.8738 m -4.72305,0 -37.15742,0.126847 m 0.91777,-2.101246 12.43991,-0.0092 m 4.72303,0 h 42.89489 m 4.72305,0 39.56304,-0.05798 m -0.95403,-1.98023 -14.80926,0.05477 m -4.72305,0 H 268.8738 m -4.72305,0 -35.24741,-0.07379 m 1.06176,-2.009702 10.38591,0.100034 m 4.72303,0 h 42.89489 m 4.72305,0 37.58836,-0.008 m -1.13368,-1.962527 -12.65493,-0.01283 m -4.72305,0 H 268.8738 m -4.72305,0 -33.0682,-0.04102 m 1.25992,-1.970594 8.00854,0.02807 m 4.72303,0 h 42.89489 m 4.72305,0 35.15995,-0.03839 m -1.36241,-1.939254 -9.99779,-0.0057 m -4.72305,0 H 268.8738 m -4.72305,0 -30.34417,-0.111723 m 1.43035,-1.824289 5.11408,-0.04744 m 4.72303,0 h 42.89489 m 4.72305,0 32.23176,-0.02429 m -1.66501,-1.927968 -6.767,-0.03117 m -4.72305,0 H 268.8738 m -4.72305,0 -27.09514,-0.05626 m 1.9148,-1.962538 1.3806,0.03552 m 4.72303,0 h 42.89489 m 4.72305,0 28.5452,-0.07952 m -2.13966,-1.970983 -2.60579,0.06715 m -4.72305,0 H 268.8738 m -4.72305,0 -23.09504,0.03827 m 4.01833,-2.021643 h 42.89489 m 4.72305,0 24.23918,-0.09224 m -5.16248,-1.891243 H 268.8738 m -4.72305,0 -18.88364,0.06841 m 2.16564,-2.059249 40.53618,0.0069 m 4.72305,0 20.18089,0.0157 m -2.11177,-2.008029 -41.8873,0.0092 m -4.72305,0 -14.76428,0.118276 m 2.27179,-2.160166 36.31067,0.05855 m 4.72305,0 16.00791,0.01455 m -1.97603,-1.87908 -37.85006,-0.119033 m -4.72305,0 -10.39981,-0.06497 m 2.03817,-1.938039 32.17982,0.01959 m 4.72305,0 11.76347,-0.05454 m -2.141,-2.035817 -33.44065,0.106909 m -4.72305,0 -6.1839,-0.106909 m 1.93735,-1.842165 28.06473,-0.03426 m 4.72305,0 7.6305,-0.01776 m -2.14245,-2.037169 -29.30623,0.0715 m -4.72305,0 -2.15389,0.02784 m 2.11604,-2.012063 23.85603,6.07e-4 m 4.72305,0 3.41753,-0.05683 m -2.11819,-2.014102 -21.55234,0.01157 m -4.15205,-1.910207 16.42024,0.0034"
   inkscape:connector-curvature="0"
   sodipodi:nodetypes="cccccccccccccccccccccccccccccccccccccccccccccccccccccccccccccccccccccccccccccccccccccccccccccccccccccccccccccccccccccccccccccccccccccccccccccccccccccccccccccccccccccccccccccccccccccccccccccccccccccccccccccccccccccccccccccccccccccccccccccccccccccccccccccccccccccccccccccccccccccccccccccccccccccccccccccccccccccccccccccccccccccccccccccccccccccccccccccccccccccccccccccccccccccccccccccccccccccccccccccccccccccccccccccccccccccccccccccccccccccccccccccccccccccccccccccccccccccccccccccccccccccccccccccccccccccccccccccccccccccccccccccccccccccccccccccccccccccccccccccccccccccccccccccccccccccccccccccccccccccccccccccccccccccccccccccccc" /><g
   id="XMLID_605_-8"
   transform="matrix(2.4772655,0,0,2.4471347,-415.55479,-340.149)"><circle
     class="st2"
     cx="281.29999"
     cy="235.2"
     id="circle992-8"
     style="fill:none;stroke:#0000ff;stroke-miterlimit:10"
     r="0" /></g><g
   id="XMLID_605_-6"
   transform="matrix(2.7040486,0,0,2.7366882,-474.8761,-358.10114)"><ellipse
     class="st2"
     cx="279.66907"
     cy="235.79346"
     id="circle992-3"
     style="fill:none;stroke:#0000ff;stroke-width:1.31072474;stroke-miterlimit:10"
     rx="20.310575"
     ry="20.06052" /></g></svg>