<?xml version="1.0" encoding="UTF-8" standalone="no"?>
<!-- Generator: Adobe Illustrator 24.0.1, SVG Export Plug-In . SVG Version: 6.00 Build 0)  -->

<svg
   xmlns:dc="http://purl.org/dc/elements/1.1/"
   xmlns:cc="http://creativecommons.org/ns#"
   xmlns:rdf="http://www.w3.org/1999/02/22-rdf-syntax-ns#"
   xmlns:svg="http://www.w3.org/2000/svg"
   xmlns="http://www.w3.org/2000/svg"
   xmlns:sodipodi="http://sodipodi.sourceforge.net/DTD/sodipodi-0.dtd"
   xmlns:inkscape="http://www.inkscape.org/namespaces/inkscape"
   version="1.1"
   id="Ebene_1"
   x="0px"
   y="0px"
   viewBox="0 0 1700.7874 1133.8582"
   xml:space="preserve"
   sodipodi:docname="flower_14_works.svg"
   width="45cm"
   height="30cm"
   inkscape:version="0.92.4 (5da689c313, 2019-01-14)"><metadata
   id="metadata2001"><rdf:RDF><cc:Work
       rdf:about=""><dc:format>image/svg+xml</dc:format><dc:type
         rdf:resource="http://purl.org/dc/dcmitype/StillImage" /><dc:title /></cc:Work></rdf:RDF></metadata><defs
   id="defs1999" /><sodipodi:namedview
   pagecolor="#ffffff"
   bordercolor="#666666"
   borderopacity="1"
   objecttolerance="10"
   gridtolerance="10"
   guidetolerance="10"
   inkscape:pageopacity="0"
   inkscape:pageshadow="2"
   inkscape:window-width="1920"
   inkscape:window-height="986"
   id="namedview1997"
   showgrid="false"
   units="cm"
   inkscape:zoom="0.5887359"
   inkscape:cx="202.18973"
   inkscape:cy="336.32054"
   inkscape:window-x="-11"
   inkscape:window-y="-11"
   inkscape:window-maximized="1"
   inkscape:current-layer="Ebene_1"
   inkscape:snap-nodes="true"
   inkscape:snap-smooth-nodes="true"
   inkscape:snap-midpoints="true"
   inkscape:snap-intersection-paths="true"
   inkscape:object-paths="true" />
<style
   type="text/css"
   id="style2">
	.st0{fill:none;stroke:#000000;stroke-width:0.25;stroke-miterlimit:10;}
	.st1{fill:none;stroke:#336699;stroke-width:0.75;stroke-miterlimit:10;}
	.st2{fill:none;stroke:#0000FF;stroke-miterlimit:10;}
</style>
<g
   id="test"
   transform="matrix(1.6869732,0.33534818,-0.33534818,1.6869732,35.163927,281.70896)">
	<path
   class="st0"
   d="M 267.8,189.9"
   id="path4"
   inkscape:connector-curvature="0"
   style="fill:none;stroke:#000000;stroke-width:0.25;stroke-miterlimit:10" />
	<path
   class="st0"
   d="M 293.8,189.9"
   id="path6"
   inkscape:connector-curvature="0"
   style="fill:none;stroke:#000000;stroke-width:0.25;stroke-miterlimit:10" />
	<path
   id="XMLID_9_"
   class="st1"
   d="m 293.4,190.9 h 0.3"
   inkscape:connector-curvature="0"
   style="fill:none;stroke:#336699;stroke-width:0.75;stroke-miterlimit:10" />
	<path
   id="XMLID_8_"
   class="st1"
   d="M 268.6,190.9 H 269"
   inkscape:connector-curvature="0"
   style="fill:none;stroke:#336699;stroke-width:0.75;stroke-miterlimit:10" />
	<path
   id="XMLID_7_"
   class="st1"
   d="m 293.6,190.9 c 2.9,-1.6 8.9,-46.1 11.2,-50.4 1.2,-2.3 9.4,-19.5 9.4,-19.5 6.7,-9.3 7.4,-22.7 7.7,-34 l -0.8,-11.3 c -2.3,-12.4 -5,-23.5 -14.5,-31.5 L 285,23.5 c -1,-1 -2.1,-2.1 -3.9,-2.2 -1.8,0 -3,1.2 -4,2.2 l -21.6,20.7 c -9.4,8 -12.2,19.2 -14.5,31.5 L 240.1,87 c 0.3,11.4 1,24.7 7.7,34 0,0 8.2,17.2 9.4,19.5 2.3,4.3 8.3,48.9 11.2,50.4"
   inkscape:connector-curvature="0"
   style="fill:none;stroke:#336699;stroke-width:0.75;stroke-miterlimit:10" />
</g>

<g
   id="test_2_"
   transform="matrix(1.6869732,0.33534818,-0.33534818,1.6869732,35.163927,281.70896)">
	<path
   id="XMLID_4_"
   class="st1"
   d="m 326.54614,227.67672 c 3.3,1.5 52.03137,-28.33617 58.03137,-29.23617 3.1,-0.4 26.6,-4.5 26.6,-4.5 13.8,-0.2 29.1,-8.3 42,-15.4 l 12.3,-8 c 12.7,-10 23.9,-19.5 28.1,-33 l 12.4,-32.1 c 0.6,-1.5 1.2,-3.2 0.4,-4.9 -0.9,-1.599997 -2.8,-1.799997 -4.4,-1.999997 l -34,-5.3 c -13.7,-3 -27.6,1.8 -42.6,7.799997 l -13.1,6.5 c -12.6,7.6 -27.2,16.8 -34.3,28.7 0,0 -15.2,18.3 -17.2,20.8 -3.7,4.8 -50.6,38.9 -50.9,42.3"
   inkscape:connector-curvature="0"
   style="fill:none;stroke:#336699;stroke-width:0.75;stroke-miterlimit:10"
   sodipodi:nodetypes="ccccccccccccccc" />
</g>



<path
   class="st0"
   d="M 511.2362,733.50796"
   id="path988"
   inkscape:connector-curvature="0"
   style="fill:none;stroke:#000000;stroke-width:0.35435104;stroke-miterlimit:10" />
<path
   class="st0"
   d="M 523.78427,767.07282"
   id="path990"
   inkscape:connector-curvature="0"
   style="fill:none;stroke:#000000;stroke-width:0.35435104;stroke-miterlimit:10" />
<g
   id="XMLID_605_"
   transform="matrix(3.6271592,0.72103174,-0.72103174,3.6271592,-419.6688,-283.63193)">
	<circle
   class="st2"
   cx="281.29999"
   cy="235.2"
   r="15.4"
   id="circle992"
   style="fill:none;stroke:#0000ff;stroke-miterlimit:10" />
</g>
<g
   id="XMLID_604_"
   transform="matrix(1.6869732,0.33534818,-0.33534818,1.6869732,35.163927,281.70896)">
	<path
   id="XMLID_3629_"
   class="st2"
   d="M 251.76208,200.06995 C 257.36208,194.56995 260.6,193 268.4,190.9"
   inkscape:connector-curvature="0"
   style="fill:none;stroke:#0000ff;stroke-miterlimit:10"
   sodipodi:nodetypes="cc" />
	<path
   id="XMLID_3634_"
   class="st2"
   d="m 235.86815,241.59661 c -1.95651,-6.12113 -0.73745,-11.15278 0.43713,-15.34324"
   inkscape:connector-curvature="0"
   style="fill:none;stroke:#0000ff;stroke-miterlimit:10"
   sodipodi:nodetypes="cc" />
	<path
   id="XMLID_3624_"
   class="st2"
   d="m 268.9,279.3 c -7.6,-2.2 -10.96322,-4.06722 -16.36322,-9.36722"
   inkscape:connector-curvature="0"
   style="fill:none;stroke:#0000ff;stroke-miterlimit:10"
   sodipodi:nodetypes="cc" />
	<path
   id="XMLID_3631_"
   class="st2"
   d="M 310.82491,270.22977 C 305.42491,275.52977 301.4,277.1 293.9,279.3"
   inkscape:connector-curvature="0"
   style="fill:none;stroke:#0000ff;stroke-miterlimit:10"
   sodipodi:nodetypes="cc" />
	<path
   id="XMLID_3630_"
   class="st2"
   d="M 326.54614,227.67672 C 327.06218,231.18243 327.1,231.2 327.1,235.2 c 0,3.8 0.0817,5.44635 -0.81829,8.84635"
   inkscape:connector-curvature="0"
   style="fill:none;stroke:#0000ff;stroke-miterlimit:10"
   sodipodi:nodetypes="csc" />
	<path
   id="XMLID_3018_"
   class="st2"
   d="m 293,190.8 c 7.7,2.1 11.17751,3.14055 16.87751,8.54055"
   inkscape:connector-curvature="0"
   style="fill:none;stroke:#0000ff;stroke-miterlimit:10"
   sodipodi:nodetypes="cc" />
</g>
<g
   id="test_6_"
   transform="matrix(1.3902025,0.27635406,-0.27635406,1.3902025,106.46808,369.94278)">
	<path
   class="st0"
   d="M 267.9,189.9"
   id="path1002"
   inkscape:connector-curvature="0"
   style="fill:none;stroke:#000000;stroke-width:0.25;stroke-miterlimit:10" />
	<path
   class="st0"
   d="M 293.9,189.9"
   id="path1004"
   inkscape:connector-curvature="0"
   style="fill:none;stroke:#000000;stroke-width:0.25;stroke-miterlimit:10" />
	<path
   id="XMLID_24_"
   class="st1"
   d="M 268.6,190.9"
   inkscape:connector-curvature="0"
   style="fill:none;stroke:#336699;stroke-width:0.75;stroke-miterlimit:10" />
	<path
   id="XMLID_23_"
   class="st1"
   d="M 293.7,190.9"
   inkscape:connector-curvature="0"
   style="fill:none;stroke:#336699;stroke-width:0.75;stroke-miterlimit:10" />
</g>

<g
   id="test_4_"
   transform="matrix(1.6869732,0.33534818,-0.33534818,1.6869732,35.163927,281.70896)">
	
	<path
   id="XMLID_5_"
   class="st1"
   d="m 326.28171,244.04635 c 3.5,-1.2 67.21829,31.25365 74.31829,32.75365 3.7,0.8 31.6,7.3 31.6,7.3 16.2,1.6 34.9,11.6 50.7,20.4 l 15.1,9.7 c 15.9,11.8 29.8,23.1 36.2,37.6 l 17.7,35.1 c 0.9,1.6 2,3.5 1,5.1 -1.1,1.5 -3.1,1.6 -4.9,1.7 l -39.3,2.2 c -15.8,1.9 -32.5,-4.6 -50.7,-12.5 l -15.9,-8.3 c -15.5,-9.3 -33.5,-20.5 -43,-33.7 0,0 -19.6,-20.8 -22.1,-23.7 -4.8,-5.4 -65.37509,-43.67023 -66.17509,-47.47023"
   inkscape:connector-curvature="0"
   style="fill:none;stroke:#336699;stroke-width:0.75;stroke-miterlimit:10"
   sodipodi:nodetypes="ccccccccccccccc" />
	<path
   id="XMLID_3_"
   class="st1"
   d="M 325,281"
   inkscape:connector-curvature="0"
   style="fill:none;stroke:#336699;stroke-width:0.75;stroke-miterlimit:10" />
</g>




<path
   id="XMLID_7_-2"
   class="st1"
   d="m 394.79087,842.98863 c -5.42877,1.72664 -30.47361,74.78486 -35.79564,81.26755 -2.79567,3.47762 -22.39684,29.74374 -22.39684,29.74374 -14.42146,13.442 -20.09601,35.8127 -24.39154,54.77488 l -2.43985,19.331 c -0.27828,21.6899 0.55418,41.3208 13.89764,58.0024 l 29.49692,42.1638 c 1.35162,2.0223 2.83841,4.2469 5.84143,5.0192 3.03655,0.6036 5.46334,-1.0183 7.48566,-2.3699 l 43.38033,-27.6769 c 18.54033,-10.3435 27.01975,-28.2986 35.02458,-48.2771 l 5.30771,-18.7609 c 3.31687,-19.3322 6.59612,-42.00368 -1.58786,-59.93938 0,0 -8.06519,-31.7658 -9.31826,-36.0483 -2.43804,-8.0253 2.39665,-85.27635 -1.99255,-88.77932"
   inkscape:connector-curvature="0"
   style="fill:none;stroke:#336699;stroke-width:1.28998625;stroke-miterlimit:10" /><g
   id="test_2_-1"
   transform="matrix(-1.6869732,-0.33534818,0.33534818,-1.6869732,826.5718,1261.9651)"><path
     id="XMLID_4_-3"
     class="st1"
     d="m 326.54614,227.67672 c 3.3,1.5 52.03137,-28.33617 58.03137,-29.23617 3.1,-0.4 26.6,-4.5 26.6,-4.5 13.8,-0.2 29.1,-8.3 42,-15.4 l 12.3,-8 c 12.7,-10 23.9,-19.5 28.1,-33 l 12.4,-32.1 c 0.6,-1.5 1.2,-3.2 0.4,-4.9 -0.9,-1.599997 -2.8,-1.799997 -4.4,-1.999997 l -34,-5.3 c -13.7,-3 -27.6,1.8 -42.6,7.799997 l -13.1,6.5 c -12.6,7.6 -27.2,16.8 -34.3,28.7 0,0 -15.2,18.3 -17.2,20.8 -3.7,4.8 -50.6,38.9 -50.9,42.3"
     inkscape:connector-curvature="0"
     style="fill:none;stroke:#336699;stroke-width:0.75;stroke-miterlimit:10"
     sodipodi:nodetypes="ccccccccccccccc" /></g><g
   id="test_4_-3"
   transform="matrix(-1.6869732,-0.33534818,0.33534818,-1.6869732,826.51894,1263.7545)"><path
     id="XMLID_5_-5"
     class="st1"
     d="m 326.28171,244.04635 c 3.5,-1.2 67.21829,31.25365 74.31829,32.75365 3.7,0.8 31.6,7.3 31.6,7.3 16.2,1.6 34.9,11.6 50.7,20.4 l 15.1,9.7 c 15.9,11.8 29.8,23.1 36.2,37.6 l 17.7,35.1 c 0.9,1.6 2,3.5 1,5.1 -1.1,1.5 -3.1,1.6 -4.9,1.7 l -39.3,2.2 c -15.8,1.9 -32.5,-4.6 -50.7,-12.5 l -15.9,-8.3 c -15.5,-9.3 -33.5,-20.5 -43,-33.7 0,0 -19.6,-20.8 -22.1,-23.7 -4.8,-5.4 -65.37509,-43.67023 -66.17509,-47.47023"
     inkscape:connector-curvature="0"
     style="fill:none;stroke:#336699;stroke-width:0.75;stroke-miterlimit:10"
     sodipodi:nodetypes="ccccccccccccccc" /><path
     id="XMLID_3_-0"
     class="st1"
     d="M 325,281"
     inkscape:connector-curvature="0"
     style="fill:none;stroke:#336699;stroke-width:0.75;stroke-miterlimit:10" /></g></svg>