<?xml version="1.0" encoding="utf-8"?>
<!-- Generator: Adobe Illustrator 24.0.1, SVG Export Plug-In . SVG Version: 6.00 Build 0)  -->
<svg version="1.1" id="Ebene_1" xmlns="http://www.w3.org/2000/svg" xmlns:xlink="http://www.w3.org/1999/xlink" x="0px" y="0px"
	 viewBox="0 0 566.9 566.9" style="enable-background:new 0 0 566.9 566.9;" xml:space="preserve">
<style type="text/css">
	.st0{fill:none;stroke:#000000;stroke-width:0.25;stroke-miterlimit:10;}
	.st1{fill:none;stroke:#336699;stroke-width:0.75;stroke-miterlimit:10;}
	.st2{fill:none;stroke:#0000FF;stroke-miterlimit:10;}
</style>
<g id="test">
	<path class="st0" d="M267.8,189.9"/>
	<path class="st0" d="M293.8,189.9"/>
	<path id="XMLID_9_" class="st1" d="M293.4,190.9h0.3"/>
	<path id="XMLID_8_" class="st1" d="M268.6,190.9h0.4"/>
	<path id="XMLID_7_" class="st1" d="M293.6,190.9c2.9-1.6,8.9-46.1,11.2-50.4c1.2-2.3,9.4-19.5,9.4-19.5c6.7-9.3,7.4-22.7,7.7-34
		l-0.8-11.3c-2.3-12.4-5-23.5-14.5-31.5l-21.6-20.7c-1-1-2.1-2.1-3.9-2.2c-1.8,0-3,1.2-4,2.2l-21.6,20.7c-9.4,8-12.2,19.2-14.5,31.5
		l-0.9,11.3c0.3,11.4,1,24.7,7.7,34c0,0,8.2,17.2,9.4,19.5c2.3,4.3,8.3,48.9,11.2,50.4"/>
</g>
<g id="test_1_">
	<path id="XMLID_13_" class="st1" d="M249.3,202.1l0.1-0.2"/>
	<path id="XMLID_12_" class="st1" d="M236.9,223.7l0.3-0.5"/>
	<path id="XMLID_11_" class="st1" d="M236.9,223.7c-3.5,1.2-67.9-28.9-75-30.4c-3.7-0.8-31.6-7.3-31.6-7.3
		c-16.2-1.6-34.9-11.6-50.7-20.4l-15.1-9.7c-15.9-11.8-29.8-23.1-36.2-37.6L10.7,83.1c-0.9-1.6-2-3.5-1-5.1c1.1-1.5,3.1-1.6,4.9-1.7
		l39.3-2.2c15.8-1.9,32.5,4.6,50.7,12.5l15.9,8.3c15.5,9.3,33.5,20.5,43,33.7c0,0,19.6,20.8,22.1,23.7c4.8,5.4,63,45.9,63.8,49.7"/>
	<path id="XMLID_1_" class="st1" d="M237.5,189.1"/>
</g>
<g id="test_2_">
	<path id="XMLID_4_" class="st1" d="M325.6,224c3.3,1.5,56.1-22.1,62.1-23c3.1-0.4,26.6-4.5,26.6-4.5c13.8-0.2,29.1-8.3,42-15.4
		l12.3-8c12.7-10,23.9-19.5,28.1-33l12.4-32.1c0.6-1.5,1.2-3.2,0.4-4.9c-0.9-1.6-2.8-1.8-4.4-2l-34-5.3c-13.7-3-27.6,1.8-42.6,7.8
		l-13.1,6.5c-12.6,7.6-27.2,16.8-34.3,28.7c0,0-15.2,18.3-17.2,20.8c-3.7,4.8-50.6,38.9-50.9,42.3"/>
</g>
<g id="surface6361_1_">
	<line class="st0" x1="508.6" y1="106.6" x2="506.3" y2="102.6"/>
	<line class="st0" x1="502.5" y1="102.2" x2="506.9" y2="109.9"/>
	<line class="st0" x1="505.5" y1="113.6" x2="498.3" y2="101.2"/>
	<line class="st0" x1="493.8" y1="99.5" x2="504" y2="117.2"/>
	<path class="st0" d="M503.5,122.5c-4.1-7-6-10.4-10.1-17.4"/>
	<line class="st0" x1="491.5" y1="101.7" x2="489.9" y2="98.9"/>
	<path class="st0" d="M486,98.3c5.2,8.9,7.5,13,12.7,22"/>
	<path class="st0" d="M500.6,123.6c1,1.8,0.5,0.8,1.5,2.6"/>
	<path class="st0" d="M500.6,129.9c-4.7-8.2-7.8-13.5-12.5-21.7"/>
	<path class="st0" d="M486.1,104.7c-2.3-4.1-1.7-3-4.1-7"/>
	<line class="st0" x1="478.4" y1="97.1" x2="493.5" y2="123.3"/>
	<path class="st0" d="M495.4,126.6c2,3.5,1.9,3.2,3.9,6.8"/>
	<line class="st0" x1="497.9" y1="137.1" x2="482.9" y2="111.1"/>
	<path class="st0" d="M480.9,107.7c-3.5-6.1-2.9-5.1-6.5-11.2"/>
	<line class="st0" x1="470.5" y1="95.9" x2="488.1" y2="126.4"/>
	<path class="st0" d="M490,129.7c3.1,5.4,3.4,5.8,6.5,11.2"/>
	<line class="st0" x1="495" y1="144.5" x2="477.5" y2="114.2"/>
	<line class="st0" x1="475.6" y1="110.8" x2="466.7" y2="95.3"/>
	<line class="st0" x1="465.1" y1="98.8" x2="482.8" y2="129.5"/>
	<path class="st0" d="M484.7,132.8c3.6,6.2,5.1,8.8,8.7,15"/>
	<line class="st0" x1="489.9" y1="148" x2="472.2" y2="117.3"/>
	<path class="st0" d="M470.2,113.9c-3.9-6.8-6.9-12-10.8-18.7"/>
	<line class="st0" x1="456" y1="95.5" x2="457.7" y2="98.5"/>
	<line class="st0" x1="459.7" y1="101.9" x2="477.4" y2="132.6"/>
	<path class="st0" d="M479.3,135.9c4.4,7.6,5.8,10.1,10.2,17.7"/>
	<path class="st0" d="M487.5,156.1c-1.1-1.9,0.1,0.2-1-1.7"/>
	<line class="st0" x1="484.6" y1="151.1" x2="466.8" y2="120.4"/>
	<path class="st0" d="M464.9,117c-4.5-7.9-7.6-13.1-12.1-21"/>
	<path class="st0" d="M449.8,96.7c1.4,2.5,1.3,2.3,2.8,4.8"/>
	<line class="st0" x1="454.5" y1="104.9" x2="472.2" y2="135.6"/>
	<path class="st0" d="M474.1,138.9c4.4,7.7,6.9,11.9,11.3,19.5"/>
	<path class="st0" d="M483.2,160.7c-1.2-2.2-0.6-1.1-1.9-3.3"/>
	<line class="st0" x1="479.4" y1="154.1" x2="461.6" y2="123.4"/>
	<path class="st0" d="M459.7,120c-5.1-8.8-7.9-13.7-13-22.6"/>
	<line class="st0" x1="443.6" y1="98.3" x2="447.2" y2="104.6"/>
	<line class="st0" x1="449.2" y1="108" x2="466.9" y2="138.7"/>
	<path class="st0" d="M468.8,142c4.8,8.2,7.3,12.7,12.1,20.9"/>
	<path class="st0" d="M478.5,165c-1.7-2.9-0.9-1.6-2.6-4.5"/>
	<line class="st0" x1="474" y1="157.2" x2="456.3" y2="126.5"/>
	<path class="st0" d="M454.3,123.1c-5.1-8.9-8.6-14.9-13.7-23.8"/>
	<path class="st0" d="M437.6,100.3c2,3.5,2.2,3.8,4.2,7.3"/>
	<line class="st0" x1="443.8" y1="111" x2="461.5" y2="141.7"/>
	<path class="st0" d="M463.4,145c5.1,8.8,7.6,13.2,12.7,22"/>
	<path class="st0" d="M473.7,169.1c-2.1-3.7-1-1.8-3.2-5.5"/>
	<line class="st0" x1="468.7" y1="160.3" x2="450.9" y2="129.6"/>
	<path class="st0" d="M449,126.2c-5.5-9.6-8.8-15.2-14.3-24.8"/>
	<line class="st0" x1="431.8" y1="102.5" x2="436.5" y2="110.7"/>
	<line class="st0" x1="438.5" y1="114.1" x2="456.2" y2="144.8"/>
	<line class="st0" x1="458.1" y1="148.1" x2="471.4" y2="170.9"/>
	<path class="st0" d="M468.9,173c-2.1-3.6-1.6-2.7-3.6-6.3"/>
	<line class="st0" x1="463.3" y1="163.4" x2="445.6" y2="132.7"/>
	<line class="st0" x1="443.6" y1="129.3" x2="428.9" y2="103.7"/>
	<path class="st0" d="M426.2,105c2.5,4.3,2.6,4.5,5.1,8.8"/>
	<line class="st0" x1="433.3" y1="117.1" x2="451" y2="147.8"/>
	<path class="st0" d="M452.9,151.1c5.4,9.4,8.1,14,13.5,23.4"/>
	<path class="st0" d="M463.8,176.3c-2.4-4.1-1.4-2.5-3.8-6.6"/>
	<line class="st0" x1="458.1" y1="166.4" x2="440.4" y2="135.7"/>
	<line class="st0" x1="438.4" y1="132.3" x2="423.5" y2="106.3"/>
	<path class="st0" d="M420.7,107.7c2.4,4.1,2.9,5,5.2,9.1"/>
	<line class="st0" x1="427.9" y1="120.2" x2="445.6" y2="150.9"/>
	<path class="st0" d="M447.5,154.2c5.7,9.8,8,13.9,13.7,23.7"/>
	<path class="st0" d="M458.6,179.6c-2.3-4.1-1.6-2.8-3.9-6.8"/>
	<line class="st0" x1="452.8" y1="169.5" x2="435.1" y2="138.8"/>
	<line class="st0" x1="433.1" y1="135.4" x2="417.9" y2="109.1"/>
	<line class="st0" x1="415.2" y1="110.5" x2="420.6" y2="119.9"/>
	<line class="st0" x1="422.6" y1="123.3" x2="440.3" y2="154"/>
	<path class="st0" d="M442.2,157.3c5.7,9.9,8.1,14.1,13.8,24"/>
	<path class="st0" d="M453.3,182.8c-2.5-4.3-1.5-2.6-4-6.9"/>
	<line class="st0" x1="447.4" y1="172.6" x2="429.7" y2="141.9"/>
	<line class="st0" x1="427.7" y1="138.5" x2="412.5" y2="112.1"/>
	<line class="st0" x1="409.9" y1="113.8" x2="415.3" y2="123"/>
	<line class="st0" x1="417.2" y1="126.4" x2="434.9" y2="157.1"/>
	<line class="st0" x1="436.8" y1="160.4" x2="450.6" y2="184.3"/>
	<path class="st0" d="M448,185.6c-2.4-4.2-1.5-2.5-3.9-6.7"/>
	<line class="st0" x1="442.2" y1="175.6" x2="424.5" y2="144.9"/>
	<line class="st0" x1="422.5" y1="141.5" x2="407.4" y2="115.3"/>
	<path class="st0" d="M404.9,117c2.7,4.7,2.5,4.3,5.2,9"/>
	<line class="st0" x1="412" y1="129.4" x2="429.7" y2="160.1"/>
	<path class="st0" d="M431.6,163.4c5.7,9.9,8,13.6,13.7,23.5"/>
	<path class="st0" d="M442.5,188.4c-2.6-4.5-1.1-1.9-3.7-6.4"/>
	<line class="st0" x1="436.9" y1="178.6" x2="419.2" y2="147.9"/>
	<line class="st0" x1="417.2" y1="144.5" x2="402.3" y2="118.7"/>
	<path class="st0" d="M399.7,120.5c2.5,4.3,2.5,4.3,5,8.6"/>
	<line class="st0" x1="406.7" y1="132.5" x2="424.4" y2="163.2"/>
	<path class="st0" d="M426.3,166.5c5.7,9.9,7.6,13.2,13.4,23.2"/>
	<path class="st0" d="M436.8,190.9c-2.4-4.1-1-1.8-3.4-5.9"/>
	<line class="st0" x1="431.5" y1="181.7" x2="413.8" y2="151"/>
	<line class="st0" x1="411.8" y1="147.6" x2="397.2" y2="122.3"/>
	<line class="st0" x1="394.8" y1="124.3" x2="399.4" y2="132.2"/>
	<line class="st0" x1="401.3" y1="135.6" x2="419" y2="166.3"/>
	<path class="st0" d="M420.9,169.6c5.6,9.7,7.4,12.8,13,22.5"/>
	<path class="st0" d="M431,193.2c-2.4-4.2-0.5-0.9-2.9-5.1"/>
	<line class="st0" x1="426.2" y1="184.8" x2="408.5" y2="154.1"/>
	<line class="st0" x1="406.5" y1="150.7" x2="392.4" y2="126.3"/>
	<path class="st0" d="M390,128.4c2.6,4.6,1.3,2.3,4,6.9"/>
	<line class="st0" x1="396" y1="138.7" x2="413.7" y2="169.4"/>
	<path class="st0" d="M415.6,172.7c5.6,9.6,6.8,11.9,12.4,21.5"/>
	<path class="st0" d="M425.1,195c-2-3.5-0.2-0.3-2.2-3.8"/>
	<line class="st0" x1="421" y1="187.8" x2="403.3" y2="157.1"/>
	<path class="st0" d="M401.3,153.7c-5.7-9.8-7.8-13.4-13.4-23.3"/>
	<path class="st0" d="M385.7,132.8c2.3,3.9,0.9,1.5,3.1,5.4"/>
	<line class="st0" x1="390.8" y1="141.7" x2="408.5" y2="172.4"/>
	<path class="st0" d="M410.4,175.7c5.3,9.1,6.3,10.9,11.6,20"/>
	<path class="st0" d="M418.7,196.2c-1.9-3.4,0.8,1.4-1.2-2"/>
	<line class="st0" x1="415.6" y1="190.9" x2="397.9" y2="160.2"/>
	<path class="st0" d="M395.9,156.8c-5.4-9.4-6.9-12-12.4-21.4"/>
	<path class="st0" d="M381.6,138.2c2.2,3.8-0.4-0.6,1.8,3.2"/>
	<line class="st0" x1="385.4" y1="144.8" x2="403.1" y2="175.5"/>
	<path class="st0" d="M405,178.8c5.3,9.2,4.9,8.6,10.2,17.7"/>
	<line class="st0" x1="410.3" y1="194" x2="392.6" y2="163.3"/>
	<path class="st0" d="M390.6,159.9c-5.1-8.8-5.9-10.2-11-19"/>
	<line class="st0" x1="377.5" y1="143.4" x2="378.1" y2="144.4"/>
	<line class="st0" x1="380.1" y1="147.8" x2="397.8" y2="178.5"/>
	<path class="st0" d="M399.7,181.8c4.7,8.2,4.3,7.5,9,15.6"/>
	<line class="st0" x1="404.9" y1="197.1" x2="387.2" y2="166.4"/>
	<path class="st0" d="M385.2,163c-4.5-7.9-5.3-9.2-9.8-17.1"/>
	<line class="st0" x1="374.7" y1="150.9" x2="392.4" y2="181.6"/>
	<path class="st0" d="M394.4,184.9c4.3,7.4,3.6,6.2,7.9,13.7"/>
	<line class="st0" x1="399.2" y1="199.1" x2="382" y2="169.4"/>
	<path class="st0" d="M380,166c-4.4-7.7-4.3-7.4-8.7-15.1"/>
	<line class="st0" x1="369.5" y1="153.9" x2="387.2" y2="184.6"/>
	<path class="st0" d="M389.2,187.9c3.8,6.6,3,5.1,6.8,11.7"/>
	<line class="st0" x1="392.7" y1="200.2" x2="376.7" y2="172.5"/>
	<path class="st0" d="M374.7,169.1c-3.8-6.5-3.8-6.6-7.6-13.1"/>
	<line class="st0" x1="365" y1="158.5" x2="381.9" y2="187.7"/>
	<path class="st0" d="M383.8,191c3.8,6.5,1.8,3.2,5.6,9.7"/>
	<line class="st0" x1="386.2" y1="201.4" x2="371.3" y2="175.6"/>
	<path class="st0" d="M369.4,172.2c-3.4-5.8-3.1-5.4-6.5-11.2"/>
	<line class="st0" x1="360.5" y1="163.1" x2="376.5" y2="190.8"/>
	<path class="st0" d="M378.5,194.1c3.4,5.8,1.4,2.4,4.8,8.2"/>
	<line class="st0" x1="380.3" y1="203.4" x2="366" y2="178.7"/>
	<path class="st0" d="M364,175.3c-3.3-5.7-2.6-4.5-5.9-10.2"/>
	<line class="st0" x1="355.7" y1="167" x2="371.2" y2="193.9"/>
	<path class="st0" d="M373.1,197.2c2.8,4.8,1.5,2.5,4.3,7.4"/>
	<path class="st0" d="M374.7,205.6c-5.8-10.4-7.5-13.2-13.9-24"/>
	<path class="st0" d="M358.8,178.3c-2.6-4.5-2.8-4.9-5.4-9.4"/>
	<path class="st0" d="M350.9,170.8c6,10.3,9.1,15.7,15.1,26.1"/>
	<path class="st0" d="M367.9,200.2c2.4,4.2,1.4,2.4,3.8,6.6"/>
	<path class="st0" d="M368.8,208c-5.6-9.7-7.8-13.5-13.4-23.2"/>
	<path class="st0" d="M353.5,181.3c-2.4-4.2-2.6-4.5-5-8.6"/>
	<path class="st0" d="M346,174.6c5.7,9.9,8.9,15.5,14.6,25.3"/>
	<path class="st0" d="M362.6,203.3c2.3,4.1,1,1.8,3.4,5.9"/>
	<path class="st0" d="M363.1,210.3c-5.5-9.6-7.5-12.9-13-22.5"/>
	<path class="st0" d="M348.1,184.4c-2.4-4.2-2.1-3.7-4.5-7.9"/>
	<path class="st0" d="M341.1,178.5c5.6,9.7,8.6,14.9,14.2,24.6"/>
	<path class="st0" d="M357.2,206.4c2.3,4.1,0.6,1.1,3,5.1"/>
	<path class="st0" d="M357.3,212.7c-5.7-9.9-6.8-11.8-12.6-21.7"/>
	<path class="st0" d="M342.8,187.5c-2.2-3.7-2-3.4-4.1-7.1"/>
	<path class="st0" d="M336.2,182.3c5.3,9.2,8.5,14.7,13.8,23.9"/>
	<path class="st0" d="M351.9,209.5c2.5,4.4,0,0,2.5,4.4"/>
	<line class="st0" x1="351.7" y1="214.9" x2="339.5" y2="193.9"/>
	<path class="st0" d="M337.6,190.5c-1.9-3.3-1.8-3.1-3.7-6.4"/>
	<path class="st0" d="M331.4,186.1c5.1,8.9,8.2,14.2,13.3,23.1"/>
	<path class="st0" d="M346.7,212.5c2.8,4.8-0.7-1.2,2.1,3.6"/>
	<line class="st0" x1="345.9" y1="217.3" x2="334.2" y2="197"/>
	<path class="st0" d="M332.2,193.6c-1.7-3-1.5-2.6-3.2-5.6"/>
	<path class="st0" d="M326.6,189.9c5.1,8.9,7.7,13.5,12.8,22.4"/>
	<path class="st0" d="M341.3,215.6c3.2,5.5-1.5-2.6,1.7,2.9"/>
	<line class="st0" x1="340" y1="219.5" x2="328.8" y2="200.1"/>
	<path class="st0" d="M326.9,196.7c-1.9-3.3-0.9-1.5-2.8-4.8"/>
	<path class="st0" d="M321.7,193.9c5.3,9.2,7.1,12.3,12.4,21.5"/>
	<path class="st0" d="M336,218.6c2.2,3.8-1.1-1.9,1.1,2"/>
	<path class="st0" d="M334.2,221.7c-5.1-8.9-5.6-9.6-10.7-18.5"/>
	<path class="st0" d="M321.5,199.8c-2.1-3.7-0.1-0.2-2.3-3.9"/>
	<path class="st0" d="M310.4,198.8"/>
	<path class="st0" d="M325.4,224.7"/>
</g>
<g id="surface6361_2_">
	<line class="st0" x1="283.9" y1="26.6" x2="278.9" y2="26.6"/>
	<line class="st0" x1="275.4" y1="29.8" x2="287.7" y2="29.8"/>
	<line class="st0" x1="289.5" y1="32.9" x2="273.5" y2="32.9"/>
	<line class="st0" x1="272.7" y1="36.1" x2="289.7" y2="36.1"/>
	<line class="st0" x1="292.9" y1="36.1" x2="298" y2="36.1"/>
	<path class="st0" d="M301.7,39.3c-10.1,0-18,0-28.1,0"/>
	<path class="st0" d="M269.5,39.3c-2.3,0-3,0-5.3,0"/>
	<path class="st0" d="M257.3,42.5c9.8,0,22.6,0,32.4,0"/>
	<line class="st0" x1="293.6" y1="42.5" x2="305" y2="42.5"/>
	<line class="st0" x1="308.4" y1="45.6" x2="273.5" y2="45.6"/>
	<path class="st0" d="M269.5,45.6c-4,0-7.9,0-12,0"/>
	<line class="st0" x1="251.2" y1="48.6" x2="289.7" y2="48.6"/>
	<path class="st0" d="M293.6,48.6c6.6,0,10.9,0,17.5,0"/>
	<line class="st0" x1="309.8" y1="51.8" x2="273.5" y2="51.8"/>
	<path class="st0" d="M269.5,51.8c-6.9,0-11.6,0-18.5,0"/>
	<path class="st0" d="M247.1,55c1.8,0,2,0,3.8,0"/>
	<line class="st0" x1="253.5" y1="55" x2="289.7" y2="55"/>
	<path class="st0" d="M293.6,55c9,0,12.5,0,21.5,0"/>
	<line class="st0" x1="316.6" y1="58.1" x2="313.7" y2="58.1"/>
	<line class="st0" x1="309.8" y1="58.1" x2="273.5" y2="58.1"/>
	<path class="st0" d="M269.5,58.1c-8.7,0-13.6,0-22.3,0"/>
	<path class="st0" d="M244.6,61.3c2.5,0,2.4,0,4.8,0"/>
	<line class="st0" x1="253.5" y1="61.3" x2="289.7" y2="61.3"/>
	<line class="st0" x1="293.6" y1="61.3" x2="317.8" y2="61.3"/>
	<line class="st0" x1="318.7" y1="64.5" x2="313.7" y2="64.5"/>
	<line class="st0" x1="309.8" y1="64.5" x2="273.5" y2="64.5"/>
	<path class="st0" d="M269.5,64.5c-10,0-14.9,0-24.9,0"/>
	<path class="st0" d="M242.9,67.7c3.5,0,3.1,0,6.6,0"/>
	<line class="st0" x1="253.5" y1="67.7" x2="289.7" y2="67.7"/>
	<line class="st0" x1="293.6" y1="67.7" x2="319.5" y2="67.7"/>
	<line class="st0" x1="320.2" y1="70.8" x2="313.7" y2="70.8"/>
	<line class="st0" x1="309.8" y1="70.8" x2="273.5" y2="70.8"/>
	<path class="st0" d="M269.5,70.8c-10.2,0-16.5,0-26.7,0"/>
	<path class="st0" d="M241.4,73.8c3.9,0,4.2,0,8.1,0"/>
	<line class="st0" x1="253.5" y1="73.8" x2="289.7" y2="73.8"/>
	<path class="st0" d="M293.6,73.8c11.2,0,16.1,0,27.2,0"/>
	<path class="st0" d="M321.3,77c-5.1,0-2.5,0-7.6,0"/>
	<line class="st0" x1="309.8" y1="77" x2="273.5" y2="77"/>
	<path class="st0" d="M269.5,77c-11.2,0-15.1,0-26.3,0"/>
	<path class="st0" d="M240.7,80.2c5.1,0,3.6,0,8.7,0"/>
	<line class="st0" x1="253.5" y1="80.2" x2="289.7" y2="80.2"/>
	<line class="st0" x1="293.6" y1="80.2" x2="321.5" y2="80.2"/>
	<path class="st0" d="M321.7,83.3c-5.5,0-2.5,0-8,0"/>
	<line class="st0" x1="309.8" y1="83.3" x2="273.5" y2="83.3"/>
	<path class="st0" d="M269.5,83.3c-11.4,0-14.9,0-26.3,0"/>
	<path class="st0" d="M240.2,86.5c4.6,0,4.6,0,9.2,0"/>
	<line class="st0" x1="253.5" y1="86.5" x2="289.7" y2="86.5"/>
	<line class="st0" x1="293.6" y1="86.5" x2="321.9" y2="86.5"/>
	<path class="st0" d="M321.8,89.7c-5.4,0-2.8,0-8.2,0"/>
	<line class="st0" x1="309.8" y1="89.7" x2="273.5" y2="89.7"/>
	<path class="st0" d="M269.5,89.7c-11.2,0-16.5,0-27.6,0"/>
	<path class="st0" d="M240.5,92.9c4.6,0,4.4,0,9,0"/>
	<line class="st0" x1="253.5" y1="92.9" x2="289.7" y2="92.9"/>
	<line class="st0" x1="293.6" y1="92.9" x2="321.7" y2="92.9"/>
	<path class="st0" d="M321.5,96c-5.5,0-2.4,0-7.9,0"/>
	<line class="st0" x1="309.8" y1="96" x2="273.5" y2="96"/>
	<path class="st0" d="M269.5,96c-11.6,0-15.5,0-27.1,0"/>
	<path class="st0" d="M240.9,99c4.8,0,3.8,0,8.6,0"/>
	<line class="st0" x1="253.5" y1="99" x2="289.7" y2="99"/>
	<line class="st0" x1="293.6" y1="99" x2="321.3" y2="99"/>
	<path class="st0" d="M320.9,102.2c-5.2,0-2,0-7.2,0"/>
	<line class="st0" x1="309.8" y1="102.2" x2="273.5" y2="102.2"/>
	<path class="st0" d="M269.5,102.2c-11.5,0-16.8,0-28.3,0"/>
	<path class="st0" d="M241.8,105.4c4.8,0,2.9,0,7.7,0"/>
	<line class="st0" x1="253.5" y1="105.4" x2="289.7" y2="105.4"/>
	<path class="st0" d="M293.6,105.4c11.8,0,15,0,26.8,0"/>
	<path class="st0" d="M319.7,108.5c-5.2,0-0.8,0-6,0"/>
	<line class="st0" x1="309.8" y1="108.5" x2="273.5" y2="108.5"/>
	<path class="st0" d="M269.5,108.5c-32.3,0,8.6,0-27.1,0"/>
	<path class="st0" d="M243.4,111.7c5.3,0,0.8,0,6.1,0"/>
	<line class="st0" x1="253.5" y1="111.7" x2="289.7" y2="111.7"/>
	<line class="st0" x1="293.6" y1="111.7" x2="318.8" y2="111.7"/>
	<line class="st0" x1="317.6" y1="114.9" x2="313.7" y2="114.9"/>
	<line class="st0" x1="309.8" y1="114.9" x2="273.5" y2="114.9"/>
	<path class="st0" d="M269.5,114.9c-11.6,0-13.3,0-25,0"/>
	<path class="st0" d="M246.1,118.1c4.8,0-1.4,0,3.4,0"/>
	<line class="st0" x1="253.5" y1="118.1" x2="289.7" y2="118.1"/>
	<line class="st0" x1="293.6" y1="118.1" x2="316.1" y2="118.1"/>
	<line class="st0" x1="314.2" y1="121.1" x2="313.2" y2="121.1"/>
	<line class="st0" x1="309.8" y1="121.1" x2="273.5" y2="121.1"/>
	<path class="st0" d="M269.5,121.1c-10.8,0-10.7,0-21.6,0"/>
	<line class="st0" x1="253.5" y1="124.2" x2="289.7" y2="124.2"/>
	<path class="st0" d="M293.6,124.2c11.4,0,7.7,0,19.1,0"/>
	<line class="st0" x1="309.8" y1="127.4" x2="273.5" y2="127.4"/>
	<path class="st0" d="M269.5,127.4c-9.9,0-8.6,0-18.5,0"/>
	<line class="st0" x1="253.5" y1="130.6" x2="289.7" y2="130.6"/>
	<path class="st0" d="M293.6,130.6c10.8,0,5.2,0,16,0"/>
	<line class="st0" x1="308.1" y1="133.7" x2="273.5" y2="133.7"/>
	<path class="st0" d="M269.5,133.7c-9.2,0-6.3,0-15.5,0"/>
	<line class="st0" x1="255.6" y1="136.9" x2="289.7" y2="136.9"/>
	<path class="st0" d="M293.6,136.9c8.8,0,4.1,0,12.9,0"/>
	<line class="st0" x1="305" y1="140.1" x2="273.5" y2="140.1"/>
	<path class="st0" d="M269.5,140.1c-7.9,0-4.5,0-12.4,0"/>
	<line class="st0" x1="258.2" y1="143.3" x2="289.7" y2="143.3"/>
	<path class="st0" d="M293.6,143.3c7.9,0,2.4,0,10.3,0"/>
	<line class="st0" x1="303.2" y1="146.3" x2="273.5" y2="146.3"/>
	<path class="st0" d="M269.5,146.3c-7.2,0-3.4,0-10.6,0"/>
	<line class="st0" x1="259.5" y1="149.4" x2="289.7" y2="149.4"/>
	<path class="st0" d="M293.6,149.4c6.6,0,2.4,0,9,0"/>
	<line class="st0" x1="302" y1="152.6" x2="273.5" y2="152.6"/>
	<path class="st0" d="M269.5,152.6c-6.2,0-3.2,0-9.4,0"/>
	<line class="st0" x1="260.7" y1="155.8" x2="289.7" y2="155.8"/>
	<path class="st0" d="M293.6,155.8c5.6,0,2.3,0,7.8,0"/>
	<line class="st0" x1="300.9" y1="158.9" x2="273.5" y2="158.9"/>
	<path class="st0" d="M269.5,158.9c-5,0-3.2,0-8.2,0"/>
	<path class="st0" d="M261.9,162.1c11.4,0,16.4,0,27.8,0"/>
	<path class="st0" d="M293.6,162.1c5.6,0,1.1,0,6.7,0"/>
	<path class="st0" d="M299.7,165.3c-11.8,0-14.4,0-26.2,0"/>
	<line class="st0" x1="269.5" y1="165.3" x2="262.4" y2="165.3"/>
	<line class="st0" x1="263" y1="168.5" x2="289.7" y2="168.5"/>
	<line class="st0" x1="293.6" y1="168.5" x2="299.1" y2="168.5"/>
	<path class="st0" d="M298.6,171.5c-11.3,0-13.8,0-25.1,0"/>
	<path class="st0" d="M269.5,171.5c-3.8,0-2.2,0-5.9,0"/>
	<path class="st0" d="M264.2,174.6c10.2,0,15.3,0,25.5,0"/>
	<line class="st0" x1="293.6" y1="174.6" x2="298" y2="174.6"/>
	<line class="st0" x1="297.4" y1="177.8" x2="273.5" y2="177.8"/>
	<line class="st0" x1="269.5" y1="177.8" x2="264.8" y2="177.8"/>
	<path class="st0" d="M265.5,181c9.8,0,14.5,0,24.2,0"/>
	<line class="st0" x1="293.6" y1="181" x2="296.7" y2="181"/>
	<line class="st0" x1="296" y1="184.2" x2="273.5" y2="184.2"/>
	<path class="st0" d="M269.5,184.2c-2.8,0-0.6,0-3.4,0"/>
	<path class="st0" d="M273.5,190.5"/>
	<path class="st0" d="M269.5,190.5"/>
	<line class="st0" x1="263.9" y1="36.1" x2="269.8" y2="36.1"/>
</g>
<g>
	<g id="surface6361_5_">
		<line class="st0" x1="12.9" y1="77.1" x2="10.7" y2="81.1"/>
		<line class="st0" x1="12.4" y1="84.6" x2="16.7" y2="77.1"/>
		<line class="st0" x1="20.6" y1="76.9" x2="14.3" y2="87.7"/>
		<line class="st0" x1="15.4" y1="92.5" x2="24.2" y2="77.3"/>
		<path class="st0" d="M29.1,75.5c-4,6.9-6.1,10.5-10,17.4"/>
		<path class="st0" d="M19,99.5c4-6.9,7-12.1,11-19"/>
		<path class="st0" d="M31.9,77.2c0.9-1.5,0.2-0.4,1.1-2"/>
		<line class="st0" x1="36.9" y1="75.1" x2="24.7" y2="96.1"/>
		<path class="st0" d="M22.7,99.6c-0.9,1.5-1.1,1.9-1.9,3.4"/>
		<path class="st0" d="M22.5,106.2c4.6-7.9,8.4-14.6,13-22.5"/>
		<path class="st0" d="M37.4,80.4c1.3-2.3,1.8-3.2,3.2-5.5"/>
		<path class="st0" d="M44.5,74.6c-5,8.7-9.2,16-14.3,24.7"/>
		<path class="st0" d="M28.3,102.8c-1.5,2.7-2.5,4.4-4.1,7.1"/>
		<path class="st0" d="M26,113.2c5.3-9.1,9.9-17.1,15.1-26.2"/>
		<path class="st0" d="M43.1,83.7c2.1-3.6,3.3-5.7,5.3-9.3"/>
		<path class="st0" d="M52.4,74.2c-5.8,10.1-10.6,18.3-16.4,28.4"/>
		<path class="st0" d="M33.9,106.1c-2.5,4.4-3.7,6.4-6.2,10.8"/>
		<line class="st0" x1="29.3" y1="120.3" x2="46.8" y2="90.3"/>
		<line class="st0" x1="48.8" y1="86.9" x2="56.4" y2="73.9"/>
		<line class="st0" x1="59.2" y1="75.5" x2="41.6" y2="105.9"/>
		<path class="st0" d="M39.6,109.4c-3.5,6-4.9,8.5-8.3,14.5"/>
		<line class="st0" x1="34.5" y1="124.9" x2="52.5" y2="93.6"/>
		<line class="st0" x1="54.5" y1="90.2" x2="63.9" y2="73.8"/>
		<line class="st0" x1="65.4" y1="77.9" x2="47.3" y2="109.2"/>
		<line class="st0" x1="45.3" y1="112.7" x2="35.3" y2="130"/>
		<line class="st0" x1="37.5" y1="132.4" x2="38.3" y2="131"/>
		<line class="st0" x1="40" y1="128.1" x2="58.1" y2="96.8"/>
		<path class="st0" d="M60,93.4c4.1-7,10.7-18.6,10.7-18.6"/>
		<line class="st0" x1="74.1" y1="75.6" x2="72.8" y2="77.7"/>
		<line class="st0" x1="70.9" y1="81.1" x2="52.8" y2="112.4"/>
		<path class="st0" d="M50.8,115.8c-4.2,7.3-6.9,11.9-11.1,19.2"/>
		<path class="st0" d="M42.1,137.6c1.2-2.1,0.4-0.7,1.6-2.8"/>
		<line class="st0" x1="45.7" y1="131.3" x2="63.7" y2="100.1"/>
		<path class="st0" d="M65.7,96.7c4.8-8.4,6.9-11.9,11.7-20.3"/>
		<line class="st0" x1="80.6" y1="77.4" x2="78.5" y2="81"/>
		<line class="st0" x1="76.6" y1="84.4" x2="58.5" y2="115.7"/>
		<path class="st0" d="M56.5,119.1c-5,8.7-6.9,12-11.9,20.6"/>
		<path class="st0" d="M47.1,142c1.5-2.7,0.7-1.3,2.3-3.9"/>
		<line class="st0" x1="51.4" y1="134.6" x2="69.4" y2="103.4"/>
		<path class="st0" d="M71.4,100c5.3-9.1,7.2-12.5,12.5-21.6"/>
		<line class="st0" x1="87" y1="79.5" x2="84.2" y2="84.3"/>
		<line class="st0" x1="82.3" y1="87.7" x2="64.2" y2="118.9"/>
		<path class="st0" d="M62.2,122.4c-4.8,8.3-7.8,13.5-12.6,21.8"/>
		<path class="st0" d="M52.2,146.3c1.5-2.7,1.3-2.3,2.9-5"/>
		<line class="st0" x1="57.1" y1="137.9" x2="75.1" y2="106.6"/>
		<line class="st0" x1="77.1" y1="103.3" x2="90.1" y2="80.6"/>
		<line class="st0" x1="93.2" y1="81.9" x2="89.9" y2="87.6"/>
		<line class="st0" x1="88" y1="91" x2="69.9" y2="122.2"/>
		<path class="st0" d="M67.9,125.7c-5,8.6-8.2,14.1-13.1,22.7"/>
		<path class="st0" d="M57.3,150.4c1.7-2.9,1.7-2.9,3.3-5.8"/>
		<line class="st0" x1="62.6" y1="141.1" x2="80.6" y2="109.8"/>
		<line class="st0" x1="82.6" y1="106.5" x2="96.1" y2="83"/>
		<line class="st0" x1="99.2" y1="84.3" x2="95.4" y2="90.8"/>
		<line class="st0" x1="93.5" y1="94.2" x2="75.4" y2="125.4"/>
		<path class="st0" d="M73.4,128.9c-5.1,8.9-8.5,14.7-13.6,23.6"/>
		<path class="st0" d="M62.5,154.4c2-3.5,1.7-3,3.8-6.5"/>
		<line class="st0" x1="68.3" y1="144.4" x2="86.3" y2="113.1"/>
		<path class="st0" d="M88.3,109.7c5.8-10.1,13.9-24.2,13.9-24.2"/>
		<line class="st0" x1="105.3" y1="86.9" x2="101.1" y2="94.1"/>
		<line class="st0" x1="99.2" y1="97.4" x2="81.1" y2="128.7"/>
		<line class="st0" x1="79.1" y1="132.2" x2="65.2" y2="156.3"/>
		<path class="st0" d="M68,158.1c2.6-4.6,1.4-2.4,4-6.9"/>
		<line class="st0" x1="74" y1="147.7" x2="92" y2="116.4"/>
		<line class="st0" x1="94" y1="113" x2="108.1" y2="88.5"/>
		<line class="st0" x1="111.1" y1="90" x2="106.8" y2="97.4"/>
		<line class="st0" x1="104.9" y1="100.7" x2="86.8" y2="132"/>
		<line class="st0" x1="84.8" y1="135.5" x2="70.7" y2="159.8"/>
		<path class="st0" d="M73.5,161.6c2.5-4.3,1.7-2.9,4.2-7.2"/>
		<line class="st0" x1="79.7" y1="151" x2="97.7" y2="119.7"/>
		<line class="st0" x1="99.7" y1="116.3" x2="114" y2="91.5"/>
		<line class="st0" x1="116.7" y1="92.9" x2="112.3" y2="100.5"/>
		<line class="st0" x1="110.4" y1="103.9" x2="92.3" y2="135.2"/>
		<path class="st0" d="M90.3,138.6c-5.7,9.9-8.6,14.8-14.3,24.7"/>
		<path class="st0" d="M78.9,165c2.2-3.9,2-3.5,4.3-7.4"/>
		<line class="st0" x1="85.2" y1="154.1" x2="103.2" y2="122.9"/>
		<line class="st0" x1="105.2" y1="119.5" x2="119.7" y2="94.4"/>
		<line class="st0" x1="122.5" y1="96.1" x2="118" y2="103.8"/>
		<line class="st0" x1="116.1" y1="107.2" x2="98" y2="138.5"/>
		<path class="st0" d="M96,141.9c-5.5,9.5-8.8,15.3-14.3,24.8"/>
		<line class="st0" x1="84.6" y1="168.3" x2="88.9" y2="160.9"/>
		<line class="st0" x1="90.9" y1="157.4" x2="108.9" y2="126.2"/>
		<line class="st0" x1="110.9" y1="122.8" x2="125.3" y2="97.8"/>
		<line class="st0" x1="128.1" y1="99.5" x2="123.7" y2="107.1"/>
		<line class="st0" x1="121.8" y1="110.5" x2="103.7" y2="141.7"/>
		<path class="st0" d="M101.7,145.2c-5.6,9.7-8.6,15-14.2,24.7"/>
		<path class="st0" d="M90.4,171.4c2.4-4.1,1.8-3.2,4.2-7.2"/>
		<line class="st0" x1="96.6" y1="160.7" x2="114.6" y2="129.4"/>
		<line class="st0" x1="116.6" y1="126.1" x2="130.9" y2="101.3"/>
		<line class="st0" x1="133.7" y1="103" x2="129.4" y2="110.4"/>
		<line class="st0" x1="127.5" y1="113.8" x2="109.4" y2="145"/>
		<path class="st0" d="M107.4,148.5c-5.8,10.1-8.3,14.3-14.1,24.4"/>
		<path class="st0" d="M96.2,174.4c2.7-4.7,1.3-2.3,4-7"/>
		<line class="st0" x1="102.2" y1="164" x2="120.3" y2="132.7"/>
		<line class="st0" x1="122.2" y1="129.4" x2="136.4" y2="104.8"/>
		<line class="st0" x1="139" y1="106.6" x2="134.9" y2="113.6"/>
		<line class="st0" x1="133" y1="117" x2="114.9" y2="148.2"/>
		<line class="st0" x1="112.9" y1="151.7" x2="99" y2="175.8"/>
		<path class="st0" d="M102,177.3c2.7-4.6,1.2-2,3.8-6.6"/>
		<line class="st0" x1="107.8" y1="167.2" x2="125.8" y2="135.9"/>
		<line class="st0" x1="127.8" y1="132.5" x2="141.7" y2="108.5"/>
		<line class="st0" x1="144.4" y1="110.4" x2="140.6" y2="116.9"/>
		<line class="st0" x1="138.7" y1="120.2" x2="120.6" y2="151.5"/>
		<path class="st0" d="M118.6,155c-16.5,28.5,2.8-4.9-13.7,23.6"/>
		<path class="st0" d="M108.1,179.8c2.4-4.2,1-1.7,3.4-5.9"/>
		<line class="st0" x1="113.5" y1="170.5" x2="131.5" y2="139.2"/>
		<line class="st0" x1="133.5" y1="135.8" x2="147" y2="112.4"/>
		<line class="st0" x1="149.6" y1="114.4" x2="146.3" y2="120.2"/>
		<line class="st0" x1="144.4" y1="123.5" x2="126.3" y2="154.8"/>
		<path class="st0" d="M124.3,158.3c-5.7,9.9-7.4,12.9-13.2,22.8"/>
		<path class="st0" d="M114.3,182.2c2.2-3.8,0.7-1.2,2.9-5"/>
		<line class="st0" x1="119.2" y1="173.8" x2="137.2" y2="142.5"/>
		<line class="st0" x1="139.1" y1="139.1" x2="152.2" y2="116.6"/>
		<line class="st0" x1="154.7" y1="118.8" x2="152" y2="123.4"/>
		<line class="st0" x1="150" y1="126.8" x2="132" y2="158.1"/>
		<path class="st0" d="M130,161.5c-5.6,9.6-7,12.1-12.5,21.7"/>
		<line class="st0" x1="120.7" y1="184.2" x2="122.8" y2="180.5"/>
		<line class="st0" x1="124.8" y1="177" x2="142.9" y2="145.8"/>
		<line class="st0" x1="144.8" y1="142.4" x2="157.1" y2="121.2"/>
		<line class="st0" x1="159.3" y1="123.6" x2="157.5" y2="126.6"/>
		<line class="st0" x1="155.6" y1="130" x2="137.5" y2="161.3"/>
		<path class="st0" d="M135.5,164.7c-5.6,9.6-6.1,10.6-11.7,20.2"/>
		<line class="st0" x1="127.3" y1="185.6" x2="128.4" y2="183.7"/>
		<line class="st0" x1="130.4" y1="180.2" x2="148.4" y2="149"/>
		<path class="st0" d="M150.4,145.6c5.8-10,5.4-9.4,11.2-19.4"/>
		<line class="st0" x1="163.7" y1="129" x2="162.8" y2="130.7"/>
		<line class="st0" x1="161.3" y1="133.3" x2="143.2" y2="164.6"/>
		<path class="st0" d="M141.2,168c-5.5,9.5-4.9,8.5-10.4,18.1"/>
		<path class="st0" d="M134.1,187"/>
		<line class="st0" x1="136.1" y1="183.5" x2="154.1" y2="152.2"/>
		<path class="st0" d="M156.1,148.9c5.4-9.4,4.6-8,10-17.4"/>
		<line class="st0" x1="167" y1="136.6" x2="148.9" y2="167.8"/>
		<path class="st0" d="M146.9,171.3c-5.1,8.9-4.3,7.4-9.4,16.3"/>
		<line class="st0" x1="141.7" y1="186.8" x2="159.8" y2="155.5"/>
		<line class="st0" x1="161.7" y1="152.2" x2="170.9" y2="136.5"/>
		<line class="st0" x1="172.6" y1="139.8" x2="154.6" y2="171.1"/>
		<path class="st0" d="M152.6,174.6c-5,8.7-3.4,6-8.4,14.6"/>
		<line class="st0" x1="147.4" y1="190.1" x2="165.5" y2="158.8"/>
		<line class="st0" x1="167.4" y1="155.4" x2="175.5" y2="141.5"/>
		<line class="st0" x1="177.7" y1="143.8" x2="160.1" y2="174.3"/>
		<path class="st0" d="M158.1,177.8c-4.6,8-2.9,5-7.5,12.9"/>
		<line class="st0" x1="154" y1="191.5" x2="171" y2="162"/>
		<line class="st0" x1="173" y1="158.6" x2="180.1" y2="146.3"/>
		<line class="st0" x1="182.4" y1="148.8" x2="165.8" y2="177.6"/>
		<path class="st0" d="M163.8,181.1c-4,6.9,8.9-15.5-6.5,11.2"/>
		<line class="st0" x1="160.7" y1="193" x2="176.7" y2="165.3"/>
		<line class="st0" x1="178.6" y1="161.9" x2="184.7" y2="151.4"/>
		<line class="st0" x1="187.2" y1="153.7" x2="171.5" y2="180.9"/>
		<path class="st0" d="M169.5,184.3c-3.8,6.6-1.7,2.9-5.5,9.6"/>
		<line class="st0" x1="167.1" y1="195.1" x2="182.4" y2="168.6"/>
		<line class="st0" x1="184.3" y1="165.2" x2="189.7" y2="155.9"/>
		<line class="st0" x1="192.3" y1="157.9" x2="177.2" y2="184.2"/>
		<path class="st0" d="M175.2,187.6c-3.6,6.2-1.4,2.5-5,8.7"/>
		<line class="st0" x1="173.2" y1="197.6" x2="188.1" y2="171.9"/>
		<line class="st0" x1="190" y1="168.5" x2="195" y2="159.9"/>
		<line class="st0" x1="197.5" y1="161.8" x2="182.7" y2="187.4"/>
		<path class="st0" d="M180.7,190.8c-3.5,6-1.1,2-4.6,8"/>
		<line class="st0" x1="179.1" y1="200.2" x2="193.6" y2="175"/>
		<line class="st0" x1="195.5" y1="171.7" x2="200.1" y2="163.8"/>
		<line class="st0" x1="202.8" y1="165.7" x2="188.4" y2="190.6"/>
		<path class="st0" d="M186.4,194.1c-3.2,5.6-1,1.7-4.2,7.3"/>
		<line class="st0" x1="185.2" y1="202.7" x2="199.3" y2="178.3"/>
		<line class="st0" x1="201.2" y1="175" x2="205.4" y2="167.7"/>
		<line class="st0" x1="208.1" y1="169.7" x2="194.1" y2="193.9"/>
		<line class="st0" x1="192.1" y1="197.4" x2="188.2" y2="204.1"/>
		<line class="st0" x1="191.3" y1="205.4" x2="205" y2="181.6"/>
		<line class="st0" x1="206.9" y1="178.2" x2="210.7" y2="171.6"/>
		<line class="st0" x1="213.4" y1="173.6" x2="199.8" y2="197.2"/>
		<path class="st0" d="M197.8,200.7c-3.2,5.6-0.3,0.4-3.5,6"/>
		<line class="st0" x1="197.1" y1="207.9" x2="210.5" y2="184.8"/>
		<line class="st0" x1="212.5" y1="181.4" x2="215.9" y2="175.5"/>
		<line class="st0" x1="203.2" y1="210.5" x2="213.1" y2="193.4"/>
		<line class="st0" x1="215.6" y1="189.1" x2="221.2" y2="179.4"/>
		<line class="st0" x1="223.9" y1="181.3" x2="211" y2="203.7"/>
		<line class="st0" x1="209" y1="207.1" x2="206.2" y2="211.9"/>
		<line class="st0" x1="209.3" y1="213.2" x2="218.8" y2="196.7"/>
		<path class="st0" d="M223.8,188c2-3.5,0.7-1.2,2.7-4.7"/>
		<path class="st0" d="M229.2,185.3c-5.4,9.4-7.1,12.3-12.5,21.7"/>
		<line class="st0" x1="214.7" y1="210.4" x2="212.3" y2="214.5"/>
		<path class="st0" d="M215.4,215.8c5.8-10,6.4-11.1,12.2-21.1"/>
		<path class="st0" d="M229.5,191.3c1.9-3.3,0.4-0.7,2.3-4"/>
		<path class="st0" d="M234.4,189.3c-5.4,9.4-6.7,11.5-12.1,20.9"/>
		<line class="st0" x1="220.4" y1="213.7" x2="218.4" y2="217.2"/>
		<line class="st0" x1="221.3" y1="218.3" x2="230.9" y2="201.6"/>
		<path class="st0" d="M235,194.5c2.1-3.6-0.2,0.3,1.9-3.3"/>
		<path class="st0" d="M239.6,193.2c-5.3,9.1-6.4,11.1-11.7,20.2"/>
		<line class="st0" x1="225.9" y1="216.9" x2="224.4" y2="219.5"/>
		<line class="st0" x1="227.5" y1="220.8" x2="237.1" y2="204.1"/>
		<path class="st0" d="M240.7,197.8c1.9-3.4-0.5,0.9,1.4-2.5"/>
		<line class="st0" x1="244.7" y1="197.4" x2="233.6" y2="216.7"/>
		<line class="st0" x1="231.6" y1="220.2" x2="230.6" y2="222"/>
		<line class="st0" x1="218.5" y1="177.4" x2="207.6" y2="196.4"/>
		<path class="st0" d="M205.6,199.8c-3.2,5.6-2.2,3.8-5.4,9.4"/>
	</g>
</g>
<path class="st0" d="M330.1,195.9"/>
<path class="st0" d="M343.4,217.4"/>
<g id="XMLID_605_">
	<circle class="st2" cx="281.3" cy="235.2" r="15.4"/>
</g>
<g id="XMLID_604_">
	<path id="XMLID_3629_" class="st2" d="M249.2,202.4c5.6-5.5,12.6-9.5,20.4-11.6"/>
	<path id="XMLID_3634_" class="st2" d="M236.8,246.1c-0.9-3.5-1.3-7.2-1.3-10.9c0-3.9,0.4-7.7,1.4-11.3"/>
	<path id="XMLID_3624_" class="st2" d="M268.9,279.3c-7.6-2.2-14.3-6.2-19.7-11.5"/>
	<path id="XMLID_3631_" class="st2" d="M313.5,267.8c-5.4,5.3-12.1,9.3-19.6,11.5"/>
	<path id="XMLID_3630_" class="st2" d="M325.7,223.7c1,3.7,1.4,7.5,1.4,11.5c0,3.8-0.4,7.5-1.3,10.9"/>
	<path id="XMLID_3018_" class="st2" d="M293,190.8c7.7,2.1,14.6,6.1,20.3,11.5"/>
</g>
<g id="test_6_">
	<path class="st0" d="M267.9,189.9"/>
	<path class="st0" d="M293.9,189.9"/>
	<path id="XMLID_24_" class="st1" d="M268.6,190.9"/>
	<path id="XMLID_23_" class="st1" d="M293.7,190.9"/>
</g>
<g id="test_5_">
	<path class="st0" d="M294.7,280.2"/>
	<path class="st0" d="M268.7,280.2"/>
	<path id="XMLID_16_" class="st1" d="M269.1,279.2h-0.3"/>
	<path id="XMLID_15_" class="st1" d="M293.9,279.2h-0.4"/>
	<path id="XMLID_14_" class="st1" d="M268.9,279.2c-2.9,1.6-8.9,46.1-11.2,50.4c-1.2,2.3-9.4,19.5-9.4,19.5
		c-6.7,9.3-7.4,22.7-7.7,34l0.8,11.3c2.3,12.4,5,23.5,14.5,31.5l21.6,20.7c1,1,2.1,2.1,3.9,2.2c1.8,0,3-1.2,4-2.2l21.6-20.7
		c9.4-8,12.2-19.2,14.5-31.5l0.9-11.3c-0.3-11.4-1-24.7-7.7-34c0,0-8.2-17.2-9.4-19.5c-2.3-4.3-8.3-48.9-11.2-50.4"/>
</g>
<g id="test_4_">
	<path id="XMLID_10_" class="st1" d="M313.2,268l-0.1,0.2"/>
	<path id="XMLID_5_" class="st1" d="M325.7,246.1c3.5-1.2,67.8,29.2,74.9,30.7c3.7,0.8,31.6,7.3,31.6,7.3
		c16.2,1.6,34.9,11.6,50.7,20.4l15.1,9.7c15.9,11.8,29.8,23.1,36.2,37.6l17.7,35.1c0.9,1.6,2,3.5,1,5.1c-1.1,1.5-3.1,1.6-4.9,1.7
		l-39.3,2.2c-15.8,1.9-32.5-4.6-50.7-12.5l-15.9-8.3c-15.5-9.3-33.5-20.5-43-33.7c0,0-19.6-20.8-22.1-23.7
		c-4.8-5.4-63-45.9-63.8-49.7"/>
	<path id="XMLID_3_" class="st1" d="M325,281"/>
</g>
<g id="test_3_">
	<path id="XMLID_2_" class="st1" d="M237,246.1c-3.3-1.5-56.1,22.1-62.1,23c-3.1,0.4-26.6,4.5-26.6,4.5c-13.8,0.2-29.1,8.3-42,15.4
		l-12.3,8c-12.7,10-23.9,19.5-28.1,33L53.5,362c-0.6,1.5-1.2,3.2-0.4,4.9c0.9,1.6,2.8,1.8,4.4,2l34,5.3c13.7,3,27.6-1.8,42.6-7.8
		l13.1-6.5c12.6-7.6,27.2-16.8,34.3-28.7c0,0,15.2-18.3,17.2-20.8c3.7-4.8,50.6-38.9,50.9-42.3"/>
</g>
<g id="surface6361_6_">
	<line class="st0" x1="54" y1="363.5" x2="56.3" y2="367.5"/>
	<line class="st0" x1="60" y1="367.9" x2="55.6" y2="360.2"/>
	<line class="st0" x1="57" y1="356.5" x2="64.2" y2="368.9"/>
	<line class="st0" x1="68.7" y1="370.6" x2="58.5" y2="352.9"/>
	<path class="st0" d="M59,347.6c4.1,7,6,10.4,10.1,17.4"/>
	<line class="st0" x1="71.1" y1="368.4" x2="72.6" y2="371.2"/>
	<path class="st0" d="M76.6,371.8c-5.2-8.9-7.5-13-12.7-22"/>
	<path class="st0" d="M62,346.5c-1-1.8-0.5-0.8-1.5-2.6"/>
	<path class="st0" d="M61.9,340.2c4.7,8.2,7.8,13.5,12.5,21.7"/>
	<path class="st0" d="M76.4,365.3c2.3,4.1,1.7,3,4.1,7"/>
	<line class="st0" x1="84.2" y1="373" x2="69.1" y2="346.8"/>
	<path class="st0" d="M67.2,343.5c-2-3.5-1.9-3.2-3.9-6.8"/>
	<line class="st0" x1="64.7" y1="333" x2="79.6" y2="358.9"/>
	<path class="st0" d="M81.6,362.3c3.5,6.1,2.9,5.1,6.5,11.2"/>
	<line class="st0" x1="92" y1="374.2" x2="74.4" y2="343.7"/>
	<path class="st0" d="M72.5,340.4c-3.1-5.4-3.4-5.8-6.5-11.2"/>
	<line class="st0" x1="67.5" y1="325.6" x2="85" y2="355.9"/>
	<line class="st0" x1="87" y1="359.3" x2="95.9" y2="374.8"/>
	<line class="st0" x1="97.5" y1="371.3" x2="79.8" y2="340.6"/>
	<path class="st0" d="M77.9,337.3c-3.6-6.2-5.1-8.8-8.7-15"/>
	<line class="st0" x1="72.6" y1="322.1" x2="90.3" y2="352.8"/>
	<path class="st0" d="M92.3,356.2c3.9,6.8,6.9,12,10.8,18.7"/>
	<line class="st0" x1="106.5" y1="374.6" x2="104.8" y2="371.6"/>
	<line class="st0" x1="102.8" y1="368.2" x2="85.1" y2="337.5"/>
	<path class="st0" d="M83.2,334.2c-4.4-7.6-5.8-10.1-10.2-17.7"/>
	<path class="st0" d="M75.1,314c1.1,1.9-0.1-0.2,1,1.7"/>
	<line class="st0" x1="78" y1="319" x2="95.7" y2="349.7"/>
	<path class="st0" d="M97.7,353.1c4.5,7.9,7.6,13.1,12.1,21"/>
	<path class="st0" d="M112.8,373.4c-1.4-2.5-1.3-2.3-2.8-4.8"/>
	<line class="st0" x1="108" y1="365.2" x2="90.3" y2="334.5"/>
	<path class="st0" d="M88.4,331.2c-4.4-7.7-6.9-11.9-11.3-19.5"/>
	<path class="st0" d="M79.4,309.4c1.2,2.2,0.6,1.1,1.9,3.3"/>
	<line class="st0" x1="83.2" y1="316" x2="100.9" y2="346.7"/>
	<path class="st0" d="M102.9,350.1c5.1,8.8,7.9,13.7,13,22.6"/>
	<line class="st0" x1="118.9" y1="371.8" x2="115.3" y2="365.5"/>
	<line class="st0" x1="113.4" y1="362.1" x2="95.7" y2="331.4"/>
	<path class="st0" d="M93.8,328.1c-4.8-8.2-7.3-12.7-12.1-20.9"/>
	<path class="st0" d="M84,305.1c1.7,2.9,0.9,1.6,2.6,4.5"/>
	<line class="st0" x1="88.5" y1="312.9" x2="106.2" y2="343.6"/>
	<path class="st0" d="M108.2,347c5.1,8.9,8.6,14.9,13.7,23.8"/>
	<path class="st0" d="M124.9,369.8c-2-3.5-2.2-3.8-4.2-7.3"/>
	<line class="st0" x1="118.7" y1="359" x2="101" y2="328.4"/>
	<path class="st0" d="M99.1,325c-5.1-8.8-7.6-13.2-12.7-22"/>
	<path class="st0" d="M88.8,301c2.1,3.7,1,1.8,3.2,5.5"/>
	<line class="st0" x1="93.9" y1="309.8" x2="111.6" y2="340.5"/>
	<path class="st0" d="M113.6,343.9c5.5,9.6,8.8,15.2,14.3,24.8"/>
	<line class="st0" x1="130.8" y1="367.6" x2="126" y2="359.4"/>
	<line class="st0" x1="124.1" y1="356" x2="106.4" y2="325.3"/>
	<line class="st0" x1="104.4" y1="322" x2="91.1" y2="299.1"/>
	<path class="st0" d="M93.7,297.1c2.1,3.6,1.6,2.7,3.6,6.3"/>
	<line class="st0" x1="99.2" y1="306.7" x2="116.9" y2="337.4"/>
	<line class="st0" x1="118.9" y1="340.8" x2="133.7" y2="366.4"/>
	<path class="st0" d="M136.3,365.1c-2.5-4.3-2.6-4.5-5.1-8.8"/>
	<line class="st0" x1="129.3" y1="353" x2="111.6" y2="322.3"/>
	<path class="st0" d="M109.6,319c-5.4-9.4-8.1-14-13.5-23.4"/>
	<path class="st0" d="M98.7,293.8c2.4,4.1,1.4,2.5,3.8,6.6"/>
	<line class="st0" x1="104.4" y1="303.7" x2="122.1" y2="334.4"/>
	<line class="st0" x1="124.1" y1="337.8" x2="139.1" y2="363.7"/>
	<path class="st0" d="M141.8,362.4c-2.4-4.1-2.9-5-5.2-9.1"/>
	<line class="st0" x1="134.6" y1="349.9" x2="116.9" y2="319.2"/>
	<path class="st0" d="M115,315.9c-5.7-9.8-8-13.9-13.7-23.7"/>
	<path class="st0" d="M103.9,290.5c2.3,4.1,1.6,2.8,3.9,6.8"/>
	<line class="st0" x1="109.8" y1="300.6" x2="127.5" y2="331.3"/>
	<line class="st0" x1="129.5" y1="334.7" x2="144.6" y2="361"/>
	<line class="st0" x1="147.4" y1="359.6" x2="141.9" y2="350.2"/>
	<line class="st0" x1="140" y1="346.8" x2="122.3" y2="316.1"/>
	<path class="st0" d="M120.3,312.8c-5.7-9.9-8.1-14.1-13.8-24"/>
	<path class="st0" d="M109.2,287.3c2.5,4.3,1.5,2.6,4,6.9"/>
	<line class="st0" x1="115.1" y1="297.5" x2="132.8" y2="328.2"/>
	<line class="st0" x1="134.8" y1="331.6" x2="150" y2="358"/>
	<line class="st0" x1="152.7" y1="356.3" x2="147.3" y2="347.1"/>
	<line class="st0" x1="145.3" y1="343.7" x2="127.6" y2="313"/>
	<line class="st0" x1="125.7" y1="309.7" x2="112" y2="285.8"/>
	<path class="st0" d="M114.5,284.5c2.4,4.2,1.5,2.5,3.9,6.7"/>
	<line class="st0" x1="120.3" y1="294.5" x2="138" y2="325.2"/>
	<line class="st0" x1="140" y1="328.6" x2="155.1" y2="354.8"/>
	<path class="st0" d="M157.7,353.1c-2.7-4.7-2.5-4.3-5.2-9"/>
	<line class="st0" x1="150.5" y1="340.7" x2="132.8" y2="310"/>
	<path class="st0" d="M130.9,306.7c-5.7-9.9-8-13.6-13.7-23.5"/>
	<path class="st0" d="M120.1,281.7c2.6,4.5,1.1,1.9,3.7,6.4"/>
	<line class="st0" x1="125.7" y1="291.5" x2="143.4" y2="322.1"/>
	<line class="st0" x1="145.3" y1="325.5" x2="160.3" y2="351.4"/>
	<path class="st0" d="M162.8,349.6c-2.5-4.3-2.5-4.3-5-8.6"/>
	<line class="st0" x1="155.9" y1="337.6" x2="138.2" y2="306.9"/>
	<path class="st0" d="M136.2,303.6c-5.7-9.9-7.6-13.2-13.4-23.2"/>
	<path class="st0" d="M125.7,279.2c2.4,4.1,1,1.8,3.4,5.9"/>
	<line class="st0" x1="131" y1="288.4" x2="148.7" y2="319.1"/>
	<line class="st0" x1="150.7" y1="322.5" x2="165.3" y2="347.8"/>
	<line class="st0" x1="167.8" y1="345.8" x2="163.2" y2="337.9"/>
	<line class="st0" x1="161.2" y1="334.5" x2="143.5" y2="303.8"/>
	<path class="st0" d="M141.6,300.5c-5.6-9.7-7.4-12.8-13-22.5"/>
	<path class="st0" d="M131.5,276.9c2.4,4.2,0.5,0.9,2.9,5.1"/>
	<line class="st0" x1="136.4" y1="285.3" x2="154.1" y2="316"/>
	<line class="st0" x1="156" y1="319.4" x2="170.2" y2="343.8"/>
	<path class="st0" d="M172.5,341.7c-2.6-4.6-1.3-2.3-4-6.9"/>
	<line class="st0" x1="166.6" y1="331.4" x2="148.8" y2="300.7"/>
	<path class="st0" d="M146.9,297.4c-5.6-9.6-6.8-11.9-12.4-21.5"/>
	<path class="st0" d="M137.4,275.1c2,3.5,0.2,0.3,2.2,3.8"/>
	<line class="st0" x1="141.6" y1="282.3" x2="159.3" y2="313"/>
	<path class="st0" d="M161.2,316.4c5.7,9.8,7.8,13.4,13.4,23.3"/>
	<path class="st0" d="M176.9,337.3c-2.3-3.9-0.9-1.5-3.1-5.4"/>
	<line class="st0" x1="171.8" y1="328.4" x2="154" y2="297.7"/>
	<path class="st0" d="M152.1,294.4c-5.3-9.1-6.3-10.9-11.6-20"/>
	<path class="st0" d="M143.8,273.9c1.9,3.4-0.8-1.4,1.2,2"/>
	<line class="st0" x1="146.9" y1="279.2" x2="164.6" y2="309.9"/>
	<path class="st0" d="M166.6,313.3c5.4,9.4,6.9,12,12.4,21.4"/>
	<path class="st0" d="M180.9,331.9c-2.2-3.8,0.4,0.6-1.8-3.2"/>
	<line class="st0" x1="177.1" y1="325.3" x2="159.4" y2="294.6"/>
	<path class="st0" d="M157.5,291.3c-5.3-9.2-4.9-8.6-10.2-17.7"/>
	<line class="st0" x1="152.3" y1="276.1" x2="170" y2="306.8"/>
	<path class="st0" d="M171.9,310.2c5.1,8.8,5.9,10.2,11,19"/>
	<line class="st0" x1="185" y1="326.7" x2="184.4" y2="325.6"/>
	<line class="st0" x1="182.5" y1="322.2" x2="164.7" y2="291.6"/>
	<path class="st0" d="M162.8,288.2c-4.7-8.2-4.3-7.5-9-15.6"/>
	<line class="st0" x1="157.6" y1="273" x2="175.3" y2="303.7"/>
	<path class="st0" d="M177.3,307.1c4.5,7.9,5.3,9.2,9.8,17.1"/>
	<line class="st0" x1="187.8" y1="319.2" x2="170.1" y2="288.5"/>
	<path class="st0" d="M168.2,285.2c-4.3-7.4-3.6-6.2-7.9-13.7"/>
	<line class="st0" x1="163.4" y1="271" x2="180.5" y2="300.7"/>
	<path class="st0" d="M182.5,304.1c4.4,7.7,4.3,7.4,8.7,15.1"/>
	<line class="st0" x1="193" y1="316.2" x2="175.3" y2="285.5"/>
	<path class="st0" d="M173.4,282.2c-3.8-6.6-3-5.1-6.8-11.7"/>
	<line class="st0" x1="169.9" y1="269.9" x2="185.9" y2="297.6"/>
	<path class="st0" d="M187.8,301c3.8,6.5,3.8,6.6,7.6,13.1"/>
	<line class="st0" x1="197.5" y1="311.6" x2="180.6" y2="282.4"/>
	<path class="st0" d="M178.7,279.1c-3.8-6.5-1.8-3.2-5.6-9.7"/>
	<line class="st0" x1="176.3" y1="268.7" x2="191.2" y2="294.5"/>
	<path class="st0" d="M193.2,297.9c3.4,5.8,3.1,5.4,6.5,11.2"/>
	<line class="st0" x1="202" y1="307" x2="186" y2="279.3"/>
	<path class="st0" d="M184.1,276c-3.4-5.8-1.4-2.4-4.8-8.2"/>
	<line class="st0" x1="182.3" y1="266.7" x2="196.6" y2="291.4"/>
	<path class="st0" d="M198.5,294.8c3.3,5.7,2.6,4.5,5.9,10.2"/>
	<line class="st0" x1="206.9" y1="303.1" x2="191.3" y2="276.2"/>
	<path class="st0" d="M189.4,272.9c-2.8-4.8-1.5-2.5-4.3-7.4"/>
	<path class="st0" d="M187.9,264.5c5.8,10.4,7.5,13.2,13.9,24"/>
	<path class="st0" d="M203.7,291.8c2.6,4.5,2.8,4.9,5.4,9.4"/>
	<path class="st0" d="M211.6,299.3c-6-10.3-9.1-15.7-15.1-26.1"/>
	<path class="st0" d="M194.6,269.9c-2.4-4.2-1.4-2.4-3.8-6.6"/>
	<path class="st0" d="M193.7,262.1c5.6,9.7,7.8,13.5,13.4,23.2"/>
	<path class="st0" d="M209.1,288.7c2.4,4.2,2.6,4.5,5,8.6"/>
	<path class="st0" d="M216.5,295.5c-5.7-9.9-8.9-15.5-14.6-25.3"/>
	<path class="st0" d="M200,266.8c-2.3-4.1-1-1.8-3.4-5.9"/>
	<path class="st0" d="M199.5,259.8c5.5,9.6,7.5,12.9,13,22.5"/>
	<path class="st0" d="M214.4,285.7c2.4,4.2,2.1,3.7,4.5,7.9"/>
	<path class="st0" d="M221.4,291.6c-5.6-9.7-8.6-14.9-14.2-24.6"/>
	<path class="st0" d="M205.3,263.7c-2.3-4.1-0.6-1.1-3-5.1"/>
	<path class="st0" d="M205.3,257.4c5.7,9.9,6.8,11.8,12.6,21.7"/>
	<path class="st0" d="M219.8,282.6c2.2,3.7,2,3.4,4.1,7.1"/>
	<path class="st0" d="M226.4,287.8c-5.3-9.2-8.5-14.7-13.8-23.9"/>
	<path class="st0" d="M210.7,260.6c-2.5-4.4,0,0-2.5-4.4"/>
	<line class="st0" x1="210.9" y1="255.2" x2="223" y2="276.2"/>
	<path class="st0" d="M225,279.6c1.9,3.3,1.8,3.1,3.7,6.4"/>
	<path class="st0" d="M231.1,284c-5.1-8.9-8.2-14.2-13.3-23.1"/>
	<path class="st0" d="M215.9,257.6c-2.8-4.8,0.7,1.2-2.1-3.6"/>
	<line class="st0" x1="216.7" y1="252.8" x2="228.4" y2="273.1"/>
	<path class="st0" d="M230.3,276.5c1.7,3,1.5,2.6,3.2,5.6"/>
	<path class="st0" d="M235.9,280.2c-5.1-8.9-7.7-13.5-12.8-22.4"/>
	<path class="st0" d="M221.2,254.5c-3.2-5.5,1.5,2.6-1.7-2.9"/>
	<line class="st0" x1="222.5" y1="250.6" x2="233.7" y2="270"/>
	<path class="st0" d="M235.7,273.4c1.9,3.3,0.9,1.5,2.8,4.8"/>
	<path class="st0" d="M240.9,276.2c-5.3-9.2-7.1-12.3-12.4-21.5"/>
	<path class="st0" d="M226.6,251.5c-2.2-3.8,1.1,1.9-1.1-2"/>
	<path class="st0" d="M228.4,248.4c5.1,8.9,5.6,9.6,10.7,18.5"/>
	<path class="st0" d="M241,270.3c2.1,3.7,0.1,0.2,2.3,3.9"/>
	<path class="st0" d="M245.5,272.3c-5.5-9.6-6.3-10.9-11.8-20.5"/>
	<path class="st0" d="M231.8,248.4c-1.6-2.7,1,1.7-0.6-1"/>
	<path class="st0" d="M252.1,271.3"/>
	<path class="st0" d="M237.1,245.4"/>
</g>
<g id="surface6361_4_">
	<line class="st0" x1="278.6" y1="443.5" x2="283.7" y2="443.5"/>
	<line class="st0" x1="287.2" y1="440.3" x2="274.9" y2="440.3"/>
	<line class="st0" x1="273" y1="437.2" x2="289" y2="437.2"/>
	<line class="st0" x1="289.9" y1="434" x2="272.8" y2="434"/>
	<line class="st0" x1="269.7" y1="434" x2="264.5" y2="434"/>
	<path class="st0" d="M260.9,430.8c10.1,0,18,0,28.1,0"/>
	<path class="st0" d="M293,430.8c2.3,0,3,0,5.3,0"/>
	<path class="st0" d="M305.2,427.6c-9.8,0-22.6,0-32.4,0"/>
	<line class="st0" x1="268.9" y1="427.6" x2="257.6" y2="427.6"/>
	<line class="st0" x1="254.2" y1="424.5" x2="289" y2="424.5"/>
	<path class="st0" d="M293,424.5c4,0,7.9,0,12,0"/>
	<line class="st0" x1="311.4" y1="421.5" x2="272.8" y2="421.5"/>
	<path class="st0" d="M268.9,421.5c-6.6,0-10.9,0-17.5,0"/>
	<line class="st0" x1="252.8" y1="418.3" x2="289" y2="418.3"/>
	<path class="st0" d="M293,418.3c6.9,0,11.6,0,18.5,0"/>
	<path class="st0" d="M315.4,415.1c-1.8,0-2,0-3.8,0"/>
	<line class="st0" x1="309.1" y1="415.1" x2="272.8" y2="415.1"/>
	<path class="st0" d="M268.9,415.1c-9,0-12.5,0-21.5,0"/>
	<line class="st0" x1="245.9" y1="412" x2="248.9" y2="412"/>
	<line class="st0" x1="252.8" y1="412" x2="289" y2="412"/>
	<path class="st0" d="M293,412c8.7,0,13.6,0,22.3,0"/>
	<path class="st0" d="M317.9,408.8c-2.5,0-2.4,0-4.8,0"/>
	<line class="st0" x1="309.1" y1="408.8" x2="272.8" y2="408.8"/>
	<line class="st0" x1="268.9" y1="408.8" x2="244.8" y2="408.8"/>
	<line class="st0" x1="243.8" y1="405.6" x2="248.9" y2="405.6"/>
	<line class="st0" x1="252.8" y1="405.6" x2="289" y2="405.6"/>
	<path class="st0" d="M293,405.6c10,0,14.9,0,24.9,0"/>
	<path class="st0" d="M319.7,402.4c-3.5,0-3.1,0-6.6,0"/>
	<line class="st0" x1="309.1" y1="402.4" x2="272.8" y2="402.4"/>
	<line class="st0" x1="268.9" y1="402.4" x2="243" y2="402.4"/>
	<line class="st0" x1="242.3" y1="399.3" x2="248.9" y2="399.3"/>
	<line class="st0" x1="252.8" y1="399.3" x2="289" y2="399.3"/>
	<path class="st0" d="M293,399.3c10.2,0,16.5,0,26.7,0"/>
	<path class="st0" d="M321.1,396.3c-3.9,0-4.2,0-8.1,0"/>
	<line class="st0" x1="309.1" y1="396.3" x2="272.8" y2="396.3"/>
	<path class="st0" d="M268.9,396.3c-11.2,0-16.1,0-27.2,0"/>
	<path class="st0" d="M241.3,393.1c5.1,0,2.5,0,7.6,0"/>
	<line class="st0" x1="252.8" y1="393.1" x2="289" y2="393.1"/>
	<path class="st0" d="M293,393.1c11.2,0,15.1,0,26.3,0"/>
	<path class="st0" d="M321.8,389.9c-5.1,0-3.6,0-8.7,0"/>
	<line class="st0" x1="309.1" y1="389.9" x2="272.8" y2="389.9"/>
	<line class="st0" x1="268.9" y1="389.9" x2="241.1" y2="389.9"/>
	<path class="st0" d="M240.9,386.7c5.5,0,2.5,0,8,0"/>
	<line class="st0" x1="252.8" y1="386.7" x2="289" y2="386.7"/>
	<path class="st0" d="M293,386.7c11.4,0,14.9,0,26.3,0"/>
	<path class="st0" d="M322.3,383.6c-4.6,0-4.6,0-9.2,0"/>
	<line class="st0" x1="309.1" y1="383.6" x2="272.8" y2="383.6"/>
	<line class="st0" x1="268.9" y1="383.6" x2="240.6" y2="383.6"/>
	<path class="st0" d="M240.7,380.4c5.4,0,2.8,0,8.2,0"/>
	<line class="st0" x1="252.8" y1="380.4" x2="289" y2="380.4"/>
	<path class="st0" d="M293,380.4c11.2,0,16.5,0,27.6,0"/>
	<path class="st0" d="M322,377.2c-4.6,0-4.4,0-9,0"/>
	<line class="st0" x1="309.1" y1="377.2" x2="272.8" y2="377.2"/>
	<line class="st0" x1="268.9" y1="377.2" x2="240.8" y2="377.2"/>
	<path class="st0" d="M241,374.1c5.5,0,2.4,0,7.9,0"/>
	<line class="st0" x1="252.8" y1="374.1" x2="289" y2="374.1"/>
	<path class="st0" d="M293,374.1c11.6,0,15.5,0,27.1,0"/>
	<path class="st0" d="M321.7,371.1c-4.8,0-3.8,0-8.6,0"/>
	<line class="st0" x1="309.1" y1="371.1" x2="272.8" y2="371.1"/>
	<line class="st0" x1="268.9" y1="371.1" x2="241.3" y2="371.1"/>
	<path class="st0" d="M241.7,367.9c5.2,0,2,0,7.2,0"/>
	<line class="st0" x1="252.8" y1="367.9" x2="289" y2="367.9"/>
	<path class="st0" d="M293,367.9c11.5,0,16.8,0,28.3,0"/>
	<path class="st0" d="M320.8,364.7c-4.8,0-2.9,0-7.7,0"/>
	<line class="st0" x1="309.1" y1="364.7" x2="272.8" y2="364.7"/>
	<path class="st0" d="M268.9,364.7c-11.8,0-15,0-26.8,0"/>
	<path class="st0" d="M242.9,361.5c5.2,0,0.8,0,6,0"/>
	<line class="st0" x1="252.8" y1="361.5" x2="289" y2="361.5"/>
	<path class="st0" d="M293,361.5c32.3,0-8.6,0,27.1,0"/>
	<path class="st0" d="M319.2,358.4c-5.3,0-0.8,0-6.1,0"/>
	<line class="st0" x1="309.1" y1="358.4" x2="272.8" y2="358.4"/>
	<line class="st0" x1="268.9" y1="358.4" x2="243.8" y2="358.4"/>
	<line class="st0" x1="244.9" y1="355.2" x2="248.9" y2="355.2"/>
	<line class="st0" x1="252.8" y1="355.2" x2="289" y2="355.2"/>
	<path class="st0" d="M293,355.2c11.6,0,13.3,0,25,0"/>
	<path class="st0" d="M316.5,352c-4.8,0,1.4,0-3.4,0"/>
	<line class="st0" x1="309.1" y1="352" x2="272.8" y2="352"/>
	<line class="st0" x1="268.9" y1="352" x2="246.5" y2="352"/>
	<line class="st0" x1="248.4" y1="349" x2="249.3" y2="349"/>
	<line class="st0" x1="252.8" y1="349" x2="289" y2="349"/>
	<path class="st0" d="M293,349c10.8,0,10.7,0,21.6,0"/>
	<line class="st0" x1="309.1" y1="345.9" x2="272.8" y2="345.9"/>
	<path class="st0" d="M268.9,345.9c-11.4,0-7.7,0-19.1,0"/>
	<line class="st0" x1="252.8" y1="342.7" x2="289" y2="342.7"/>
	<path class="st0" d="M293,342.7c9.9,0,8.6,0,18.5,0"/>
	<line class="st0" x1="309.1" y1="339.5" x2="272.8" y2="339.5"/>
	<path class="st0" d="M268.9,339.5c-10.8,0-5.2,0-16,0"/>
	<line class="st0" x1="254.5" y1="336.3" x2="289" y2="336.3"/>
	<path class="st0" d="M293,336.3c9.2,0,6.3,0,15.5,0"/>
	<line class="st0" x1="306.9" y1="333.2" x2="272.8" y2="333.2"/>
	<path class="st0" d="M268.9,333.2c-8.8,0-4.1,0-12.9,0"/>
	<line class="st0" x1="257.5" y1="330" x2="289" y2="330"/>
	<path class="st0" d="M293,330c7.9,0,4.5,0,12.4,0"/>
	<line class="st0" x1="304.3" y1="326.8" x2="272.8" y2="326.8"/>
	<path class="st0" d="M268.9,326.8c-7.9,0-2.4,0-10.3,0"/>
	<line class="st0" x1="259.3" y1="323.8" x2="289" y2="323.8"/>
	<path class="st0" d="M293,323.8c7.2,0,3.4,0,10.6,0"/>
	<line class="st0" x1="303" y1="320.7" x2="272.8" y2="320.7"/>
	<path class="st0" d="M268.9,320.7c-6.6,0-2.4,0-9,0"/>
	<line class="st0" x1="260.5" y1="317.5" x2="289" y2="317.5"/>
	<path class="st0" d="M293,317.5c6.2,0,3.2,0,9.4,0"/>
	<line class="st0" x1="301.8" y1="314.3" x2="272.8" y2="314.3"/>
	<path class="st0" d="M268.9,314.3c-5.6,0-2.3,0-7.8,0"/>
	<line class="st0" x1="261.7" y1="311.1" x2="289" y2="311.1"/>
	<path class="st0" d="M293,311.1c5,0,3.2,0,8.2,0"/>
	<path class="st0" d="M300.7,308c-11.4,0-16.4,0-27.8,0"/>
	<path class="st0" d="M268.9,308c-5.6,0-1.1,0-6.7,0"/>
	<path class="st0" d="M262.8,304.8c11.8,0,14.4,0,26.2,0"/>
	<line class="st0" x1="293" y1="304.8" x2="300.2" y2="304.8"/>
	<line class="st0" x1="299.5" y1="301.6" x2="272.8" y2="301.6"/>
	<line class="st0" x1="268.9" y1="301.6" x2="263.4" y2="301.6"/>
	<path class="st0" d="M263.9,298.6c11.3,0,13.8,0,25.1,0"/>
	<path class="st0" d="M293,298.6c3.8,0,2.2,0,5.9,0"/>
	<path class="st0" d="M298.4,295.5c-10.2,0-15.3,0-25.5,0"/>
	<line class="st0" x1="268.9" y1="295.5" x2="264.5" y2="295.5"/>
	<line class="st0" x1="265.2" y1="292.3" x2="289" y2="292.3"/>
	<line class="st0" x1="293" y1="292.3" x2="297.7" y2="292.3"/>
	<path class="st0" d="M297.1,289.1c-9.8,0-14.5,0-24.2,0"/>
	<line class="st0" x1="268.9" y1="289.1" x2="265.8" y2="289.1"/>
	<line class="st0" x1="266.5" y1="285.9" x2="289" y2="285.9"/>
	<path class="st0" d="M293,285.9c2.8,0,0.6,0,3.4,0"/>
	<path class="st0" d="M289,279.6"/>
	<path class="st0" d="M293,279.6"/>
	<line class="st0" x1="298.6" y1="434" x2="292.7" y2="434"/>
</g>
<g>
	<g id="surface6361_3_">
		<line class="st0" x1="549.6" y1="393" x2="551.9" y2="389"/>
		<line class="st0" x1="550.1" y1="385.4" x2="545.8" y2="393"/>
		<line class="st0" x1="542" y1="393.2" x2="548.2" y2="382.4"/>
		<line class="st0" x1="547.1" y1="377.6" x2="538.3" y2="392.8"/>
		<path class="st0" d="M533.5,394.6c4-6.9,6.1-10.5,10-17.4"/>
		<path class="st0" d="M543.6,370.6c-4,6.9-7,12.1-11,19"/>
		<path class="st0" d="M530.7,392.9c-0.9,1.5-0.2,0.4-1.1,2"/>
		<line class="st0" x1="525.6" y1="395" x2="537.8" y2="374"/>
		<path class="st0" d="M539.8,370.5c0.9-1.5,1.1-1.9,1.9-3.4"/>
		<path class="st0" d="M540.1,363.9c-4.6,7.9-8.4,14.6-13,22.5"/>
		<path class="st0" d="M525.1,389.7c-1.3,2.3-1.8,3.2-3.2,5.5"/>
		<path class="st0" d="M518,395.5c5-8.7,9.2-16,14.3-24.7"/>
		<path class="st0" d="M534.3,367.3c1.5-2.7,2.5-4.4,4.1-7.1"/>
		<path class="st0" d="M536.5,356.9c-5.3,9.1-9.9,17.1-15.1,26.2"/>
		<path class="st0" d="M519.4,386.4c-2.1,3.6-3.3,5.7-5.3,9.3"/>
		<path class="st0" d="M510.2,395.9c5.8-10.1,10.6-18.3,16.4-28.4"/>
		<path class="st0" d="M528.6,364c2.5-4.4,3.7-6.4,6.2-10.8"/>
		<line class="st0" x1="533.2" y1="349.8" x2="515.7" y2="379.8"/>
		<line class="st0" x1="513.8" y1="383.2" x2="506.1" y2="396.2"/>
		<line class="st0" x1="503.3" y1="394.6" x2="520.9" y2="364.2"/>
		<path class="st0" d="M522.9,360.7c3.5-6,4.9-8.5,8.3-14.5"/>
		<line class="st0" x1="528.1" y1="345.2" x2="510" y2="376.5"/>
		<line class="st0" x1="508.1" y1="379.9" x2="498.6" y2="396.3"/>
		<line class="st0" x1="497.2" y1="392.2" x2="515.2" y2="360.9"/>
		<line class="st0" x1="517.2" y1="357.4" x2="527.2" y2="340.1"/>
		<line class="st0" x1="525" y1="337.7" x2="524.3" y2="339.1"/>
		<line class="st0" x1="522.5" y1="342" x2="504.5" y2="373.3"/>
		<path class="st0" d="M502.5,376.7c-4.1,7-10.7,18.6-10.7,18.6"/>
		<line class="st0" x1="488.5" y1="394.5" x2="489.7" y2="392.4"/>
		<line class="st0" x1="491.6" y1="389" x2="509.7" y2="357.7"/>
		<path class="st0" d="M511.7,354.3c4.2-7.3,6.9-11.9,11.1-19.2"/>
		<path class="st0" d="M520.5,332.5c-1.2,2.1-0.4,0.7-1.6,2.8"/>
		<line class="st0" x1="516.9" y1="338.8" x2="498.8" y2="370"/>
		<path class="st0" d="M496.9,373.4c-4.8,8.4-6.9,11.9-11.7,20.3"/>
		<line class="st0" x1="481.9" y1="392.7" x2="484" y2="389.1"/>
		<line class="st0" x1="486" y1="385.7" x2="504" y2="354.4"/>
		<path class="st0" d="M506,351c5-8.7,6.9-12,11.9-20.6"/>
		<path class="st0" d="M515.4,328.1c-1.5,2.7-0.7,1.3-2.3,3.9"/>
		<line class="st0" x1="511.2" y1="335.5" x2="493.1" y2="366.7"/>
		<path class="st0" d="M491.2,370.1c-5.3,9.1-7.2,12.5-12.5,21.6"/>
		<line class="st0" x1="475.5" y1="390.6" x2="478.3" y2="385.8"/>
		<line class="st0" x1="480.3" y1="382.4" x2="498.3" y2="351.1"/>
		<path class="st0" d="M500.3,347.7c4.8-8.3,7.8-13.5,12.6-21.8"/>
		<path class="st0" d="M510.3,323.8c-1.5,2.7-1.3,2.3-2.9,5"/>
		<line class="st0" x1="505.5" y1="332.2" x2="487.4" y2="363.5"/>
		<line class="st0" x1="485.5" y1="366.8" x2="472.4" y2="389.4"/>
		<line class="st0" x1="469.3" y1="388.2" x2="472.6" y2="382.5"/>
		<line class="st0" x1="474.6" y1="379.1" x2="492.6" y2="347.9"/>
		<path class="st0" d="M494.6,344.4c5-8.6,8.2-14.1,13.1-22.7"/>
		<path class="st0" d="M505.3,319.7c-1.7,2.9-1.7,2.9-3.3,5.8"/>
		<line class="st0" x1="499.9" y1="329" x2="481.9" y2="360.3"/>
		<line class="st0" x1="479.9" y1="363.6" x2="466.4" y2="387.1"/>
		<line class="st0" x1="463.4" y1="385.8" x2="467.1" y2="379.3"/>
		<line class="st0" x1="469" y1="375.9" x2="487.1" y2="344.7"/>
		<path class="st0" d="M489.1,341.2c5.1-8.9,8.5-14.7,13.6-23.6"/>
		<path class="st0" d="M500,315.7c-2,3.5-1.7,3-3.8,6.5"/>
		<line class="st0" x1="494.3" y1="325.7" x2="476.2" y2="357"/>
		<path class="st0" d="M474.3,360.3c-5.8,10.1-13.9,24.2-13.9,24.2"/>
		<line class="st0" x1="457.3" y1="383.2" x2="461.4" y2="376"/>
		<line class="st0" x1="463.4" y1="372.7" x2="481.4" y2="341.4"/>
		<line class="st0" x1="483.4" y1="337.9" x2="497.3" y2="313.8"/>
		<path class="st0" d="M494.6,312c-2.6,4.6-1.4,2.4-4,6.9"/>
		<line class="st0" x1="488.6" y1="322.4" x2="470.5" y2="353.7"/>
		<line class="st0" x1="468.6" y1="357.1" x2="454.4" y2="381.6"/>
		<line class="st0" x1="451.5" y1="380.1" x2="455.7" y2="372.7"/>
		<line class="st0" x1="457.7" y1="369.4" x2="475.7" y2="338.1"/>
		<line class="st0" x1="477.7" y1="334.6" x2="491.8" y2="310.2"/>
		<path class="st0" d="M489,308.5c-2.5,4.3-1.7,2.9-4.2,7.2"/>
		<line class="st0" x1="482.9" y1="319.1" x2="464.8" y2="350.4"/>
		<line class="st0" x1="462.9" y1="353.8" x2="448.6" y2="378.6"/>
		<line class="st0" x1="445.8" y1="377.1" x2="450.2" y2="369.6"/>
		<line class="st0" x1="452.1" y1="366.2" x2="470.2" y2="334.9"/>
		<path class="st0" d="M472.2,331.4c5.7-9.9,8.6-14.8,14.3-24.7"/>
		<path class="st0" d="M483.6,305.1c-2.2,3.9-2,3.5-4.3,7.4"/>
		<line class="st0" x1="477.4" y1="316" x2="459.3" y2="347.2"/>
		<line class="st0" x1="457.4" y1="350.6" x2="442.9" y2="375.7"/>
		<line class="st0" x1="440.1" y1="374" x2="444.5" y2="366.3"/>
		<line class="st0" x1="446.5" y1="362.9" x2="464.5" y2="331.6"/>
		<path class="st0" d="M466.5,328.2c5.5-9.5,8.8-15.3,14.3-24.8"/>
		<line class="st0" x1="477.9" y1="301.8" x2="473.7" y2="309.2"/>
		<line class="st0" x1="471.7" y1="312.7" x2="453.6" y2="343.9"/>
		<line class="st0" x1="451.7" y1="347.3" x2="437.3" y2="372.3"/>
		<line class="st0" x1="434.5" y1="370.6" x2="438.8" y2="363"/>
		<line class="st0" x1="440.8" y1="359.6" x2="458.8" y2="328.3"/>
		<path class="st0" d="M460.8,324.9c5.6-9.7,8.6-15,14.2-24.7"/>
		<path class="st0" d="M472.2,298.7c-2.4,4.1-1.8,3.2-4.2,7.2"/>
		<line class="st0" x1="466" y1="309.4" x2="447.9" y2="340.7"/>
		<line class="st0" x1="446" y1="344" x2="431.7" y2="368.8"/>
		<line class="st0" x1="428.9" y1="367.1" x2="433.1" y2="359.7"/>
		<line class="st0" x1="435.1" y1="356.3" x2="453.1" y2="325.1"/>
		<path class="st0" d="M455.1,321.6c5.8-10.1,8.3-14.3,14.1-24.4"/>
		<path class="st0" d="M466.3,295.7c-2.7,4.7-1.3,2.3-4,7"/>
		<line class="st0" x1="460.3" y1="306.1" x2="442.2" y2="337.4"/>
		<line class="st0" x1="440.3" y1="340.7" x2="426.1" y2="365.2"/>
		<line class="st0" x1="423.6" y1="363.5" x2="427.6" y2="356.5"/>
		<line class="st0" x1="429.6" y1="353.1" x2="447.6" y2="321.9"/>
		<line class="st0" x1="449.6" y1="318.4" x2="463.5" y2="294.3"/>
		<path class="st0" d="M460.6,292.8c-2.7,4.6-1.2,2-3.8,6.6"/>
		<line class="st0" x1="454.8" y1="302.9" x2="436.7" y2="334.2"/>
		<line class="st0" x1="434.8" y1="337.5" x2="420.9" y2="361.6"/>
		<line class="st0" x1="418.2" y1="359.7" x2="421.9" y2="353.2"/>
		<line class="st0" x1="423.9" y1="349.9" x2="441.9" y2="318.6"/>
		<path class="st0" d="M443.9,315.1c16.5-28.5-2.8,4.9,13.7-23.6"/>
		<path class="st0" d="M454.5,290.3c-2.4,4.2-1,1.7-3.4,5.9"/>
		<line class="st0" x1="449.1" y1="299.6" x2="431" y2="330.9"/>
		<line class="st0" x1="429.1" y1="334.3" x2="415.5" y2="357.7"/>
		<line class="st0" x1="412.9" y1="355.6" x2="416.2" y2="349.9"/>
		<line class="st0" x1="418.2" y1="346.6" x2="436.2" y2="315.3"/>
		<path class="st0" d="M438.2,311.8c5.7-9.9,7.4-12.9,13.2-22.8"/>
		<path class="st0" d="M448.3,287.9c-2.2,3.8-0.7,1.2-2.9,5"/>
		<line class="st0" x1="443.4" y1="296.3" x2="425.3" y2="327.6"/>
		<line class="st0" x1="423.4" y1="331" x2="410.4" y2="353.5"/>
		<line class="st0" x1="407.9" y1="351.3" x2="410.5" y2="346.7"/>
		<line class="st0" x1="412.5" y1="343.3" x2="430.5" y2="312"/>
		<path class="st0" d="M432.5,308.6c5.6-9.6,7-12.1,12.5-21.7"/>
		<line class="st0" x1="441.8" y1="285.9" x2="439.7" y2="289.6"/>
		<line class="st0" x1="437.7" y1="293.1" x2="419.6" y2="324.3"/>
		<line class="st0" x1="417.7" y1="327.7" x2="405.5" y2="348.9"/>
		<line class="st0" x1="403.2" y1="346.5" x2="405" y2="343.5"/>
		<line class="st0" x1="407" y1="340.1" x2="425" y2="308.8"/>
		<path class="st0" d="M427,305.4c5.6-9.6,6.1-10.6,11.7-20.2"/>
		<line class="st0" x1="435.3" y1="284.5" x2="434.2" y2="286.4"/>
		<line class="st0" x1="432.2" y1="289.9" x2="414.1" y2="321.1"/>
		<path class="st0" d="M412.2,324.5c-5.8,10-5.4,9.4-11.2,19.4"/>
		<line class="st0" x1="398.8" y1="341" x2="399.8" y2="339.4"/>
		<line class="st0" x1="401.3" y1="336.8" x2="419.3" y2="305.5"/>
		<path class="st0" d="M421.3,302.1c5.5-9.5,4.9-8.5,10.4-18.1"/>
		<path class="st0" d="M428.5,283.1"/>
		<line class="st0" x1="426.5" y1="286.6" x2="408.4" y2="317.9"/>
		<path class="st0" d="M406.5,321.2c-5.4,9.4-4.6,8-10,17.4"/>
		<line class="st0" x1="395.6" y1="333.5" x2="413.6" y2="302.3"/>
		<path class="st0" d="M415.6,298.8c5.1-8.9,4.3-7.4,9.4-16.3"/>
		<line class="st0" x1="420.8" y1="283.3" x2="402.7" y2="314.6"/>
		<line class="st0" x1="400.8" y1="317.9" x2="391.7" y2="333.6"/>
		<line class="st0" x1="389.9" y1="330.2" x2="408" y2="299"/>
		<path class="st0" d="M410,295.5c5-8.7,3.4-6,8.4-14.6"/>
		<line class="st0" x1="415.1" y1="280" x2="397.1" y2="311.3"/>
		<line class="st0" x1="395.1" y1="314.7" x2="387" y2="328.6"/>
		<line class="st0" x1="384.8" y1="326.3" x2="402.4" y2="295.8"/>
		<path class="st0" d="M404.4,292.3c4.6-8,2.9-5,7.5-12.9"/>
		<line class="st0" x1="408.6" y1="278.6" x2="391.5" y2="308.1"/>
		<line class="st0" x1="389.6" y1="311.5" x2="382.5" y2="323.8"/>
		<line class="st0" x1="380.1" y1="321.3" x2="396.7" y2="292.5"/>
		<path class="st0" d="M398.7,289c4-6.9-8.9,15.5,6.5-11.2"/>
		<line class="st0" x1="401.9" y1="277.1" x2="385.8" y2="304.8"/>
		<line class="st0" x1="383.9" y1="308.2" x2="377.8" y2="318.7"/>
		<line class="st0" x1="375.4" y1="316.3" x2="391" y2="289.2"/>
		<path class="st0" d="M393,285.8c3.8-6.6,1.7-2.9,5.5-9.6"/>
		<line class="st0" x1="395.5" y1="275" x2="380.2" y2="301.5"/>
		<line class="st0" x1="378.2" y1="304.9" x2="372.8" y2="314.2"/>
		<line class="st0" x1="370.2" y1="312.2" x2="385.4" y2="285.9"/>
		<path class="st0" d="M387.4,282.5c3.6-6.2,1.4-2.5,5-8.7"/>
		<line class="st0" x1="389.3" y1="272.5" x2="374.5" y2="298.2"/>
		<line class="st0" x1="372.5" y1="301.6" x2="367.6" y2="310.2"/>
		<line class="st0" x1="365.1" y1="308.3" x2="379.8" y2="282.7"/>
		<path class="st0" d="M381.8,279.3c3.5-6,1.1-2,4.6-8"/>
		<line class="st0" x1="383.5" y1="269.9" x2="368.9" y2="295"/>
		<line class="st0" x1="367" y1="298.4" x2="362.4" y2="306.3"/>
		<line class="st0" x1="359.8" y1="304.4" x2="374.1" y2="279.5"/>
		<path class="st0" d="M376.1,276c3.2-5.6,1-1.7,4.2-7.3"/>
		<line class="st0" x1="377.3" y1="267.3" x2="363.2" y2="291.8"/>
		<line class="st0" x1="361.3" y1="295.1" x2="357.1" y2="302.4"/>
		<line class="st0" x1="354.5" y1="300.4" x2="368.5" y2="276.2"/>
		<line class="st0" x1="370.5" y1="272.7" x2="374.3" y2="266"/>
		<line class="st0" x1="371.3" y1="264.7" x2="357.6" y2="288.5"/>
		<line class="st0" x1="355.6" y1="291.8" x2="351.8" y2="298.5"/>
		<line class="st0" x1="349.1" y1="296.5" x2="362.8" y2="272.9"/>
		<path class="st0" d="M364.8,269.4c3.2-5.6,0.3-0.4,3.5-6"/>
		<line class="st0" x1="365.5" y1="262" x2="352" y2="285.3"/>
		<line class="st0" x1="350.1" y1="288.7" x2="346.6" y2="294.6"/>
		<line class="st0" x1="359.4" y1="259.4" x2="349.4" y2="276.7"/>
		<line class="st0" x1="346.9" y1="281" x2="341.3" y2="290.7"/>
		<line class="st0" x1="338.7" y1="288.7" x2="351.6" y2="266.4"/>
		<line class="st0" x1="353.6" y1="262.9" x2="356.4" y2="258.1"/>
		<line class="st0" x1="353.3" y1="256.7" x2="343.7" y2="273.4"/>
		<path class="st0" d="M338.7,282.1c-2,3.5-0.7,1.2-2.7,4.7"/>
		<path class="st0" d="M333.4,284.8c5.4-9.4,7.1-12.3,12.5-21.7"/>
		<line class="st0" x1="347.9" y1="259.7" x2="350.3" y2="255.4"/>
		<path class="st0" d="M347.3,254.1c-5.8,10-6.5,11.3-12.3,21.3"/>
		<path class="st0" d="M333,278.8c-1.9,3.3-0.4,0.7-2.3,4"/>
		<path class="st0" d="M328.1,280.8c5.4-9.4,6.7-11.5,12.1-20.9"/>
		<line class="st0" x1="342.2" y1="256.4" x2="344.2" y2="252.8"/>
		<line class="st0" x1="341.3" y1="251.6" x2="331.6" y2="268.5"/>
		<path class="st0" d="M327.5,275.6c-2.1,3.6,0.2-0.3-1.9,3.3"/>
		<path class="st0" d="M323,276.9c5.3-9.1,6.4-11.1,11.7-20.2"/>
		<line class="st0" x1="336.6" y1="253.2" x2="338.3" y2="250.3"/>
		<line class="st0" x1="335.2" y1="249.1" x2="325.5" y2="266"/>
		<path class="st0" d="M321.8,272.3c-1.9,3.4,0.5-0.9-1.4,2.5"/>
		<line class="st0" x1="317.8" y1="272.7" x2="329" y2="253.4"/>
		<line class="st0" x1="331" y1="249.9" x2="332.1" y2="247.9"/>
		<line class="st0" x1="344" y1="292.7" x2="355" y2="273.7"/>
		<path class="st0" d="M357,270.3c3.2-5.6,2.3-3.9,5.5-9.5"/>
	</g>
</g>
</svg>
