<?xml version="1.0" encoding="utf-8"?>
<!-- Generator: Adobe Illustrator 24.0.1, SVG Export Plug-In . SVG Version: 6.00 Build 0)  -->
<svg version="1.1" id="Ebene_1" xmlns="http://www.w3.org/2000/svg" xmlns:xlink="http://www.w3.org/1999/xlink" x="0px" y="0px"
	 viewBox="0 0 566.9 566.9" style="enable-background:new 0 0 566.9 566.9;" xml:space="preserve">
<style type="text/css">
	.st0{fill:none;stroke:#0000FF;stroke-miterlimit:10;}
	.st1{fill:none;stroke:#000000;stroke-width:0.25;stroke-miterlimit:10;}
	.st2{fill:none;stroke:#336699;stroke-width:0.75;stroke-miterlimit:10;}
</style>
<g id="XMLID_605_">
	<circle class="st0" cx="194.5" cy="220.1" r="15.4"/>
</g>
<g id="XMLID_604_">
	<path id="XMLID_3629_" class="st0" d="M162.4,187.3c5.6-5.5,12.6-9.5,20.4-11.6"/>
	<path id="XMLID_3634_" class="st0" d="M150,231c-0.9-3.5-1.3-7.2-1.3-10.9c0-3.9,0.4-7.7,1.4-11.3"/>
	<path id="XMLID_3624_" class="st0" d="M182.1,264.2c-7.6-2.2-14.3-6.2-19.7-11.5"/>
	<path id="XMLID_3631_" class="st0" d="M226.7,252.7c-5.4,5.3-12.1,9.3-19.6,11.5"/>
	<path id="XMLID_3630_" class="st0" d="M238.9,208.6c1,3.7,1.4,7.5,1.4,11.5c0,3.8-0.4,7.5-1.3,10.9"/>
	<path id="XMLID_3018_" class="st0" d="M206.2,175.7c7.7,2.1,14.6,6.1,20.3,11.5"/>
</g>
<g id="test">
	<path class="st1" d="M181.1,174.8"/>
	<path class="st1" d="M207.1,174.8"/>
	<path class="st1" d="M180.2,171.9c5.4,0,7,0,12.3,0"/>
	<path class="st1" d="M196.3,171.9c4.2,0,8.4,0,12.6,0"/>
	<path class="st1" d="M205.9,169c-11.5,0-12,0-23.5,0"/>
	<path class="st1" d="M178.8,166.1c5.6,0,8.1,0,13.7,0"/>
	<path class="st1" d="M196.3,166.1c5.8,0,7.9,0,13.7,0"/>
	<line class="st1" x1="207.5" y1="163.2" x2="181.4" y2="163.2"/>
	<path class="st1" d="M177.6,160.2c6.3,0,8.6,0,14.9,0"/>
	<path class="st1" d="M196.3,160.2c5.9,0,8.9,0,14.8,0"/>
	<line class="st1" x1="208.9" y1="157.3" x2="180.2" y2="157.3"/>
	<path class="st1" d="M176.6,154.6c7.3,0,8.7,0,16,0"/>
	<path class="st1" d="M196.3,154.6c5.7,0,10.2,0,15.9,0"/>
	<line class="st1" x1="210" y1="151.6" x2="179.4" y2="151.6"/>
	<path class="st1" d="M175.5,148.7c8,0,9.1,0,17,0"/>
	<path class="st1" d="M196.3,148.7c6.2,0,10.8,0,17,0"/>
	<line class="st1" x1="212.1" y1="145.8" x2="176.8" y2="145.8"/>
	<path class="st1" d="M174.4,142.9c7.5,0,10.6,0,18.1,0"/>
	<path class="st1" d="M196.3,142.9c6.4,0,11.6,0,18,0"/>
	<line class="st1" x1="212.1" y1="140" x2="176.8" y2="140"/>
	<path class="st1" d="M173.4,137c7.2,0,11.9,0,19.2,0"/>
	<path class="st1" d="M196.3,137c7.3,0,11.8,0,19.1,0"/>
	<line class="st1" x1="212.1" y1="134.1" x2="176.8" y2="134.1"/>
	<path class="st1" d="M172.2,131.4c7.6,0,12.7,0,20.3,0"/>
	<path class="st1" d="M196.3,131.4c7.4,0,12.8,0,20.2,0"/>
	<path class="st1" d="M217.1,128.4c-1.2,0,0,0-1.2,0"/>
	<line class="st1" x1="212.1" y1="128.4" x2="176.8" y2="128.4"/>
	<path class="st1" d="M172.9,128.4c-1.2,0,0,0-1.2,0"/>
	<path class="st1" d="M170.6,125.4c8,0,13.9,0.2,21.9,0.2"/>
	<path class="st1" d="M196.3,125.5c7.9,0,13.9-0.2,21.8-0.2"/>
	<path class="st1" d="M219.5,122.6c-1.7,0-1.9,0-3.5,0"/>
	<line class="st1" x1="212.1" y1="122.6" x2="176.8" y2="122.6"/>
	<path class="st1" d="M172.9,122.6c-1.8,0-1.8,0-3.5,0"/>
	<path class="st1" d="M167.9,119.7c8.8,0,15.9,0,24.7,0"/>
	<path class="st1" d="M196.3,119.7c8.6,0,16,0,24.6,0"/>
	<path class="st1" d="M222.1,116.8c-2.6,0-3.5,0-6.2,0"/>
	<line class="st1" x1="212.1" y1="116.8" x2="176.8" y2="116.8"/>
	<path class="st1" d="M172.9,116.8c-2.7,0-3.8,0-6.5,0"/>
	<path class="st1" d="M165.1,113.8c9.9,0,17.6,0,27.5,0"/>
	<path class="st1" d="M196.3,113.8c9.6,0,17.6,0,27.2,0"/>
	<path class="st1" d="M225,111.1c-3.1,0-5.9,0-9.1,0"/>
	<line class="st1" x1="212.1" y1="111.1" x2="176.8" y2="111.1"/>
	<path class="st1" d="M172.9,111.1c-4,0-5.2,0-9.2,0"/>
	<path class="st1" d="M162.3,108.2c10.7,0,19.5,0,30.2,0"/>
	<path class="st1" d="M196.3,108.2c10.2,0.3,19.9,0.3,30.1,0.1"/>
	<path class="st1" d="M228,105.2c-4.3,0-7.7,0-12,0"/>
	<line class="st1" x1="212.1" y1="105.2" x2="176.8" y2="105.2"/>
	<path class="st1" d="M172.9,105.2c-4.5,0-7.6,0-12.1,0"/>
	<path class="st1" d="M159,102.3c11.7-0.4,21.3-0.4,33.5,0"/>
	<path class="st1" d="M196.3,102.3c11.4,0,22,0,33.4,0"/>
	<path class="st1" d="M231.1,99.4c-5.5,0-9.6,0-15.1,0"/>
	<line class="st1" x1="212.1" y1="99.4" x2="176.8" y2="99.4"/>
	<path class="st1" d="M172.9,99.4c-5.2,0-10,0-15.2,0"/>
	<line class="st1" x1="157.3" y1="96.5" x2="192.5" y2="96.5"/>
	<line class="st1" x1="196.3" y1="96.5" x2="231.5" y2="96.5"/>
	<line class="st1" x1="233" y1="93.6" x2="216" y2="93.6"/>
	<line class="st1" x1="212.1" y1="93.6" x2="176.8" y2="93.6"/>
	<path class="st1" d="M172.9,93.6c-6.7,0-10.4,0-17.1,0"/>
	<line class="st1" x1="157.3" y1="90.6" x2="192.5" y2="90.6"/>
	<line class="st1" x1="196.3" y1="90.6" x2="231.5" y2="90.6"/>
	<line class="st1" x1="234.1" y1="87.9" x2="216" y2="87.9"/>
	<line class="st1" x1="212.1" y1="87.9" x2="176.8" y2="87.9"/>
	<path class="st1" d="M172.9,87.9c-6.7,0-11.6,0-18.2,0"/>
	<line class="st1" x1="157.3" y1="85" x2="192.5" y2="85"/>
	<line class="st1" x1="196.3" y1="85" x2="231.5" y2="85"/>
	<line class="st1" x1="234.8" y1="82" x2="216" y2="82"/>
	<line class="st1" x1="212.1" y1="82" x2="176.8" y2="82"/>
	<path class="st1" d="M172.9,82c-6.7,0-12.2,0-18.9,0"/>
	<line class="st1" x1="157.3" y1="79.1" x2="192.5" y2="79.1"/>
	<line class="st1" x1="196.3" y1="79.1" x2="231.5" y2="79.1"/>
	<line class="st1" x1="235.1" y1="76.2" x2="216" y2="76.2"/>
	<line class="st1" x1="212.1" y1="76.2" x2="176.8" y2="76.2"/>
	<path class="st1" d="M172.9,76.2c-6.9,0-12.3,0-19.3,0"/>
	<line class="st1" x1="157.3" y1="73.3" x2="192.5" y2="73.3"/>
	<line class="st1" x1="196.3" y1="73.3" x2="231.5" y2="73.3"/>
	<line class="st1" x1="235.1" y1="70.4" x2="216" y2="70.4"/>
	<line class="st1" x1="212.1" y1="70.4" x2="176.8" y2="70.4"/>
	<path class="st1" d="M172.9,70.4c-6.5,0-13.1,0-19.6,0"/>
	<line class="st1" x1="157.3" y1="67.4" x2="192.5" y2="67.4"/>
	<line class="st1" x1="196.3" y1="67.4" x2="231.5" y2="67.4"/>
	<line class="st1" x1="234.8" y1="64.7" x2="216" y2="64.7"/>
	<line class="st1" x1="212.1" y1="64.7" x2="176.8" y2="64.7"/>
	<path class="st1" d="M172.9,64.7c-6.2,0-12.5,0-18.7,0"/>
	<line class="st1" x1="157.3" y1="61.8" x2="192.5" y2="61.8"/>
	<line class="st1" x1="196.3" y1="61.8" x2="231.5" y2="61.8"/>
	<line class="st1" x1="234.2" y1="58.8" x2="216" y2="58.8"/>
	<line class="st1" x1="212.1" y1="58.8" x2="176.8" y2="58.8"/>
	<path class="st1" d="M172.9,58.8c-6.5,0-11.7,0-18.2,0"/>
	<line class="st1" x1="157.3" y1="55.9" x2="192.5" y2="55.9"/>
	<line class="st1" x1="196.3" y1="55.9" x2="231.5" y2="55.9"/>
	<line class="st1" x1="233" y1="53" x2="216" y2="53"/>
	<line class="st1" x1="212.1" y1="53" x2="176.8" y2="53"/>
	<path class="st1" d="M172.9,53c-7.2,0-9.8,0-17,0"/>
	<line class="st1" x1="157.3" y1="50.1" x2="192.5" y2="50.1"/>
	<line class="st1" x1="196.3" y1="50.1" x2="231.5" y2="50.1"/>
	<line class="st1" x1="231.4" y1="47.2" x2="216" y2="47.2"/>
	<line class="st1" x1="212.1" y1="47.2" x2="176.8" y2="47.2"/>
	<path class="st1" d="M172.9,47.2c-6.3,0-9.3,0-15.6,0"/>
	<line class="st1" x1="158.5" y1="44.2" x2="192.5" y2="44.2"/>
	<line class="st1" x1="196.3" y1="44.2" x2="230.4" y2="44.2"/>
	<path class="st1" d="M229.2,41.5c-5.4,0-7.9,0-13.3,0"/>
	<line class="st1" x1="212.1" y1="41.5" x2="176.8" y2="41.5"/>
	<path class="st1" d="M172.9,41.5c-5.2,0-8.1,0-13.2,0"/>
	<path class="st1" d="M161.1,38.6c11.5,0,19.9,0,31.4,0"/>
	<path class="st1" d="M196.3,38.6c10.9,0,20.5,0,31.5,0"/>
	<path class="st1" d="M226,35.7c-3.5,0-6.5,0-10,0"/>
	<line class="st1" x1="212.1" y1="35.7" x2="176.8" y2="35.7"/>
	<path class="st1" d="M172.9,35.7c-3.8,0-6.2,0-10,0"/>
	<path class="st1" d="M165.1,32.7c9.2,0,18.3,0,27.5,0"/>
	<path class="st1" d="M196.3,32.7c9.4,0,18.1,0,27.4,0"/>
	<path class="st1" d="M220.9,29.8c-2.3,0-2.7,0-4.9,0"/>
	<line class="st1" x1="212.1" y1="29.8" x2="176.8" y2="29.8"/>
	<path class="st1" d="M172.9,29.8c-1.7,0-3.4,0-5.1,0"/>
	<path class="st1" d="M171.1,26.9c7.5,0,14,0,21.4,0"/>
	<path class="st1" d="M196.3,26.9c8.3,0,13.2,0,21.4,0"/>
	<line class="st1" x1="212.1" y1="24" x2="176.8" y2="24"/>
	<path class="st1" d="M177.2,21.1c6.5,0,8.9,0,15.4,0"/>
	<path class="st1" d="M196.3,21.1c6,0,9.3,0,15.4,0"/>
	<path class="st1" d="M206.3,18.3c-10.9,0-12.5,0-23.4,0"/>
	<path class="st1" d="M182.9,15.4c3.5,0,6.2,0,9.7,0"/>
	<path class="st1" d="M196.3,15.4c3.3,0,6.1,0,9.4,0"/>
	<path class="st1" d="M200.5,12.5c0.3,0,0.1,0-12.6,0"/>
	<path class="st1" d="M188.8,9.5c1.2,0,2.5,0,3.7,0"/>
	<path class="st1" d="M196.3,9.5c2.1,0,1.2,0,3.4,0"/>
	<path id="XMLID_10_" class="st2" d="M207,175.8c2.9-1.6,8.9-46.1,11.2-50.4c1.2-2.3,9.4-19.5,9.4-19.5c6.7-9.3,7.4-22.7,7.7-34
		l-0.8-11.3c-2.3-12.4-5-23.5-14.5-31.5L198.4,8.3c-1-1-2.1-2.1-3.9-2.2"/>
	<path id="XMLID_9_" class="st2" d="M206.7,175.8h0.3"/>
	<path id="XMLID_8_" class="st2" d="M181.9,175.8h0.4"/>
	<path id="XMLID_7_" class="st2" d="M194.4,6.1c-1.8,0-2.9,1.2-3.9,2.2L168.9,29c-9.4,8-12.2,19.2-14.5,31.5l-0.9,11.3
		c0.3,11.4,1,24.7,7.7,34c0,0,8.2,17.2,9.4,19.5c2.3,4.3,8.3,48.9,11.2,50.4"/>
	<path id="XMLID_5_" class="st2" d="M212.1,165.3"/>
</g>
<g id="test_1_">
	<path class="st1" d="M148.8,208.6"/>
	<path class="st1" d="M161.8,186.1"/>
	<path class="st1" d="M145.8,208c2.7-4.6,3.5-6,6.2-10.7"/>
	<path class="st1" d="M153.9,194c2.1-3.6,4.2-7.3,6.3-10.9"/>
	<path class="st1" d="M156.2,184.2c-5.7,10-6,10.4-11.8,20.4"/>
	<path class="st1" d="M140.1,206.2c2.8-4.9,4.1-7,6.9-11.9"/>
	<path class="st1" d="M148.9,191.1c2.9-5,3.9-6.8,6.8-11.8"/>
	<line class="st1" x1="151.9" y1="179.9" x2="138.8" y2="202.6"/>
	<path class="st1" d="M134.4,204.3c3.2-5.5,4.3-7.5,7.5-12.9"/>
	<path class="st1" d="M143.8,188.1c3-5.1,4.5-7.7,7.4-12.9"/>
	<line class="st1" x1="147.6" y1="175.8" x2="133.2" y2="200.7"/>
	<path class="st1" d="M129,202.4c3.6-6.3,4.4-7.5,8-13.8"/>
	<path class="st1" d="M138.9,185.3c2.9-4.9,5.1-8.8,8-13.8"/>
	<line class="st1" x1="143.2" y1="172" x2="127.9" y2="198.5"/>
	<path class="st1" d="M123.4,200.4c4-6.9,4.5-7.9,8.5-14.8"/>
	<path class="st1" d="M133.8,182.4c3.1-5.3,5.4-9.4,8.5-14.7"/>
	<line class="st1" x1="139.2" y1="167.3" x2="121.5" y2="197.8"/>
	<path class="st1" d="M117.8,198.4c3.7-6.5,5.3-9.2,9-15.7"/>
	<path class="st1" d="M128.8,179.5c3.2-5.6,5.8-10,9-15.6"/>
	<line class="st1" x1="134.1" y1="164.4" x2="116.5" y2="194.9"/>
	<path class="st1" d="M112.2,196.4c3.6-6.3,6-10.3,9.6-16.6"/>
	<path class="st1" d="M123.7,176.5c3.6-6.3,5.9-10.2,9.5-16.5"/>
	<line class="st1" x1="129" y1="161.5" x2="111.4" y2="192"/>
	<path class="st1" d="M106.7,194.6c3.8-6.6,6.3-11,10.1-17.6"/>
	<path class="st1" d="M118.8,173.7c3.7-6.4,6.4-11.1,10.1-17.5"/>
	<path class="st1" d="M126.7,154.2c-0.6,1,0,0-0.6,1"/>
	<line class="st1" x1="124.1" y1="158.6" x2="106.5" y2="189.1"/>
	<path class="st1" d="M104.6,192.5c-0.6,1.1,0,0-0.6,1.1"/>
	<path class="st1" d="M100.8,193c4-6.9,7.1-12,11.1-18.9"/>
	<path class="st1" d="M113.7,170.8c3.9-6.8,6.8-12.1,10.8-18.9"/>
	<path class="st1" d="M122.8,149.3c-0.8,1.5-0.9,1.6-1.8,3.1"/>
	<line class="st1" x1="119.1" y1="155.7" x2="101.4" y2="186.2"/>
	<path class="st1" d="M99.5,189.6c-0.9,1.5-0.9,1.5-1.8,3"/>
	<path class="st1" d="M94.4,192.5c4.4-7.6,8-13.8,12.3-21.4"/>
	<path class="st1" d="M108.7,167.9c4.3-7.4,8-13.8,12.3-21.3"/>
	<path class="st1" d="M119,144.1c-1.3,2.3-1.8,3.1-3.1,5.3"/>
	<line class="st1" x1="114" y1="152.8" x2="96.4" y2="183.3"/>
	<path class="st1" d="M94.4,186.7c-1.3,2.3-1.9,3.3-3.2,5.6"/>
	<path class="st1" d="M88,192c5-8.6,8.8-15.2,13.7-23.8"/>
	<path class="st1" d="M103.6,164.9c4.8-8.3,8.8-15.2,13.6-23.5"/>
	<path class="st1" d="M115.6,138.7c-1.6,2.7-3,5.1-4.5,7.8"/>
	<line class="st1" x1="109.1" y1="150" x2="91.5" y2="180.5"/>
	<path class="st1" d="M89.5,183.8c-2,3.5-2.6,4.5-4.6,8"/>
	<path class="st1" d="M81.7,191.6c5.4-9.3,9.8-16.9,15.1-26.2"/>
	<path class="st1" d="M98.7,162.1c5.3-8.7,10.2-17.1,15.1-26"/>
	<path class="st1" d="M112,133.2c-2.1,3.7-3.9,6.7-6,10.4"/>
	<line class="st1" x1="104" y1="147" x2="86.4" y2="177.5"/>
	<path class="st1" d="M84.5,180.9c-2.3,3.9-3.8,6.6-6.1,10.5"/>
	<path class="st1" d="M75,191.5c5.5-10.3,10.4-18.6,16.7-29"/>
	<path class="st1" d="M93.6,159.2c5.7-9.9,11-19.1,16.7-28.9"/>
	<path class="st1" d="M108.5,127.6c-2.8,4.8-4.8,8.3-7.6,13.1"/>
	<line class="st1" x1="99" y1="144.1" x2="81.4" y2="174.6"/>
	<path class="st1" d="M79.4,178c-2.6,4.5-5,8.7-7.6,13.2"/>
	<line class="st1" x1="69.1" y1="190.1" x2="86.7" y2="159.6"/>
	<line class="st1" x1="88.6" y1="156.3" x2="106.1" y2="125.9"/>
	<line class="st1" x1="104.4" y1="123.1" x2="95.9" y2="137.8"/>
	<line class="st1" x1="93.9" y1="141.2" x2="76.3" y2="171.7"/>
	<path class="st1" d="M74.4,175.1c-3.3,5.8-5.2,9-8.6,14.8"/>
	<line class="st1" x1="64" y1="187.1" x2="81.6" y2="156.6"/>
	<line class="st1" x1="83.5" y1="153.3" x2="101.1" y2="122.9"/>
	<line class="st1" x1="100" y1="119.3" x2="91" y2="135"/>
	<line class="st1" x1="89" y1="138.4" x2="71.4" y2="168.9"/>
	<path class="st1" d="M69.4,172.2c-3.3,5.8-5.8,10-9.1,15.8"/>
	<line class="st1" x1="59.1" y1="184.3" x2="76.7" y2="153.8"/>
	<line class="st1" x1="78.6" y1="150.5" x2="96.2" y2="120.1"/>
	<line class="st1" x1="95.3" y1="115.8" x2="85.9" y2="132.1"/>
	<line class="st1" x1="83.9" y1="135.4" x2="66.3" y2="165.9"/>
	<path class="st1" d="M64.4,169.3c-3.3,5.8-6.1,10.6-9.4,16.4"/>
	<line class="st1" x1="54" y1="181.4" x2="71.7" y2="150.9"/>
	<line class="st1" x1="73.6" y1="147.6" x2="91.1" y2="117.2"/>
	<line class="st1" x1="90.4" y1="112.6" x2="80.8" y2="129.1"/>
	<line class="st1" x1="78.9" y1="132.5" x2="61.3" y2="163"/>
	<path class="st1" d="M59.3,166.4c-3.5,6-6.2,10.7-9.6,16.7"/>
	<line class="st1" x1="49" y1="178.5" x2="66.6" y2="148"/>
	<line class="st1" x1="68.5" y1="144.7" x2="86.1" y2="114.3"/>
	<line class="st1" x1="85.4" y1="109.6" x2="75.8" y2="126.2"/>
	<line class="st1" x1="73.8" y1="129.6" x2="56.2" y2="160.1"/>
	<path class="st1" d="M54.3,163.5c-3.3,5.7-6.5,11.3-9.8,17"/>
	<line class="st1" x1="43.9" y1="175.5" x2="61.5" y2="145"/>
	<line class="st1" x1="63.4" y1="141.7" x2="81" y2="111.3"/>
	<line class="st1" x1="80.3" y1="107.1" x2="70.9" y2="123.4"/>
	<line class="st1" x1="68.9" y1="126.8" x2="51.3" y2="157.3"/>
	<path class="st1" d="M49.3,160.6c-3.1,5.4-6.2,10.8-9.4,16.2"/>
	<line class="st1" x1="39" y1="172.7" x2="56.6" y2="142.2"/>
	<line class="st1" x1="58.5" y1="138.9" x2="76.1" y2="108.5"/>
	<line class="st1" x1="74.9" y1="104.7" x2="65.8" y2="120.5"/>
	<line class="st1" x1="63.9" y1="123.8" x2="46.2" y2="154.3"/>
	<path class="st1" d="M44.3,157.7c-3.3,5.7-5.8,10.1-9.1,15.8"/>
	<line class="st1" x1="34" y1="169.8" x2="51.6" y2="139.3"/>
	<line class="st1" x1="53.5" y1="136" x2="71" y2="105.6"/>
	<line class="st1" x1="69.2" y1="102.8" x2="60.7" y2="117.5"/>
	<line class="st1" x1="58.8" y1="120.9" x2="41.2" y2="151.4"/>
	<path class="st1" d="M39.2,154.8c-3.6,6.2-4.9,8.5-8.5,14.7"/>
	<line class="st1" x1="28.9" y1="166.9" x2="46.5" y2="136.4"/>
	<line class="st1" x1="48.4" y1="133.1" x2="66" y2="102.7"/>
	<line class="st1" x1="63.4" y1="101.3" x2="55.7" y2="114.6"/>
	<line class="st1" x1="53.7" y1="118" x2="36.1" y2="148.5"/>
	<path class="st1" d="M34.2,151.9c-3.1,5.5-4.7,8.1-7.8,13.5"/>
	<line class="st1" x1="24.5" y1="162.9" x2="41.5" y2="133.4"/>
	<line class="st1" x1="43.4" y1="130.2" x2="60.4" y2="100.7"/>
	<path class="st1" d="M57.4,100.3c-2.7,4.7-3.9,6.8-6.6,11.5"/>
	<line class="st1" x1="48.8" y1="115.2" x2="31.2" y2="145.7"/>
	<path class="st1" d="M29.3,149c-2.6,4.5-4,7-6.6,11.5"/>
	<path class="st1" d="M20.8,157.8c5.7-9.9,10-17.3,15.7-27.2"/>
	<path class="st1" d="M38.4,127.3c5.5-9.5,10.3-17.8,15.7-27.2"/>
	<path class="st1" d="M50.7,100.2c-1.8,3-3.3,5.7-5,8.7"/>
	<line class="st1" x1="43.8" y1="112.2" x2="26.2" y2="142.7"/>
	<path class="st1" d="M24.2,146.1c-1.9,3.3-3.1,5.4-5,8.7"/>
	<path class="st1" d="M17.7,151.5c4.6-7.9,9.2-15.9,13.7-23.8"/>
	<path class="st1" d="M33.4,124.4c4.7-8.1,9-15.6,13.7-23.7"/>
	<path class="st1" d="M43.1,101.7c-1.1,2-1.3,2.3-2.5,4.3"/>
	<line class="st1" x1="38.7" y1="109.3" x2="21.1" y2="139.8"/>
	<path class="st1" d="M19.1,143.2c-0.9,1.5-1.7,3-2.6,4.5"/>
	<path class="st1" d="M15.7,143.3c3.7-6.5,7-12.1,10.7-18.6"/>
	<path class="st1" d="M28.3,121.5c4.1-7.1,6.6-11.4,10.7-18.6"/>
	<line class="st1" x1="33.7" y1="106.4" x2="16" y2="136.9"/>
	<path class="st1" d="M13.7,135.1c3.2-5.6,4.4-7.7,7.7-13.3"/>
	<path class="st1" d="M23.3,118.6c3-5.2,4.7-8.1,7.7-13.3"/>
	<path class="st1" d="M25.9,108.5c-5.5,9.4-6.3,10.9-11.7,20.3"/>
	<path class="st1" d="M11.6,127.4c1.7-3,3.1-5.4,4.8-8.4"/>
	<path class="st1" d="M18.3,115.7c1.7-2.9,3-5.3,4.7-8.2"/>
	<path class="st1" d="M17.9,110.6c0.2-0.3,0.1-0.1-6.3,10.9"/>
	<path class="st1" d="M9.5,119.3c0.6-1.1,1.2-2.2,1.9-3.2"/>
	<path class="st1" d="M13.3,112.8c1.1-1.9,0.6-1,1.7-2.9"/>
	<path id="XMLID_14_" class="st2" d="M162.6,186.7c0.1-3.3-35.5-30.7-38.1-34.9c-1.4-2.2-12.2-17.9-12.2-17.9
		c-4.7-10.5-15.9-17.7-25.6-23.7l-10.1-5c-11.8-4.2-22.9-7.4-34.6-3.2l-28.7,8.3c-1.3,0.4-2.8,0.8-3.8,2.3"/>
	<path id="XMLID_13_" class="st2" d="M162.4,186.9l0.1-0.2"/>
	<path id="XMLID_12_" class="st2" d="M150,208.4l0.2-0.4"/>
	<path id="XMLID_11_" class="st2" d="M9.4,112.8c-0.9,1.6-0.4,3.1-0.1,4.5l7.1,29c2.2,12.2,10.5,20.2,20.1,28.4l9.3,6.4
		c10,5.4,21.9,11.5,33.3,10.4c0,0,19,1.5,21.6,1.6c4.9,0.2,46.5,17.2,49.2,15.5"/>
	<path id="XMLID_1_" class="st2" d="M156,177"/>
</g>
<g id="test_2_">
	<path class="st1" d="M226.7,186"/>
	<path class="st1" d="M239.7,208.5"/>
	<path class="st1" d="M228.7,183.7c2.7,4.6,3.5,6,6.2,10.7"/>
	<path class="st1" d="M236.8,197.7c2.1,3.6,4.2,7.3,6.3,10.9"/>
	<path class="st1" d="M244.1,204.5c-5.7-10-6-10.4-11.8-20.4"/>
	<path class="st1" d="M233.1,179.6c2.8,4.9,4.1,7,6.9,11.9"/>
	<path class="st1" d="M241.9,194.8c2.9,5,3.9,6.8,6.8,11.8"/>
	<line class="st1" x1="250" y1="203" x2="236.9" y2="180.4"/>
	<path class="st1" d="M237.6,175.7c3.2,5.5,4.3,7.5,7.5,12.9"/>
	<path class="st1" d="M246.9,191.9c3,5.1,4.5,7.7,7.4,12.9"/>
	<line class="st1" x1="255.8" y1="201.3" x2="241.4" y2="176.4"/>
	<path class="st1" d="M241.9,171.9c3.6,6.3,4.4,7.5,8,13.8"/>
	<path class="st1" d="M251.8,189c2.9,4.9,5.1,8.8,8,13.8"/>
	<line class="st1" x1="261.2" y1="199.4" x2="245.9" y2="172.9"/>
	<path class="st1" d="M246.5,168.1c4,6.9,4.5,7.9,8.5,14.8"/>
	<path class="st1" d="M256.9,186.1c3.1,5.3,5.4,9.4,8.5,14.7"/>
	<line class="st1" x1="267.3" y1="198.3" x2="249.7" y2="167.8"/>
	<path class="st1" d="M251,164.2c3.7,6.5,5.3,9.2,9,15.7"/>
	<path class="st1" d="M262,183.2c3.2,5.6,5.8,10,9,15.6"/>
	<line class="st1" x1="272.3" y1="195.3" x2="254.7" y2="164.8"/>
	<path class="st1" d="M255.5,160.4c3.6,6.3,6,10.3,9.6,16.6"/>
	<path class="st1" d="M267,180.3c3.6,6.3,5.9,10.2,9.5,16.5"/>
	<line class="st1" x1="277.4" y1="192.4" x2="259.8" y2="161.9"/>
	<path class="st1" d="M259.9,156.6c3.8,6.6,6.3,11,10.1,17.6"/>
	<path class="st1" d="M271.9,177.4c3.7,6.4,6.4,11.1,10.1,17.5"/>
	<path class="st1" d="M284.8,194c-0.6-1,0,0-0.6-1"/>
	<line class="st1" x1="282.3" y1="189.6" x2="264.7" y2="159.1"/>
	<path class="st1" d="M262.7,155.7c-0.6-1.1,0,0-0.6-1.1"/>
	<path class="st1" d="M264.3,152.2c4,6.9,6.8,12.1,10.8,19"/>
	<path class="st1" d="M277,174.5c3.9,6.8,7.1,11.9,11,18.8"/>
	<path class="st1" d="M291.1,193.1c-0.8-1.5-0.9-1.6-1.8-3.1"/>
	<line class="st1" x1="287.4" y1="186.7" x2="269.8" y2="156.2"/>
	<path class="st1" d="M267.8,152.8c-0.9-1.5-0.9-1.5-1.8-3"/>
	<path class="st1" d="M267.8,146.9c4.4,7.6,8,13.8,12.3,21.4"/>
	<path class="st1" d="M282,171.6c4.3,7.4,8,13.8,12.3,21.3"/>
	<path class="st1" d="M297.5,192.5c-1.3-2.3-1.8-3.1-3.1-5.3"/>
	<line class="st1" x1="292.4" y1="183.7" x2="274.8" y2="153.2"/>
	<path class="st1" d="M272.9,149.9c-1.3-2.3-1.9-3.3-3.2-5.6"/>
	<path class="st1" d="M271.5,141.6c5,8.6,8.8,15.2,13.7,23.8"/>
	<path class="st1" d="M287.1,168.7c4.8,8.3,8.8,15.2,13.6,23.5"/>
	<path class="st1" d="M303.8,192.1c-1.6-2.7-3-5.1-4.5-7.8"/>
	<line class="st1" x1="297.3" y1="180.9" x2="279.7" y2="150.4"/>
	<path class="st1" d="M277.8,147c-2-3.5-2.6-4.5-4.6-8"/>
	<path class="st1" d="M275,136.4c5.4,9.3,9.8,16.9,15.1,26.2"/>
	<path class="st1" d="M292,165.8c4.9,8.9,9.7,17.4,14.9,26.1"/>
	<path class="st1" d="M310.4,191.8c-2.1-3.7-3.9-6.7-6-10.4"/>
	<line class="st1" x1="302.4" y1="178" x2="284.8" y2="147.5"/>
	<path class="st1" d="M282.8,144.1c-2.3-3.9-3.8-6.6-6.1-10.5"/>
	<path class="st1" d="M278.4,130.6c6.2,10,11,18.3,16.7,29"/>
	<path class="st1" d="M297.1,162.9c5.7,9.9,11,19.1,16.7,28.9"/>
	<path class="st1" d="M317,191.5c-2.8-4.8-4.8-8.3-7.6-13.1"/>
	<line class="st1" x1="307.5" y1="175.1" x2="289.8" y2="144.6"/>
	<path class="st1" d="M287.9,141.2c-2.6-4.5-5-8.7-7.6-13.2"/>
	<line class="st1" x1="282.6" y1="126.2" x2="300.2" y2="156.7"/>
	<line class="st1" x1="302.1" y1="160" x2="319.7" y2="190.4"/>
	<line class="st1" x1="323" y1="190.2" x2="314.5" y2="175.5"/>
	<line class="st1" x1="312.5" y1="172.1" x2="294.9" y2="141.6"/>
	<path class="st1" d="M293,138.3c-3.3-5.8-5.2-9-8.6-14.8"/>
	<line class="st1" x1="287.7" y1="123.3" x2="305.3" y2="153.8"/>
	<line class="st1" x1="307.2" y1="157.1" x2="324.7" y2="187.5"/>
	<line class="st1" x1="328.4" y1="188.4" x2="319.4" y2="172.7"/>
	<line class="st1" x1="317.4" y1="169.3" x2="299.8" y2="138.8"/>
	<path class="st1" d="M297.9,135.4c-3.3-5.8-5.8-10-9.1-15.8"/>
	<line class="st1" x1="292.6" y1="120.4" x2="310.2" y2="150.9"/>
	<line class="st1" x1="312.1" y1="154.2" x2="329.7" y2="184.6"/>
	<line class="st1" x1="333.8" y1="186.1" x2="324.4" y2="169.8"/>
	<line class="st1" x1="322.5" y1="166.4" x2="304.9" y2="135.9"/>
	<path class="st1" d="M302.9,132.5c-3.3-5.8-6.1-10.6-9.4-16.4"/>
	<line class="st1" x1="297.6" y1="117.5" x2="315.3" y2="148"/>
	<line class="st1" x1="317.2" y1="151.3" x2="334.7" y2="181.7"/>
	<line class="st1" x1="339.1" y1="183.4" x2="329.5" y2="166.8"/>
	<line class="st1" x1="327.5" y1="163.5" x2="309.9" y2="133"/>
	<path class="st1" d="M308,129.6c-3.5-6-6.2-10.7-9.6-16.7"/>
	<line class="st1" x1="302.7" y1="114.6" x2="320.3" y2="145.1"/>
	<line class="st1" x1="322.2" y1="148.4" x2="339.8" y2="178.8"/>
	<line class="st1" x1="344.2" y1="180.6" x2="334.6" y2="163.9"/>
	<line class="st1" x1="332.6" y1="160.5" x2="315" y2="130"/>
	<path class="st1" d="M313,126.7c-3.3-5.7-6.5-11.3-9.8-17"/>
	<line class="st1" x1="307.8" y1="111.7" x2="325.4" y2="142.2"/>
	<line class="st1" x1="327.3" y1="145.5" x2="344.8" y2="175.9"/>
	<line class="st1" x1="348.9" y1="177.4" x2="339.5" y2="161.1"/>
	<line class="st1" x1="337.5" y1="157.7" x2="319.9" y2="127.2"/>
	<path class="st1" d="M318,123.8c-3.1-5.4-6.2-10.8-9.4-16.2"/>
	<line class="st1" x1="312.7" y1="108.8" x2="330.3" y2="139.3"/>
	<line class="st1" x1="332.2" y1="142.6" x2="349.8" y2="173.1"/>
	<line class="st1" x1="353.6" y1="173.9" x2="344.5" y2="158.2"/>
	<line class="st1" x1="342.6" y1="154.8" x2="325" y2="124.3"/>
	<path class="st1" d="M323,120.9c-3.3-5.7-5.8-10.1-9.1-15.8"/>
	<line class="st1" x1="317.7" y1="105.9" x2="335.4" y2="136.4"/>
	<line class="st1" x1="337.2" y1="139.7" x2="354.8" y2="170.1"/>
	<line class="st1" x1="358.1" y1="170" x2="349.6" y2="155.2"/>
	<line class="st1" x1="347.6" y1="151.9" x2="330" y2="121.4"/>
	<path class="st1" d="M328.1,118c-3.6-6.2-4.9-8.5-8.5-14.7"/>
	<line class="st1" x1="322.8" y1="103" x2="340.4" y2="133.5"/>
	<line class="st1" x1="342.3" y1="136.8" x2="359.9" y2="167.2"/>
	<line class="st1" x1="362.4" y1="165.7" x2="354.6" y2="152.3"/>
	<line class="st1" x1="352.7" y1="148.9" x2="335.1" y2="118.4"/>
	<path class="st1" d="M333.1,115.1c-3.1-5.5-4.7-8.1-7.8-13.5"/>
	<line class="st1" x1="328.5" y1="101.1" x2="345.5" y2="130.6"/>
	<line class="st1" x1="347.4" y1="133.9" x2="364.4" y2="163.4"/>
	<path class="st1" d="M366.2,161c-2.7-4.7-3.9-6.8-6.6-11.5"/>
	<line class="st1" x1="357.6" y1="146.1" x2="340" y2="115.6"/>
	<path class="st1" d="M338,112.2c-2.6-4.5-4-7-6.6-11.5"/>
	<path class="st1" d="M334.7,100.6c5.7,9.9,10,17.3,15.7,27.2"/>
	<path class="st1" d="M352.3,131c5.5,9.5,10.3,17.8,15.7,27.2"/>
	<path class="st1" d="M369.6,155.3c-1.8-3-3.3-5.7-5-8.7"/>
	<line class="st1" x1="362.7" y1="143.2" x2="345.1" y2="112.7"/>
	<path class="st1" d="M343.1,109.3c-1.9-3.3-3.1-5.4-5-8.7"/>
	<path class="st1" d="M341.7,101c4.6,7.9,9.2,15.9,13.7,23.8"/>
	<path class="st1" d="M357.3,128.1c4.7,8.1,9,15.6,13.7,23.7"/>
	<path class="st1" d="M372.1,147.9c-1.1-2-1.3-2.3-2.5-4.3"/>
	<line class="st1" x1="367.7" y1="140.3" x2="350.1" y2="109.8"/>
	<path class="st1" d="M348.2,106.4c-0.9-1.5-1.7-3-2.6-4.5"/>
	<path class="st1" d="M349.8,103.3c3.7,6.5,7,12.1,10.7,18.6"/>
	<path class="st1" d="M362.4,125.2c4.1,7.1,6.6,11.4,10.7,18.6"/>
	<line class="st1" x1="372.8" y1="137.3" x2="355.2" y2="106.8"/>
	<path class="st1" d="M357.9,105.7c3.2,5.6,4.4,7.7,7.7,13.3"/>
	<path class="st1" d="M367.5,122.3c3,5.2,4.7,8.1,7.7,13.3"/>
	<path class="st1" d="M374.8,129.5c-5.5-9.4-6.3-10.9-11.7-20.3"/>
	<path class="st1" d="M365.6,107.8c1.7,3,3.1,5.4,4.8,8.4"/>
	<path class="st1" d="M372.4,119.4c1.7,2.9,3,5.3,4.7,8.2"/>
	<path class="st1" d="M377,121.6c0.2,0.3,0.1,0.1-6.3-10.9"/>
	<path class="st1" d="M373.7,110c0.6,1.1,1.2,2.2,1.9,3.2"/>
	<path class="st1" d="M377.4,116.5c1.1,1.9,0.6,1,1.7,2.9"/>
	<path id="XMLID_16_" class="st2" d="M238.8,208.8c2.9,1.7,44.3-15.3,49.2-15.5c2.6-0.1,21.6-1.6,21.6-1.6
		c11.4,1.2,23.3-4.9,33.3-10.4l9.4-6.3c9.6-8.2,17.9-16.1,20.1-28.4l7.1-29c0.4-1.3,0.8-2.8-0.1-4.5"/>
	<path id="XMLID_15_" class="st2" d="M238.7,208.6l0.1,0.2"/>
	<path id="XMLID_6_" class="st2" d="M226.3,187.1l0.2,0.4"/>
	<path id="XMLID_4_" class="st2" d="M379.4,113.1c-0.9-1.6-2.5-1.9-3.8-2.3l-28.7-8.3c-11.7-4.2-22.7-1-34.6,3.2l-10.2,4.9
		c-9.7,6-20.9,13.2-25.6,23.7c0,0-10.8,15.8-12.2,17.9c-2.6,4.1-38.2,31.7-38.1,34.9"/>
	<path id="XMLID_2_" class="st2" d="M250.4,208"/>
</g>
<g id="test_3_">
	<path class="st1" d="M162.4,254"/>
	<path class="st1" d="M149.4,231.5"/>
	<path class="st1" d="M160.3,256.3c-2.7-4.6-3.5-6-6.2-10.7"/>
	<path class="st1" d="M152.2,242.3c-2.1-3.6-4.2-7.3-6.3-10.9"/>
	<path class="st1" d="M144.9,235.5c5.7,10,6,10.4,11.8,20.4"/>
	<path class="st1" d="M155.9,260.4c-2.8-4.9-4.1-7-6.9-11.9"/>
	<path class="st1" d="M147.2,245.2c-2.9-5-3.9-6.8-6.8-11.8"/>
	<line class="st1" x1="139" y1="237" x2="152.1" y2="259.6"/>
	<path class="st1" d="M151.5,264.3c-3.2-5.5-4.3-7.5-7.5-12.9"/>
	<path class="st1" d="M142.1,248.1c-3-5.1-4.5-7.7-7.4-12.9"/>
	<line class="st1" x1="133.3" y1="238.7" x2="147.7" y2="263.6"/>
	<path class="st1" d="M147.1,268.1c-3.6-6.3-4.4-7.5-8-13.8"/>
	<path class="st1" d="M137.2,251c-2.9-4.9-5.1-8.8-8-13.8"/>
	<line class="st1" x1="127.8" y1="240.6" x2="143.2" y2="267.1"/>
	<path class="st1" d="M142.6,271.9c-4-6.9-4.5-7.9-8.5-14.8"/>
	<path class="st1" d="M132.1,253.9c-3.1-5.3-5.4-9.4-8.5-14.7"/>
	<line class="st1" x1="121.8" y1="241.7" x2="139.4" y2="272.2"/>
	<path class="st1" d="M138,275.8c-3.7-6.5-5.3-9.2-9-15.7"/>
	<path class="st1" d="M127.1,256.8c-3.2-5.6-5.8-10-9-15.6"/>
	<line class="st1" x1="116.7" y1="244.6" x2="134.3" y2="275.2"/>
	<path class="st1" d="M133.5,279.6c-3.6-6.3-6-10.3-9.6-16.6"/>
	<path class="st1" d="M122,259.7c-3.6-6.3-5.9-10.2-9.5-16.5"/>
	<line class="st1" x1="111.6" y1="247.6" x2="129.3" y2="278.1"/>
	<path class="st1" d="M129.2,283.4c-3.8-6.6-6.3-11-10.1-17.6"/>
	<path class="st1" d="M117.1,262.6c-3.7-6.4-6.4-11.1-10.1-17.5"/>
	<path class="st1" d="M104.2,246c0.6,1,0,0,0.6,1"/>
	<line class="st1" x1="106.7" y1="250.4" x2="124.3" y2="280.9"/>
	<path class="st1" d="M126.3,284.3c0.6,1.1,0,0,0.6,1.1"/>
	<path class="st1" d="M124.8,287.8c-4-6.9-6.8-12.1-10.8-19"/>
	<path class="st1" d="M112.1,265.5c-3.9-6.8-7.1-11.9-11-18.8"/>
	<path class="st1" d="M98,246.9c0.8,1.5,0.9,1.6,1.8,3.1"/>
	<line class="st1" x1="101.7" y1="253.3" x2="119.3" y2="283.8"/>
	<path class="st1" d="M121.2,287.2c0.9,1.5,0.9,1.5,1.8,3"/>
	<path class="st1" d="M121.2,293.1c-4.4-7.6-8-13.8-12.3-21.4"/>
	<path class="st1" d="M107,268.4c-4.3-7.4-8-13.8-12.3-21.3"/>
	<path class="st1" d="M91.6,247.5c1.3,2.3,1.8,3.1,3.1,5.3"/>
	<line class="st1" x1="96.6" y1="256.2" x2="114.2" y2="286.8"/>
	<path class="st1" d="M116.2,290.1c1.3,2.3,1.9,3.3,3.2,5.6"/>
	<path class="st1" d="M117.6,298.4c-5-8.6-8.8-15.2-13.7-23.8"/>
	<path class="st1" d="M101.9,271.3c-4.8-8.3-8.8-15.2-13.6-23.5"/>
	<path class="st1" d="M85.2,247.9c1.6,2.7,3,5.1,4.5,7.8"/>
	<line class="st1" x1="91.7" y1="259.1" x2="109.3" y2="289.6"/>
	<path class="st1" d="M111.3,293c2,3.5,2.6,4.5,4.6,8"/>
	<path class="st1" d="M114,303.6c-5.4-9.3-9.8-16.9-15.1-26.2"/>
	<path class="st1" d="M97,274.2c-4.9-8.9-9.7-17.4-14.9-26.1"/>
	<path class="st1" d="M78.7,248.2c2.1,3.7,3.9,6.7,6,10.4"/>
	<line class="st1" x1="86.6" y1="262" x2="104.3" y2="292.5"/>
	<path class="st1" d="M106.2,295.9c2.3,3.9,3.8,6.6,6.1,10.5"/>
	<path class="st1" d="M110.6,309.4c-6.2-10-11-18.3-16.7-29"/>
	<path class="st1" d="M92,277.1c-5.7-9.9-11-19.1-16.7-28.9"/>
	<path class="st1" d="M72.1,248.4c2.8,4.8,4.8,8.3,7.6,13.1"/>
	<line class="st1" x1="81.6" y1="264.9" x2="99.2" y2="295.4"/>
	<path class="st1" d="M101.1,298.8c2.6,4.5,5,8.7,7.6,13.2"/>
	<line class="st1" x1="106.4" y1="313.8" x2="88.8" y2="283.3"/>
	<line class="st1" x1="86.9" y1="280" x2="69.4" y2="249.6"/>
	<line class="st1" x1="66.1" y1="249.7" x2="74.6" y2="264.5"/>
	<line class="st1" x1="76.5" y1="267.8" x2="94.1" y2="298.4"/>
	<path class="st1" d="M96.1,301.7c3.3,5.8,5.2,9,8.6,14.8"/>
	<line class="st1" x1="101.4" y1="316.7" x2="83.8" y2="286.2"/>
	<line class="st1" x1="81.9" y1="282.9" x2="64.3" y2="252.5"/>
	<line class="st1" x1="60.6" y1="251.6" x2="69.7" y2="267.3"/>
	<line class="st1" x1="71.6" y1="270.7" x2="89.2" y2="301.2"/>
	<path class="st1" d="M91.2,304.6c3.3,5.8,5.8,10,9.1,15.8"/>
	<line class="st1" x1="96.5" y1="319.5" x2="78.8" y2="289"/>
	<line class="st1" x1="76.9" y1="285.8" x2="59.4" y2="255.3"/>
	<line class="st1" x1="55.2" y1="253.9" x2="64.6" y2="270.2"/>
	<line class="st1" x1="66.6" y1="273.6" x2="84.2" y2="304.1"/>
	<path class="st1" d="M86.1,307.5c3.3,5.8,6.1,10.6,9.4,16.4"/>
	<line class="st1" x1="91.4" y1="322.5" x2="73.8" y2="292"/>
	<line class="st1" x1="71.9" y1="288.7" x2="54.3" y2="258.3"/>
	<line class="st1" x1="50" y1="256.6" x2="59.5" y2="273.1"/>
	<line class="st1" x1="61.5" y1="276.5" x2="79.1" y2="307"/>
	<path class="st1" d="M81.1,310.4c3.5,6,6.2,10.7,9.6,16.7"/>
	<line class="st1" x1="86.3" y1="325.4" x2="68.7" y2="294.9"/>
	<line class="st1" x1="66.8" y1="291.6" x2="49.3" y2="261.2"/>
	<line class="st1" x1="44.9" y1="259.4" x2="54.5" y2="276.1"/>
	<line class="st1" x1="56.4" y1="279.4" x2="74.1" y2="310"/>
	<path class="st1" d="M76,313.3c3.3,5.7,6.5,11.3,9.8,17"/>
	<line class="st1" x1="81.3" y1="328.3" x2="63.7" y2="297.8"/>
	<line class="st1" x1="61.8" y1="294.5" x2="44.2" y2="264.1"/>
	<line class="st1" x1="40.2" y1="262.6" x2="49.6" y2="278.9"/>
	<line class="st1" x1="51.5" y1="282.3" x2="69.1" y2="312.8"/>
	<path class="st1" d="M71.1,316.2c3.1,5.4,6.2,10.8,9.4,16.2"/>
	<line class="st1" x1="76.4" y1="331.1" x2="58.7" y2="300.6"/>
	<line class="st1" x1="56.9" y1="297.4" x2="39.3" y2="266.9"/>
	<line class="st1" x1="35.4" y1="266" x2="44.5" y2="281.8"/>
	<line class="st1" x1="46.5" y1="285.2" x2="64.1" y2="315.7"/>
	<path class="st1" d="M66,319.1c3.3,5.7,5.8,10.1,9.1,15.8"/>
	<line class="st1" x1="71.3" y1="334.1" x2="53.7" y2="303.6"/>
	<line class="st1" x1="51.8" y1="300.3" x2="34.2" y2="269.9"/>
	<line class="st1" x1="31" y1="270" x2="39.5" y2="284.7"/>
	<line class="st1" x1="41.4" y1="288.1" x2="59" y2="318.6"/>
	<path class="st1" d="M61,322c3.6,6.2,4.9,8.5,8.5,14.7"/>
	<line class="st1" x1="66.2" y1="337" x2="48.6" y2="306.5"/>
	<line class="st1" x1="46.7" y1="303.2" x2="29.2" y2="272.8"/>
	<line class="st1" x1="26.7" y1="274.3" x2="34.4" y2="287.7"/>
	<line class="st1" x1="36.3" y1="291" x2="54" y2="321.5"/>
	<path class="st1" d="M55.9,324.9c3.1,5.5,4.7,8.1,7.8,13.5"/>
	<line class="st1" x1="60.6" y1="338.9" x2="43.6" y2="309.4"/>
	<line class="st1" x1="41.7" y1="306.1" x2="24.7" y2="276.6"/>
	<path class="st1" d="M22.8,279c2.7,4.7,3.9,6.8,6.6,11.5"/>
	<line class="st1" x1="31.4" y1="293.9" x2="49" y2="324.4"/>
	<path class="st1" d="M51,327.8c2.6,4.5,4,7,6.6,11.5"/>
	<path class="st1" d="M54.4,339.4c-5.7-9.9-10-17.3-15.7-27.2"/>
	<path class="st1" d="M36.8,309c-5.5-9.5-10.3-17.8-15.7-27.2"/>
	<path class="st1" d="M19.4,284.7c1.8,3,3.3,5.7,5,8.7"/>
	<line class="st1" x1="26.4" y1="296.8" x2="44" y2="327.3"/>
	<path class="st1" d="M45.9,330.7c1.9,3.3,3.1,5.4,5,8.7"/>
	<path class="st1" d="M47.3,339c-4.6-7.9-9.2-15.9-13.7-23.8"/>
	<path class="st1" d="M31.7,311.9c-4.7-8.1-9-15.6-13.7-23.7"/>
	<path class="st1" d="M16.9,292.1c1.1,2,1.3,2.3,2.5,4.3"/>
	<line class="st1" x1="21.3" y1="299.7" x2="38.9" y2="330.2"/>
	<path class="st1" d="M40.9,333.6c0.9,1.5,1.7,3,2.6,4.5"/>
	<path class="st1" d="M39.3,336.6c-3.7-6.5-7-12.1-10.7-18.6"/>
	<path class="st1" d="M26.6,314.8c-4.1-7.1-6.6-11.4-10.7-18.6"/>
	<line class="st1" x1="16.3" y1="302.6" x2="33.9" y2="333.1"/>
	<path class="st1" d="M31.2,334.3c-3.2-5.6-4.4-7.7-7.7-13.3"/>
	<path class="st1" d="M21.6,317.7c-3-5.2-4.7-8.1-7.7-13.3"/>
	<path class="st1" d="M14.2,310.5c5.5,9.4,6.3,10.9,11.7,20.3"/>
	<path class="st1" d="M23.4,332.2c-1.7-3-3.1-5.4-4.8-8.4"/>
	<path class="st1" d="M16.7,320.5c-1.7-2.9-3-5.3-4.7-8.2"/>
	<path class="st1" d="M12.1,318.4c-0.2-0.3-0.1-0.1,6.3,10.9"/>
	<path class="st1" d="M15.4,330c-0.6-1.1-1.2-2.2-1.9-3.2"/>
	<path class="st1" d="M11.6,323.5c-1.1-1.9-0.6-1-1.7-2.9"/>
	<path id="XMLID_21_" class="st2" d="M150.3,231.2c-2.9-1.7-44.3,15.3-49.2,15.5c-2.6,0.1-21.6,1.6-21.6,1.6
		c-11.4-1.2-23.3,4.9-33.3,10.4l-9.4,6.3c-9.6,8.2-17.9,16.1-20.1,28.4l-7.1,29c-0.4,1.3-0.8,2.8,0.1,4.5"/>
	<path id="XMLID_20_" class="st2" d="M150.4,231.4l-0.1-0.2"/>
	<path id="XMLID_19_" class="st2" d="M162.8,252.8l-0.2-0.4"/>
	<path id="XMLID_18_" class="st2" d="M9.6,326.9c0.9,1.6,2.5,1.9,3.8,2.3l28.7,8.3c11.7,4.2,22.7,1,34.6-3.2l10.2-4.9
		c9.7-6,20.9-13.2,25.6-23.7c0,0,10.8-15.8,12.2-17.9c2.6-4.1,38.2-31.7,38.1-34.9"/>
	<path id="XMLID_17_" class="st2" d="M138.6,232"/>
</g>
<g id="test_4_">
	<path class="st1" d="M208.1,265.1"/>
	<path class="st1" d="M182.1,265.1"/>
	<path class="st1" d="M209,268.1c-5.4,0-7,0-12.3,0"/>
	<path class="st1" d="M192.9,268.1c-4.2,0-8.4,0-12.6,0"/>
	<path class="st1" d="M183.3,271c11.5,0,12,0,23.5,0"/>
	<path class="st1" d="M210.4,273.9c-5.6,0-8.1,0-13.7,0"/>
	<path class="st1" d="M192.9,273.9c-5.8,0-7.9,0-13.7,0"/>
	<line class="st1" x1="181.7" y1="276.8" x2="207.8" y2="276.8"/>
	<path class="st1" d="M211.6,279.7c-6.3,0-8.6,0-14.9,0"/>
	<path class="st1" d="M192.9,279.7c-5.9,0-8.9,0-14.8,0"/>
	<line class="st1" x1="180.3" y1="282.7" x2="209" y2="282.7"/>
	<path class="st1" d="M212.6,285.4c-7.3,0-8.7,0-16,0"/>
	<path class="st1" d="M192.9,285.4c-5.7,0-10.2,0-15.9,0"/>
	<line class="st1" x1="179.2" y1="288.3" x2="209.8" y2="288.3"/>
	<path class="st1" d="M213.7,291.3c-8,0-9.1,0-17,0"/>
	<path class="st1" d="M192.9,291.3c-6.2,0-10.8,0-17,0"/>
	<line class="st1" x1="177.2" y1="294.2" x2="212.4" y2="294.2"/>
	<path class="st1" d="M214.8,297.1c-7.5,0-10.6,0-18.1,0"/>
	<path class="st1" d="M192.9,297.1c-6.4,0-11.6,0-18,0"/>
	<line class="st1" x1="177.2" y1="300" x2="212.4" y2="300"/>
	<path class="st1" d="M215.8,302.9c-7.2,0-11.9,0-19.2,0"/>
	<path class="st1" d="M192.9,302.9c-7.3,0-11.8,0-19.1,0"/>
	<line class="st1" x1="177.2" y1="305.9" x2="212.4" y2="305.9"/>
	<path class="st1" d="M217,308.6c-7.6,0-12.7,0-20.3,0"/>
	<path class="st1" d="M192.9,308.6c-7.4,0-12.8,0-20.2,0"/>
	<path class="st1" d="M172.1,311.5c1.2,0,0,0,1.2,0"/>
	<line class="st1" x1="177.2" y1="311.5" x2="212.4" y2="311.5"/>
	<path class="st1" d="M216.3,311.5c1.2,0,0,0,1.2,0"/>
	<path class="st1" d="M218.6,314.6c-8,0-13.9-0.2-21.9-0.2"/>
	<path class="st1" d="M192.9,314.5c-7.9,0-13.9,0.2-21.8,0.2"/>
	<path class="st1" d="M169.7,317.4c1.7,0,1.9,0,3.5,0"/>
	<line class="st1" x1="177.2" y1="317.4" x2="212.4" y2="317.4"/>
	<path class="st1" d="M216.3,317.4c1.8,0,1.8,0,3.5,0"/>
	<path class="st1" d="M221.3,320.3c-8.8,0-15.9,0-24.7,0"/>
	<path class="st1" d="M192.9,320.3c-8.6,0-16,0-24.6,0"/>
	<path class="st1" d="M167.1,323.2c2.6,0,3.5,0,6.2,0"/>
	<line class="st1" x1="177.2" y1="323.2" x2="212.4" y2="323.2"/>
	<path class="st1" d="M216.3,323.2c2.7,0,3.8,0,6.5,0"/>
	<path class="st1" d="M224.1,326.1c-9.9,0-17.6,0-27.5,0"/>
	<path class="st1" d="M192.9,326.1c-9.6,0-17.6,0-27.2,0"/>
	<path class="st1" d="M164.2,328.9c3.1,0,5.9,0,9.1,0"/>
	<line class="st1" x1="177.2" y1="328.9" x2="212.4" y2="328.9"/>
	<path class="st1" d="M216.3,328.9c4,0,5.2,0,9.2,0"/>
	<path class="st1" d="M226.9,331.8c-10.7,0-19.5,0-30.2,0"/>
	<path class="st1" d="M192.9,331.8c-10.2-0.3-19.9-0.3-30.1-0.1"/>
	<path class="st1" d="M161.2,334.7c4.3,0,7.7,0,12,0"/>
	<line class="st1" x1="177.2" y1="334.7" x2="212.4" y2="334.7"/>
	<path class="st1" d="M216.3,334.7c4.5,0,7.6,0,12.1,0"/>
	<path class="st1" d="M230.2,337.7c-11.7,0.4-21.3,0.4-33.5,0"/>
	<path class="st1" d="M192.9,337.7c-11.4,0-22,0-33.4,0"/>
	<path class="st1" d="M158.1,340.6c5.5,0,9.6,0,15.1,0"/>
	<line class="st1" x1="177.2" y1="340.6" x2="212.4" y2="340.6"/>
	<path class="st1" d="M216.3,340.6c5.2,0,10,0,15.2,0"/>
	<line class="st1" x1="231.9" y1="343.5" x2="196.7" y2="343.5"/>
	<line class="st1" x1="192.9" y1="343.5" x2="157.7" y2="343.5"/>
	<line class="st1" x1="156.2" y1="346.4" x2="173.2" y2="346.4"/>
	<line class="st1" x1="177.2" y1="346.4" x2="212.4" y2="346.4"/>
	<path class="st1" d="M216.3,346.4c6.7,0,10.4,0,17.1,0"/>
	<line class="st1" x1="231.9" y1="349.3" x2="196.7" y2="349.3"/>
	<line class="st1" x1="192.9" y1="349.3" x2="157.7" y2="349.3"/>
	<line class="st1" x1="155.1" y1="352.1" x2="173.2" y2="352.1"/>
	<line class="st1" x1="177.2" y1="352.1" x2="212.4" y2="352.1"/>
	<path class="st1" d="M216.3,352.1c6.7,0,11.6,0,18.2,0"/>
	<line class="st1" x1="231.9" y1="355" x2="196.7" y2="355"/>
	<line class="st1" x1="192.9" y1="355" x2="157.7" y2="355"/>
	<line class="st1" x1="154.4" y1="357.9" x2="173.2" y2="357.9"/>
	<line class="st1" x1="177.2" y1="357.9" x2="212.4" y2="357.9"/>
	<path class="st1" d="M216.3,357.9c6.7,0,12.2,0,18.9,0"/>
	<line class="st1" x1="231.9" y1="360.9" x2="196.7" y2="360.9"/>
	<line class="st1" x1="192.9" y1="360.9" x2="157.7" y2="360.9"/>
	<line class="st1" x1="154.1" y1="363.8" x2="173.2" y2="363.8"/>
	<line class="st1" x1="177.2" y1="363.8" x2="212.4" y2="363.8"/>
	<path class="st1" d="M216.3,363.8c6.9,0,12.3,0,19.3,0"/>
	<line class="st1" x1="231.9" y1="366.7" x2="196.7" y2="366.7"/>
	<line class="st1" x1="192.9" y1="366.7" x2="157.7" y2="366.7"/>
	<line class="st1" x1="154.1" y1="369.6" x2="173.2" y2="369.6"/>
	<line class="st1" x1="177.2" y1="369.6" x2="212.4" y2="369.6"/>
	<path class="st1" d="M216.3,369.6c6.5,0,13.1,0,19.6,0"/>
	<line class="st1" x1="231.9" y1="372.5" x2="196.7" y2="372.5"/>
	<line class="st1" x1="192.9" y1="372.5" x2="157.7" y2="372.5"/>
	<line class="st1" x1="154.4" y1="375.3" x2="173.2" y2="375.3"/>
	<line class="st1" x1="177.2" y1="375.3" x2="212.4" y2="375.3"/>
	<path class="st1" d="M216.3,375.3c6.2,0,12.5,0,18.7,0"/>
	<line class="st1" x1="231.9" y1="378.2" x2="196.7" y2="378.2"/>
	<line class="st1" x1="192.9" y1="378.2" x2="157.7" y2="378.2"/>
	<line class="st1" x1="155" y1="381.1" x2="173.2" y2="381.1"/>
	<line class="st1" x1="177.2" y1="381.1" x2="212.4" y2="381.1"/>
	<path class="st1" d="M216.3,381.1c6.5,0,11.7,0,18.2,0"/>
	<line class="st1" x1="231.9" y1="384" x2="196.7" y2="384"/>
	<line class="st1" x1="192.9" y1="384" x2="157.7" y2="384"/>
	<line class="st1" x1="156.2" y1="387" x2="173.2" y2="387"/>
	<line class="st1" x1="177.2" y1="387" x2="212.4" y2="387"/>
	<path class="st1" d="M216.3,387c7.2,0,9.8,0,17,0"/>
	<line class="st1" x1="231.9" y1="389.9" x2="196.7" y2="389.9"/>
	<line class="st1" x1="192.9" y1="389.9" x2="157.7" y2="389.9"/>
	<line class="st1" x1="157.8" y1="392.8" x2="173.2" y2="392.8"/>
	<line class="st1" x1="177.2" y1="392.8" x2="212.4" y2="392.8"/>
	<path class="st1" d="M216.3,392.8c6.3,0,9.3,0,15.6,0"/>
	<line class="st1" x1="230.7" y1="395.7" x2="196.7" y2="395.7"/>
	<line class="st1" x1="192.9" y1="395.7" x2="158.8" y2="395.7"/>
	<path class="st1" d="M160,398.5c5.4,0,7.9,0,13.3,0"/>
	<line class="st1" x1="177.2" y1="398.5" x2="212.4" y2="398.5"/>
	<path class="st1" d="M216.3,398.5c5.2,0,8.1,0,13.2,0"/>
	<path class="st1" d="M228.1,401.4c-11.5,0-19.9,0-31.4,0"/>
	<path class="st1" d="M192.9,401.4c-10.9,0-20.5,0-31.5,0"/>
	<path class="st1" d="M163.2,404.3c3.5,0,6.5,0,10,0"/>
	<line class="st1" x1="177.2" y1="404.3" x2="212.4" y2="404.3"/>
	<path class="st1" d="M216.3,404.3c3.8,0,6.2,0,10,0"/>
	<path class="st1" d="M224.2,407.2c-9.2,0-18.3,0-27.5,0"/>
	<path class="st1" d="M192.9,407.2c-9.4,0-18.1,0-27.4,0"/>
	<path class="st1" d="M168.3,410.2c2.3,0,2.7,0,4.9,0"/>
	<line class="st1" x1="177.2" y1="410.2" x2="212.4" y2="410.2"/>
	<path class="st1" d="M216.3,410.2c1.7,0,3.4,0,5.1,0"/>
	<path class="st1" d="M218.1,413.1c-7.5,0-14,0-21.4,0"/>
	<path class="st1" d="M192.9,413.1c-8.3,0-13.2,0-21.4,0"/>
	<line class="st1" x1="177.2" y1="416" x2="212.4" y2="416"/>
	<path class="st1" d="M212,418.9c-6.5,0-8.9,0-15.4,0"/>
	<path class="st1" d="M192.9,418.9c-6,0-9.3,0-15.4,0"/>
	<path class="st1" d="M182.9,421.7c10.9,0,12.5,0,23.4,0"/>
	<path class="st1" d="M206.3,424.6c-3.5,0-6.2,0-9.7,0"/>
	<path class="st1" d="M192.9,424.6c-3.3,0-6.1,0-9.4,0"/>
	<path class="st1" d="M188.7,427.5c-0.3,0-0.1,0,12.6,0"/>
	<path class="st1" d="M200.4,430.4c-1.2,0-2.5,0-3.7,0"/>
	<path class="st1" d="M192.9,430.4c-2.1,0-1.2,0-3.4,0"/>
	<path id="XMLID_26_" class="st2" d="M182.2,264.2c-2.9,1.6-8.9,46.1-11.2,50.4c-1.2,2.3-9.4,19.5-9.4,19.5
		c-6.7,9.3-7.4,22.7-7.7,34l0.8,11.3c2.3,12.4,5,23.5,14.5,31.5l21.6,20.7c1,1,2.1,2.1,3.9,2.2"/>
	<path id="XMLID_25_" class="st2" d="M182.5,264.2h-0.3"/>
	<path id="XMLID_24_" class="st2" d="M207.3,264.2h-0.4"/>
	<path id="XMLID_23_" class="st2" d="M194.8,433.9c1.8,0,2.9-1.2,3.9-2.2l21.6-20.7c9.4-8,12.2-19.2,14.5-31.5l0.9-11.3
		c-0.3-11.4-1-24.7-7.7-34c0,0-8.2-17.2-9.4-19.5c-2.3-4.3-8.3-48.9-11.2-50.4"/>
	<path id="XMLID_22_" class="st2" d="M177.2,274.7"/>
</g>
<g id="test_5_">
	<path class="st1" d="M240.4,230.6"/>
	<path class="st1" d="M227.4,253.1"/>
	<path class="st1" d="M243.4,231.3c-2.7,4.6-3.5,6-6.2,10.7"/>
	<path class="st1" d="M235.3,245.3c-2.1,3.6-4.2,7.3-6.3,10.9"/>
	<path class="st1" d="M233.1,255c5.7-10,6-10.4,11.8-20.4"/>
	<path class="st1" d="M249.1,233c-2.8,4.9-4.1,7-6.9,11.9"/>
	<path class="st1" d="M240.4,248.2c-2.9,5-3.9,6.8-6.8,11.8"/>
	<line class="st1" x1="237.3" y1="259.4" x2="250.4" y2="236.7"/>
	<path class="st1" d="M254.8,234.9c-3.2,5.5-4.3,7.5-7.5,12.9"/>
	<path class="st1" d="M245.4,251.1c-3,5.1-4.5,7.7-7.4,12.9"/>
	<line class="st1" x1="241.7" y1="263.5" x2="256" y2="238.6"/>
	<path class="st1" d="M260.2,236.8c-3.6,6.3-4.4,7.5-8,13.8"/>
	<path class="st1" d="M250.3,253.9c-2.9,4.9-5.1,8.8-8,13.8"/>
	<line class="st1" x1="246" y1="267.2" x2="261.4" y2="240.7"/>
	<path class="st1" d="M265.8,238.8c-4,6.9-4.5,7.9-8.5,14.8"/>
	<path class="st1" d="M255.4,256.9c-3.1,5.3-5.4,9.4-8.5,14.7"/>
	<line class="st1" x1="250.1" y1="271.9" x2="267.7" y2="241.4"/>
	<path class="st1" d="M271.4,240.8c-3.7,6.5-5.3,9.2-9,15.7"/>
	<path class="st1" d="M260.5,259.8c-3.2,5.6-5.8,10-9,15.6"/>
	<line class="st1" x1="255.1" y1="274.9" x2="272.7" y2="244.3"/>
	<path class="st1" d="M277,242.8c-3.6,6.3-6,10.3-9.6,16.6"/>
	<path class="st1" d="M265.5,262.7c-3.6,6.3-5.9,10.2-9.5,16.5"/>
	<line class="st1" x1="260.2" y1="277.8" x2="277.8" y2="247.3"/>
	<path class="st1" d="M282.5,244.7c-3.8,6.6-6.3,11-10.1,17.6"/>
	<path class="st1" d="M270.4,265.5c-3.7,6.4-6.4,11.1-10.1,17.5"/>
	<path class="st1" d="M262.6,285c0.6-1,0,0,0.6-1"/>
	<line class="st1" x1="265.1" y1="280.6" x2="282.7" y2="250.1"/>
	<path class="st1" d="M284.7,246.7c0.6-1.1,0,0,0.6-1.1"/>
	<path class="st1" d="M288.5,246.3c-4,6.9-7.1,12-11.1,18.9"/>
	<path class="st1" d="M275.5,268.5c-3.9,6.8-6.8,12.1-10.8,18.9"/>
	<path class="st1" d="M266.4,290c0.8-1.5,0.9-1.6,1.8-3.1"/>
	<line class="st1" x1="270.2" y1="283.5" x2="287.8" y2="253"/>
	<path class="st1" d="M289.7,249.6c0.9-1.5,0.9-1.5,1.8-3"/>
	<path class="st1" d="M294.8,246.7c-4.4,7.6-8,13.8-12.3,21.4"/>
	<path class="st1" d="M280.6,271.4c-4.3,7.4-8,13.8-12.3,21.3"/>
	<path class="st1" d="M270.2,295.2c1.3-2.3,1.8-3.1,3.1-5.3"/>
	<line class="st1" x1="275.2" y1="286.5" x2="292.8" y2="255.9"/>
	<path class="st1" d="M294.8,252.6c1.3-2.3,1.9-3.3,3.2-5.6"/>
	<path class="st1" d="M301.2,247.2c-5,8.6-8.8,15.2-13.7,23.8"/>
	<path class="st1" d="M285.6,274.3c-4.8,8.3-8.8,15.2-13.6,23.5"/>
	<path class="st1" d="M273.7,300.5c1.6-2.7,3-5.1,4.5-7.8"/>
	<line class="st1" x1="280.1" y1="289.3" x2="297.8" y2="258.8"/>
	<path class="st1" d="M299.7,255.4c2-3.5,2.6-4.5,4.6-8"/>
	<path class="st1" d="M307.5,247.7c-5.4,9.3-9.8,16.9-15.1,26.2"/>
	<path class="st1" d="M290.5,277.1c-5.3,8.7-10.2,17.1-15.1,26"/>
	<path class="st1" d="M277.2,306c2.1-3.7,3.9-6.7,6-10.4"/>
	<line class="st1" x1="285.2" y1="292.2" x2="302.8" y2="261.7"/>
	<path class="st1" d="M304.8,258.3c2.3-3.9,3.8-6.6,6.1-10.5"/>
	<path class="st1" d="M314.2,247.8c-5.5,10.3-10.4,18.6-16.7,29"/>
	<path class="st1" d="M295.6,280.1c-5.7,9.9-11,19.1-16.7,28.9"/>
	<path class="st1" d="M280.7,311.6c2.8-4.8,4.8-8.3,7.6-13.1"/>
	<line class="st1" x1="290.3" y1="295.1" x2="307.9" y2="264.6"/>
	<path class="st1" d="M309.8,261.2c2.6-4.5,5-8.7,7.6-13.2"/>
	<line class="st1" x1="320.2" y1="249.2" x2="302.5" y2="279.7"/>
	<line class="st1" x1="300.6" y1="283" x2="283.1" y2="313.4"/>
	<line class="st1" x1="284.9" y1="316.2" x2="293.4" y2="301.4"/>
	<line class="st1" x1="295.3" y1="298.1" x2="312.9" y2="267.5"/>
	<path class="st1" d="M314.9,264.2c3.3-5.8,5.2-9,8.6-14.8"/>
	<line class="st1" x1="325.2" y1="252.1" x2="307.6" y2="282.6"/>
	<line class="st1" x1="305.7" y1="285.9" x2="288.1" y2="316.3"/>
	<line class="st1" x1="289.2" y1="320" x2="298.3" y2="304.3"/>
	<line class="st1" x1="300.2" y1="300.9" x2="317.8" y2="270.4"/>
	<path class="st1" d="M319.8,267c3.3-5.8,5.8-10,9.1-15.8"/>
	<line class="st1" x1="330.1" y1="254.9" x2="312.5" y2="285.5"/>
	<line class="st1" x1="310.6" y1="288.7" x2="293.1" y2="319.2"/>
	<line class="st1" x1="293.9" y1="323.5" x2="303.3" y2="307.2"/>
	<line class="st1" x1="305.3" y1="303.8" x2="322.9" y2="273.3"/>
	<path class="st1" d="M324.9,269.9c3.3-5.8,6.1-10.6,9.4-16.4"/>
	<line class="st1" x1="335.2" y1="257.9" x2="317.6" y2="288.4"/>
	<line class="st1" x1="315.7" y1="291.7" x2="298.1" y2="322.1"/>
	<line class="st1" x1="298.8" y1="326.7" x2="308.4" y2="310.1"/>
	<line class="st1" x1="310.3" y1="306.7" x2="328" y2="276.2"/>
	<path class="st1" d="M329.9,272.8c3.5-6,6.2-10.7,9.6-16.7"/>
	<line class="st1" x1="340.2" y1="260.8" x2="322.6" y2="291.3"/>
	<line class="st1" x1="320.7" y1="294.6" x2="303.2" y2="325"/>
	<line class="st1" x1="303.8" y1="329.7" x2="313.4" y2="313"/>
	<line class="st1" x1="315.4" y1="309.7" x2="333" y2="279.1"/>
	<path class="st1" d="M335,275.8c3.3-5.7,6.5-11.3,9.8-17"/>
	<line class="st1" x1="345.3" y1="263.7" x2="327.7" y2="294.2"/>
	<line class="st1" x1="325.8" y1="297.5" x2="308.2" y2="327.9"/>
	<line class="st1" x1="309" y1="332.2" x2="318.4" y2="315.9"/>
	<line class="st1" x1="320.3" y1="312.5" x2="337.9" y2="282"/>
	<path class="st1" d="M339.9,278.6c3.1-5.4,6.2-10.8,9.4-16.2"/>
	<line class="st1" x1="350.2" y1="266.5" x2="332.6" y2="297.1"/>
	<line class="st1" x1="330.7" y1="300.3" x2="313.1" y2="330.8"/>
	<line class="st1" x1="314.3" y1="334.6" x2="323.4" y2="318.8"/>
	<line class="st1" x1="325.4" y1="315.4" x2="343" y2="284.9"/>
	<path class="st1" d="M344.9,281.5c3.3-5.7,5.8-10.1,9.1-15.8"/>
	<line class="st1" x1="355.3" y1="269.5" x2="337.7" y2="300"/>
	<line class="st1" x1="335.8" y1="303.3" x2="318.2" y2="333.7"/>
	<line class="st1" x1="320" y1="336.4" x2="328.5" y2="321.7"/>
	<line class="st1" x1="330.4" y1="318.3" x2="348" y2="287.8"/>
	<path class="st1" d="M350,284.4c3.6-6.2,4.9-8.5,8.5-14.7"/>
	<line class="st1" x1="360.3" y1="272.4" x2="342.7" y2="302.9"/>
	<line class="st1" x1="340.8" y1="306.2" x2="323.3" y2="336.6"/>
	<line class="st1" x1="325.8" y1="338" x2="333.5" y2="324.6"/>
	<line class="st1" x1="335.5" y1="321.2" x2="353.1" y2="290.7"/>
	<path class="st1" d="M355.1,287.4c3.1-5.5,4.7-8.1,7.8-13.5"/>
	<line class="st1" x1="364.8" y1="276.4" x2="347.8" y2="305.8"/>
	<line class="st1" x1="345.9" y1="309.1" x2="328.9" y2="338.6"/>
	<path class="st1" d="M331.8,339c2.7-4.7,3.9-6.8,6.6-11.5"/>
	<line class="st1" x1="340.4" y1="324.1" x2="358" y2="293.6"/>
	<path class="st1" d="M360,290.2c2.6-4.5,4-7,6.6-11.5"/>
	<path class="st1" d="M368.4,281.5c-5.7,9.9-10,17.3-15.7,27.2"/>
	<path class="st1" d="M350.8,311.9c-5.5,9.5-10.3,17.8-15.7,27.2"/>
	<path class="st1" d="M338.5,339.1c1.8-3,3.3-5.7,5-8.7"/>
	<line class="st1" x1="345.5" y1="327" x2="363.1" y2="296.5"/>
	<path class="st1" d="M365,293.1c1.9-3.3,3.1-5.4,5-8.7"/>
	<path class="st1" d="M371.5,287.8c-4.6,7.9-9.2,15.9-13.7,23.8"/>
	<path class="st1" d="M355.9,314.9c-4.7,8.1-9,15.6-13.7,23.7"/>
	<path class="st1" d="M346.1,337.6c1.1-2,1.3-2.3,2.5-4.3"/>
	<line class="st1" x1="350.5" y1="329.9" x2="368.1" y2="299.4"/>
	<path class="st1" d="M370.1,296c0.9-1.5,1.7-3,2.6-4.5"/>
	<path class="st1" d="M373.5,295.9c-3.7,6.5-7,12.1-10.7,18.6"/>
	<path class="st1" d="M360.9,317.8c-4.1,7.1-6.6,11.4-10.7,18.6"/>
	<line class="st1" x1="355.6" y1="332.8" x2="373.2" y2="302.3"/>
	<path class="st1" d="M375.5,304.1c-3.2,5.6-4.4,7.7-7.7,13.3"/>
	<path class="st1" d="M366,320.7c-3,5.2-4.7,8.1-7.7,13.3"/>
	<path class="st1" d="M363.4,330.7c5.5-9.4,6.3-10.9,11.7-20.3"/>
	<path class="st1" d="M377.6,311.9c-1.7,3-3.1,5.4-4.8,8.4"/>
	<path class="st1" d="M370.9,323.5c-1.7,2.9-3,5.3-4.7,8.2"/>
	<path class="st1" d="M371.3,328.6c-0.2,0.3-0.1,0.1,6.3-10.9"/>
	<path class="st1" d="M379.7,319.9c-0.6,1.1-1.2,2.2-1.9,3.2"/>
	<path class="st1" d="M375.9,326.5c-1.1,1.9-0.6,1-1.7,2.9"/>
	<path id="XMLID_31_" class="st2" d="M226.7,252.5c-0.1,3.3,35.5,30.7,38.1,34.9c1.4,2.2,12.2,17.9,12.2,17.9
		c4.7,10.5,15.9,17.7,25.6,23.7l10.1,5c11.8,4.2,22.9,7.4,34.6,3.2l28.7-8.3c1.3-0.4,2.8-0.8,3.8-2.3"/>
	<path id="XMLID_30_" class="st2" d="M226.8,252.3l-0.1,0.2"/>
	<path id="XMLID_29_" class="st2" d="M239.2,230.9l-0.2,0.4"/>
	<path id="XMLID_28_" class="st2" d="M379.9,326.5c0.9-1.6,0.4-3.1,0.1-4.5l-7.1-29c-2.2-12.2-10.5-20.2-20.1-28.4l-9.3-6.4
		c-10-5.4-21.9-11.5-33.3-10.4c0,0-19-1.5-21.6-1.6c-4.9-0.2-46.5-17.2-49.2-15.5"/>
	<path id="XMLID_27_" class="st2" d="M233.2,262.2"/>
</g>
</svg>
