<svg xmlns="http://www.w3.org/2000/svg" height="60mm" version="1.1" viewBox="0 -10 150 60" width="150mm">
<!--
FlexTest - 
Created with Boxes.py (https://festi.info/boxes.py)
Creation date: 2019-12-16 12:49:27
Command line (remove spaces beteen dashes): boxes FlexTest - -Flex_stretch=1.05 - -Flex_connection=1.0 - -Flex_distance=0.5 - -Flex_width=5 - -x=100 - -y=26 - -thickness=1 - -format=svg - -tabs=0.0 - -debug=0 - -reference=0 - -burn=0.1
Url: http://localhost:8008/FlexTest?Flex_stretch=1.05&Flex_connection=1.0&Flex_distance=0.5&Flex_width=5&x=100&y=26&thickness=1&format=svg&tabs=0.0&debug=0&reference=0&burn=0.1&render=1
SettingsUrl: http://localhost:8008/FlexTest?Flex_stretch=1.05&Flex_connection=1.0&Flex_distance=0.5&Flex_width=5&x=100&y=26&thickness=1&format=svg&tabs=0.0&debug=0&reference=0&burn=0.1
--><g id="surface6361">
<path d="M 0 0 H 10 M 10.5 0 V 5.039062 M 10.5 6.039062 V 15.121094 M 10.5 16.121094 V 25.199219 M 11 26.199219 V 21.160156 M 11 20.160156 V 11.078125 M 11 10.078125 V 1 M 11.5 0 V 5.039062 M 11.5 6.039062 V 15.121094 M 11.5 16.121094 V 25.199219 M 12 26.199219 V 21.160156 M 12 20.160156 V 11.078125 M 12 10.078125 V 1 M 12.5 0 V 5.039062 M 12.5 6.039062 V 15.121094 M 12.5 16.121094 V 25.199219 M 13 26.199219 V 21.160156 M 13 20.160156 V 11.078125 M 13 10.078125 V 1 M 13.5 0 V 5.039062 M 13.5 6.039062 V 15.121094 M 13.5 16.121094 V 25.199219 M 14 26.199219 V 21.160156 M 14 20.160156 V 11.078125 M 14 10.078125 V 1 M 14.5 0 V 5.039062 M 14.5 6.039062 V 15.121094 M 14.5 16.121094 V 25.199219 M 15 26.199219 V 21.160156 M 15 20.160156 V 11.078125 M 15 10.078125 V 1 M 15.5 0 V 5.039062 M 15.5 6.039062 V 15.121094 M 15.5 16.121094 V 25.199219 M 16 26.199219 V 21.160156 M 16 20.160156 V 11.078125 M 16 10.078125 V 1 M 16.5 0 V 5.039062 M 16.5 6.039062 V 15.121094 M 16.5 16.121094 V 25.199219 M 17 26.199219 V 21.160156 M 17 20.160156 V 11.078125 M 17 10.078125 V 1 M 17.5 0 V 5.039062 M 17.5 6.039062 V 15.121094 M 17.5 16.121094 V 25.199219 M 18 26.199219 V 21.160156 M 18 20.160156 V 11.078125 M 18 10.078125 V 1 M 18.5 0 V 5.039062 M 18.5 6.039062 V 15.121094 M 18.5 16.121094 V 25.199219 M 19 26.199219 V 21.160156 M 19 20.160156 V 11.078125 M 19 10.078125 V 1 M 19.5 0 V 5.039062 M 19.5 6.039062 V 15.121094 M 19.5 16.121094 V 25.199219 M 20 26.199219 V 21.160156 M 20 20.160156 V 11.078125 M 20 10.078125 V 1 M 20.5 0 V 5.039062 M 20.5 6.039062 V 15.121094 M 20.5 16.121094 V 25.199219 M 21 26.199219 V 21.160156 M 21 20.160156 V 11.078125 M 21 10.078125 V 1 M 21.5 0 V 5.039062 M 21.5 6.039062 V 15.121094 M 21.5 16.121094 V 25.199219 M 22 26.199219 V 21.160156 M 22 20.160156 V 11.078125 M 22 10.078125 V 1 M 22.5 0 V 5.039062 M 22.5 6.039062 V 15.121094 M 22.5 16.121094 V 25.199219 M 23 26.199219 V 21.160156 M 23 20.160156 V 11.078125 M 23 10.078125 V 1 M 23.5 0 V 5.039062 M 23.5 6.039062 V 15.121094 M 23.5 16.121094 V 25.199219 M 24 26.199219 V 21.160156 M 24 20.160156 V 11.078125 M 24 10.078125 V 1 M 24.5 0 V 5.039062 M 24.5 6.039062 V 15.121094 M 24.5 16.121094 V 25.199219 M 25 26.199219 V 21.160156 M 25 20.160156 V 11.078125 M 25 10.078125 V 1 M 25.5 0 V 5.039062 M 25.5 6.039062 V 15.121094 M 25.5 16.121094 V 25.199219 M 26 26.199219 V 21.160156 M 26 20.160156 V 11.078125 M 26 10.078125 V 1 M 26.5 0 V 5.039062 M 26.5 6.039062 V 15.121094 M 26.5 16.121094 V 25.199219 M 27 26.199219 V 21.160156 M 27 20.160156 V 11.078125 M 27 10.078125 V 1 M 27.5 0 V 5.039062 M 27.5 6.039062 V 15.121094 M 27.5 16.121094 V 25.199219 M 28 26.199219 V 21.160156 M 28 20.160156 V 11.078125 M 28 10.078125 V 1 M 28.5 0 V 5.039062 M 28.5 6.039062 V 15.121094 M 28.5 16.121094 V 25.199219 M 29 26.199219 V 21.160156 M 29 20.160156 V 11.078125 M 29 10.078125 V 1 M 29.5 0 V 5.039062 M 29.5 6.039062 V 15.121094 M 29.5 16.121094 V 25.199219 M 30 26.199219 V 21.160156 M 30 20.160156 V 11.078125 M 30 10.078125 V 1 M 30.5 0 V 5.039062 M 30.5 6.039062 V 15.121094 M 30.5 16.121094 V 25.199219 M 31 26.199219 V 21.160156 M 31 20.160156 V 11.078125 M 31 10.078125 V 1 M 31.5 0 V 5.039062 M 31.5 6.039062 V 15.121094 M 31.5 16.121094 V 25.199219 M 32 26.199219 V 21.160156 M 32 20.160156 V 11.078125 M 32 10.078125 V 1 M 32.5 0 V 5.039062 M 32.5 6.039062 V 15.121094 M 32.5 16.121094 V 25.199219 M 33 26.199219 V 21.160156 M 33 20.160156 V 11.078125 M 33 10.078125 V 1 M 33.5 0 V 5.039062 M 33.5 6.039062 V 15.121094 M 33.5 16.121094 V 25.199219 M 34 26.199219 V 21.160156 M 34 20.160156 V 11.078125 M 34 10.078125 V 1 M 34.5 0 V 5.039062 M 34.5 6.039062 V 15.121094 M 34.5 16.121094 V 25.199219 M 35 26.199219 V 21.160156 M 35 20.160156 V 11.078125 M 35 10.078125 V 1 M 35.5 0 V 5.039062 M 35.5 6.039062 V 15.121094 M 35.5 16.121094 V 25.199219 M 36 26.199219 V 21.160156 M 36 20.160156 V 11.078125 M 36 10.078125 V 1 M 36.5 0 V 5.039062 M 36.5 6.039062 V 15.121094 M 36.5 16.121094 V 25.199219 M 37 26.199219 V 21.160156 M 37 20.160156 V 11.078125 M 37 10.078125 V 1 M 37.5 0 V 5.039062 M 37.5 6.039062 V 15.121094 M 37.5 16.121094 V 25.199219 M 38 26.199219 V 21.160156 M 38 20.160156 V 11.078125 M 38 10.078125 V 1 M 38.5 0 V 5.039062 M 38.5 6.039062 V 15.121094 M 38.5 16.121094 V 25.199219 M 39 26.199219 V 21.160156 M 39 20.160156 V 11.078125 M 39 10.078125 V 1 M 39.5 0 V 5.039062 M 39.5 6.039062 V 15.121094 M 39.5 16.121094 V 25.199219 M 40 26.199219 V 21.160156 M 40 20.160156 V 11.078125 M 40 10.078125 V 1 M 40.5 0 V 5.039062 M 40.5 6.039062 V 15.121094 M 40.5 16.121094 V 25.199219 M 41 26.199219 V 21.160156 M 41 20.160156 V 11.078125 M 41 10.078125 V 1 M 41.5 0 V 5.039062 M 41.5 6.039062 V 15.121094 M 41.5 16.121094 V 25.199219 M 42 26.199219 V 21.160156 M 42 20.160156 V 11.078125 M 42 10.078125 V 1 M 42.5 0 V 5.039062 M 42.5 6.039062 V 15.121094 M 42.5 16.121094 V 25.199219 M 43 26.199219 V 21.160156 M 43 20.160156 V 11.078125 M 43 10.078125 V 1 M 43.5 0 V 5.039062 M 43.5 6.039062 V 15.121094 M 43.5 16.121094 V 25.199219 M 44 26.199219 V 21.160156 M 44 20.160156 V 11.078125 M 44 10.078125 V 1 M 44.5 0 V 5.039062 M 44.5 6.039062 V 15.121094 M 44.5 16.121094 V 25.199219 M 45 26.199219 V 21.160156 M 45 20.160156 V 11.078125 M 45 10.078125 V 1 M 45.5 0 V 5.039062 M 45.5 6.039062 V 15.121094 M 45.5 16.121094 V 25.199219 M 46 26.199219 V 21.160156 M 46 20.160156 V 11.078125 M 46 10.078125 V 1 M 46.5 0 V 5.039062 M 46.5 6.039062 V 15.121094 M 46.5 16.121094 V 25.199219 M 47 26.199219 V 21.160156 M 47 20.160156 V 11.078125 M 47 10.078125 V 1 M 47.5 0 V 5.039062 M 47.5 6.039062 V 15.121094 M 47.5 16.121094 V 25.199219 M 48 26.199219 V 21.160156 M 48 20.160156 V 11.078125 M 48 10.078125 V 1 M 48.5 0 V 5.039062 M 48.5 6.039062 V 15.121094 M 48.5 16.121094 V 25.199219 M 49 26.199219 V 21.160156 M 49 20.160156 V 11.078125 M 49 10.078125 V 1 M 49.5 0 V 5.039062 M 49.5 6.039062 V 15.121094 M 49.5 16.121094 V 25.199219 M 50 26.199219 V 21.160156 M 50 20.160156 V 11.078125 M 50 10.078125 V 1 M 50.5 0 V 5.039062 M 50.5 6.039062 V 15.121094 M 50.5 16.121094 V 25.199219 M 51 26.199219 V 21.160156 M 51 20.160156 V 11.078125 M 51 10.078125 V 1 M 51.5 0 V 5.039062 M 51.5 6.039062 V 15.121094 M 51.5 16.121094 V 25.199219 M 52 26.199219 V 21.160156 M 52 20.160156 V 11.078125 M 52 10.078125 V 1 M 52.5 0 V 5.039062 M 52.5 6.039062 V 15.121094 M 52.5 16.121094 V 25.199219 M 53 26.199219 V 21.160156 M 53 20.160156 V 11.078125 M 53 10.078125 V 1 M 53.5 0 V 5.039062 M 53.5 6.039062 V 15.121094 M 53.5 16.121094 V 25.199219 M 54 26.199219 V 21.160156 M 54 20.160156 V 11.078125 M 54 10.078125 V 1 M 54.5 0 V 5.039062 M 54.5 6.039062 V 15.121094 M 54.5 16.121094 V 25.199219 M 55 26.199219 V 21.160156 M 55 20.160156 V 11.078125 M 55 10.078125 V 1 M 55.5 0 V 5.039062 M 55.5 6.039062 V 15.121094 M 55.5 16.121094 V 25.199219 M 56 26.199219 V 21.160156 M 56 20.160156 V 11.078125 M 56 10.078125 V 1 M 56.5 0 V 5.039062 M 56.5 6.039062 V 15.121094 M 56.5 16.121094 V 25.199219 M 57 26.199219 V 21.160156 M 57 20.160156 V 11.078125 M 57 10.078125 V 1 M 57.5 0 V 5.039062 M 57.5 6.039062 V 15.121094 M 57.5 16.121094 V 25.199219 M 58 26.199219 V 21.160156 M 58 20.160156 V 11.078125 M 58 10.078125 V 1 M 58.5 0 V 5.039062 M 58.5 6.039062 V 15.121094 M 58.5 16.121094 V 25.199219 M 59 26.199219 V 21.160156 M 59 20.160156 V 11.078125 M 59 10.078125 V 1 M 59.5 0 V 5.039062 M 59.5 6.039062 V 15.121094 M 59.5 16.121094 V 25.199219 M 60 26.199219 V 21.160156 M 60 20.160156 V 11.078125 M 60 10.078125 V 1 M 60.5 0 V 5.039062 M 60.5 6.039062 V 15.121094 M 60.5 16.121094 V 25.199219 M 61 26.199219 V 21.160156 M 61 20.160156 V 11.078125 M 61 10.078125 V 1 M 61.5 0 V 5.039062 M 61.5 6.039062 V 15.121094 M 61.5 16.121094 V 25.199219 M 62 26.199219 V 21.160156 M 62 20.160156 V 11.078125 M 62 10.078125 V 1 M 62.5 0 V 5.039062 M 62.5 6.039062 V 15.121094 M 62.5 16.121094 V 25.199219 M 63 26.199219 V 21.160156 M 63 20.160156 V 11.078125 M 63 10.078125 V 1 M 63.5 0 V 5.039062 M 63.5 6.039062 V 15.121094 M 63.5 16.121094 V 25.199219 M 64 26.199219 V 21.160156 M 64 20.160156 V 11.078125 M 64 10.078125 V 1 M 64.5 0 V 5.039062 M 64.5 6.039062 V 15.121094 M 64.5 16.121094 V 25.199219 M 65 26.199219 V 21.160156 M 65 20.160156 V 11.078125 M 65 10.078125 V 1 M 65.5 0 V 5.039062 M 65.5 6.039062 V 15.121094 M 65.5 16.121094 V 25.199219 M 66 26.199219 V 21.160156 M 66 20.160156 V 11.078125 M 66 10.078125 V 1 M 66.5 0 V 5.039062 M 66.5 6.039062 V 15.121094 M 66.5 16.121094 V 25.199219 M 67 26.199219 V 21.160156 M 67 20.160156 V 11.078125 M 67 10.078125 V 1 M 67.5 0 V 5.039062 M 67.5 6.039062 V 15.121094 M 67.5 16.121094 V 25.199219 M 68 26.199219 V 21.160156 M 68 20.160156 V 11.078125 M 68 10.078125 V 1 M 68.5 0 V 5.039062 M 68.5 6.039062 V 15.121094 M 68.5 16.121094 V 25.199219 M 69 26.199219 V 21.160156 M 69 20.160156 V 11.078125 M 69 10.078125 V 1 M 69.5 0 V 5.039062 M 69.5 6.039062 V 15.121094 M 69.5 16.121094 V 25.199219 M 70 26.199219 V 21.160156 M 70 20.160156 V 11.078125 M 70 10.078125 V 1 M 70.5 0 V 5.039062 M 70.5 6.039062 V 15.121094 M 70.5 16.121094 V 25.199219 M 71 26.199219 V 21.160156 M 71 20.160156 V 11.078125 M 71 10.078125 V 1 M 71.5 0 V 5.039062 M 71.5 6.039062 V 15.121094 M 71.5 16.121094 V 25.199219 M 72 26.199219 V 21.160156 M 72 20.160156 V 11.078125 M 72 10.078125 V 1 M 72.5 0 V 5.039062 M 72.5 6.039062 V 15.121094 M 72.5 16.121094 V 25.199219 M 73 26.199219 V 21.160156 M 73 20.160156 V 11.078125 M 73 10.078125 V 1 M 73.5 0 V 5.039062 M 73.5 6.039062 V 15.121094 M 73.5 16.121094 V 25.199219 M 74 26.199219 V 21.160156 M 74 20.160156 V 11.078125 M 74 10.078125 V 1 M 74.5 0 V 5.039062 M 74.5 6.039062 V 15.121094 M 74.5 16.121094 V 25.199219 M 75 26.199219 V 21.160156 M 75 20.160156 V 11.078125 M 75 10.078125 V 1 M 75.5 0 V 5.039062 M 75.5 6.039062 V 15.121094 M 75.5 16.121094 V 25.199219 M 76 26.199219 V 21.160156 M 76 20.160156 V 11.078125 M 76 10.078125 V 1 M 76.5 0 V 5.039062 M 76.5 6.039062 V 15.121094 M 76.5 16.121094 V 25.199219 M 77 26.199219 V 21.160156 M 77 20.160156 V 11.078125 M 77 10.078125 V 1 M 77.5 0 V 5.039062 M 77.5 6.039062 V 15.121094 M 77.5 16.121094 V 25.199219 M 78 26.199219 V 21.160156 M 78 20.160156 V 11.078125 M 78 10.078125 V 1 M 78.5 0 V 5.039062 M 78.5 6.039062 V 15.121094 M 78.5 16.121094 V 25.199219 M 79 26.199219 V 21.160156 M 79 20.160156 V 11.078125 M 79 10.078125 V 1 M 79.5 0 V 5.039062 M 79.5 6.039062 V 15.121094 M 79.5 16.121094 V 25.199219 M 80 26.199219 V 21.160156 M 80 20.160156 V 11.078125 M 80 10.078125 V 1 M 80.5 0 V 5.039062 M 80.5 6.039062 V 15.121094 M 80.5 16.121094 V 25.199219 M 81 26.199219 V 21.160156 M 81 20.160156 V 11.078125 M 81 10.078125 V 1 M 81.5 0 V 5.039062 M 81.5 6.039062 V 15.121094 M 81.5 16.121094 V 25.199219 M 82 26.199219 V 21.160156 M 82 20.160156 V 11.078125 M 82 10.078125 V 1 M 82.5 0 V 5.039062 M 82.5 6.039062 V 15.121094 M 82.5 16.121094 V 25.199219 M 83 26.199219 V 21.160156 M 83 20.160156 V 11.078125 M 83 10.078125 V 1 M 83.5 0 V 5.039062 M 83.5 6.039062 V 15.121094 M 83.5 16.121094 V 25.199219 M 84 26.199219 V 21.160156 M 84 20.160156 V 11.078125 M 84 10.078125 V 1 M 84.5 0 V 5.039062 M 84.5 6.039062 V 15.121094 M 84.5 16.121094 V 25.199219 M 85 26.199219 V 21.160156 M 85 20.160156 V 11.078125 M 85 10.078125 V 1 M 85.5 0 V 5.039062 M 85.5 6.039062 V 15.121094 M 85.5 16.121094 V 25.199219 M 86 26.199219 V 21.160156 M 86 20.160156 V 11.078125 M 86 10.078125 V 1 M 86.5 0 V 5.039062 M 86.5 6.039062 V 15.121094 M 86.5 16.121094 V 25.199219 M 87 26.199219 V 21.160156 M 87 20.160156 V 11.078125 M 87 10.078125 V 1 M 87.5 0 V 5.039062 M 87.5 6.039062 V 15.121094 M 87.5 16.121094 V 25.199219 M 88 26.199219 V 21.160156 M 88 20.160156 V 11.078125 M 88 10.078125 V 1 M 88.5 0 V 5.039062 M 88.5 6.039062 V 15.121094 M 88.5 16.121094 V 25.199219 M 89 26.199219 V 21.160156 M 89 20.160156 V 11.078125 M 89 10.078125 V 1 M 89.5 0 V 5.039062 M 89.5 6.039062 V 15.121094 M 89.5 16.121094 V 25.199219 M 90 26.199219 V 21.160156 M 90 20.160156 V 11.078125 M 90 10.078125 V 1 M 90.5 0 V 5.039062 M 90.5 6.039062 V 15.121094 M 90.5 16.121094 V 25.199219 M 91 26.199219 V 21.160156 M 91 20.160156 V 11.078125 M 91 10.078125 V 1 M 91.5 0 V 5.039062 M 91.5 6.039062 V 15.121094 M 91.5 16.121094 V 25.199219 M 92 26.199219 V 21.160156 M 92 20.160156 V 11.078125 M 92 10.078125 V 1 M 92.5 0 V 5.039062 M 92.5 6.039062 V 15.121094 M 92.5 16.121094 V 25.199219 M 93 26.199219 V 21.160156 M 93 20.160156 V 11.078125 M 93 10.078125 V 1 M 93.5 0 V 5.039062 M 93.5 6.039062 V 15.121094 M 93.5 16.121094 V 25.199219 M 94 26.199219 V 21.160156 M 94 20.160156 V 11.078125 M 94 10.078125 V 1 M 94.5 0 V 5.039062 M 94.5 6.039062 V 15.121094 M 94.5 16.121094 V 25.199219 M 95 26.199219 V 21.160156 M 95 20.160156 V 11.078125 M 95 10.078125 V 1 M 95.5 0 V 5.039062 M 95.5 6.039062 V 15.121094 M 95.5 16.121094 V 25.199219 M 96 26.199219 V 21.160156 M 96 20.160156 V 11.078125 M 96 10.078125 V 1 M 96.5 0 V 5.039062 M 96.5 6.039062 V 15.121094 M 96.5 16.121094 V 25.199219 M 97 26.199219 V 21.160156 M 97 20.160156 V 11.078125 M 97 10.078125 V 1 M 97.5 0 V 5.039062 M 97.5 6.039062 V 15.121094 M 97.5 16.121094 V 25.199219 M 98 26.199219 V 21.160156 M 98 20.160156 V 11.078125 M 98 10.078125 V 1 M 98.5 0 V 5.039062 M 98.5 6.039062 V 15.121094 M 98.5 16.121094 V 25.199219 M 99 26.199219 V 21.160156 M 99 20.160156 V 11.078125 M 99 10.078125 V 1 M 99.5 0 V 5.039062 M 99.5 6.039062 V 15.121094 M 99.5 16.121094 V 25.199219 M 100 26.199219 V 21.160156 M 100 20.160156 V 11.078125 M 100 10.078125 V 1 M 100.5 0 V 5.039062 M 100.5 6.039062 V 15.121094 M 100.5 16.121094 V 25.199219 M 101 26.199219 V 21.160156 M 101 20.160156 V 11.078125 M 101 10.078125 V 1 M 101.5 0 V 5.039062 M 101.5 6.039062 V 15.121094 M 101.5 16.121094 V 25.199219 M 102 26.199219 V 21.160156 M 102 20.160156 V 11.078125 M 102 10.078125 V 1 M 102.5 0 V 5.039062 M 102.5 6.039062 V 15.121094 M 102.5 16.121094 V 25.199219 M 103 26.199219 V 21.160156 M 103 20.160156 V 11.078125 M 103 10.078125 V 1 M 103.5 0 V 5.039062 M 103.5 6.039062 V 15.121094 M 103.5 16.121094 V 25.199219 M 104 26.199219 V 21.160156 M 104 20.160156 V 11.078125 M 104 10.078125 V 1 M 104.5 0 V 5.039062 M 104.5 6.039062 V 15.121094 M 104.5 16.121094 V 25.199219 M 105 26.199219 V 21.160156 M 105 20.160156 V 11.078125 M 105 10.078125 V 1 M 105.5 0 V 5.039062 M 105.5 6.039062 V 15.121094 M 105.5 16.121094 V 25.199219 M 106 26.199219 V 21.160156 M 106 20.160156 V 11.078125 M 106 10.078125 V 1 M 106.5 0 V 5.039062 M 106.5 6.039062 V 15.121094 M 106.5 16.121094 V 25.199219 M 107 26.199219 V 21.160156 M 107 20.160156 V 11.078125 M 107 10.078125 V 1 M 107.5 0 V 5.039062 M 107.5 6.039062 V 15.121094 M 107.5 16.121094 V 25.199219 M 108 26.199219 V 21.160156 M 108 20.160156 V 11.078125 M 108 10.078125 V 1 M 108.5 0 V 5.039062 M 108.5 6.039062 V 15.121094 M 108.5 16.121094 V 25.199219 M 109 26.199219 V 21.160156 M 109 20.160156 V 11.078125 M 109 10.078125 V 1 M 109.5 0 V 5.039062 M 109.5 6.039062 V 15.121094 M 109.5 16.121094 V 25.199219 M 10 0 H 110 L 120 0 C 120.054688 0 120.101562 0.0429688 120.101562 0.101562 V 26.101562 C 120.101562 26.15625 120.058594 26.203125 120 26.203125 H -0.000000000000006217 C -0.0546875 26.203125 -0.101563 26.160156 -0.101563 26.101562 L -0.101562 0.101562 C -0.101562 0.046875 -0.0585938 0 0 0 " style="fill:none;stroke-width:0.2;stroke-linecap:butt;stroke-linejoin:miter;stroke:rgb(0%,0%,0%);stroke-opacity:1;stroke-miterlimit:10;" transform="matrix(1.0000,0.0000,0.0000,-1.0000,10.1016,36.2031)"/>
</g>
</svg>